<svg width="327" height="261" viewBox="0 0 327 261" fill="none" xmlns="http://www.w3.org/2000/svg">
<rect width="327" height="261" fill="#EBEBEB"/>
<path d="M142.706 147.053C140.37 147.053 138.342 146.638 136.621 145.808C134.93 144.979 133.609 143.842 132.656 142.397C131.703 140.953 131.15 139.308 130.997 137.464H137.082C137.297 138.663 137.912 139.677 138.926 140.507C139.94 141.337 141.215 141.752 142.752 141.752C143.858 141.752 144.826 141.475 145.656 140.922C146.486 140.369 147.132 139.631 147.592 138.709C148.054 137.756 148.284 136.681 148.284 135.482C148.284 134.253 148.038 133.192 147.546 132.301C147.085 131.41 146.44 130.718 145.61 130.227C144.811 129.735 143.889 129.489 142.844 129.489C141.523 129.489 140.386 129.812 139.433 130.457C138.511 131.072 137.85 131.825 137.451 132.716H131.411L134.085 114.23H152.203V119.67H138.695L137.358 126.861C138.034 126.155 138.941 125.571 140.078 125.11C141.215 124.649 142.491 124.418 143.905 124.418C145.656 124.418 147.178 124.725 148.468 125.34C149.759 125.955 150.835 126.785 151.695 127.829C152.556 128.844 153.201 130.012 153.632 131.333C154.062 132.624 154.277 133.992 154.277 135.436C154.277 137.126 153.985 138.678 153.401 140.092C152.848 141.506 152.049 142.735 151.004 143.78C149.99 144.825 148.776 145.639 147.362 146.223C145.979 146.777 144.427 147.053 142.706 147.053ZM162.532 146.731C161.364 146.731 160.427 146.392 159.72 145.716C159.013 145.009 158.66 144.149 158.66 143.135C158.66 142.12 159.013 141.275 159.72 140.599C160.427 139.892 161.364 139.539 162.532 139.539C163.639 139.539 164.545 139.892 165.252 140.599C165.959 141.275 166.312 142.12 166.312 143.135C166.312 144.149 165.959 145.009 165.252 145.716C164.545 146.392 163.639 146.731 162.532 146.731ZM162.532 129.858C161.364 129.858 160.427 129.52 159.72 128.844C159.013 128.137 158.66 127.276 158.66 126.262C158.66 125.248 159.013 124.403 159.72 123.727C160.427 123.02 161.364 122.666 162.532 122.666C163.639 122.666 164.545 123.02 165.252 123.727C165.959 124.403 166.312 125.248 166.312 126.262C166.312 127.276 165.959 128.137 165.252 128.844C164.545 129.52 163.639 129.858 162.532 129.858ZM186.315 146.5V140.645H170.457V135.713L185.486 114.23H192.539V135.252H196.734V140.645H192.539V146.5H186.315ZM177.095 135.252H186.73V121.099L177.095 135.252Z" fill="white"/>
</svg>
