<svg xmlns="http://www.w3.org/2000/svg" width="384" height="254" fill="none"><path fill="#fff" d="M0 0h384v254H0z"/><path fill="#000" d="M43.225 121.579q-2.365 0-4.018-.907-1.652-.939-2.56-2.43a8.1 8.1 0 0 1-1.069-3.208h4.083q.291 1.426 1.199 2.204.939.745 2.43.745 1.393 0 2.397-.81 1.037-.842 1.62-2.495.584-1.685.648-4.147v-.357q-.453.843-1.328 1.556a7 7 0 0 1-1.977 1.069 6.7 6.7 0 0 1-2.3.389 7.16 7.16 0 0 1-3.5-.908 7 7 0 0 1-2.656-2.559q-1.004-1.653-1.004-3.921 0-2.073 1.004-3.823a7.5 7.5 0 0 1 2.786-2.786q1.782-1.07 4.115-1.07 2.592 0 4.342.94t2.786 2.527a10.6 10.6 0 0 1 1.523 3.564 16.2 16.2 0 0 1 .486 3.953q0 3.791-1.07 6.61-1.036 2.786-3.045 4.341-2.009 1.523-4.892 1.523m.162-12.085q1.166 0 2.041-.486a3.7 3.7 0 0 0 1.426-1.328q.55-.875.55-1.977 0-1.133-.55-2.009a3.4 3.4 0 0 0-1.426-1.328q-.907-.486-2.074-.486-1.134 0-2.04.486a3.7 3.7 0 0 0-1.426 1.328q-.486.843-.486 1.977 0 1.133.486 2.009a3.7 3.7 0 0 0 1.425 1.328q.907.486 2.074.486m21.895 12.085q-3.079 0-5.314-1.49t-3.434-4.115q-1.167-2.656-1.167-6.124 0-3.466 1.167-6.091 1.198-2.656 3.402-4.147 2.235-1.49 5.346-1.49 3.11 0 5.313 1.49 2.236 1.49 3.402 4.147 1.2 2.625 1.199 6.091 0 3.468-1.199 6.124-1.165 2.624-3.402 4.115-2.203 1.49-5.313 1.49m0-3.92q1.62 0 2.85-.94 1.233-.972 1.912-2.721.713-1.75.713-4.148 0-2.43-.713-4.147-.68-1.75-1.911-2.689t-2.851-.94-2.852.94q-1.23.94-1.944 2.689-.68 1.717-.68 4.147 0 2.398.68 4.148.714 1.749 1.944 2.721 1.232.94 2.852.94M18.402 169.619v-8.4h3.132q1.02 0 1.68.348t.984.936q.324.576.324 1.284 0 .672-.312 1.26-.312.576-.984.936-.66.348-1.704.348h-1.5v3.288zm4.356 0-1.728-3.696h1.752l1.824 3.696zm-2.736-4.464h1.416q.732 0 1.08-.36t.348-.948-.348-.924q-.336-.348-1.08-.348h-1.416zm8.455 4.608q-.912 0-1.62-.384a2.86 2.86 0 0 1-1.092-1.092q-.384-.708-.384-1.632 0-.948.384-1.668a2.9 2.9 0 0 1 1.092-1.14q.696-.42 1.62-.42.9 0 1.572.396t1.044 1.068.372 1.524v.276q0 .144-.024.3h-4.908v-.984h3.3q-.036-.588-.42-.924-.372-.336-.936-.336a1.54 1.54 0 0 0-.756.192q-.348.18-.552.564-.192.384-.192.972v.348q0 .492.18.864.192.36.528.564.336.192.78.192t.732-.192q.3-.192.444-.492h1.656q-.168.564-.564 1.02a2.8 2.8 0 0 1-.972.72 3.05 3.05 0 0 1-1.284.264m4.315-.144v-6.048h1.428l.12.984q.276-.504.78-.816.516-.312 1.224-.312.756 0 1.272.312t.78.912q.276.6.276 1.476v3.492h-1.608v-3.336q0-.72-.312-1.104-.3-.384-.936-.384-.408 0-.732.192a1.33 1.33 0 0 0-.492.552q-.18.348-.18.852v3.228zm10.094.144a2.77 2.77 0 0 1-1.488-.408 2.85 2.85 0 0 1-1.02-1.128 3.5 3.5 0 0 1-.372-1.62q0-.924.372-1.632.384-.72 1.044-1.128.672-.42 1.5-.42.648 0 1.14.24t.792.684v-3.372h1.62v8.64h-1.44l-.18-.828q-.18.252-.456.48a2 2 0 0 1-.636.36q-.372.132-.876.132m.384-1.416q.48 0 .84-.216.372-.228.576-.624t.204-.912-.204-.912a1.47 1.47 0 0 0-.576-.612 1.54 1.54 0 0 0-.84-.228q-.456 0-.828.228a1.55 1.55 0 0 0-.588.612 1.94 1.94 0 0 0-.204.9q0 .528.204.924.216.396.576.624.372.216.84.216m4.827 1.272v-6.048h1.62v6.048zm.816-6.876q-.432 0-.72-.252a.88.88 0 0 1-.276-.66q0-.396.276-.648.288-.264.72-.264.444 0 .72.264a.82.82 0 0 1 .288.648.86.86 0 0 1-.288.66q-.276.252-.72.252m2.441 6.876v-6.048h1.428l.132.804q.288-.432.756-.684.48-.264 1.092-.264.456 0 .816.12t.636.348q.288.228.468.576.336-.492.876-.768t1.176-.276q.792 0 1.32.324.528.312.792.912.276.6.276 1.476v3.48h-1.608v-3.336q0-.72-.288-1.104-.276-.384-.864-.384-.384 0-.684.192t-.468.552q-.156.36-.156.864v3.216h-1.62v-3.336q0-.72-.288-1.104t-.888-.384a1.2 1.2 0 0 0-.672.192 1.3 1.3 0 0 0-.456.552q-.156.36-.156.864v3.216zm11.333 0v-6.048h1.62v6.048zm.816-6.876q-.432 0-.72-.252a.88.88 0 0 1-.276-.66q0-.396.276-.648.288-.264.72-.264.444 0 .72.264a.82.82 0 0 1 .288.648.86.86 0 0 1-.288.66q-.276.252-.72.252m5.345 7.02q-.912 0-1.62-.384a2.86 2.86 0 0 1-1.092-1.092q-.384-.708-.384-1.632 0-.948.384-1.668a2.9 2.9 0 0 1 1.092-1.14q.696-.42 1.62-.42.9 0 1.572.396t1.044 1.068.372 1.524v.276q0 .144-.024.3h-4.908v-.984h3.3q-.036-.588-.42-.924-.372-.336-.936-.336a1.54 1.54 0 0 0-.756.192q-.348.18-.552.564-.192.384-.192.972v.348q0 .492.18.864.192.36.528.564.336.192.78.192t.732-.192q.3-.192.444-.492h1.656q-.168.564-.564 1.02a2.8 2.8 0 0 1-.972.72 3.05 3.05 0 0 1-1.284.264m4.315-.144v-6.048h1.428l.12.984q.276-.504.78-.816.516-.312 1.224-.312.756 0 1.272.312t.78.912q.276.6.276 1.476v3.492h-1.608v-3.336q0-.72-.312-1.104-.3-.384-.936-.384-.408 0-.732.192a1.33 1.33 0 0 0-.492.552q-.18.348-.18.852v3.228zm10.13 0q-.636 0-1.116-.192a1.54 1.54 0 0 1-.732-.66q-.264-.468-.264-1.272v-2.568H80.15v-1.356h1.032l.18-1.644h1.44v1.644h1.596v1.356h-1.596v2.592q0 .408.18.564t.612.156h.792v1.38zm5.171.144a3.1 3.1 0 0 1-1.56-.396 3.05 3.05 0 0 1-1.092-1.116q-.396-.72-.396-1.644 0-.948.396-1.656.408-.72 1.104-1.116a3.03 3.03 0 0 1 1.56-.408q.876 0 1.56.408.696.396 1.092 1.116.408.708.408 1.644t-.408 1.656a2.9 2.9 0 0 1-1.092 1.116 3.1 3.1 0 0 1-1.572.396m0-1.404q.408 0 .72-.192.324-.192.504-.588.192-.396.192-.984t-.192-.972a1.27 1.27 0 0 0-.504-.588 1.26 1.26 0 0 0-.708-.204q-.384 0-.708.204a1.34 1.34 0 0 0-.516.588q-.18.384-.18.972t.18.984q.192.396.504.588.324.192.708.192"/><path stroke="#d6d6d6" stroke-linecap="round" stroke-width="5" d="M54.857 71c21.04 0 38.095 17.056 38.095 38.095 0 21.04-17.056 38.095-38.095 38.095-21.04 0-38.095-17.055-38.095-38.095 0-14.987 8.654-27.952 21.238-34.172"/><path fill="#000" d="M135.864 121.579q-2.365 0-4.018-.907-1.652-.939-2.559-2.43a8.1 8.1 0 0 1-1.07-3.208h4.083q.291 1.426 1.199 2.204.939.745 2.43.745 1.393 0 2.397-.81 1.036-.842 1.62-2.495.583-1.685.648-4.147v-.357q-.453.843-1.328 1.556a7 7 0 0 1-1.977 1.069 6.7 6.7 0 0 1-2.3.389 7.16 7.16 0 0 1-3.499-.908 7 7 0 0 1-2.657-2.559q-1.005-1.653-1.004-3.921 0-2.073 1.004-3.823a7.5 7.5 0 0 1 2.786-2.786q1.782-1.07 4.115-1.07 2.592 0 4.342.94t2.786 2.527a10.5 10.5 0 0 1 1.523 3.564 16.2 16.2 0 0 1 .486 3.953q0 3.791-1.069 6.61-1.037 2.786-3.046 4.341-2.009 1.523-4.892 1.523m.162-12.085q1.166 0 2.041-.486a3.7 3.7 0 0 0 1.426-1.328q.55-.875.55-1.977 0-1.133-.55-2.009a3.4 3.4 0 0 0-1.426-1.328q-.907-.486-2.074-.486-1.134 0-2.041.486a3.67 3.67 0 0 0-1.425 1.328q-.486.843-.486 1.977 0 1.133.486 2.009.517.842 1.425 1.328.907.486 2.074.486m21.247 12.085q-2.56 0-4.342-.939a7.8 7.8 0 0 1-2.819-2.528 11.5 11.5 0 0 1-1.523-3.531 17.8 17.8 0 0 1-.453-3.985q0-3.823 1.069-6.61 1.07-2.786 3.078-4.31 2.008-1.554 4.86-1.554 2.397 0 4.05.94 1.653.906 2.56 2.397a7.45 7.45 0 0 1 1.069 3.207h-4.083q-.258-1.425-1.198-2.17-.94-.778-2.43-.778-1.394 0-2.43.842-1.038.842-1.62 2.528-.552 1.685-.648 4.244v.194a5.8 5.8 0 0 1 1.36-1.555 6.5 6.5 0 0 1 1.944-1.069 7 7 0 0 1 2.333-.389q1.88 0 3.499.907t2.625 2.56q1.004 1.652 1.004 3.92a7.67 7.67 0 0 1-1.004 3.824q-.972 1.75-2.754 2.818-1.782 1.037-4.147 1.037m-.26-3.758q1.167 0 2.042-.486a3.7 3.7 0 0 0 1.425-1.329q.519-.875.519-1.976 0-1.167-.519-2.009a3.7 3.7 0 0 0-1.425-1.328q-.907-.486-2.074-.486-1.134 0-2.041.486a3.83 3.83 0 0 0-1.458 1.361q-.519.841-.519 1.944 0 1.134.519 2.008a3.9 3.9 0 0 0 1.458 1.329 4.44 4.44 0 0 0 2.073.486M106.495 169.619l3.072-8.4h1.836l3.06 8.4h-1.716l-2.268-6.552-2.28 6.552zm1.356-1.908.432-1.26h4.272l.42 1.26zm10.327 2.052q-.912 0-1.62-.408a2.9 2.9 0 0 1-1.104-1.116q-.396-.708-.396-1.62 0-.936.396-1.644.396-.72 1.104-1.128.708-.42 1.62-.42 1.164 0 1.956.612t1.008 1.68h-1.716a1.1 1.1 0 0 0-.456-.66 1.35 1.35 0 0 0-.804-.24q-.42 0-.756.216-.324.204-.516.612-.18.396-.18.948 0 .42.108.756.108.324.3.564.192.228.456.348.276.12.588.12t.564-.108q.264-.108.444-.3.18-.204.252-.492h1.716q-.216 1.044-1.02 1.668-.792.612-1.944.612m7.289 0q-.912 0-1.62-.408a2.9 2.9 0 0 1-1.104-1.116q-.396-.708-.396-1.62 0-.936.396-1.644.396-.72 1.104-1.128.708-.42 1.62-.42 1.164 0 1.956.612t1.008 1.68h-1.716a1.1 1.1 0 0 0-.456-.66 1.35 1.35 0 0 0-.804-.24q-.42 0-.756.216-.324.204-.516.612-.18.396-.18.948 0 .42.108.756.108.324.3.564.192.228.456.348.276.12.588.12t.564-.108q.264-.108.444-.3.18-.204.252-.492h1.716q-.216 1.044-1.02 1.668-.792.612-1.944.612m7.265 0q-.912 0-1.62-.384a2.86 2.86 0 0 1-1.092-1.092q-.384-.708-.384-1.632 0-.948.384-1.668a2.9 2.9 0 0 1 1.092-1.14q.696-.42 1.62-.42.9 0 1.572.396t1.044 1.068.372 1.524v.276q0 .144-.024.3h-4.908v-.984h3.3q-.036-.588-.42-.924-.372-.336-.936-.336a1.54 1.54 0 0 0-.756.192q-.348.18-.552.564-.192.384-.192.972v.348q0 .492.18.864.192.36.528.564.336.192.78.192t.732-.192q.3-.192.444-.492h1.656q-.168.564-.564 1.02a2.8 2.8 0 0 1-.972.72 3.05 3.05 0 0 1-1.284.264m6.787 0q-.828 0-1.44-.264a2.3 2.3 0 0 1-.96-.732 2 2 0 0 1-.396-1.056h1.608q.06.228.204.42.144.18.384.288t.576.108q.324 0 .528-.084a.7.7 0 0 0 .3-.252.56.56 0 0 0 .108-.324q0-.252-.144-.384a1 1 0 0 0-.42-.228 8 8 0 0 0-.672-.168 10 10 0 0 1-.852-.204 3.6 3.6 0 0 1-.732-.324 1.5 1.5 0 0 1-.516-.492q-.192-.3-.192-.744 0-.54.288-.96.288-.432.84-.684t1.332-.252q1.092 0 1.728.492t.756 1.356h-1.524a.7.7 0 0 0-.324-.432q-.24-.168-.648-.168-.432 0-.66.156a.48.48 0 0 0-.228.408q0 .168.144.3.156.132.432.228.276.084.672.168.696.144 1.224.336.528.18.828.528.3.336.3.984 0 .576-.312 1.032-.312.444-.888.696-.564.252-1.344.252m3.95-.144v-6.048h1.62v6.048zm.816-6.876q-.432 0-.72-.252a.88.88 0 0 1-.276-.66q0-.396.276-.648.288-.264.72-.264.444 0 .72.264a.82.82 0 0 1 .288.648.86.86 0 0 1-.288.66q-.276.252-.72.252m6.017 7.02a2.7 2.7 0 0 1-.84-.12 2.5 2.5 0 0 1-.648-.324 2.4 2.4 0 0 1-.468-.48l-.18.78h-1.44v-8.64h1.62v3.432q.288-.42.756-.696.48-.288 1.188-.288.84 0 1.488.42.66.408 1.032 1.128.384.708.384 1.632 0 .9-.384 1.62-.372.72-1.02 1.128a2.73 2.73 0 0 1-1.488.408m-.384-1.416q.48 0 .84-.216a1.57 1.57 0 0 0 .576-.612q.204-.396.204-.912t-.204-.912a1.45 1.45 0 0 0-.576-.624 1.54 1.54 0 0 0-.84-.228 1.58 1.58 0 0 0-1.416.84 1.96 1.96 0 0 0-.204.912q0 .516.204.924.216.396.576.612.372.216.84.216m4.708 1.272v-6.048h1.62v6.048zm.816-6.876q-.432 0-.72-.252a.88.88 0 0 1-.276-.66q0-.396.276-.648.288-.264.72-.264.444 0 .72.264a.82.82 0 0 1 .288.648.86.86 0 0 1-.288.66q-.276.252-.72.252m2.441 6.876v-8.64h1.62v8.64zm3.235 0v-6.048h1.62v6.048zm.816-6.876q-.432 0-.72-.252a.88.88 0 0 1-.276-.66q0-.396.276-.648.288-.264.72-.264.444 0 .72.264a.82.82 0 0 1 .288.648.86.86 0 0 1-.288.66q-.276.252-.72.252m5.129 7.02a2.77 2.77 0 0 1-1.488-.408 2.85 2.85 0 0 1-1.02-1.128 3.5 3.5 0 0 1-.372-1.62q0-.924.372-1.632.384-.72 1.044-1.128.672-.42 1.5-.42.648 0 1.14.24t.792.684v-3.372h1.62v8.64h-1.44l-.18-.828q-.18.252-.456.48a2 2 0 0 1-.636.36q-.372.132-.876.132m.384-1.416q.48 0 .84-.216.372-.228.576-.624t.204-.912-.204-.912a1.47 1.47 0 0 0-.576-.612 1.54 1.54 0 0 0-.84-.228q-.456 0-.828.228a1.55 1.55 0 0 0-.588.612 1.94 1.94 0 0 0-.204.9q0 .528.204.924.216.396.576.624.372.216.84.216m6.831 1.416q-.756 0-1.248-.24a1.74 1.74 0 0 1-.732-.66 1.9 1.9 0 0 1-.228-.924q0-.552.276-.972.288-.42.852-.66.576-.24 1.44-.24h1.5q0-.444-.12-.732a.86.86 0 0 0-.372-.444q-.252-.144-.672-.144-.456 0-.78.204-.312.192-.384.6h-1.572q.06-.648.42-1.116.372-.48.972-.744.612-.264 1.356-.264.852 0 1.476.288t.96.828.336 1.332v3.744h-1.368l-.18-.924q-.132.24-.312.432t-.42.336-.54.216q-.3.084-.66.084m.384-1.248q.312 0 .552-.108.252-.12.432-.312a1.5 1.5 0 0 0 .276-.456q.108-.264.144-.564v-.012h-1.236q-.372 0-.612.096a.65.65 0 0 0-.336.252.7.7 0 0 0-.108.384q0 .24.108.396a.7.7 0 0 0 .312.24q.204.084.468.084m7.295 1.248a2.77 2.77 0 0 1-1.488-.408 2.85 2.85 0 0 1-1.02-1.128 3.5 3.5 0 0 1-.372-1.62q0-.924.372-1.632.384-.72 1.044-1.128.672-.42 1.5-.42.648 0 1.14.24t.792.684v-3.372h1.62v8.64h-1.44l-.18-.828q-.18.252-.456.48a2 2 0 0 1-.636.36q-.372.132-.876.132m.384-1.416q.48 0 .84-.216.372-.228.576-.624t.204-.912-.204-.912a1.47 1.47 0 0 0-.576-.612 1.54 1.54 0 0 0-.84-.228q-.456 0-.828.228a1.55 1.55 0 0 0-.588.612 1.94 1.94 0 0 0-.204.9q0 .528.204.924.216.396.576.624.372.216.84.216"/><path stroke="#d6d6d6" stroke-linecap="round" stroke-width="5" d="M146.286 71c21.039 0 38.095 17.056 38.095 38.095 0 21.04-17.056 38.095-38.095 38.095-21.04 0-38.096-17.055-38.096-38.095 0-17.475 11.767-32.202 27.81-36.69"/><path fill="#000" d="M213.808 121.19v-17.658l-4.017 1.07v-3.5l5.896-2.592h2.657v22.68zm18.185.389q-3.078 0-5.314-1.49-2.235-1.49-3.434-4.115-1.167-2.656-1.167-6.124 0-3.466 1.167-6.091 1.199-2.656 3.402-4.147 2.235-1.49 5.346-1.49 3.11 0 5.313 1.49 2.237 1.49 3.402 4.147 1.2 2.625 1.199 6.091 0 3.468-1.199 6.124-1.166 2.624-3.402 4.115-2.203 1.49-5.313 1.49m0-3.92q1.62 0 2.851-.94 1.231-.972 1.912-2.721.712-1.75.712-4.148 0-2.43-.712-4.147-.68-1.75-1.912-2.689t-2.851-.94q-1.62 0-2.851.94t-1.944 2.689q-.681 1.717-.681 4.147 0 2.398.681 4.148.713 1.749 1.944 2.721 1.23.94 2.851.94m22.813 3.92q-3.078 0-5.314-1.49-2.235-1.49-3.434-4.115-1.167-2.656-1.167-6.124 0-3.466 1.167-6.091 1.199-2.656 3.402-4.147 2.235-1.49 5.346-1.49 3.11 0 5.313 1.49 2.236 1.49 3.402 4.147 1.2 2.625 1.199 6.091 0 3.468-1.199 6.124-1.166 2.624-3.402 4.115-2.203 1.49-5.313 1.49m0-3.92q1.62 0 2.851-.94 1.231-.972 1.912-2.721.712-1.75.712-4.148 0-2.43-.712-4.147-.68-1.75-1.912-2.689t-2.851-.94q-1.62 0-2.851.94-1.232.94-1.944 2.689-.681 1.717-.681 4.147 0 2.398.681 4.148.713 1.749 1.944 2.721 1.23.94 2.851.94M216.998 169.619v-8.4h3.444q.876 0 1.476.276t.9.768q.312.48.312 1.116t-.276 1.068a1.9 1.9 0 0 1-.732.672q-.444.228-.984.264l.192-.132q.576.024 1.02.312.456.276.708.744.264.468.264 1.02 0 .672-.324 1.188a2.23 2.23 0 0 1-.936.816q-.612.288-1.5.288zm1.62-1.32h1.68q.66 0 1.02-.3t.36-.864-.372-.876q-.372-.324-1.032-.324h-1.656zm0-3.576h1.56q.636 0 .96-.288.336-.288.336-.816 0-.516-.336-.804-.324-.3-.972-.3h-1.548zm8.252 5.04q-.732 0-1.26-.3a2.03 2.03 0 0 1-.792-.9q-.276-.6-.276-1.476v-3.516h1.62v3.348q0 .732.3 1.104.312.372.948.372.408 0 .72-.18.312-.192.492-.54.192-.36.192-.876v-3.228h1.608v6.048h-1.416l-.132-.984q-.264.516-.78.828-.516.3-1.224.3m8.043 0q-.912 0-1.62-.384a2.86 2.86 0 0 1-1.092-1.092q-.384-.708-.384-1.632 0-.948.384-1.668a2.9 2.9 0 0 1 1.092-1.14q.696-.42 1.62-.42.9 0 1.572.396t1.044 1.068.372 1.524v.276q0 .144-.024.3h-4.908v-.984h3.3q-.036-.588-.42-.924-.372-.336-.936-.336a1.54 1.54 0 0 0-.756.192q-.348.18-.552.564-.192.384-.192.972v.348q0 .492.18.864.192.36.528.564.336.192.78.192t.732-.192q.3-.192.444-.492h1.656q-.168.564-.564 1.02a2.8 2.8 0 0 1-.972.72 3.05 3.05 0 0 1-1.284.264m4.314-.144v-6.048h1.428l.12.984q.276-.504.78-.816.516-.312 1.224-.312.756 0 1.272.312t.78.912q.276.6.276 1.476v3.492h-1.608v-3.336q0-.72-.312-1.104-.3-.384-.936-.384-.408 0-.732.192a1.33 1.33 0 0 0-.492.552q-.18.348-.18.852v3.228zm9.447.144q-.756 0-1.248-.24a1.74 1.74 0 0 1-.732-.66 1.9 1.9 0 0 1-.228-.924q0-.552.276-.972.288-.42.852-.66.576-.24 1.44-.24h1.5q0-.444-.12-.732a.86.86 0 0 0-.372-.444q-.252-.144-.672-.144-.456 0-.78.204-.312.192-.384.6h-1.572q.06-.648.42-1.116.372-.48.972-.744.612-.264 1.356-.264.852 0 1.476.288t.96.828.336 1.332v3.744h-1.368l-.18-.924q-.132.24-.312.432t-.42.336-.54.216q-.3.084-.66.084m.384-1.248q.312 0 .552-.108.252-.12.432-.312a1.5 1.5 0 0 0 .276-.456q.108-.264.144-.564v-.012h-1.236q-.372 0-.612.096a.65.65 0 0 0-.336.252.7.7 0 0 0-.108.384q0 .24.108.396a.7.7 0 0 0 .312.24q.204.084.468.084m7.079 1.248q-.828 0-1.44-.264a2.3 2.3 0 0 1-.96-.732 2 2 0 0 1-.396-1.056h1.608q.06.228.204.42.144.18.384.288t.576.108q.324 0 .528-.084a.7.7 0 0 0 .3-.252.56.56 0 0 0 .108-.324q0-.252-.144-.384a1 1 0 0 0-.42-.228 8 8 0 0 0-.672-.168 10 10 0 0 1-.852-.204 3.6 3.6 0 0 1-.732-.324 1.5 1.5 0 0 1-.516-.492q-.192-.3-.192-.744 0-.54.288-.96.288-.432.84-.684t1.332-.252q1.092 0 1.728.492t.756 1.356h-1.524a.7.7 0 0 0-.324-.432q-.24-.168-.648-.168-.432 0-.66.156a.48.48 0 0 0-.228.408q0 .168.144.3.156.132.432.228.276.084.672.168.696.144 1.224.336.528.18.828.528.3.336.3.984 0 .576-.312 1.032-.312.444-.888.696-.564.252-1.344.252m-45.738 15.496v-8.688h1.44l.18.84a2.6 2.6 0 0 1 .456-.48q.264-.228.624-.36.372-.144.864-.144.852 0 1.5.42t1.02 1.14q.384.708.384 1.62t-.384 1.632q-.384.708-1.032 1.116a2.7 2.7 0 0 1-1.476.408q-.672 0-1.164-.24a2.26 2.26 0 0 1-.792-.684v3.42zm3.192-3.912q.48 0 .84-.216.372-.216.576-.612t.204-.912-.204-.912a1.45 1.45 0 0 0-.576-.624 1.54 1.54 0 0 0-.84-.228 1.58 1.58 0 0 0-1.416.84 1.96 1.96 0 0 0-.204.912q0 .516.204.924.216.396.576.612.372.216.84.216m4.671 1.272v-6.048h1.44l.156 1.116q.216-.396.54-.672.336-.276.756-.432.432-.156.948-.156v1.716h-.552q-.36 0-.672.084-.3.084-.528.276-.228.18-.348.504t-.12.816v2.796zm6.951.144q-.756 0-1.248-.24a1.74 1.74 0 0 1-.732-.66 1.9 1.9 0 0 1-.228-.924q0-.552.276-.972.288-.42.852-.66.576-.24 1.44-.24h1.5q0-.444-.12-.732a.86.86 0 0 0-.372-.444q-.252-.144-.672-.144-.456 0-.78.204-.312.192-.384.6h-1.572q.06-.648.42-1.116.372-.48.972-.744.612-.264 1.356-.264.852 0 1.476.288t.96.828.336 1.332v3.744h-1.368l-.18-.924q-.132.24-.312.432t-.42.336-.54.216q-.3.084-.66.084m.384-1.248q.312 0 .552-.108.252-.12.432-.312a1.5 1.5 0 0 0 .276-.456q.108-.264.144-.564v-.012h-1.236q-.372 0-.612.096a.65.65 0 0 0-.336.252.7.7 0 0 0-.108.384q0 .24.108.396a.7.7 0 0 0 .312.24q.204.084.468.084m-1.008-5.46-.144-1.068 2.628-1.5.192 1.236zm8.543 6.708q-.912 0-1.62-.408a2.9 2.9 0 0 1-1.104-1.116q-.396-.708-.396-1.62 0-.936.396-1.644.396-.72 1.104-1.128.708-.42 1.62-.42 1.164 0 1.956.612t1.008 1.68h-1.716a1.1 1.1 0 0 0-.456-.66 1.35 1.35 0 0 0-.804-.24q-.42 0-.756.216-.324.204-.516.612-.18.396-.18.948 0 .42.108.756.108.324.3.564.192.228.456.348.276.12.588.12t.564-.108q.264-.108.444-.3.18-.204.252-.492h1.716q-.216 1.044-1.02 1.668-.792.612-1.944.612m7.015-.144q-.636 0-1.116-.192a1.54 1.54 0 0 1-.732-.66q-.264-.468-.264-1.272v-2.568h-1.032v-1.356h1.032l.18-1.644h1.44v1.644h1.596v1.356h-1.596v2.592q0 .408.18.564t.612.156h.792v1.38zm2.503 0v-6.048h1.62v6.048zm.816-6.876q-.432 0-.72-.252a.88.88 0 0 1-.276-.66q0-.396.276-.648.288-.264.72-.264.444 0 .72.264a.82.82 0 0 1 .288.648.86.86 0 0 1-.288.66q-.276.252-.72.252m5.369 7.02q-.912 0-1.62-.408a2.9 2.9 0 0 1-1.104-1.116q-.396-.708-.396-1.62 0-.936.396-1.644.396-.72 1.104-1.128.708-.42 1.62-.42 1.164 0 1.956.612t1.008 1.68h-1.716a1.1 1.1 0 0 0-.456-.66 1.35 1.35 0 0 0-.804-.24q-.42 0-.756.216-.324.204-.516.612-.18.396-.18.948 0 .42.108.756.108.324.3.564.192.228.456.348.276.12.588.12t.564-.108q.264-.108.444-.3.18-.204.252-.492h1.716q-.216 1.044-1.02 1.668-.792.612-1.944.612m6.401 0q-.756 0-1.248-.24a1.74 1.74 0 0 1-.732-.66 1.9 1.9 0 0 1-.228-.924q0-.552.276-.972.288-.42.852-.66.576-.24 1.44-.24h1.5q0-.444-.12-.732a.86.86 0 0 0-.372-.444q-.252-.144-.672-.144-.456 0-.78.204-.312.192-.384.6h-1.572q.06-.648.42-1.116.372-.48.972-.744.612-.264 1.356-.264.852 0 1.476.288t.96.828.336 1.332v3.744h-1.368l-.18-.924q-.132.24-.312.432t-.42.336-.54.216q-.3.084-.66.084m.384-1.248q.312 0 .552-.108.252-.12.432-.312a1.5 1.5 0 0 0 .276-.456q.108-.264.144-.564v-.012h-1.236q-.372 0-.612.096a.65.65 0 0 0-.336.252.7.7 0 0 0-.108.384q0 .24.108.396a.7.7 0 0 0 .312.24q.204.084.468.084m7.079 1.248q-.828 0-1.44-.264a2.3 2.3 0 0 1-.96-.732 2 2 0 0 1-.396-1.056h1.608q.06.228.204.42.144.18.384.288t.576.108q.324 0 .528-.084a.7.7 0 0 0 .3-.252.56.56 0 0 0 .108-.324q0-.252-.144-.384a1 1 0 0 0-.42-.228 8 8 0 0 0-.672-.168 10 10 0 0 1-.852-.204 3.6 3.6 0 0 1-.732-.324 1.5 1.5 0 0 1-.516-.492q-.192-.3-.192-.744 0-.54.288-.96.288-.432.84-.684t1.332-.252q1.092 0 1.728.492t.756 1.356h-1.524a.7.7 0 0 0-.324-.432q-.24-.168-.648-.168-.432 0-.66.156a.48.48 0 0 0-.228.408q0 .168.144.3.156.132.432.228.276.084.672.168.696.144 1.224.336.528.18.828.528.3.336.3.984 0 .576-.312 1.032-.312.444-.888.696-.564.252-1.344.252"/><circle cx="237.714" cy="109.095" r="38.095" stroke="#d6d6d6" stroke-width="5"/><path fill="#000" d="M305.308 121.19v-17.658l-4.017 1.07v-3.5l5.896-2.592h2.657v22.68zm18.185.389q-3.078 0-5.314-1.49-2.235-1.49-3.434-4.115-1.167-2.656-1.167-6.124 0-3.466 1.167-6.091 1.198-2.656 3.402-4.147 2.235-1.49 5.346-1.49 3.11 0 5.313 1.49 2.236 1.49 3.402 4.147 1.2 2.625 1.199 6.091 0 3.468-1.199 6.124-1.166 2.624-3.402 4.115-2.203 1.49-5.313 1.49m0-3.92q1.62 0 2.851-.94 1.231-.972 1.912-2.721.712-1.75.712-4.148 0-2.43-.712-4.147-.68-1.75-1.912-2.689t-2.851-.94-2.851.94-1.944 2.689q-.681 1.717-.681 4.147 0 2.398.681 4.148.712 1.749 1.944 2.721 1.23.94 2.851.94m22.813 3.92q-3.078 0-5.314-1.49-2.235-1.49-3.434-4.115-1.167-2.656-1.167-6.124 0-3.466 1.167-6.091 1.198-2.656 3.402-4.147 2.235-1.49 5.346-1.49 3.11 0 5.313 1.49 2.236 1.49 3.402 4.147 1.2 2.625 1.199 6.091 0 3.468-1.199 6.124-1.166 2.624-3.402 4.115-2.203 1.49-5.313 1.49m0-3.92q1.62 0 2.851-.94 1.231-.972 1.912-2.721.712-1.75.712-4.148 0-2.43-.712-4.147-.68-1.75-1.912-2.689t-2.851-.94q-1.62 0-2.851.94t-1.944 2.689q-.681 1.717-.681 4.147 0 2.398.681 4.148.713 1.749 1.944 2.721 1.23.94 2.851.94M321.039 169.763q-.912 0-1.632-.312a2.65 2.65 0 0 1-1.128-.912q-.408-.6-.42-1.452h1.716q.012.372.192.672t.492.48q.324.168.768.168.384 0 .66-.12.288-.132.444-.36a.93.93 0 0 0 .156-.54q0-.36-.18-.6a1.36 1.36 0 0 0-.48-.408 4 4 0 0 0-.708-.3 82 82 0 0 0-.84-.3q-.996-.324-1.524-.864-.516-.54-.516-1.428 0-.756.36-1.296a2.4 2.4 0 0 1 1.02-.828q.648-.288 1.476-.288.852 0 1.488.3.648.288 1.02.84.384.552.396 1.296h-1.728a1 1 0 0 0-.168-.516 1.02 1.02 0 0 0-.408-.396 1.2 1.2 0 0 0-.624-.156q-.312-.012-.576.096a.96.96 0 0 0-.408.324.87.87 0 0 0-.144.516q0 .3.144.504.156.204.42.36.264.144.624.276.36.12.78.252.624.216 1.152.516.528.288.84.756t.312 1.236q0 .66-.348 1.224t-1.008.912q-.648.348-1.62.348m4.35-.144v-8.4h5.52v1.308h-3.9v2.196h3.54v1.26h-3.54v2.328h3.9v1.308zm10.872.144q-1.224 0-2.16-.552a3.9 3.9 0 0 1-1.464-1.524q-.528-.984-.528-2.268t.528-2.256a3.87 3.87 0 0 1 1.464-1.536q.936-.552 2.16-.552 1.236 0 2.172.552t1.452 1.536q.528.972.528 2.256t-.528 2.268a3.8 3.8 0 0 1-1.452 1.524q-.936.552-2.172.552m0-1.452q.768 0 1.32-.348.564-.36.876-1.008t.312-1.536q0-.9-.312-1.536a2.3 2.3 0 0 0-.876-.996q-.552-.348-1.32-.348-.756 0-1.32.348a2.3 2.3 0 0 0-.876.996q-.312.636-.312 1.536 0 .888.312 1.536t.876 1.008q.564.348 1.32.348"/><circle cx="329.143" cy="109.095" r="38.095" stroke="#d6d6d6" stroke-width="5"/></svg>