<?xml version="1.0" standalone="no"?>
<!DOCTYPE svg PUBLIC "-//W3C//DTD SVG 1.1//EN" "http://www.w3.org/Graphics/SVG/1.1/DTD/svg11.dtd" >
<svg xmlns="http://www.w3.org/2000/svg">
<metadata>Generated by IcoMoon</metadata>
<defs>
<font id="icomoon" horiz-adv-x="1024">
<font-face units-per-em="1024" ascent="960" descent="-64" />
<missing-glyph horiz-adv-x="1024" />
<glyph unicode="&#x20;" horiz-adv-x="512" d="" />
<glyph unicode="&#xe900;" glyph-name="app-store" d="M793.83 960h-563.661c-127.13 0-230.17-103.254-230.17-230.622v-562.728c0-127.37 103.040-230.65 230.17-230.65h563.686c127.104 0.026 230.144 103.28 230.144 230.65v562.728c0 127.368-103.040 230.622-230.17 230.622zM285.978 147.28c-9.523-16.317-26.65-25.37-44.237-25.37-8.781 0-17.69 2.256-25.83 7.027-24.397 14.339-32.589 45.766-18.278 70.189l7.45 12.749c13.184 4.157 27.059 6.413 41.318 6.003h0.128c26.189-0.771 48.102-12.646 63.078-30.17l-23.629-40.429zM573.773 269.261h-394.573c-28.262 0-51.2 22.986-51.2 51.306 0 28.323 22.938 51.309 51.2 51.309h119.424l150.17 256.787-46.362 79.295c-14.31 24.447-6.118 55.873 18.278 70.213 24.397 14.315 55.757 6.131 70.067-18.316l17.357-29.681 17.357 29.681c14.285 24.448 45.645 32.631 70.067 18.316 24.397-14.34 32.589-45.765 18.278-70.213l-196.531-336.082h107.008c16-10.672 29.747-24.781 39.654-42.074l0.077-0.102c11.264-19.622 13.747-40.864 9.728-60.438zM844.8 269.261h-67.149l41.011-70.109c14.31-24.422 6.118-55.875-18.278-70.189-8.141-4.797-17.050-7.027-25.83-7.027-17.587 0-34.688 9.078-44.237 25.37l-157.466 269.283c-21.35 39.734-20.557 87.914 2.79 126.803l21.146 35.222 120.858-206.739h127.155c28.262 0 51.2-22.986 51.2-51.309 0-28.32-22.938-51.306-51.2-51.306z" />
<glyph unicode="&#xe901;" glyph-name="apple-music" d="M703.686 960c12.23 0 24.461-0.006 36.688-0.062 10.298-0.057 20.611-0.153 30.906-0.438 22.438-0.597 45.072-1.957 67.251-5.938 22.499-4.068 43.485-10.652 63.936-21.062 20.109-10.24 38.515-23.607 54.47-39.562s29.322-34.331 39.562-54.438c10.413-20.48 17.024-41.472 21.062-64 3.981-22.18 5.341-44.783 5.939-67.219 0.285-10.297 0.381-20.609 0.435-30.906 0.058-12.229 0.064-24.458 0.064-36.689h-0.032v-383.344c0-12.227 0.022-24.458-0.061-36.685-0.058-10.298-0.154-20.611-0.438-30.909-0.598-22.41-1.955-45.066-5.936-67.248-4.042-22.522-10.656-43.494-21.066-63.968-10.237-20.109-23.606-38.483-39.562-54.438s-34.362-29.325-54.467-39.562c-20.451-10.413-41.411-17.024-63.939-21.066-22.179-3.978-44.813-5.338-67.248-5.936-10.298-0.285-20.611-0.381-30.909-0.438-12.227-0.054-24.458-0.061-36.685-0.061h-383.344c-12.23 0-24.46-0.022-36.689 0.061-10.297 0.058-20.609 0.154-30.906 0.438-22.436 0.598-45.069 1.958-67.25 5.936-22.5 4.070-43.486 10.653-63.938 21.066-20.107 10.237-38.514 23.606-54.469 39.562s-29.323 34.33-39.562 54.438c-10.408 20.474-17.023 41.446-21.062 63.968-3.982 22.182-5.34 44.81-5.938 67.248-0.284 10.298-0.381 20.611-0.438 30.909-0.057 12.227-0.062 24.458-0.062 36.685v383.344c0 12.229 0.006 24.458 0.062 36.657 0.057 10.297 0.153 20.61 0.438 30.906 0.597 22.412 1.956 45.066 5.938 67.25 4.039 22.522 10.654 43.494 21.062 63.969 10.239 20.107 23.608 38.482 39.562 54.437s34.362 29.323 54.469 39.562c20.452 10.411 41.41 17.023 63.938 21.063 22.181 4.009 44.813 5.343 67.25 5.969 10.297 0.284 20.609 0.381 30.906 0.438 12.229 0.057 24.458 0.062 36.689 0.062h383.373zM723.907 803.563c-2.493-0.231-24.4-4.107-27.094-4.656l-304.47-61.469c-7.933-1.678-14.16-4.493-18.966-8.531-5.802-4.862-9.027-11.732-10.25-19.75-0.256-1.707-0.688-5.192-0.688-10.312v-380.908c0-8.902-0.72-17.568-6.752-24.938-6.029-7.36-13.488-9.581-22.218-11.341-6.624-1.338-13.251-2.666-19.875-4-25.14-5.062-41.495-8.506-56.312-14.253-14.164-5.488-24.771-12.499-33.219-21.373-16.754-17.552-23.551-41.357-21.219-63.658 1.991-19.027 10.545-37.232 25.25-50.688 9.924-9.098 22.324-16.006 36.938-18.938 15.16-3.043 31.33-1.997 54.937 2.784 12.572 2.531 24.355 6.496 35.564 13.123 11.088 6.541 20.576 15.274 28 25.907 7.45 10.666 12.259 22.525 14.906 35.123 2.73 13.002 3.405 24.749 3.405 37.718v330.378c0 17.693 5.002 22.371 19.283 25.843 1.549 0.314 252.95 51.002 264.781 53.312 16.464 3.155 24.246-1.526 24.25-18.781v-225.562c0-8.925-0.109-17.955-6.189-25.344-6.029-7.37-13.485-9.613-22.218-11.376-6.624-1.338-13.251-2.662-19.875-4-25.142-5.062-41.494-8.506-56.314-14.25-14.163-5.491-24.771-12.502-33.219-21.376-16.752-17.549-24.176-41.357-21.843-63.654 1.994-19.027 11.171-37.238 25.875-50.688 9.923-9.098 22.326-15.792 36.938-18.752 15.162-3.043 31.328-1.968 54.938 2.781 12.57 2.534 24.358 6.314 35.562 12.938 11.088 6.541 20.579 15.274 28 25.907 7.453 10.666 12.262 22.528 14.909 35.126 2.73 12.995 2.842 24.749 2.842 37.718v483.031c0.054 17.516-9.19 28.328-25.654 26.906z" />
<glyph unicode="&#xe902;" glyph-name="apple" d="M505.821 712.25c57.331 0 107.622 22.084 150.877 66.253s64.883 95.53 64.883 154.082c0 6.431-0.515 15.569-1.542 27.415-7.555-1.015-13.219-1.862-16.995-2.538-52.867-7.446-99.382-33-139.549-76.66s-60.246-90.368-60.246-140.122c0-5.753 0.858-15.231 2.573-28.429zM711.283-64c40.851 0 85.994 27.584 135.43 82.752 49.434 55.168 87.197 119.984 113.286 194.445-97.152 49.414-145.728 120.32-145.728 212.72 0 77.168 39.306 143.165 117.92 197.997-54.582 67.352-126.675 101.029-216.275 101.029-37.763 0-72.262-5.585-103.504-16.754l-19.565-7.108-26.266-10.154c-17.165-6.431-32.784-9.647-46.858-9.647-10.986 0-25.405 3.724-43.254 11.17l-20.083 8.123-19.053 7.615c-27.808 11.508-57.674 17.261-89.6 17.261-85.481 0-154.14-28.431-205.978-85.292-51.838-56.859-77.756-131.829-77.756-224.904 0-130.982 41.538-251.981 124.616-362.995 57.674-77.507 110.37-116.259 158.088-116.259 20.253 0 40.336 3.891 60.246 11.677l25.232 10.154 20.086 7.107c28.147 9.814 54.067 14.723 77.754 14.723 25.062 0 53.898-6.262 86.512-18.784l15.962-6.093c33.299-12.522 59.562-18.784 78.787-18.784z" />
<glyph unicode="&#xe903;" glyph-name="arq" d="M333.027 518.563v-58.083h-333.027v58.083c0 67.069 54.073 121.437 120.779 121.437h91.458c66.707 0 120.78-54.368 120.78-121.437h0.010zM0 288h333.027v160.154h-333.027v-160.154zM666.909 518.563v-109.114c0-67.069 54.074-121.437 120.781-121.437h51.619v351.987h-51.619c-66.707 0-120.781-54.368-120.781-121.437zM345.264 640v-352l350.067 0.022-350.067 351.978zM658.602 518.563c0 67.069-54.074 121.437-120.781 121.437h-175.213l228.97-230.221c39.734 19.882 67.034 61.123 67.034 108.771l-0.010 0.013zM1024 288l-48.429 44.099c29.402 22.147 48.429 57.469 48.429 97.254v89.21c0 67.069-54.070 121.437-120.781 121.437h-51.651v-352h172.432z" />
<glyph unicode="&#xe904;" glyph-name="arrow-down" horiz-adv-x="993" d="M160.494 344.846c-12.414 14.187-10.976 35.75 3.211 48.165 14.187 12.412 35.751 10.975 48.165-3.212l265.996-303.995v840.062c0 18.851 15.282 34.133 34.133 34.133s34.133-15.282 34.133-34.133v-840.062l265.995 303.995c12.415 14.187 33.978 15.624 48.165 3.212 14.187-12.415 15.624-33.978 3.212-48.165l-321.148-367.023c-0.822-0.94-1.676-1.834-2.56-2.675-6.191-8.67-16.334-14.32-27.797-14.32s-21.606 5.651-27.797 14.32c-0.884 0.841-1.741 1.735-2.563 2.675l-321.146 367.023z" />
<glyph unicode="&#xe905;" glyph-name="arrow-left-small" d="M213.77 577.968c0 13.277-15.239 20.778-25.76 12.678l-167.225-128.73c-8.32-6.403-8.32-18.95 0-25.357l167.225-128.73c10.521-8.099 25.76-0.598 25.76 12.678v96.73h768c17.674 0 32 14.326 32 32s-14.326 32-32 32h-768v96.73z" />
<glyph unicode="&#xe906;" glyph-name="arrow-left" horiz-adv-x="1056" d="M396.022 794.49c14.63 12.802 36.867 11.319 49.667-3.311 12.803-14.63 11.322-36.868-3.309-49.67l-313.497-274.309h866.316c19.44 0 35.2-15.76 35.2-35.2s-15.76-35.2-35.2-35.2h-866.316l313.496-274.307c14.63-12.803 16.112-35.040 3.309-49.67-12.8-14.63-35.040-16.112-49.67-3.312l-378.493 331.184c-0.969 0.848-1.888 1.728-2.758 2.64-8.939 6.384-14.767 16.845-14.767 28.666s5.828 22.282 14.767 28.666c0.87 0.912 1.789 1.795 2.758 2.643l378.496 331.181z" />
<glyph unicode="&#xe907;" glyph-name="arrow-right-small" d="M814.544 320.509c0-13.277 15.238-20.778 25.76-12.678l167.226 128.73c8.32 6.403 8.32 18.95 0 25.357l-167.226 128.73c-10.522 8.099-25.76 0.598-25.76-12.678v-96.73h-767.999c-17.673 0-32-14.326-32-32s14.327-32 32-32h767.999v-96.73z" />
<glyph unicode="&#xe908;" glyph-name="arrow-right" horiz-adv-x="1056" d="M634.378 69.51c-14.63-12.803-36.867-11.318-49.67 3.312-12.8 14.63-11.318 36.867 3.312 49.67l313.494 274.307h-866.314c-19.44 0-35.2 15.76-35.2 35.2s15.76 35.2 35.2 35.2h866.314l-313.494 274.308c-14.63 12.802-16.112 35.040-3.312 49.67 12.803 14.63 35.040 16.113 49.67 3.311l378.493-331.184c0.97-0.848 1.891-1.728 2.758-2.64 8.941-6.384 14.768-16.845 14.768-28.666s-5.827-22.282-14.768-28.666c-0.867-0.912-1.789-1.795-2.758-2.643l-378.493-331.181z" />
<glyph unicode="&#xe909;" glyph-name="arrow-up" horiz-adv-x="993" d="M847.99 575.981c12.415-14.187 10.975-35.75-3.212-48.165-14.187-12.412-35.75-10.975-48.165 3.212l-265.995 303.996v-840.063c0-18.851-15.282-34.133-34.133-34.133s-34.133 15.282-34.133 34.133v840.062l-265.996-303.995c-12.414-14.187-33.978-15.624-48.165-3.212-14.187 12.415-15.625 33.978-3.211 48.165l321.148 367.025c0.822 0.94 1.676 1.831 2.56 2.675 6.191 8.668 16.334 14.319 27.797 14.319s21.606-5.651 27.797-14.319c0.884-0.844 1.741-1.735 2.563-2.675l321.145-367.025z" />
<glyph unicode="&#xe90a;" glyph-name="artstation" d="M753.312-5.437h-574.124c-40.394 0-75.614 23.133-92.531 56.97l-86.656 149.498h634.218l119.094-206.467zM579.658 896c39.702 0 74.237-22.108 91.498-54.906l336.282-585.187c10.355-15.882 16.563-35.229 16.563-55.939-0.003-23.466-4.15-35.2-20.72-62.467l-81.811-141.907-519.594 900.406h177.782zM549.28 347.75h-464.686l232.344 402.562 232.342-402.562z" />
<glyph unicode="&#xe90b;" glyph-name="bancolombia" d="M773.942 959.885c-2.675 0.201-5.386 0.133-8.102-0.162-198.902-24.458-391.018-60.528-583.612-116.231-25.060-7.863-40.545-35.911-34.197-60.782 14.107-55.289 21.179-83.002 35.493-138.539 6.058-23.465 29.703-35.548 53.726-27.564 196.743 60.422 394.042 101.746 597.549 131.832 23.315 3.103 36.058 27.199 27.469 51.325-18.090 50.861-27.158 76.248-45.622 126.819-6.861 18.794-23.974 31.895-42.704 33.301zM939.821 651.851c-2.544 0.2-5.139 0.092-7.699-0.242-311.379-39.605-614.553-116.367-902.077-243.292-20.952-9.933-33.57-36.23-29.172-59.488 11.244-59.386 16.951-88.973 28.443-148.48 4.937-25.37 28.744-37.085 52.186-25.706 292.047 133.546 600.703 218.422 917.311 269.158 20.122 3.309 30.326 26.195 22.608 49.952-15.891 49.203-23.923 73.741-40.355 122.614-6.678 19.917-23.44 34.067-41.245 35.483zM936.496 321.507c-2.685 0.054-5.421-0.166-8.102-0.726-194.419-42.128-384.39-92.813-572.672-157.37-23.856-8.733-37.3-33.85-31.034-56.986 14.934-55.123 22.454-82.682 37.6-137.971 7.094-25.949 36.32-39.197 63.206-29.018 188.195 67.248 378.253 126 572.509 173.053 18.627 4.512 27.837 26.349 20.906 48.819-15.267 49.619-23.008 74.336-38.733 123.747-6.752 21.293-24.883 36.080-43.68 36.451z" />
<glyph unicode="&#xe90c;" glyph-name="bandcamp" d="M512 960c282.771 0 512-229.23 512-512s-229.229-512-512-512c-282.77 0-512 229.229-512 512s229.23 512 512 512zM415.002 609.658l-177.408-323.315h374.406l175.936 323.315h-372.934z" />
<glyph unicode="&#xe90d;" glyph-name="behance" d="M801.936 607.094c38.579 0 72.381-7.424 101.344-22.563 28.864-14.899 52.518-35.107 71.126-60.406 18.582-25.28 31.818-54.182 40.093-86.563 8.179-32.358 11.056-66.163 8.688-101.562h-329.094c0-36.045 12.208-70.179 31.034-88.499 18.749-18.317 45.869-27.565 80.998-27.565 25.258 0.003 47.085 6.41 65.408 19.158 18.15 12.698 29.216 26.294 33.498 40.406h110.314c-17.722-54.883-44.637-94.074-81.344-117.658-36.259-23.702-80.518-35.53-132.064-35.53-35.923 0-68.269 5.846-97.28 17.28-29.005 11.6-53.258 27.846-73.654 49.030-19.878 21.286-35.312 46.464-46.314 76-10.88 29.395-16.374 61.946-16.374 97.219 0 34.106 5.722 65.965 16.842 95.408 11.386 29.536 27.085 55.053 47.75 76.435 20.736 21.501 45.302 38.458 73.907 50.845 28.63 12.365 60.182 18.563 95.123 18.563zM296.969 768c30.11 0 57.307-2.619 82.158-8 24.704-5.238 45.808-13.995 63.622-26 17.546-11.979 31.267-27.921 41.094-48 9.59-19.801 14.435-44.589 14.438-73.907 0-31.712-7.197-58.208-21.594-79.373-14.496-21.146-35.821-38.474-64.282-51.939 38.771-11.146 67.491-30.8 86.531-58.688 19.13-28.077 28.467-61.706 28.467-101.094 0-31.952-6.115-59.434-18.31-82.56-12.339-23.411-29.13-42.397-49.814-57.034-20.851-14.778-44.826-25.629-71.654-32.685-26.55-7.056-54.122-10.595-82.344-10.595h-305.281v629.875h296.969zM138.687 245.405h148c13.676 0.003 26.658 1.213 38.874 3.939 12.39 2.726 23.408 7.011 32.688 13.376 9.274 6.096 16.938 14.464 22.531 25.123 5.597 10.547 8.282 24.269 8.282 40.845 0 32.451-9.13 55.51-27.28 69.501-18.202 13.798-42.496 20.656-72.345 20.656h-150.75v-173.44zM798.189 512.499c-20.016 0-36.595-3.357-49.846-10.218-12.963-6.768-23.61-15.232-31.718-25.155-8.080-10.093-13.606-20.742-16.813-32.128-3.2-11.091-5.12-21.168-5.718-30.061h203.814c-2.992 31.955-13.898 55.587-28.845 72.189-14.899 16.477-40.122 25.373-70.874 25.373zM138.687 513.501h140.344c24.557 0 44.882 5.853 61.001 17.686 15.952 11.622 23.718 30.88 23.718 57.28 0 14.634-2.589 26.758-7.75 36.157-5.334 9.402-12.429 16.765-21.376 21.907-8.87 5.357-18.884 9.077-30.53 11.062-11.406 2.248-23.389 3.125-35.656 3.125h-129.75v-147.218zM923.811 663.563h-255.344v62.188h255.344v-62.188z" />
<glyph unicode="&#xe90e;" glyph-name="bilibili" d="M212.352 828.811l48.512-47.633h-33.323c-60.348 0-118.224-24.375-160.896-67.763s-66.645-102.235-66.645-163.595v-318.464c0-61.36 23.973-120.208 66.645-163.594 42.672-43.389 100.548-67.763 160.896-67.763h568.916c29.885 0 59.478 5.987 87.088 17.616s52.694 28.675 73.824 50.163c21.13 21.488 37.891 46.995 49.322 75.072 11.434 28.074 17.315 58.163 17.309 88.547v318.422c-0.013 61.347-23.984 120.174-66.646 163.551-42.659 43.377-100.518 67.751-160.851 67.763h-36.182l48.47 47.676c10.016 10.601 15.603 24.735 15.587 39.435s-5.632 28.822-15.674 39.401c-10.038 10.578-23.718 16.789-38.166 17.329s-28.541-4.633-39.315-14.434l-120.662-118.346c-3.354-3.291-6.291-6.992-8.746-11.019h-182.486c-2.39 3.948-5.334 7.635-8.746 11.019l-120.662 118.346c-5.209 5.512-11.457 9.9-18.372 12.899s-14.354 4.55-21.872 4.558c-7.518 0.008-14.96-1.525-21.882-4.51s-13.18-7.357-18.4-12.858c-5.22-5.5-9.296-12.015-11.982-19.155s-3.929-14.756-3.653-22.395c0.276-7.639 2.065-15.143 5.26-22.062s7.73-13.113 13.333-18.209zM227.541 669.6h568.916c30.166-0.012 59.091-12.2 80.422-33.888 21.328-21.686 33.315-51.098 33.328-81.77v-326.666c-0.013-30.669-12-60.080-33.328-81.766-21.331-21.69-50.256-33.878-80.422-33.888h-568.916c-30.165 0.010-59.091 12.198-80.42 33.888-21.33 21.686-33.318 51.098-33.329 81.766v326.624c0 30.678 11.983 60.099 33.314 81.795s50.263 33.892 80.436 33.904zM284.459 444.362v-51.712c0-15.338 5.992-30.045 16.658-40.89s25.133-16.938 40.218-16.938c15.082 0 29.549 6.093 40.214 16.938s16.659 25.552 16.659 40.89v51.712c0 15.338-5.994 30.045-16.659 40.89s-25.133 16.938-40.214 16.938c-15.085 0-29.551-6.093-40.218-16.938s-16.658-25.552-16.658-40.89zM682.666 502.189c31.405 0 56.877-25.898 56.877-57.827v-51.712c0-7.594-1.472-15.114-4.33-22.131-2.858-7.014-7.050-13.389-12.33-18.758s-11.552-9.632-18.451-12.538c-6.899-2.906-14.298-4.4-21.766-4.4s-14.864 1.494-21.763 4.4c-6.902 2.906-13.171 7.168-18.451 12.538-5.283 5.37-9.472 11.744-12.33 18.758-2.858 7.018-4.33 14.538-4.33 22.131v51.712c0 31.93 25.472 57.827 56.874 57.827z" />
<glyph unicode="&#xe90f;" glyph-name="bluesky" d="M221.968 835.117c117.392-88.432 243.68-267.713 290.032-363.921v-254.112c0 5.408-2.080-0.704-6.56-13.872-24.192-71.296-118.688-349.552-334.768-127.104-113.776 117.12-61.104 234.24 146 269.6-118.48-20.224-251.68 13.2-288.224 144.24-10.528 37.696-28.448 269.889-28.448 301.249 0 157.088 137.264 107.712 221.968 43.92zM802.032 835.117c-117.392-88.432-243.68-267.713-290.032-363.921v-254.112c0 5.408 2.080-0.704 6.56-13.872 24.192-71.296 118.688-349.552 334.768-127.104 113.776 117.12 61.104 234.24-146 269.6 118.48-20.224 251.68 13.2 288.224 144.24 10.528 37.696 28.448 269.889 28.448 301.249 0 157.088-137.248 107.712-221.968 43.92z" />
<glyph unicode="&#xe910;" glyph-name="buy-me-a-coffee" d="M538.39 486.163c-36.781-15.747-78.522-33.6-132.621-33.6-22.63 0.045-45.152 3.149-66.95 9.229l37.418-384.144c1.325-16.051 8.637-31.024 20.49-41.936s27.373-16.966 43.485-16.966c0 0 53.050-2.752 70.752-2.752 19.053 0 76.182 2.752 76.182 2.752 16.106 0 31.626 6.061 43.475 16.973 11.85 10.915 19.162 25.878 20.486 41.93l40.074 424.493c-17.91 6.118-35.984 10.182-56.358 10.182-35.238 0.013-63.632-12.125-96.432-26.16zM864.202 686.308l-5.632 28.42c-5.056 25.499-16.531 49.593-42.707 58.809-8.39 2.949-17.907 4.215-24.342 10.318-6.432 6.102-8.333 15.58-9.821 24.369-2.755 16.132-5.344 32.277-8.17 48.381-2.438 13.845-4.368 29.398-10.717 42.099-8.266 17.054-25.418 27.028-42.474 33.627-8.736 3.262-17.654 6.022-26.71 8.265-42.608 11.241-87.408 15.374-131.242 17.73-52.614 2.903-105.37 2.029-157.859-2.617-39.069-3.554-80.218-7.852-117.342-21.366-13.569-4.946-27.552-10.883-37.869-21.366-12.66-12.88-16.793-32.8-7.55-48.863 6.572-11.406 17.703-19.466 29.508-24.797 15.378-6.869 31.437-12.097 47.913-15.595 45.872-10.139 93.386-14.12 140.253-15.815 51.942-2.096 103.971-0.397 155.667 5.084 12.784 1.405 25.546 3.091 38.282 5.055 15.005 2.301 24.634 21.918 20.211 35.584-5.29 16.338-19.507 22.675-35.584 20.209-2.368-0.372-4.726-0.716-7.094-1.060l-1.709-0.248c-5.446-0.689-10.893-1.332-16.336-1.929-11.251-1.212-22.528-2.204-33.834-2.976-25.322-1.763-50.71-2.576-76.086-2.617-24.934 0-49.882 0.703-74.762 2.342-11.35 0.744-22.675 1.69-33.971 2.838-5.139 0.537-10.262 1.101-15.386 1.736l-4.88 0.62-1.059 0.151-5.056 0.73c-10.333 1.557-20.662 3.348-30.886 5.511-1.030 0.229-1.952 0.802-2.614 1.627s-1.021 1.849-1.021 2.906c0 1.057 0.358 2.082 1.021 2.906s1.584 1.398 2.614 1.627h0.195c8.858 1.887 17.782 3.499 26.736 4.904 2.986 0.468 5.981 0.928 8.982 1.378h0.083c5.606 0.372 11.242 1.378 16.819 2.039 48.544 5.049 97.373 6.771 146.15 5.152 23.68-0.689 47.347-2.080 70.918-4.477 5.069-0.524 10.112-1.075 15.152-1.694 1.93-0.234 3.872-0.51 5.814-0.744l3.914-0.565c11.405-1.699 22.752-3.761 34.038-6.186 16.723-3.637 38.202-4.821 45.642-23.143 2.368-5.813 3.443-12.274 4.752-18.377l1.667-7.784c0.042-0.139 0.074-0.283 0.096-0.427 3.939-18.368 7.885-36.736 11.834-55.104 0.288-1.357 0.294-2.759 0.019-4.118s-0.829-2.648-1.626-3.784c-0.797-1.136-1.818-2.096-3.002-2.82s-2.502-1.196-3.878-1.387h-0.112l-2.41-0.331-2.384-0.316c-7.549-0.983-15.107-1.901-22.675-2.756-14.906-1.699-29.834-3.168-44.784-4.408-29.709-2.47-59.478-4.091-89.309-4.863-15.2-0.404-30.394-0.593-45.584-0.564-60.464 0.047-120.874 3.562-180.934 10.525-6.502 0.771-13.005 1.598-19.506 2.438 5.042-0.648-3.664 0.496-5.428 0.744-4.133 0.579-8.266 1.18-12.398 1.804-13.872 2.081-27.661 4.643-41.507 6.889-16.737 2.755-32.745 1.377-47.885-6.889-12.427-6.8-22.485-17.228-28.833-29.893-6.53-13.5-8.472-28.199-11.393-42.705s-7.467-30.114-5.745-45.005c3.706-32.14 26.174-58.259 58.492-64.099 30.403-5.51 60.972-9.974 91.623-13.776 120.405-14.746 242.047-16.512 362.831-5.264 9.834 0.918 19.658 1.92 29.466 3.005 3.062 0.336 6.163-0.016 9.072-1.034 2.912-1.018 5.555-2.672 7.744-4.842 2.186-2.173 3.859-4.806 4.896-7.706 1.040-2.902 1.414-6 1.101-9.066l-3.059-29.731c-6.163-60.070-12.323-120.138-18.486-180.202-6.429-63.075-12.899-126.147-19.411-189.206-1.837-17.766-3.674-35.526-5.51-53.274-1.763-17.488-2.010-35.517-5.331-52.794-5.235-27.165-23.626-43.85-50.461-49.952-24.586-5.597-49.699-8.534-74.912-8.758-27.952-0.154-55.888 1.088-83.84 0.938-29.84-0.17-66.387 2.586-89.421 24.794-20.237 19.504-23.034 50.048-25.789 76.461-3.674 34.963-7.312 69.92-10.925 104.874l-33.349 320.122c-0.221 2.080-0.441 4.134-0.648 6.227-1.571 15.002-12.192 29.686-28.93 28.931-14.326-0.634-30.61-12.813-28.929-28.931l9.712-93.235 20.085-192.861c5.722-54.784 11.43-109.571 17.124-164.374 1.102-10.496 2.135-21.024 3.292-31.52 6.296-57.363 50.104-88.275 104.353-96.979 31.683-5.101 64.141-6.15 96.291-6.669 41.219-0.666 82.851-2.25 123.392 5.219 60.077 11.024 105.152 51.136 111.584 113.36 1.837 17.968 3.674 35.933 5.51 53.907 6.109 59.44 12.205 118.88 18.294 178.33l19.92 194.24 9.136 89.018c0.454 4.416 2.317 8.566 5.315 11.84 2.995 3.27 6.966 5.491 11.325 6.333 17.178 3.347 33.6 9.066 45.818 22.138 19.453 20.816 23.322 47.953 16.448 75.312zM217.989 667.104c0.262 0.124-0.22-2.121-0.427-3.168-0.041 1.584 0.041 2.989 0.427 3.168zM219.656 654.21c0.138 0.097 0.551-0.455 0.978-1.116-0.647 0.607-1.061 1.061-0.992 1.116h0.014zM221.296 652.047c0.592-1.006 0.909-1.64 0 0v0zM224.588 649.375h0.083c0-0.097 0.152-0.193 0.207-0.29-0.091 0.107-0.193 0.204-0.303 0.29h0.014zM801.136 653.37c-6.17-5.868-15.469-8.596-24.659-9.961-103.043-15.291-207.587-23.032-311.763-19.617-74.554 2.547-148.323 10.829-222.134 21.257-7.233 1.019-15.071 2.342-20.044 7.673-9.368 10.057-4.766 30.307-2.328 42.457 2.232 11.131 6.502 25.967 19.741 27.552 20.664 2.424 44.661-6.295 65.105-9.396 24.614-3.756 49.318-6.764 74.115-9.023 105.824-9.644 213.43-8.141 318.787 5.965 19.203 2.581 38.339 5.58 57.405 8.996 16.986 3.045 35.818 8.761 46.080-8.83 7.040-11.985 7.974-28.020 6.886-41.562-0.333-5.9-2.912-11.449-7.203-15.511h0.013z" />
<glyph unicode="&#xe911;" glyph-name="cash-app" d="M666.438 960c103.331 0 154.128-0.012 209.904-17.562 29.92-10.864 57.098-28.167 79.594-50.687 22.496-22.518 39.789-49.695 50.627-79.625 17.453-55.421 17.437-106.602 17.437-209.405v-309.44c0-102.714 0.016-153.984-17.437-209.405-10.848-29.939-28.147-57.136-50.656-79.658-22.515-22.522-49.722-39.834-79.658-50.685-55.405-17.549-106.57-17.533-209.344-17.533h-310.282c-102.588 0-153.938-0.019-209.343 17.533-29.934 10.851-57.111 28.166-79.625 50.685-22.515 22.522-39.806 49.715-50.656 79.658-16.991 55.421-17 106.138-17 209.405v309.907c0 102.708-0.014 153.987 17.531 209.406 10.811 29.945 28.096 57.135 50.594 79.656 22.502 22.524 49.691 39.82 79.625 50.656 54.851 17.088 106.286 17.094 208.97 17.094h309.718zM552.032 786.437c-4.73 0.008-9.338-1.607-13.030-4.563-3.686-2.954-6.253-7.077-7.283-11.687l-10.624-52.281c-101.578-4.989-187.376-55.442-187.376-158.156 0.006-88.941 71.024-127.184 146.093-153.968 71.107-26.419 108.784-36.214 108.784-73.44-0.006-37.219-37.597-60.685-92.909-60.685-53.613-0.89-105.434 19.312-144.31 56.25-3.866 3.773-9.069 5.904-14.47 5.904-5.395 0-10.576-2.134-14.438-5.904l-42.373-41.469c-1.985-1.904-3.577-4.189-4.656-6.72-1.078-2.528-1.624-5.251-1.625-8 0-2.752 0.546-5.498 1.625-8.032 1.079-2.525 2.674-4.816 4.656-6.717 34.534-32.352 76.684-55.462 122.53-67.158l-11.811-54.125c-0.621-3.024-0.592-6.15 0.125-9.155 0.714-2.998 2.086-5.802 4-8.218 1.92-2.422 4.362-4.4 7.126-5.782 2.758-1.379 5.789-2.166 8.874-2.25h76.374c4.746 0.013 9.36 1.658 13.062 4.624 3.702 2.97 6.298 7.12 7.344 11.75l10.97 51.344c121.52 7.389 195.773 72.781 195.779 168.467 0 88.211-73.872 125.36-163.904 155.658-51.43 19.395-95.866 32.048-95.875 70.189 0 38.147 41.475 52.029 82.938 52.029 50.326 0.006 99.024-17.875 137.405-50.435 3.962-3.594 9.158-5.526 14.502-5.408 5.334 0.125 10.426 2.272 14.218 6.032l39.626 39.718c1.968 1.974 3.51 4.342 4.531 6.938 1.018 2.602 1.478 5.398 1.373 8.189-0.102 2.784-0.762 5.517-1.968 8.029-1.21 2.518-2.947 4.771-5.062 6.595-31.050 26.438-66.957 46.564-105.718 59.219l11.811 58.468c0.618 2.996 0.573 6.092-0.154 9.063-0.733 2.974-2.128 5.754-4.064 8.125s-4.387 4.285-7.155 5.594c-2.765 1.305-5.789 1.977-8.845 1.969h-76.093z" />
<glyph unicode="&#xe912;" glyph-name="chat" d="M310.178 800h403.643c135.962 0 246.179-110.218 246.179-246.179 0-135.958-110.218-246.176-246.179-246.176h-105.821c-8.515 0-16.678-3.395-22.685-9.43l-155.904-156.685v134.115c0 17.67-14.326 32-32 32h-87.233c-135.96 0-246.178 110.218-246.178 246.176 0 135.962 110.218 246.179 246.178 246.179zM0 553.821c0-171.306 138.872-310.176 310.178-310.176h55.233v-179.645c0-12.957 7.814-24.637 19.792-29.581 11.978-4.941 25.754-2.176 34.893 7.011l201.206 202.214h92.518c171.309 0 310.179 138.87 310.179 310.176 0 171.308-138.87 310.179-310.179 310.179h-403.643c-171.307 0-310.178-138.872-310.178-310.179z" />
<glyph unicode="&#xe913;" glyph-name="check" d="M906.381 569.331c31.232 31.245 31.2 81.9-0.045 113.136-31.245 31.231-81.878 31.221-113.114-0.022l-376.733-376.823-149.643 152.339c-30.964 31.51-81.6 31.955-113.115 0.995-31.517-30.966-31.981-81.622-1.016-113.139l206.209-209.878c14.957-15.222 35.382-23.837 56.723-23.93 21.338-0.093 41.834 8.333 56.922 23.424l433.811 433.898z" />
<glyph unicode="&#xe914;" glyph-name="chime-pay" d="M960 960c35.347 0 64-28.654 64-64v-896c0-35.347-28.653-64-64-64h-896c-35.346 0-64 28.653-64 64v896c0 35.346 28.654 64 64 64h896zM518.438 783c-91.83-0.002-177.066-31.93-239.47-90.812-66.463-62.376-101.967-149.202-101.969-250.501 0-201.104 147.125-341.341 358.187-341.344 116.694 0 199.411 43.418 248.624 79.846v158.186c-72.554-56.39-157.808-88.813-233.405-88.813-120.749 0.003-205.466 81.83-205.469 199.594 0 111.782 77.12 189.626 187.219 189.626 36.016 0 66.963-8.957 99.936-17.936 33.994-9.482 69.514-19.968 111.626-19.971 13.187 0 26.374 1.008 39.562 3.002v150.687c-11.155-0.998-21.811-2-32.966-2-38.048 0-72.547 6.985-108.563 14.469-38.054 7.984-77.142 15.969-123.312 15.969z" />
<glyph unicode="&#xe915;" glyph-name="close" horiz-adv-x="1056" d="M988.342 905.372c12.496 12.497 12.496 32.758 0 45.255-12.499 12.497-32.758 12.497-45.254 0l-426.070-426.071-426.070 426.071c-12.497 12.497-32.758 12.497-45.255 0s-12.497-32.758 0-45.255l426.070-426.070-462.391-462.39c-12.497-12.496-12.497-32.755 0-45.254 12.497-12.496 32.758-12.496 45.255 0l462.39 462.39 462.39-462.39c12.496-12.496 32.758-12.496 45.254 0 12.496 12.499 12.496 32.758 0 45.254l-462.39 462.39 426.070 426.070z" />
<glyph unicode="&#xe916;" glyph-name="codepen" d="M485.171 951.917c16.237 10.777 37.354 10.777 53.59 0l463.51-307.624c10.304-6.837 17.469-17.263 20.304-29.013 0.026-0.106 0.048-0.214 0.074-0.323 0.314-1.334 0.57-2.682 0.771-4.045 0.035-0.243 0.070-0.486 0.102-0.73 0.077-0.576 0.141-1.152 0.195-1.734 0.022-0.221 0.035-0.445 0.054-0.669 0.042-0.518 0.074-1.040 0.096-1.562 0.013-0.208 0.022-0.416 0.029-0.624 0.022-0.557 0.035-1.12 0.035-1.68 0-0.198 0.003-0.394 0-0.592v-308.742c0.528-10.118-2.099-20.486-8.189-29.539-4.003-5.952-9.11-10.714-14.848-14.237l-462.134-306.72c-16.237-10.778-37.354-10.778-53.59 0l-463.51 307.629c-13.528 8.979-21.661 24.138-21.661 40.374v311.827c0 0.56 0.015 1.123 0.035 1.68 0.010 0.275 0.026 0.547 0.040 0.822 0.020 0.384 0.046 0.771 0.075 1.155 0.022 0.291 0.036 0.586 0.064 0.877 0.059 0.627 0.137 1.248 0.22 1.869 0.024 0.179 0.049 0.358 0.075 0.538 0.072 0.496 0.156 0.992 0.243 1.485 0.044 0.25 0.085 0.496 0.133 0.746 2.436 12.643 9.838 23.949 20.777 31.209l463.51 307.624zM560.426 270.234v-195.453l327.859 217.6-146.246 98.39-181.613-120.538zM135.707 292.342l327.804-217.558v195.45l-181.562 120.496-146.242-98.387zM368.986 449.29l142.979-94.893 143.040 94.928-142.976 96.192-143.043-96.227zM96.921 383.056l97.626 65.683-97.626 64.794v-130.477zM829.44 448.781l97.578-65.645v130.403l-97.578-64.758zM136.047 603.888l145.538-96.595 181.925 122.384v191.543l-327.463-217.332zM560.426 629.757l181.974-122.426 145.485 96.557-327.459 217.338v-191.469z" />
<glyph unicode="&#xe917;" glyph-name="deezer" d="M858.765 803.761c9.504 54.909 23.338 89.449 38.784 89.534 28.685-0.085 52.022-119.832 52.022-267.669s-23.338-267.67-52.022-267.67c-11.795 0-22.659 20.368-31.402 54.486-13.834-124.838-42.518-210.64-75.786-210.64-25.715 0-48.797 51.514-64.33 132.816-10.608-154.627-37.171-264.275-68.317-264.275-19.52 0-37.341 43.453-50.496 114.23-15.869-146.054-52.448-248.486-95.219-248.486s-79.434 102.349-95.219 248.486c-13.072-70.778-30.893-114.23-50.496-114.23-31.146 0-57.71 109.734-68.318 264.275-15.531-81.302-38.529-132.816-64.329-132.816-33.183 0-61.953 85.802-75.786 210.64-8.656-34.202-19.604-54.486-31.401-54.486-28.77 0-52.023 119.834-52.023 267.67s23.253 267.669 52.023 267.669c15.446 0 29.194-34.626 38.784-89.534 15.361 94.711 40.227 156.239 68.403 156.239 33.437 0 62.377-87.073 76.125-213.439 13.408 91.995 33.776 150.638 56.522 150.638 31.91 0 59.066-115.334 69.165-276.242 18.925 82.492 46.339 134.26 76.637 134.26 30.294 0 57.709-51.769 76.547-134.26 10.099 160.908 37.171 276.242 69.168 276.242 22.742 0 43.027-58.643 56.522-150.638 13.661 126.366 42.688 213.439 76.038 213.439 28.093 0 53.043-61.613 68.403-156.239zM0 651.934c0 66.111 13.239 119.662 29.534 119.662s29.534-53.551 29.534-119.662c0-66.11-13.239-119.662-29.534-119.662s-29.534 53.635-29.534 119.662zM964.934 651.934c0 66.111 13.238 119.662 29.533 119.662s29.533-53.551 29.533-119.662c0-66.11-13.238-119.662-29.533-119.662s-29.533 53.635-29.533 119.662z" />
<glyph unicode="&#xe918;" glyph-name="depop" d="M512 960c282.771 0 512-229.23 512-512s-229.229-512-512-512c-282.77 0-512 229.229-512 512s229.23 512 512 512zM559.062 718.125v-170.97h-138.093c-133.374 0-216.81-71.69-216.813-188.31 0-108.925 83.424-177.843 216.157-177.846h311.562v537.127h-172.813zM558.125 433.533v-136.97h-92.342c-52.134 0.003-79.283 23.341-79.283 68.061 0.006 45.36 28.013 68.909 80.157 68.909h91.469z" />
<glyph unicode="&#xe919;" glyph-name="discord" d="M868.128 766.797c-66.755 30.531-137.651 52.783-211.651 65.203-9.315-16.042-19.664-37.776-26.909-54.853-78.71 11.385-156.848 11.385-234.474 0-7.245 17.077-18.112 38.811-26.909 54.853-74.516-12.42-145.412-34.671-211.701-65.203-134.028-197.677-170.252-390.698-152.14-581.133 89.007-64.685 174.91-104.013 259.311-129.891 20.7 27.946 39.329 57.962 55.371 89.526-30.532 11.386-59.511 25.36-87.455 41.92 7.245 5.171 14.49 10.864 21.217 16.557 168.699-77.107 351.422-77.107 518.052 0 7.245-5.693 13.971-11.386 21.216-16.557-27.946-16.56-56.922-30.534-87.456-41.92 16.045-31.565 34.675-61.581 55.37-89.526 84.352 25.878 170.771 65.206 259.312 129.891 22.25 220.448-35.238 411.914-151.155 581.133zM342.314 303.133c-50.714 0-92.113 46.054-92.113 102.461 0 56.403 40.364 102.464 92.113 102.464 51.229 0 93.146-46.061 92.109-102.464 0-56.406-40.88-102.461-92.109-102.461zM682.352 303.133c-50.714 0-92.166 46.054-92.166 102.461 0 56.403 40.416 102.464 92.166 102.464 51.232 0 93.146-46.061 92.112-102.464 0-56.406-40.365-102.461-92.112-102.461z" />
<glyph unicode="&#xe91a;" glyph-name="down-fill" d="M539.958 141.008c-14.605-17.344-41.312-17.344-55.917 0l-475.381 564.606c-20.015 23.772-3.116 60.091 27.96 60.091h950.759c31.075 0 47.974-36.319 27.962-60.091l-475.382-564.605z" />
<glyph unicode="&#xe91b;" glyph-name="down" d="M1012.486 760.582c13.574-11.314 15.411-31.492 4.096-45.069l-475.085-570.099c-15.35-18.422-43.645-18.422-58.998 0l-475.083 570.099c-11.314 13.577-9.48 33.755 4.097 45.069s33.755 9.48 45.069-4.097l455.418-546.501 455.418 546.501c11.312 13.577 31.491 15.411 45.069 4.097z" />
<glyph unicode="&#xe91c;" glyph-name="dribbble" d="M512-64c-281.18 0-512 229.421-512 512s230.82 512 512 512c281.181 0 512-230.82 512-512s-229.421-512-512-512zM944.262 378.054c-15.389 4.198-137.094 40.57-272.787 18.186 55.955-158.077 79.738-283.978 83.936-311.955 99.322 68.547 167.869 172.064 188.851 293.77zM682.666 45.114c-6.992 39.171-32.173 173.466-93.725 332.941h-2.8c-244.806-86.733-334.338-257.398-342.731-272.787 75.541-57.354 167.87-93.725 268.59-93.725 61.552 0 118.906 11.19 170.666 33.571zM187.453 154.23c8.394 15.386 130.099 215.43 355.324 288.173 6.992 2.8 11.19 4.198 18.186 4.198-11.194 25.181-22.384 50.362-36.374 75.539-218.228-65.747-429.463-62.95-450.447-61.552v-13.987c1.399-111.914 41.967-214.032 113.311-292.371zM83.934 536.131c20.984 0 200.044 0 404.283 51.76-72.742 130.098-149.683 236.415-160.874 251.803-124.502-55.956-215.431-166.47-243.41-303.563zM409.878 870.47c11.194-15.388 90.931-124.503 163.674-254.601 153.878 58.754 221.027 145.486 229.421 156.678-76.941 68.546-179.059 109.115-288.176 109.115-39.168 2.798-72.742-1.399-104.918-11.191zM850.534 723.585c-9.792-11.191-81.136-106.317-243.408-173.463 9.792-20.986 20.982-40.57 29.376-62.954 2.797-6.992 6.995-15.386 9.792-22.381 145.488 18.186 290.973-11.19 304.963-13.99-2.8 103.52-39.171 197.247-100.723 272.788z" />
<glyph unicode="&#xe91d;" glyph-name="email" d="M928 832c53.021 0 96-42.981 96-96v-608c0-53.021-42.979-96-96-96h-832c-53.019 0-96 42.979-96 96v608c0 53.019 42.981 96 96 96h832zM591.533 422.25c-46.589-36.95-112.477-36.95-159.066 0l-368.467 292.25v-586.5c0-17.674 14.327-32 32-32h832c17.674 0 32 14.326 32 32v586.5l-368.467-292.25zM472.218 472.374c23.296-18.474 56.269-18.474 79.565 0l372.749 295.626h-825.062l372.749-295.626z" />
<glyph unicode="&#xe91e;" glyph-name="etsy" d="M928 960c53.021 0 96-42.981 96-96v-832c0-53.021-42.979-96-96-96h-832c-53.019 0-96 42.979-96 96v832c0 53.019 42.981 96 96 96h832zM716.72 750.531c-142.758-16.293-385.488-8.092-484.001-4.969v-33.75c65.152-12.232 79.969-10.002 81.344-47.687 4.699-103.136 2.391-330.759 0-426.564-0.498-36.070-20.736-34.835-81.344-46.688v-33.779c198.139 6.282 334.171 5.693 491.345 0 2.333 29.139 18.314 160.544 20.656 174.842h-29.658c-42.909-99.011-46.822-132.122-131.658-132.125h-118.998c-39.994 0-58.995 16.224-59.002 50.656v184.157c87.821 0 116.774-2.605 117.315-2.656 40.579-0.602 40.48-28.368 52.685-81.469h34.314c-2.88 130.371-3.533 78.026 2.346 212.282h-34.346c-17.584-75.165-14.63-85.174-54.314-86.438 0 0-40.672-3.974-118-3.312v216.907c0 8.277 0.656 12.904 14.314 12.906h182.688c47.978-0.011 58.262-63.138 72.998-119.874h31.002c0 0 5.645 116.885 10.314 167.562z" />
<glyph unicode="&#xe91f;" glyph-name="expand" d="M9.441 950.695l-0.136-0.136c-6.179-6.215-9.28-14.336-9.305-22.463v-256.096c0-17.673 14.327-32 32-32s32 14.327 32 32v178.745l265.373-265.372c12.496-12.496 32.758-12.496 45.254 0s12.496 32.758 0 45.254l-265.372 265.373h178.745c17.673 0 32 14.327 32 32s-14.327 32-32 32h-256c-4.339 0-8.476-0.864-12.249-2.428-3.746-1.55-7.258-3.842-10.31-6.877zM1014.56 950.695l0.134-0.136c6.179-6.215 9.28-14.336 9.306-22.463v-256.096c0-17.673-14.326-32-32-32s-32 14.327-32 32v178.745l-265.373-265.372c-12.496-12.496-32.758-12.496-45.254 0s-12.496 32.758 0 45.254l265.373 265.373h-178.746c-17.674 0-32 14.327-32 32s14.326 32 32 32h256c4.339 0 8.477-0.864 12.25-2.428 3.747-1.55 7.258-3.842 10.31-6.877zM19.751-61.571c3.773-1.565 7.91-2.429 12.249-2.429h256c17.673 0 32 14.326 32 32s-14.327 32-32 32h-178.745l265.372 265.373c12.496 12.496 12.496 32.758 0 45.254s-32.758 12.496-45.254 0l-265.373-265.373v178.746c0 17.674-14.327 32-32 32s-32-14.326-32-32v-256.096c0.024-8.128 3.126-16.25 9.305-22.464l0.136-0.134c3.052-3.034 6.564-5.328 10.31-6.877zM1014.56-54.694l0.134 0.134c6.179 6.214 9.28 14.336 9.306 22.464v256.096c0 17.674-14.326 32-32 32s-32-14.326-32-32v-178.746l-265.373 265.373c-12.496 12.496-32.758 12.496-45.254 0s-12.496-32.758 0-45.254l265.373-265.373h-178.746c-17.674 0-32-14.326-32-32s14.326-32 32-32h256c4.339 0 8.477 0.864 12.25 2.429 3.747 1.549 7.258 3.84 10.31 6.877z" />
<glyph unicode="&#xe920;" glyph-name="external-link-2" d="M759.206 921.084l227.034-227.034c12.496-12.497 12.496-32.758 0-45.255l-227.034-227.033c-12.499-12.499-32.758-12.499-45.254 0-12.499 12.496-12.499 32.758 0 45.254l172.982 172.983h-132.141c-363.274 0-658.794-300.292-658.794-672 0-17.674-14.327-32-32-32s-32 14.326-32 32c0 405.907 323.037 736 722.794 736h130.986l-171.827 171.829c-12.499 12.497-12.499 32.758 0 45.255 12.496 12.497 32.755 12.497 45.254 0z" />
<glyph unicode="&#xe921;" glyph-name="external-link" d="M64 864v-832c0-17.674 14.327-32 32-32h832c17.674 0 32 14.326 32 32v320c0 17.674 14.326 32 32 32s32-14.326 32-32v-320c0-53.021-42.979-96-96-96h-832c-53.019 0-96 42.979-96 96v832c0 53.019 42.981 96 96 96h304c17.674 0 32-14.327 32-32s-14.326-32-32-32h-304c-17.673 0-32-14.327-32-32zM1014.627 950.627c5.859-5.858 8.97-13.422 9.338-21.092 0.022-0.511 0.035-1.023 0.035-1.535v-352c0-17.674-14.326-32-32-32s-32 14.326-32 32v274.745l-617.373-617.372c-12.496-12.496-32.758-12.496-45.255 0s-12.497 32.758 0 45.254l617.373 617.373h-274.746c-17.674 0-32 14.327-32 32s14.326 32 32 32h352c4.339 0 8.477-0.864 12.25-2.428 3.773-1.562 7.309-3.876 10.378-6.944z" />
<glyph unicode="&#xe922;" glyph-name="facebook" d="M512 960c282.768 0 511.997-230.629 512-515.126 0-257.11-187.229-470.23-432-508.874v359.968h119.312l22.688 148.906h-142v96.595c0 10.186 1.245 20.301 4.093 29.75 4.995 16.544 14.934 31.037 31.814 40.25 12.058 6.579 27.651 10.467 47.53 10.467h64.563v126.783c-0.096 0.017-14.726 2.524-36.314 5.031-21.651 2.515-50.314 5.031-78.31 5.031-116.938-0.006-193.37-71.317-193.376-200.407v-113.501h-130v-148.906h130v-359.968c-244.77 38.643-432 251.763-432 508.874 0.002 284.498 229.231 515.126 512 515.126z" />
<glyph unicode="&#xe923;" glyph-name="figma" d="M677.533 960c105.936-0.006 191.811-85.903 191.811-191.844-0.006-66.59-33.952-125.233-85.469-159.625 52.291-34.262 86.842-93.347 86.845-160.531 0-105.942-85.872-191.84-191.814-191.843h-4.342c-49.478 0-94.406 19.203-128.157 50.374v-180.314c-0.006-105.056-85.162-190.214-190.218-190.218h-4.378c-105.932 0.010-191.807 85.878-191.811 191.811 0 66.89 34.253 125.763 86.156 160.096-51.904 34.33-86.156 93.203-86.156 160.093 0.002 66.88 34.232 125.763 86.125 160.093-51.885 34.332-86.12 93.191-86.125 160.063 0 105.939 85.876 191.836 191.811 191.844h325.722zM351.811 256.157c-70.875-0.010-128.342-57.466-128.342-128.346 0.004-70.874 57.47-128.333 128.342-128.342h4.378c69.997 0.003 126.742 56.752 126.749 126.749v129.939h-131.126zM351.811 576.342c-70.873-0.006-128.34-57.466-128.342-128.342 0-70.88 57.468-128.336 128.342-128.342h131.126v256.685h-131.126zM674.563 576.342c-69.59 0-126.781-57.926-126.781-128.342 0-70.419 57.187-128.342 126.781-128.342h4.342c70.88 0.003 128.346 57.462 128.346 128.342-0.003 70.88-57.466 128.339-128.346 128.342h-4.342zM351.811 896.531c-70.875-0.008-128.342-57.497-128.342-128.375 0.008-70.872 57.473-128.335 128.342-128.345h131.126v256.72h-131.126zM546.406 639.811h131.126c70.87 0.006 128.333 57.472 128.342 128.345 0 70.88-57.466 128.369-128.342 128.375h-131.126v-256.72z" />
<glyph unicode="&#xe924;" glyph-name="github" d="M512 960c71.555 0 139.744-14.387 201.875-40.375 182.384-80.195 310.125-265.724 310.125-481.814-0.006-233.565-149.261-431.366-355.437-499.091-19.514-0.109-26.714 13.869-26.72 26.029 0 17.242 0.595 73.638 0.595 143.69 0 48.858-16.736 80.736-35.533 96.966 116.605 12.954 239.094 57.293 239.094 258.378-0.003 57.139-20.32 103.866-53.875 140.531 5.427 13.171 23.376 66.43-5.123 138.53-0.426 0.133-44.378 13.758-143.846-53.656-41.84 11.606-86.666 17.415-131.155 17.625-44.528-0.21-89.309-6.020-131.062-17.625-100.037 67.742-144.031 53.656-144.031 53.656-28.417-72.102-10.52-125.33-5.094-138.501-33.512-36.666-53.937-83.386-53.938-140.531 0-200.611 122.225-245.533 238.532-258.781-15.008-13.078-28.541-36.16-33.251-70-29.853-13.37-105.625-36.55-152.343 43.501 0 0-27.719 50.269-80.281 53.968-0.709 0.010-50.743 0.432-3.563-31.843 0.509-0.24 34.535-16.547 58.156-76.592 0 0 30.745-93.446 176.408-61.782 0.208-43.722 0.685-84.97 0.685-97.469 0-12.176-7.443-26.147-27.062-26.032-206.034 67.811-355.15 265.571-355.155 499.030 0 216.079 127.725 401.612 310.094 481.814 62.14 25.994 130.345 40.375 201.906 40.375z" />
<glyph unicode="&#xe925;" glyph-name="gitlab" d="M1006.938 537.654l-1.395 3.696-139.331 363.548c-2.864 7.134-7.888 13.193-14.371 17.326-6.48 4.133-14.093 6.134-21.77 5.722s-15.030-3.217-21.030-8.021c-6.003-4.804-10.349-11.366-12.432-18.766l-94.093-288.027h-381.011l-94.090 288.027c-2.129 7.361-6.497 13.877-12.498 18.643s-13.337 7.545-20.989 7.951c-7.652 0.406-15.241-1.58-21.713-5.683s-11.506-10.119-14.403-17.214l-140.727-367.203c-20.054-52.416-22.523-109.93-7.033-163.872 15.49-53.939 48.098-101.379 92.907-135.168l0.493-0.413 1.233-0.902 212.015-158.89 169.036-127.824c7.501-5.674 16.646-8.742 26.051-8.742 9.402 0 18.55 3.069 26.048 8.742l169.078 127.824 214.112 160.246c44.806 33.779 77.418 81.21 92.915 135.142 15.494 53.933 13.040 111.44-7.002 163.856z" />
<glyph unicode="&#xe926;" glyph-name="google-play-store" d="M110.976 960l478.74-478.934 131.254 132.266-580.289 337.619c-9.671 5.656-20.034 8.789-29.705 9.050zM70.908 937.724c-4.317-7.744-6.908-16.881-6.908-27.149v-930.719c0-7.485 1.554-14.182 4.145-20.189l489.791 490.074-487.028 487.983zM761.037 590.358l-140.237-140.618 140.237-139.923 171.325 98.851c24.352 14.182 27.805 32.195 27.632 41.766-0.259 15.837-10.189 30.63-26.941 39.68-14.595 7.92-122.966 71.526-172.016 100.243zM589.715 418.416l-482.884-482.416c8.031 0.435 16.753 2.176 24.87 6.96 18.911 11.053 401.365 233.901 401.365 233.901l188.595 109.29-131.946 132.266z" />
<glyph unicode="&#xe927;" glyph-name="google" d="M759.274 670.122c-32.141 32.831-67.059 57.974-104.080 75.437s-83.824 25.849-137.61 25.849c-43.302 0-84.522-7.688-122.928-23.048-38.41-15.36-71.955-37.020-100.588-64.964-29.34-27.944-52.388-62.173-69.153-101.984-16.764-39.814-25.143-83.814-25.143-132.714 0-48.896 8.378-92.899 25.143-132.714 16.765-39.811 39.813-73.341 69.153-101.277s63.558-50.294 101.984-65.661c38.426-15.37 80.326-23.050 124.326-23.050 46.797 0 88.013 6.285 122.931 19.558 34.915 13.274 64.963 31.434 90.115 53.776 16.765 15.376 32.131 34.237 45.398 56.586 13.274 23.050 23.754 48.192 31.434 76.134h-295.462v167.638h481.962c2.79-11.178 4.886-24.445 6.982-41.21 2.093-16.765 2.8-32.131 2.8-48.198 0-66.352-9.782-126.422-29.341-181.61-19.558-55.19-49.597-103.373-88.71-145.987-44.003-46.794-96.39-82.419-157.856-108.259-61.466-25.843-132.022-38.426-210.95-38.426-71.248 0-138.307 12.576-201.168 38.426s-118.043 61.466-165.544 106.864c-46.795 45.405-83.815 99.19-111.759 161.354s-41.209 131.325-41.209 205.357c0 74.032 13.964 142.496 41.209 205.357s64.266 116.655 111.759 162.053c46.795 45.407 101.984 80.332 165.544 106.173 63.558 25.841 130.617 38.417 201.168 38.417 81.030 0 152.97-13.964 215.139-41.908 62.173-27.944 115.949-66.361 161.357-115.258l-136.902-132.713z" />
<glyph unicode="&#xe928;" glyph-name="gumroad" d="M471.626 960c198.867 0 370.25-119.641 439.219-289.875 114.032-102.983 190.758-393.76-17.187-583.188-230.87-210.294-495.050-95.674-593.314-9.126-175.251 66.208-300.338 231.037-300.344 425.533 0 253.513 212.498 456.651 471.626 456.656zM471.626 928.656c-242.877-0.005-440.251-190.169-440.251-425.312 0.008-235.139 197.378-425.277 440.251-425.28 242.877 0 440.272 190.138 440.282 425.28 0 235.147-197.402 425.312-440.282 425.312zM474.845 753.625c162.627 0 217.68-110.635 220.186-173.5h-117.594c-2.499 35.203-32.544 88-105.094 88-77.546-0.014-127.594-67.898-127.594-150.874 0.006-82.97 50.051-150.861 127.594-150.877 70.042 0 100.083 55.315 112.595 110.624h-112.595v45.283h236.253v-231.344h-103.626v145.843c-7.51-52.813-40.048-155.898-167.626-155.907-127.593 0.006-202.681 103.107-202.688 231.344 0 133.276 82.576 241.397 240.188 241.407z" />
<glyph unicode="&#xe929;" glyph-name="hamburger-bite" d="M0 800c0-17.673 14.327-32 32-32h960c17.674 0 32 14.327 32 32s-14.326 32-32 32h-960c-17.673 0-32-14.327-32-32zM373.334 128c0-17.674 14.326-32 32-32h576c17.674 0 32 14.326 32 32s-14.326 32-32 32h-576c-17.674 0-32-14.326-32-32zM32 490.666h960c17.674 0 32-14.326 32-32s-14.326-32-32-32h-960c-17.673 0-32 14.326-32 32s14.327 32 32 32z" />
<glyph unicode="&#xe92a;" glyph-name="hamburger-two" d="M32 640h960c17.674 0 32-14.326 32-32s-14.326-32-32-32h-960c-17.673 0-32 14.326-32 32s14.327 32 32 32zM32 298.666h960c17.674 0 32-14.326 32-32s-14.326-32-32-32h-960c-17.673 0-32 14.326-32 32s14.327 32 32 32z" />
<glyph unicode="&#xe92b;" glyph-name="hamburger" d="M0 800c0 17.673 14.327 32 32 32h960c17.674 0 32-14.327 32-32s-14.326-32-32-32h-960c-17.673 0-32 14.327-32 32zM0 117.334c0 17.674 14.327 32 32 32h960c17.674 0 32-14.326 32-32s-14.326-32-32-32h-960c-17.673 0-32 14.326-32 32zM32 490.666c-17.673 0-32-14.326-32-32s14.327-32 32-32h960c17.674 0 32 14.326 32 32s-14.326 32-32 32h-960z" />
<glyph unicode="&#xe92c;" glyph-name="heart-fill" d="M286.969 895.875c55.511-5.16 108.574-25.423 153.438-58.594 28.032-20.727 52.195-46.016 71.594-74.656 19.398 28.64 43.562 53.93 71.594 74.656 44.864 33.17 97.926 53.434 153.437 58.594l1.501 0.125h1.469c75.354 0 147.594-30.041 200.845-83.469 53.245-53.427 83.152-125.865 83.155-201.376 0-190.093-118.522-342.947-236.314-445.968-59.379-51.936-119.958-92.454-168.374-120.093-24.202-13.818-45.67-24.605-62.717-32.032-8.49-3.696-16.25-6.714-22.909-8.874-5.549-1.802-13.76-4.189-21.686-4.189-7.888 0-16.070 2.365-21.626 4.157-6.659 2.144-14.413 5.136-22.906 8.813-17.050 7.376-38.512 18.096-62.72 31.843-48.422 27.498-109.008 67.856-168.405 119.686-117.849 102.842-236.344 255.683-236.344 446.656 0.002 75.511 29.91 147.949 83.156 201.376 53.252 53.428 125.491 83.469 200.844 83.469h1.469l1.5-0.125z" />
<glyph unicode="&#xe92d;" glyph-name="heart" d="M83.144 812.531c-53.248-53.428-83.144-125.869-83.144-201.382 0-190.973 118.486-343.818 236.335-446.656 59.397-51.834 119.985-92.192 168.411-119.693 24.208-13.747 45.674-24.451 62.723-31.827 8.493-3.674 16.24-6.675 22.899-8.822 5.555-1.789 13.744-4.15 21.632-4.15 7.93 0 16.147 2.39 21.699 4.192 6.662 2.163 14.41 5.187 22.902 8.886 17.050 7.427 38.515 18.195 62.717 32.013 48.416 27.642 108.989 68.163 168.374 120.102 117.789 103.018 236.307 255.859 236.307 445.955 0 75.513-29.894 147.954-83.142 201.382-53.254 53.432-125.501 83.469-200.858 83.469h-1.485l-1.475-0.137c-55.517-5.159-108.566-25.422-153.434-58.593-28.035-20.727-52.208-46.002-71.606-74.643-19.398 28.642-43.571 53.916-71.606 74.643-44.867 33.172-97.917 53.435-153.433 58.593l-1.477 0.137h-1.484c-75.356 0-147.604-30.037-200.856-83.469zM282.52 831.995c43.336-4.297 84.734-20.245 119.825-46.188 35.488-26.239 63.184-61.709 80.080-102.596 4.947-11.97 16.621-19.778 29.574-19.778s24.627 7.808 29.574 19.778c16.896 40.887 44.592 76.357 80.080 102.596 35.091 25.943 76.49 41.891 119.824 46.188 57.779-0.389 113.13-23.587 154.048-64.643 41.27-41.409 64.474-97.595 64.474-156.204 0-162.691-101.981-299.424-214.442-397.782-55.741-48.752-112.73-86.867-157.971-112.694-22.624-12.918-42.010-22.589-56.544-28.918-7.299-3.181-13.024-5.363-17.107-6.688-0.768-0.25-1.418-0.448-1.958-0.608-0.547 0.16-1.203 0.358-1.981 0.608-4.086 1.318-9.814 3.488-17.11 6.643-14.534 6.288-33.917 15.901-56.538 28.746-45.232 25.686-102.205 63.629-157.934 112.259-112.401 98.086-214.415 234.816-214.415 398.435 0 58.608 23.204 114.794 64.475 156.204 40.917 41.055 96.267 64.253 154.046 64.643z" />
<glyph unicode="&#xe92e;" glyph-name="indiegogo" d="M242.687 736c66.044-0.002 124.913-17.208 165.156-43.125l-76.093-118.532c-24.473 13.725-53.962 24.47-95.532 24.47-55.996 0-93.375-20.189-93.375-140.157 0.002-119.955 22.33-150.186 87.656-150.189 70.021 0 68.188 26.038 68.188 84.845v9.312h-91.625l15.656 115.658h206.030v-321.155h-130.78c-22.924-4.304-49.446-6.47-80.375-6.47-174.484 0-217.593 111.366-217.594 272.314 0 184.611 58.887 273.030 242.687 273.030zM712.998 736c198.15-0.002 232.659-130.733 232.659-273.030-0.003-142.301-34.4-272.31-232.659-272.314-198.237 0-233.466 129.293-233.466 272.314 0 143.018 35.226 273.030 233.466 273.030zM991.533 281.344c25.907 0 32.464-17.629 32.467-40.47 0-22.845-6.554-40.278-32.467-40.278s-32.253 17.334-32.253 40.278c0.003 22.944 6.346 40.467 32.253 40.47zM991.533 275.376c-21.2-0.003-26.096-15.059-26.096-34.627 0.003-19.562 4.899-34.496 26.096-34.499 21.197 0 26.214 14.835 26.218 34.499 0 19.674-5.018 34.627-26.218 34.627zM993.782 265.155c12.496 0 15.654-5.558 15.654-15.187l-0.093-0.093c0-7.469-1.933-12.784-8.374-14.938l8.093-17.939h-10.157l-7.469 17.002h-6.25v-17.002h-9.843v48.157h18.438zM985.28 242h8.096c4.701 0.003 6.342 2.061 6.342 7.28-0.003 5.21-1.536 7.248-6.342 7.251h-8.096v-14.531zM712.998 598.72c-78.33 0-89.091-53.283-89.091-140.877 0-87.59 10.87-141.469 89.091-141.469 77.52 0.003 88.282 54.496 88.282 141.469 0 86.979-9.93 140.874-88.282 140.877z" />
<glyph unicode="&#xe92f;" glyph-name="instagram" d="M509.030 960c138.218 0 155.6-0.609 210.157-2.844 54.358-2.439 91.357-11.182 123.686-23.781 33.338-13.208 61.84-30.678 90.125-59.125 28.285-28.444 45.85-56.9 58.784-90.625 12.528-32.716 21.229-69.918 23.654-124.375 2.426-54.664 3.030-71.954 3.030-211.157 0-139.187-0.605-156.467-3.030-211.123-2.426-54.666-11.126-91.862-23.654-124.374-13.136-33.526-30.499-62.179-58.784-90.627-28.288-28.448-56.582-46.15-90.125-59.155-32.534-12.598-69.53-21.312-123.686-23.75-54.355-2.438-71.549-3.062-209.968-3.062-138.406 0-155.584 0.624-209.938 3.062-54.359 2.438-91.355 11.152-123.688 23.75-33.34 13.21-61.836 30.707-90.125 59.155-28.284 28.448-45.85 56.899-58.781 90.627-12.529 32.717-21.231 69.91-23.656 124.374-2.425 54.656-3.031 72.138-3.031 211.123 0 138.995 0.607 156.483 3.031 210.939 2.425 54.665 11.127 91.86 23.656 124.375 13.133 33.525 30.497 62.179 58.781 90.625 28.289 28.448 56.583 46.151 90.125 59.156 32.33 12.598 69.319 21.311 123.469 23.75 54.358 2.439 71.747 3.062 209.968 3.062zM509.030 867.75c-135.997 0-151.965-0.421-205.718-3.063-49.708-2.236-76.579-10.778-94.563-17.687-23.841-9.143-40.814-20.31-58.594-38.188-17.782-17.883-28.704-34.958-38-58.938-7.072-18.085-15.37-45.109-17.594-95.094-2.425-54.055-3.031-70.119-3.031-206.874 0-136.758 0.607-152.826 3.031-206.877 2.223-49.99 10.723-77.037 17.594-95.123 9.092-23.974 20.221-41.027 38-58.906 17.783-17.885 34.749-28.874 58.594-38.221 17.984-7.11 44.859-15.453 94.563-17.686 53.753-2.438 69.721-3.030 205.718-3.030 136 0 151.968 0.592 205.718 3.030 49.706 2.234 76.579 10.778 94.563 17.686 23.846 9.146 40.813 20.336 58.595 38.221 17.779 17.878 28.704 34.934 38 58.906 7.072 18.086 15.37 45.133 17.594 95.123 2.422 54.051 3.030 70.118 3.030 206.877 0 136.755-0.605 152.819-3.030 206.874-2.224 49.985-10.723 77.009-17.594 95.094-9.094 23.979-20.218 41.055-38 58.938-17.779 17.877-34.755 28.841-58.595 38.188-17.984 7.112-44.854 15.452-94.563 17.687-53.75 2.439-69.718 3.063-205.718 3.063zM509.030 711.062c144.285 0 261.501-117.872 261.501-262.97-0.003-145.091-117.219-262.938-261.501-262.938-144.278 0-261.495 117.645-261.499 262.938 0 145.299 117.218 262.969 261.499 262.97zM509.030 618.813c-93.763 0-169.75-76.429-169.75-170.72 0.006-94.288 75.99-170.685 169.75-170.688 93.763 0 169.747 76.4 169.75 170.688 0 94.291-75.987 170.72-169.75 170.72zM780.813 782.781c33.699 0 61.024-27.455 61.030-61.344 0-33.894-27.325-61.375-61.030-61.375-33.699 0.006-61.002 27.485-61.002 61.375 0.006 33.885 27.306 61.338 61.002 61.344z" />
<glyph unicode="&#xe930;" glyph-name="jekyll" d="M512 960c282.579 0 512-229.42 512-512-0.003-282.576-229.421-512-512-512-20.925 0-41.571 1.274-61.843 3.718-5.971 0.72-11.91 1.546-17.814 2.47-6.605 1.034-13.168 2.182-19.686 3.469l216.688 552.624c8.368 21.344 19.498 31.28 31.062 38.998 10.723 7.155 22.896 10.464 30.656 30.253 0.829 2.128 0.109 4.573-0.845 7.28-2.003 5.686-5.946 11.75-11.344 18.125-19.872 23.475-57.782 48.923-107.312 68.344-49.558 19.435-94.243 27.652-124.717 24.156-8.115-0.932-15.021-2.652-20.314-5.563-2.922-1.606-5.293-3.472-6.342-6.156-7.946-20.268-1.77-30.284 1.216-42.468 3.184-13.005 4.832-27.562-2.749-49.533-33.299-96.509-138.475-361.725-211.75-544.781-6.222 4.624-12.345 9.382-18.344 14.282-4.011 3.274-7.997 6.608-11.906 10-108.193 93.901-176.654 232.416-176.656 386.781 0 282.578 229.422 511.997 512 512zM379.28-46.595c-52.211 13.997-101.143 36.061-145.374 64.752 24.217 61.811 50.72 129.421 71.313 181.936 13.97 35.61 35.882 49.286 57.469 59.034 35.027 15.814 53.050 1.693 90.125 18.186 36.669 16.605 77.254 62.598 77.718 63.126l-151.251-387.034zM285.375 14.813c-2.508 6.515-10.152 9.523-16.656 6.624-6.503-2.515-9.325-10.387-6.625-16.717 2.705-6.528 10.149-9.536 16.656-6.627v0.374c6.902 3.11 9.725 10.013 6.625 16.346zM334.688 63.562c-5.613 12.074-19.346 17.488-31.375 12.25-12.22-5.629-17.447-19.581-12.438-31.843l-0.375 0.189c5.611-12.074 19.322-17.702 31.939-12.282 12.032 5.434 17.27 19.421 12.25 31.686zM410.064 131.658c-2.512 6.323-10.154 9.539-16.659 6.435-6.304-2.32-9.517-10-6.624-16.531 2.509-6.525 10.179-9.536 16.688-6.624 6.496 2.518 9.498 10.195 6.595 16.72zM350.749 192.25c-1.738 4.349-6.627 6.147-11.155 4.406-3.942-1.549-6.144-6.646-4.406-10.998 1.734-4.547 6.624-6.17 11.155-4.627 4.339 1.744 6.141 6.672 4.406 11.219zM458.342 644.687c5.37 13.424 51.094 8.045 101.971-12.281 50.87-20.083 88.048-47.040 82.938-60.47-5.37-13.661-51.091-8.054-101.971 12.032-51.11 20.086-88.294 47.056-82.938 60.719z" />
<glyph unicode="&#xe931;" glyph-name="kakao-talk" d="M944 960c44.182 0 80-35.816 80-80v-864c0-44.182-35.818-80-80-80h-864c-44.184 0-80 35.818-80 80v864c0 44.184 35.816 80 80 80h864zM512 816c-229.752 0-416-146.852-416-328 0-117.117 77.872-219.878 195-277.907-6.371-21.971-40.954-141.325-42.344-150.749 0 0-0.814-7.062 3.75-9.75 4.563-2.685 9.937-0.595 9.937-0.595 13.134 1.866 151.781 99.245 175.781 116.157 23.978-3.395 48.662-5.155 73.875-5.155 229.75 0 416 146.848 416 328 0 181.148-186.25 328-416 328zM343.437 586c12.989 0 23.565-10.544 23.565-23.501s-10.579-23.498-23.565-23.498h-37.437v-142.595c-0.008-12.634-10.769-22.906-24-22.906s-23.992 10.272-24 22.906v142.595h-37.437c-12.988 0-23.563 10.541-23.563 23.498s10.579 23.501 23.563 23.501h122.874zM423.968 586c15.677-0.352 27.981-12.202 32.032-23.718l57.376-151.030c7.299-22.672 0.954-31.075-5.658-34.125-4.79-2.186-10.016-3.318-15.28-3.315-10.003 0.003-17.661 4.064-19.971 10.595l-11.872 31.126h-73.19l-11.872-31.126c-2.301-6.522-9.965-10.592-19.971-10.595-5.261-0.003-10.464 1.13-15.248 3.315-6.618 3.050-12.976 11.456-5.69 34.093l57.408 151.094c4.045 11.485 16.314 23.325 31.936 23.686zM685.344 586c13.232-0.003 24-10.768 24-24v-51.594l66.938 66.97c3.44 3.44 8.182 5.341 13.312 5.344 5.994 0 12.022-2.592 16.531-7.094 4.202-4.202 6.72-9.61 7.062-15.219 0.346-5.658-1.555-10.832-5.312-14.595l-54.688-54.685 59.094-78.282c1.901-2.506 3.27-5.366 4.061-8.406 0.794-3.053 0.979-6.256 0.531-9.376-0.429-3.12-1.466-6.128-3.062-8.845-1.597-2.714-3.728-5.078-6.25-6.966-4.15-3.155-9.222-4.858-14.435-4.845-3.718-0.016-7.392 0.845-10.72 2.499-3.325 1.654-6.211 4.061-8.438 7.030l-56.282 74.595-8.342-8.342v-52.378c-0.010-6.358-2.534-12.467-7.030-16.966-4.499-4.499-10.608-7.021-16.97-7.034-13.235 0-24 10.765-24 24v164.189c0 13.235 10.765 24 24 24zM553.501 586c13.507 0 24.499-10.765 24.499-24v-141.002h50.998c12.685 0 23.002-9.869 23.002-21.997 0-12.131-10.317-22.003-23.002-22.003h-76.998c-12.685 0-23.002 9.872-23.002 22.003v162.998c0 13.235 10.992 24 24.502 24zM400.032 458.032h47.936l-23.968 68.093-23.968-68.093z" />
<glyph unicode="&#xe932;" glyph-name="kick" d="M1024-64h-1024v1024h1024v-1024zM185.156 815.719v-735.437h245.125v163.437h81.718v-81.718h81.718v-81.718h245.126v245.155h-81.718v81.718h-81.69v81.718h81.69v81.69h81.718v245.156h-245.126v-81.719h-81.718v-81.719h-81.718v163.437h-245.125z" />
<glyph unicode="&#xe933;" glyph-name="kickstarter" d="M796.525 447.699l92.061 92.419c95.219 95.818 95.219 251.849 0 347.668-95.222 95.819-250.499 95.819-345.718 0l-33.584-33.607c-44.253 64.013-117.347 105.821-200.911 105.821-134.928 0-244.372-110.021-244.372-245.648v-532.704c0-135.626 109.444-245.648 244.372-245.648 83.564 0 156.658 41.808 200.911 105.821l33.584-33.606c95.219-95.818 250.496-95.818 345.718 0 95.219 95.818 95.219 251.85 0 347.667l-92.061 91.818z" />
<glyph unicode="&#xe934;" glyph-name="ko-fi" d="M484.314 832c179.523 0 226.070-2.235 292.56-8.875 156.269-15.507 247.126-111.929 247.126-250.469v-17.718c-0.003-128.566-94.205-233.85-221.658-244.906-9.971-33.261-25.469-66.49-46.531-99.75-48.758-75.354-146.294-170.653-325.811-170.656h-35.469c-146.292 0-259.335 63.149-326.938 178.406-59.852 100.832-67.594 212.806-67.594 362.406 0.006 147.396 88.71 227.157 192.875 240.468 78.689 9.975 176.213 11.094 291.439 11.094zM484.282 748.875c-120.771 0-207.219-1.12-272.594-11.094-91.967-13.312-128.562-65.388-128.562-158.469 0.001-142.944 8.9-234.922 55.437-320.25 53.182-98.624 149.595-136.31 259.313-136.314h34.342c144.051 0.006 213.901 69.821 252.688 130.752 18.838 31.034 35.45 65.389 44.314 108.624l6.656 27.686h39.907c88.65 0.013 165.114 72.045 165.123 164.032v16.624c-0.003 103.052-64.275 157.376-176.218 170.658-63.155 5.528-100.864 7.75-280.406 7.75zM518.72 643.594c76.461-0.007 129.622-63.19 129.622-134.125-0.003-65.405-36.573-121.901-84.218-166.218-29.93-29.923-78.646-60.992-111.907-80.938-8.893-5.53-19.949-8.842-33.248-8.845-11.091 0-21.088 3.312-31.062 8.845-33.232 19.946-81.995 51.014-113.032 80.938-43.63 41.578-78.505 93.846-82.687 154.093l-0.437 12.125c0 70.941 50.984 134.125 128.564 134.125 45.456 0 77.59-23.258 98.656-55.405 23.28 32.112 54.33 55.405 99.75 55.405zM763.626 651.344c56.509-0.004 87.562-33.292 87.562-86.47-0.010-53.162-31.059-85.306-87.562-85.312-17.722 0.003-27.683 9.978-27.69 23.283v125.187c0 13.309 9.962 23.31 27.69 23.312z" />
<glyph unicode="&#xe935;" glyph-name="last-fm" d="M451.558 222.957l-37.648 103.267c0 0-60.979-68.89-152.374-68.89-81.052 0-138.448 71.267-138.448 185.248 0 145.968 72.756 198.192 144.194 198.192 103.169 0 135.995-67.644 164.222-154.284l37.645-118.63c37.629-115.187 108.045-207.744 310.8-207.744 145.402 0 244.051 45.168 244.051 163.821 0 96.147-54.013 145.968-154.835 169.862l-74.989 16.582c-51.613 11.92-66.822 33.229-66.822 68.893 0 40.307 31.616 64.207 83.229 64.207 56.374 0 86.781-21.446 91.376-72.508l117.203 14.179c-9.408 106.924-82.17 150.848-201.776 150.848-105.622 0-208.806-40.306-208.806-169.878 0-80.79 38.781-131.773 136.010-155.498l79.808-19.030c59.754-14.198 79.789-39.258 79.789-73.677 0-43.923-42.198-61.741-121.987-61.741-118.419 0-167.818 62.982-195.808 149.606l-38.784 118.627c-49.011 154.474-127.61 211.406-283.578 211.406-172.446 0-264.028-110.347-264.028-298.033 0-180.387 91.394-277.782 255.828-277.782 132.402 0 195.785 62.979 195.785 62.979l-0.054-0.016v-0.006z" />
<glyph unicode="&#xe936;" glyph-name="laugh" d="M960 448c0 247.424-200.576 448-448 448s-448-200.576-448-448c0-247.424 200.576-448 448-448s448 200.576 448 448zM1024 448c0-282.771-229.229-512-512-512s-512 229.229-512 512c0 282.77 229.23 512 512 512s512-229.23 512-512zM347.427 528c0-34.083-27.629-61.715-61.713-61.715s-61.714 27.632-61.714 61.715c0 34.083 27.63 61.715 61.714 61.715s61.713-27.632 61.713-61.715zM800 528c0-34.083-27.632-61.715-61.715-61.715s-61.715 27.632-61.715 61.715c0 34.083 27.632 61.715 61.715 61.715s61.715-27.632 61.715-61.715zM269.528 296.998c53.416-82.822 142.101-136.998 242.472-136.998s189.056 54.176 242.47 136.998c6.55 10.154-1.075 23.002-13.158 23.002h-458.625c-12.084 0-19.709-12.848-13.16-23.002z" />
<glyph unicode="&#xe937;" glyph-name="line" d="M793.155 960c127.491-0.002 230.842-103.353 230.845-230.844v-562.311c-0.003-127.491-103.354-230.842-230.845-230.845h-562.311c-127.491 0.003-230.842 103.354-230.844 230.845v562.311c0.002 127.491 103.353 230.842 230.844 230.844h562.311zM511.907 773.313c-188.256 0-341.407-124.295-341.407-277.063 0.004-136.957 121.598-251.68 285.5-273.344 11.133-2.4 26.282-7.312 30.093-16.813 3.456-8.64 2.246-22.202 1.094-30.906-0.109-0.659-3.99-24.17-4.845-29.219-1.507-8.653-6.864-33.725 29.565-18.406 36.458 15.338 196.602 115.76 268.218 198.221 49.472 54.237 73.187 109.414 73.187 170.467 0 152.768-153.152 277.062-341.405 277.063zM607.501 570.093c0.845 0 1.686-0.173 2.467-0.499 0.787-0.33 1.498-0.829 2.096-1.437 0.592-0.608 1.059-1.334 1.373-2.125 0.31-0.787 0.454-1.626 0.438-2.47v-148.624c-0.003-1.696-0.675-3.331-1.875-4.531-1.197-1.19-2.813-1.872-4.499-1.875h-24.064c-0.582 0.010-1.184 0.112-1.75 0.25h-0.966l-0.346 0.157h-0.186l-0.378 0.25c-0.65 0.445-1.21 1.008-1.654 1.658l-68.282 92.157v-89.376c-0.003-1.696-0.675-3.334-1.875-4.531-1.197-1.19-2.813-1.872-4.499-1.875h-24.25c-1.686 0.003-3.306 0.685-4.502 1.875-1.197 1.197-1.872 2.835-1.875 4.531v148.998c0.003 1.699 0.675 3.331 1.875 4.531 1.197 1.194 2.813 1.872 4.502 1.875h27.123l0.346-0.186h0.186l0.346-0.282h0.218l0.342-0.282 0.378-0.374c0.205-0.205 0.406-0.445 0.56-0.688l68.157-92.064v88.531c0.003 1.696 0.678 3.334 1.875 4.531 1.197 1.19 2.813 1.872 4.499 1.875h24.221zM313.344 569.811c1.698 0 3.331-0.672 4.531-1.875 1.192-1.194 1.872-2.81 1.875-4.499v-118.406h65.188c1.693-0.003 3.334-0.675 4.531-1.875s1.875-2.835 1.875-4.531v-24.186c0-1.696-0.678-3.331-1.875-4.531s-2.838-1.872-4.531-1.875l0.093 0.093h-95.999c-1.697 0-3.331 0.675-4.532 1.875s-1.875 2.835-1.875 4.531v148.906c0.004 1.69 0.681 3.306 1.875 4.499 1.2 1.203 2.834 1.875 4.532 1.875h24.312zM442.656 570.093c3.603 0 6.525-2.931 6.531-6.531v-148.998c0-3.606-2.925-6.531-6.531-6.531h-24.189c-3.603 0-6.531 2.925-6.531 6.531v148.998c0.006 3.6 2.931 6.531 6.531 6.531h24.189zM739.718 569.782c1.696-0.003 3.334-0.678 4.531-1.875 1.19-1.197 1.872-2.813 1.875-4.502v-24.25c-0.003-1.686-0.685-3.302-1.875-4.499-1.197-1.197-2.835-1.872-4.531-1.875h-65.187v-25.123h65.187c1.696-0.003 3.334-0.678 4.531-1.875 1.2-1.2 1.875-2.838 1.875-4.531v-24.438c0-1.693-0.682-3.331-1.875-4.531-1.197-1.2-2.835-1.872-4.531-1.875h-65.187v-25.155h65.187c1.696-0.003 3.334-0.678 4.531-1.875 1.197-1.2 1.875-2.838 1.875-4.531v-24.189c0.029-0.858-0.128-1.728-0.438-2.531-0.307-0.797-0.781-1.51-1.373-2.125-0.598-0.618-1.302-1.133-2.096-1.469-0.787-0.336-1.642-0.499-2.499-0.499h-96c-1.696 0-3.331 0.675-4.531 1.875s-1.875 2.832-1.875 4.531v148.966c0.003 1.693 0.682 3.306 1.875 4.502 1.2 1.2 2.835 1.875 4.531 1.875h96z" />
<glyph unicode="&#xe938;" glyph-name="linkedin" horiz-adv-x="993" d="M919.577 960c40.522 0 73.39-32.056 73.393-71.576v-856.122c-0.006-39.533-32.87-71.574-73.393-71.574h-846.213c-40.517 0.006-73.359 32.048-73.364 71.574v856.122c0.003 39.515 32.846 71.568 73.364 71.576h846.213zM151.030 123.516h149.97v451.212h-149.97v-451.212zM669.122 585.334c-79.608-0.003-115.231-43.827-135.152-74.575v-1.455h-0.999c0.313 0.49 0.676 0.959 0.999 1.455v63.969h-149.969c1.961-42.313-0.022-449.213-0.031-451.212h150v251.969c0 13.483 0.981 26.968 4.94 36.606 10.842 26.941 35.511 54.846 76.94 54.849 54.269 0 75.968-41.376 75.968-102.031v-241.394h149.969v258.728c-0.003 138.591-73.992 203.090-172.665 203.090zM227 792.273c-51.297-0.002-84.843-33.7-84.849-77.97 0-43.3 32.549-77.937 82.879-77.94h0.97c52.301 0 84.849 34.639 84.849 77.94-0.981 44.27-32.546 77.969-83.849 77.97z" />
<glyph unicode="&#xe939;" glyph-name="linktree" d="M98.080 613.43h251.68l-179.92 171.715 98.8 100.515 170.56-174.855v249.194h147.68v-249.194l170.56 174.855 98.8-100.515-179.92-170.665h251.68v-141.35h-252.72l179.92-174.854-98.8-98.422-244.4 246.054-244.4-247.101-98.8 99.469 179.92 174.854h-252.72v140.301h2.080zM440.24 271.050h147.68v-335.050h-147.68v335.050z" />
<glyph unicode="&#xe93a;" glyph-name="logo" d="M240.969 443.626c56.964 0 103.937-13.571 140.875-40.72 36.934-27.146 60.97-64.752 72.093-112.813h-125.498c-7.12 15.574-18.035 27.366-32.72 35.376-14.24 8.454-32.711 12.688-55.406 12.688-27.591 0-50.747-5.805-69.438-17.376-18.236-11.568-32.032-28.022-41.375-49.376-8.901-20.915-13.344-45.853-13.344-74.781 0.001-29.363 4.659-54.282 14-74.749 9.344-20.022 22.923-35.171 40.719-45.408 17.801-10.234 39.415-15.341 64.781-15.341 34.705 0 60.951 8.464 78.75 25.373 18.243 17.357 29.613 38.035 34.061 62.064h-100.811v84.125h214.939v-264.346h-105.469l-8.659 46.72c-8.896-11.565-19.363-21.578-31.373-30.032-12.014-8.010-26.044-14.026-42.062-18.029-15.575-4.451-33.381-6.688-53.406-6.688-44.499 0-83.437 9.795-116.812 29.373-32.932 19.581-58.747 47.181-77.437 82.781-18.246 35.603-27.375 77.229-27.375 124.845 0.002 48.058 9.585 90.566 28.719 127.501 19.133 36.925 46.715 65.837 82.75 86.749 36.044 21.36 79.218 32.061 129.5 32.064zM789.686 443.626c46.282 0 87.002-10.25 122.157-30.72 35.158-20.47 62.544-48.944 82.125-85.437 20.026-36.048 30.032-77.885 30.032-125.501 0-47.613-10.010-89.667-30.032-126.157-19.581-36.045-46.966-64.307-82.125-84.781-35.155-20.467-75.875-30.717-122.157-30.717-45.834 0-86.342 10.246-121.498 30.717-35.152 20.47-62.726 48.739-82.752 84.781-20.026 36.493-30.061 78.541-30.061 126.157 0 47.619 10.035 89.453 30.061 125.501 20.026 36.486 47.603 64.966 82.752 85.437 35.155 20.47 75.664 30.72 121.498 30.72zM789.686 340.157c-24.029 0-44.95-5.805-62.749-17.376-17.792-11.123-31.587-26.912-41.376-47.376-9.344-20.47-14.029-44.954-14.029-73.437 0-28.035 4.685-52.522 14.029-73.437 9.792-20.467 23.578-36.493 41.376-48.064 17.798-11.123 38.72-16.685 62.749-16.685 24.474 0 45.395 5.565 62.752 16.685 17.798 11.571 31.373 27.597 40.717 48.064 9.792 20.915 14.688 45.402 14.688 73.437 0 28.483-4.896 52.966-14.688 73.437-9.344 20.467-22.922 36.253-40.717 47.376-17.357 11.571-38.275 17.376-62.752 17.376zM615.126 960c46.282 0 87.030-10.248 122.186-30.719 35.149-20.471 62.515-48.951 82.093-85.437 20.026-36.046 30.032-77.884 30.032-125.5 0-47.614-10.006-89.665-30.032-126.155-19.578-36.045-46.941-64.31-82.093-84.784-35.155-20.47-75.904-30.717-122.186-30.717-45.83 0.003-86.32 10.253-121.469 30.717-35.158 20.474-62.755 48.736-82.784 84.784-20.022 36.49-30.029 78.54-30.029 126.155 0 47.617 10.006 89.453 30.029 125.5 20.029 36.492 47.626 64.966 82.784 85.437 35.152 20.468 75.635 30.717 121.469 30.719zM128.156 572.813h196.282v-88.093h-310.407v467.28h114.125v-379.187zM615.126 856.531c-24.026-0.002-44.954-5.775-62.752-17.344-17.798-11.125-31.584-26.937-41.373-47.406-9.347-20.471-14.003-44.956-14.003-73.437 0.003-28.034 4.656-52.523 14.003-73.437 9.789-20.465 23.578-36.493 41.373-48.061 17.798-11.123 38.726-16.685 62.752-16.688 24.467 0 45.395 5.568 62.749 16.688 17.795 11.565 31.373 27.6 40.72 48.061 9.789 20.915 14.685 45.404 14.685 73.437 0 28.482-4.896 52.966-14.685 73.437-9.347 20.468-22.922 36.282-40.72 47.406-17.354 11.564-38.282 17.344-62.749 17.344z" />
<glyph unicode="&#xe93b;" glyph-name="mastodon" horiz-adv-x="936" d="M469.799 960h-3.171c-128.316-1.055-251.757-14.955-323.686-48-1.567-0.708-142.654-65.012-142.657-281.544 0-49.869-0.953-109.486 0.629-172.714 5.173-212.936 39.019-422.827 235.886-474.943 90.776-24.017 168.711-29.052 231.485-25.6 113.401 6.293 177.237 40.375 177.714 40.629l-3.742 82.599c0 0-81.361-25.641-172.714-22.513-90.495 3.101-186.047 9.751-200.686 120.885-1.355 9.754-2.028 20.187-2.029 31.144 0 0 88.86-21.709 201.456-26.858 68.842-3.163 133.424 4.035 199.001 11.858 125.759 15.021 235.239 92.505 248.999 163.313 21.682 111.54 19.915 272.2 19.915 272.2-0.003 216.84-141.488 281.016-142.658 281.544-71.926 33.044-195.444 46.945-323.742 48zM614.827 789.857c46.185-0.003 83.418-16.24 111.83-47.914 27.554-31.677 41.255-74.514 41.255-128.4v-263.627h-104.457v255.886c0 53.947-22.686 81.313-68.084 81.313-50.188-0.004-75.343-32.459-75.343-96.685v-140.086h-103.828v140.086c-0.003 64.225-25.167 96.681-75.343 96.685-45.401 0-68.116-27.366-68.116-81.313v-255.886h-104.428v263.627c0 53.886 13.701 96.724 41.257 128.4 28.41 31.674 65.631 47.911 111.828 47.914 53.444 0 93.93-20.543 120.686-61.629l26.030-43.629 26.027 43.629c26.756 41.086 67.245 61.629 120.686 61.629z" />
<glyph unicode="&#xe93c;" glyph-name="matrix" d="M129.125 936.562h-70.188v-976.53h70.188v-23.437h-97.125v1023.405h97.125v-23.438zM1018.906-63.405h-97.123v23.437h70.186v976.53h-70.186v23.438h97.123v-1023.405zM658.531 636.874c19.261 0 37.104-2.358 53.562-7.062 16.438-4.704 30.563-12.24 42.314-22.592 11.738-10.362 20.909-23.904 27.501-40.595 6.57-16.72 9.843-36.838 9.843-60.374v-244.25h-100.093v206.845c0 12.227-0.464 23.763-1.408 34.592-0.95 10.819-3.52 20.237-7.75 28.25-4.23 7.997-10.474 14.355-18.688 19.062-8.224 4.691-19.402 7.062-33.498 7.062-14.093 0-25.494-2.733-34.189-8.125-8.701-5.421-15.507-12.493-20.438-21.187-4.931-8.717-8.234-18.592-9.875-29.654-1.651-11.056-2.467-22.24-2.467-33.533v-203.312h-100.093v204.72c0 10.822-0.237 21.539-0.688 32.125-0.48 10.595-2.47 20.365-6 29.312-3.526 8.928-9.408 16.112-17.626 21.53-8.227 5.395-20.336 8.125-36.314 8.125-4.704 0-10.941-1.062-18.688-3.187-7.75-2.118-15.283-6.128-22.56-12-7.29-5.885-13.491-14.365-18.656-25.405-5.174-11.066-7.782-25.555-7.782-43.437v-211.782h-100.094v365.002h94.468v-49.44h1.408c13.162 18.813 29.021 33.427 47.594 43.782 18.554 10.333 39.824 15.53 63.779 15.53 23.021 0 44.067-4.474 63.094-13.405 19.037-8.947 33.504-24.717 43.376-47.312 10.8 15.997 25.491 30.109 44.061 42.342 18.56 12.23 40.525 18.374 65.907 18.374z" />
<glyph unicode="&#xe93d;" glyph-name="medium" d="M288.8 736c159.507 0 288.8-130.195 288.8-290.784 0-160.592-129.306-290.774-288.8-290.774-159.488 0-288.8 130.182-288.8 290.774 0 160.586 129.3 290.784 288.8 290.784zM750 718.968c79.754 0 144.403-122.552 144.403-273.752h0.013c0-151.165-64.653-273.754-144.4-273.754s-144.403 122.589-144.403 273.754c0 151.162 64.64 273.752 144.39 273.752h-0.003zM973.213 690.452c28.042 0 50.787-109.796 50.787-245.239 0-135.402-22.736-245.242-50.787-245.242-28.054 0-50.778 109.808-50.778 245.242 0 135.437 22.736 245.239 50.778 245.239z" />
<glyph unicode="&#xe93e;" glyph-name="messenger" d="M512 960c288.384 0 512-211.469 512-496.781-0.006-285.306-223.619-496.624-512-496.624-51.84 0-101.501 6.918-148.218 19.718-9.088 2.432-18.832 1.776-27.408-2.064l-101.624-44.781c-6.137-2.707-12.842-3.866-19.531-3.376-6.691 0.493-13.168 2.611-18.844 6.189-5.674 3.578-10.389 8.49-13.719 14.314-3.331 5.821-5.17 12.387-5.375 19.091l-2.812 91.126c-0.256 11.261-5.372 21.763-13.688 29.187-99.584 89.088-160.781 218.128-160.781 367.376 0.008 285.303 223.621 496.624 512 496.624zM819.594 577.782c14.336 22.909-13.84 48.787-35.344 32.406l-161.53-122.627c-5.315-4.035-11.798-6.256-18.47-6.282-6.675-0.022-13.187 2.157-18.531 6.157l-119.654 89.718c-8.49 6.378-18.23 10.915-28.563 13.344s-21.062 2.707-31.501 0.781c-10.438-1.923-20.368-6.013-29.155-11.968-8.784-5.952-16.253-13.648-21.907-22.624l-150.406-238.595c-14.464-22.912 13.715-48.662 35.219-32.282l161.53 122.627c5.315 4.035 11.798 6.256 18.47 6.282 6.675 0.022 13.187-2.157 18.531-6.157l119.654-89.718c8.49-6.378 18.23-10.915 28.563-13.344s21.062-2.707 31.501-0.781c10.438 1.923 20.368 6.013 29.155 11.968 8.784 5.952 16.253 13.648 21.907 22.624l150.531 238.47z" />
<glyph unicode="&#xe93f;" glyph-name="minus" d="M0 448c0 17.674 14.327 32 32 32h960c17.674 0 32-14.326 32-32s-14.326-32-32-32h-960c-17.673 0-32 14.326-32 32z" />
<glyph unicode="&#xe940;" glyph-name="nequi" d="M996.314 864c15.114-0.561 27.686-13.154 27.686-28.719v-750.155c0-15.581-12.826-28.752-28.749-28.752h-186.595c-9.686 0.006-17.658 4.512-22.157 12.47l-280.374 504.374c-4.499 8.653-16.97 5.194-16.97-4.499v-483.251c0-15.578-12.826-28.749-28.749-28.749h-117.344c-15.578 0-28.75 12.826-28.75 28.749v749.469c0 15.578 12.827 28.75 28.75 28.75h195.251c9.686-0.004 17.658-4.511 22.154-12.468l272.784-489.843c4.499-8.656 16.966-5.194 16.966 4.499v469.062c0 15.576 12.8 28.746 28.72 28.75h117.376v0.313zM164.781 863.687c15.867-0.002 28.719-12.883 28.719-28.75v-115.625c-0.003-15.865-12.854-28.717-28.719-28.719h-136.062c-15.863 0.005-28.716 12.856-28.719 28.719v115.625c0 15.865 12.855 28.744 28.719 28.75h136.062z" />
<glyph unicode="&#xe941;" glyph-name="neutral" d="M960 448c0 247.424-200.576 448-448 448s-448-200.576-448-448c0-247.424 200.576-448 448-448s448 200.576 448 448zM1024 448c0-282.771-229.229-512-512-512s-512 229.229-512 512c0 282.77 229.23 512 512 512s512-229.23 512-512zM347.427 528c0-34.083-27.629-61.715-61.713-61.715s-61.714 27.632-61.714 61.715c0 34.083 27.63 61.715 61.714 61.715s61.713-27.632 61.713-61.715zM800 528c0-34.083-27.632-61.715-61.715-61.715s-61.715 27.632-61.715 61.715c0 34.083 27.632 61.715 61.715 61.715s61.715-27.632 61.715-61.715zM640 320c17.674 0 32-14.326 32-32s-14.326-32-32-32h-256c-17.674 0-32 14.326-32 32s14.326 32 32 32h256z" />
<glyph unicode="&#xe942;" glyph-name="next" d="M199.418 948.485c11.314 13.577 31.492 15.411 45.069 4.097l570.099-475.085c18.422-15.35 18.422-43.645 0-58.998l-570.099-475.082c-13.577-11.315-33.755-9.482-45.069 4.096s-9.48 33.754 4.097 45.069l546.501 455.418-546.501 455.416c-13.577 11.314-15.411 31.492-4.097 45.069z" />
<glyph unicode="&#xe943;" glyph-name="odysee" d="M323.878 411.408c6.656 2.397 10.518 0.982 14.25-5.030 28.931-46.662 56.602-94.061 81.283-143.126 7.101-14.115 12.413-29.075 10.31-45.187-4.352-33.373-38.109-62.592-71.936-62.374-20.522 0.131-40.855-0.413-60.719-6.406-37.79-11.402-55.507-38.95-49.781-77.75 8.108-54.922 43.699-85.885 99.499-87.811 65.894-2.275 124.774 19.117 179.658 53.062 31.152 19.267 45.92 50.566 54.906 84.592 11.846 44.861 15.155 90.621 11.155 136.845-1.357 15.725 1.997 18.918 18.314 17.907 34.298-2.131 57.702-20.627 73.814-49.437 16.746-29.949 25.056-62.381 26.749-96.659 0.717-14.595 1.798-29.286 4.186-43.686 7.245-43.709 35.51-55.408 73.408-54.061 7.725 0.275 15.395 2.176 23.28 3.373 0.63-3.882-2.71-4.429-4.592-5.75-74.413-52.218-156.717-83.149-247.376-91.469-2.323-0.214-4.586-1.066-6.874-1.622h-81.846c-19.149 2.902-38.451 5.091-57.437 8.842-88.838 17.549-167.606 55.914-236.156 115.219-63.855 55.248-111.423 122.016-142.469 200.531-1.32 3.341-3.774 6.531-2.719 10.906 0.958 0 2.164 0.403 2.781-0.029 21.485-15.117 43.367-10.81 65.062-0.97 22.311 10.122 41.621 24.928 58.594 42.25 46.304 47.264 103.486 75.789 164.656 97.843zM888.691 793.596c3.184 0.827 5.002-3.003 6.938-5.219 43.814-50.015 77.632-105.983 99.75-168.812 14.086-40.016 23.581-81.050 27.030-123.405 0.189-2.333 1.046-4.637 1.594-6.938-0.003-27.277 0-54.57 0-81.846-3.686-20.4-5.242-41.114-9.469-61.469-17.158-82.688-52.685-156.534-105.811-222.029-0.806-0.992-1.85-1.798-4.499-4.282 2.979 11.75-2.707 19.018-7.19 26.813-26.4 45.952-52.218 92.771-59.498 145.843-5.891 42.925-26.864 75.485-55.907 105.030-18.688 19.011-38.931 36.166-59.968 52.438-23.514 18.186-24.55 35.805-3.187 56.845 41.77 41.133 82.704 83.062 118.282 129.811 29.392 38.626 41.61 83.738 47.747 130.937 0.794 6.066 1.027 12.212 1.814 18.281 0.362 2.803-1.258 7.044 2.374 8zM513.19 959.909c95.347 0.399 183.76-24.452 265.344-73.719 11.424-6.9 11.517-7.043 1.658-15.687-16.669-14.614-24.477-34.274-30.374-54.656-6.63-22.898-11.997-46.177-17.907-69.281-3.475-13.58-8.051-26.748-14.813-39.094-15.482-28.251-44.355-42.005-75.843-36.156-10.147 1.885-12.045 10.305-14.032 18.125-4.608 18.158-8.346 36.545-12.998 54.688-8.47 33.016-17.805 65.824-30.314 97.563-14.883 37.759-37.955 67.865-79.28 79.188-24.246 6.644-48.813 5.552-72.813-0.688-47.674-12.396-92.467-31.438-129.126-65.312-27.077-25.024-38.944-57.767-41.562-94.031-3.849-53.326 8.536-104.275 23.344-154.814 2.969-10.131 5.683-20.381 9.312-30.278 3.136-8.557 0.174-13.43-7.375-17.187-17.15-8.531-35.244-14.694-53.25-20.97-80.722-28.128-149.351-75.155-210.344-134.157-3.907-3.782-7.385-8.013-11.094-12-1.76-1.898-2.907-5.494-6.062-4.438-2.91 0.982-2.491 4.493-2.781 7.158-3.264 29.558-3.644 59.296-1.687 88.842 3.885 58.602 17.539 115.094 41.094 169.032 34.666 79.369 86.281 145.744 154.188 199.312 76.020 59.96 162.612 94.672 258.561 106.375 7.763 0.947 15.571 1.854 23.376 2.094 11.584 0.352 23.19 0.094 34.781 0.094zM868.566 602.41c-0.64-16.506-10.070-24.602-23.968-30.096 16.182-0.557 25.616-9.274 31.904-23.53 0.461 16.826 9.629 25.587 24.096 31.123-15.338 1.030-25.939 7.68-32.032 22.502zM484.003 870.19c27.354 0.501 48.032-11.151 61.939-34.437 15.181-25.423 24.634-53.126 29.75-82.156 3.891-22.094-1.594-41.969-20.659-55.219-34.896-24.251-73.050-41.421-116.093-43.437-31.77-1.485-56.218 15.974-68.467 45.531-7.93 19.124-11.552 39.11-12 62.812 0.221 41.159 21.776 72.057 60.499 91 20.243 9.902 42.138 15.488 65.030 15.906zM536.16 776.065c-7.075-2.225-7.974-7.792-6.064-13.938 2.128-6.856 3.853-13.696 3.034-21.75 0-0.545 0.048-1.9 0-3.25-0.221-6.294-0.509-13.098 7.875-13.969 8.653-0.897 10.742 5.903 11.594 12.5 1.443 11.214 0.8 22.348-4 32.844-2.397 5.232-5.738 9.67-12.438 7.563zM510.691 836.721c-5.747 0.007-8.912-3.167-9.405-8.594-0.602-6.548 11.722-21.473 17.373-21.469 5.766 0.011 8.499 3.331 9.312 8.156 0.365 7.99-10.861 21.876-17.28 21.906z" />
<glyph unicode="&#xe944;" glyph-name="ok-ru" d="M532.531 960c231.53 0 347.43-0.014 419.376-72.094 72.080-72.080 72.093-187.845 72.093-419.375v-41.062c0-231.53-0.013-347.43-72.093-419.376-72.080-72.080-187.846-72.093-419.376-72.093h-41.062c-231.53 0-347.432 0.013-419.375 72.093-72.080 72.080-72.094 187.834-72.094 419.501v40.938c0 231.666 0.014 347.432 72.094 419.375s187.709 72.094 419.375 72.094h41.062zM333.782 451.75c-3.686 3.139-9.549 2.72-12.688-1.376l-52.844-72.467c-2.73-3.686-1.765-8.614 1.375-11.344 44.638-36.448 96.65-60.605 150.842-73.437l-112.061-197.408c-2.73-5.459 1.365-12.282 7.781-12.282h109.876c3.139 0 6.416 1.789 7.779 5.062l78.374 175.002 78.346-175.002c1.363-3.136 4.509-5.059 7.779-5.062h109.907c6.413 0.003 10.493 6.822 7.219 12.282l-112.064 197.408c54.195 12.832 105.802 36.851 150.438 73.437 3.686 2.73 4.102 7.795 1.782 11.344h-0.282l-53.376 72.467c-3.139 4.096-8.592 4.512-12.688 1.376-50.099-42.864-111.677-70.157-177.747-70.157-66.074 0-127.651 27.837-177.75 70.157zM511.936 812.563c-50.099-0.001-95.299-20.081-128.061-52.844-32.755-32.761-52.81-77.94-52.813-128.032 0-50.096 20.051-95.299 52.813-128.061 32.762-32.352 77.962-52.813 128.061-52.813 50.102 0 95.299 20.048 128.064 52.813 32.762 32.762 52.813 78.371 52.813 128.061-0.003 49.684-20.058 95.271-52.813 128.032-32.765 32.763-77.962 52.844-128.064 52.844zM511.936 714.281c22.39 0 43.27-9.171 57.875-24.188 15.014-15.016 24.189-35.488 24.189-57.876-0.003-22.384-9.174-43.267-24.189-57.875-15.014-15.011-35.488-24.154-57.875-24.154-22.384 0-43.267 9.142-57.872 24.154-15.018 15.018-24.157 35.491-24.157 57.875 0 22.387 9.142 42.86 24.157 57.876s35.485 24.187 57.872 24.188z" />
<glyph unicode="&#xe945;" glyph-name="patreon" d="M966.976 652.37c-0.182 130.75-102.013 237.91-221.488 276.575-148.368 48.014-344.048 41.055-485.719-25.79-171.71-81.029-225.65-258.522-227.66-435.543-1.65-145.539 12.876-528.867 229.092-531.597 160.656-2.038 184.576 204.97 258.912 304.669 52.886 70.931 120.982 90.963 204.81 111.709 144.070 35.661 242.262 149.363 242.054 299.977z" />
<glyph unicode="&#xe946;" glyph-name="paypal" d="M831.699 882.785c42.89-49.087 54.835-103.199 42.982-182.941 0 0-2.006-12.255-3.248-18.655-41.773-215.483-184.742-289.979-367.379-289.979h-92.941c-22.304 0-41.168-16.32-44.672-38.432l1.53 9.792-49.133-312.954h-195.604c-16.728 0-29.506 15.005-26.893 31.581l131.944 840.372c3.505 22.112 22.495 38.431 44.831 38.431h316.844c109.194 0 194.522-23.168 241.741-77.215zM924.198 659.028c36.259-45.854 43.299-109.278 28.643-184.923-36.547-188.48-161.638-253.661-321.366-253.661h-24.694c-19.498 0-36.131-14.272-39.158-33.632l-2.010-10.912-31.098-197.821-1.594-8.448c-3.059-19.36-19.658-33.632-39.19-33.632h-135.194l62.166 398.586h83.35c229.859 0 374.707 112.285 420.144 324.443z" />
<glyph unicode="&#xe947;" glyph-name="pinerest" d="M512.016 960c-282.764 0-512.016-229.236-512.016-512.010 0-209.654 126.068-389.763 306.475-468.954-1.444 35.754-0.261 78.672 8.908 117.571 9.845 41.568 65.884 278.992 65.884 278.992s-16.358 32.688-16.358 81.011c0 75.872 43.981 132.541 98.746 132.541 46.57 0 69.072-34.982 69.072-76.867 0-46.816-29.859-116.845-45.219-181.702-12.826-54.314 27.235-98.614 80.816-98.614 97.005 0 162.342 124.595 162.342 272.221 0 112.214-75.581 196.207-213.046 196.207-155.312 0-252.074-115.823-252.074-245.199 0-44.605 13.156-76.067 33.756-100.422 9.472-11.187 10.786-15.693 7.356-28.538-2.452-9.421-8.095-32.099-10.427-41.091-3.411-12.963-13.917-17.6-25.639-12.81-71.536 29.203-104.852 107.542-104.852 195.606 0 145.44 122.665 319.843 365.931 319.843 195.478 0 324.138-141.459 324.138-293.302 0-200.848-111.661-350.902-276.259-350.902-55.28 0-107.277 29.882-125.088 63.818 0 0-29.725-117.968-36.022-140.749-10.851-39.475-32.102-78.928-51.53-109.68 46.048-13.594 94.691-20.995 145.107-20.995 282.739 0 511.984 229.235 511.984 512.016 0 282.773-229.245 512.010-511.984 512.010z" />
<glyph unicode="&#xe948;" glyph-name="pixelfed" d="M512 960c-92.362 0-178.698-23.291-259.012-69.873-77.101-45.779-138.14-107.219-183.115-184.32-46.582-79.509-69.873-165.647-69.873-258.409 0-92.765 23.291-178.899 69.873-258.41 44.976-77.101 106.014-138.141 183.115-183.117 80.314-46.582 166.65-69.872 259.012-69.872s178.698 23.29 259.011 69.872c77.101 44.976 138.141 106.016 183.117 183.117 46.582 79.51 69.872 165.645 69.872 258.41 0 92.762-23.29 178.899-69.872 258.409-44.976 77.101-106.016 138.541-183.117 184.32-80.314 46.582-166.65 69.873-259.011 69.873zM430.080 647.981h134.928c28.912 0 55.616-7.028 80.112-21.082s43.971-32.928 58.429-56.621c14.454-23.693 21.683-49.795 21.683-78.307s-7.229-54.614-21.683-78.304c-14.458-23.693-33.933-42.566-58.429-56.624-24.496-14.054-51.2-21.082-80.112-21.082h-93.968l-133.722-127.699v349.366c0 24.896 9.034 46.179 27.104 63.85 18.070 17.667 39.958 26.503 65.658 26.503z" />
<glyph unicode="&#xe949;" glyph-name="play" d="M959.888 513.997c15.11-7.786 22.666-11.677 27.139-15.082 33.629-25.613 33.629-76.214 0-101.83-4.474-3.405-12.029-7.296-27.139-15.082l-819.649-422.243c-13.065-6.73-19.597-10.096-24.595-11.709-37.223-12.003-76.414 11.891-82.788 50.48-0.856 5.181-0.856 12.528-0.856 27.226v844.486c0 14.697 0 22.045 0.856 27.225 6.375 38.588 45.565 62.484 82.788 50.479 4.997-1.612 11.53-4.977 24.595-11.707l819.649-422.244z" />
<glyph unicode="&#xe94a;" glyph-name="plus" d="M544 928c0 17.673-14.326 32-32 32s-32-14.327-32-32v-448h-448c-17.673 0-32-14.326-32-32s14.327-32 32-32h448v-448c0-17.674 14.326-32 32-32s32 14.326 32 32v448h448c17.674 0 32 14.326 32 32s-14.326 32-32 32h-448v448z" />
<glyph unicode="&#xe94b;" glyph-name="prev" d="M824.582-52.486c-11.315-13.578-31.491-15.411-45.069-4.099l-570.1 475.085c-18.422 15.354-18.422 43.648 0 58.998l570.1 475.084c13.578 11.314 33.754 9.48 45.069-4.097s9.478-33.755-4.096-45.069l-546.502-455.416 546.502-455.418c13.574-11.315 15.411-31.491 4.096-45.069z" />
<glyph unicode="&#xe94c;" glyph-name="qq" d="M526.55 960c228.291-0.014 321.123-197.625 321.123-394.282 0-11.674-0.557-34.31-0.592-35.654l46.061-115.002c12.624-32.899 25.091-67.152 34.221-96.531 43.53-140.093 29.418-198.115 18.688-199.437-22.989-2.765-89.344 104.886-89.722 105.501 0-62.704-32.323-144.48-102.186-203.565 26.134-8.054 58.24-20.438 78.845-35.654 18.477-13.645 16.179-27.571 12.842-33.187-14.63-24.694-251.030-15.782-319.28-8.096-68.256-7.683-304.609-16.595-319.251 8.096-3.33 5.613-5.652 19.539 12.844 33.187 20.58 15.203 52.648 27.568 78.781 35.622-69.875 59.085-102.188 140.89-102.188 203.597-0.2-0.326-66.656-108.202-89.687-105.469-10.739 1.293-24.859 59.28 18.687 199.405 9.129 29.37 21.597 63.632 34.219 96.531l46.062 115.031c-0.046 1.469-0.594 24.010-0.594 35.658 0.005 196.639 92.831 394.242 321.125 394.25zM769.456 384.624c-83.984-16.637-170.819-26.237-242.374-25.373h-1.094c-19.021-0.23-39.13 0.32-59.968 1.498v-137.622c-70.237-9.792-140.352 4.131-141.562 4.374v149.594c-13.637 2.304-27.282 4.845-40.845 7.53-6.225-39.83-9.744-88.774-6.312-146.342 9.365-156.87 102.54-255.482 246.345-256.906h5.843c143.805 1.427 236.963 100.038 246.342 256.906 3.434 57.581-0.144 106.509-6.374 146.342zM525.987 644.875c-103.178 0-186.518-20.42-194.813-38.75-0.39-0.816-0.618-1.722-0.624-2.624 0.016-1.261 0.429-2.499 1.155-3.533 7.030-10.179 99.555-60.374 194.282-60.374h1.094c94.717 0 187.251 50.182 194.282 60.374 0.733 1.037 1.146 2.294 1.155 3.565-0.010 0.896-0.234 1.786-0.624 2.592l-0.97 1.718c-12.477 17.862-93.862 37.032-193.843 37.032h-1.094zM439.238 832c-30.97-1.402-54.707-38.918-53.034-83.781 1.667-44.854 28.125-80.149 59.094-78.75 30.95 1.382 54.694 38.905 53.002 83.781-1.683 44.86-28.134 80.126-59.062 78.75zM613.862 832c-30.941 1.38-57.376-33.888-59.062-78.75-1.693-44.867 22.013-82.389 52.97-83.781 30.97-1.4 57.434 33.902 59.091 78.75 1.683 44.858-22.035 82.371-52.998 83.781zM456.518 776.5c13.421 1.737 25.443-11.248 26.845-28.969 1.411-17.709-8.294-33.431-21.658-35.156-13.402-1.722-25.421 11.248-26.845 28.969-1.392 17.722 8.32 33.439 21.658 35.156zM568.458 741.625c2.746 4.914 21.386 30.665 59.968 21.281 10.118-2.464 14.81-6.071 15.811-7.5 1.459-2.107 1.862-5.114 0.374-9.156-2.931-8.013-8.992-7.784-12.342-6.219-2.282 1.087-29.104 18.862-53.811-7.812-1.709-1.828-4.746-2.458-7.626-0.281-2.893 2.193-4.083 6.615-2.374 9.687z" />
<glyph unicode="&#xe94d;" glyph-name="red-bubble" d="M709.677 263.526h-136.48c-7.558 0-13.696 6.182-13.696 13.741v342.557c0 7.555 6.138 13.725 13.696 13.725h126.538c94.838 0 114.877-56.022 114.877-102.874 0-27.152-7.27-48.592-21.613-64.378 34.861-14.381 53.645-46.851 53.645-93.712 0.003-68.346-51.306-109.059-136.966-109.059zM511.517 263.526h-283.508c-7.589 0-13.567 6.182-13.567 13.741v342.557c0 7.555 5.978 13.725 13.567 13.725h132.369c82.835 0 132.035-44.666 132.035-119.152 0-49.677-24.931-88.656-65.152-104.448l94.362-123.686c7.715-8.835 1.562-22.576-10.106-22.736zM511.997 960c-282.73 0-511.997-229.268-511.997-512 0-282.742 229.267-512 511.997-512 282.752-0.003 512.003 229.258 512.003 512 0 282.732-229.251 512-512.003 512z" />
<glyph unicode="&#xe94e;" glyph-name="reddit" d="M512 960c282.771 0 512-229.23 512-512s-229.229-512-512-512c-282.77 0-512 229.229-512 512s229.23 512 512 512zM742.125 752.125c-23.456 9.060-50.026-0.264-62.688-22l-125.469 25.062c-2.045 0.445-4.16 0.495-6.218 0.125-2.074-0.384-4.048-1.174-5.814-2.313-1.747-1.138-3.261-2.62-4.435-4.344-1.19-1.741-2.048-3.689-2.47-5.75l-37.875-177.655c-17.702-0.269-35.37-1.827-52.842-4.656-17.466-2.829-34.717-6.899-51.594-12.221-16.883-5.325-33.379-11.888-49.315-19.594-15.93-7.715-31.284-16.57-45.936-26.499-7.892 7.424-17.315 13.043-27.594 16.467-10.276 3.424-21.174 4.579-31.937 3.376-10.769-1.203-21.17-4.762-30.437-10.374-9.261-5.613-17.201-13.174-23.25-22.157-6.053-8.986-10.088-19.178-11.812-29.875-1.724-10.701-1.084-21.658 1.844-32.093 2.933-10.432 8.087-20.106 15.125-28.346 7.037-8.237 15.782-14.848 25.625-19.373-0.141-1.866-0.249-3.747-0.313-5.626-0.154-3.754-0.154-7.53 0-11.28 0.064-1.882 0.172-3.76 0.313-5.626 0.001-114.688 133.637-207.875 298.501-207.875 164.861 0 298.499 93.187 298.499 207.875 0.141 1.866 0.246 3.744 0.31 5.626 0.157 3.75 0.157 7.526 0 11.28-0.064 1.878-0.17 3.76-0.31 5.626 6.285 3.123 12.109 7.126 17.28 11.875 5.165 4.746 9.635 10.202 13.283 16.186 3.658 5.99 6.467 12.48 8.31 19.251 1.843 6.768 2.698 13.77 2.595 20.781-0.525 14.413-5.219 28.378-13.501 40.189-8.278 11.802-19.792 20.966-33.155 26.374s-28.003 6.819-42.157 4.093c-14.16-2.72-27.254-9.482-37.658-19.469-14.464 9.834-29.616 18.627-45.344 26.282-31.488 15.344-65.040 26.054-99.594 31.811-17.251 2.88-34.704 4.538-52.186 4.909l33.28 159.717 109.594-23.031c2.691-25.008 23.158-44.364 48.282-45.656 25.107-1.286 47.453 15.871 52.688 40.468 5.245 24.599-8.166 49.375-31.626 58.438zM396.064 278.595c3.424 0.163 6.79-0.957 9.437-3.126 7.629-5.594 15.725-10.557 24.186-14.781s17.254-7.731 26.314-10.47c9.043-2.749 18.307-4.707 27.686-5.875 9.382-1.178 18.867-1.578 28.314-1.155 9.459-0.512 18.954-0.211 28.374 0.877 9.402 1.088 18.701 2.976 27.782 5.622 9.091 2.659 17.952 6.074 26.467 10.221 8.518 4.144 16.678 9.008 24.378 14.531 2.95 2.211 6.486 3.638 10.154 3.594 3.658-0.051 7.162-1.568 9.718-4.189 2.56-2.624 3.99-6.17 3.939-9.843-0.054-3.648-1.546-7.133-4.157-9.686l0.314 1.686c-8.992-6.778-18.547-12.765-28.563-17.907-20.090-10.294-41.808-17.085-64.189-20.029-11.174-1.459-22.467-1.962-33.718-1.501-11.245-0.461-22.518 0.042-33.686 1.501-11.171 1.469-22.189 3.898-32.938 7.248-10.752 3.354-21.229 7.635-31.251 12.781-10.013 5.142-19.568 11.13-28.56 17.907-2.176 2.646-3.29 6.010-3.126 9.437 0.166 3.43 1.613 6.694 4.032 9.126 2.429 2.41 5.67 3.866 9.094 4.032zM593.562 430.938c14.64 14.64 36.65 19.040 55.782 11.126 19.123-7.936 31.626-26.605 31.626-47.315 0.278-6.934-0.861-13.862-3.344-20.342-2.483-6.49-6.256-12.397-11.094-17.376-4.835-4.973-10.624-8.918-17.030-11.594-6.413-2.662-13.315-4.013-20.25-3.936l0.499 2.061c-20.707 0.006-39.379 12.474-47.312 31.594-7.92 19.133-3.514 41.139 11.123 55.782zM373.094 444.093c19.136 7.923 41.168 3.549 55.811-11.094 14.64-14.64 19.011-36.646 11.094-55.779-7.933-19.12-26.576-31.619-47.28-31.626-6.726 0-13.411 1.338-19.626 3.907-6.202 2.586-11.85 6.336-16.595 11.094-4.762 4.749-8.509 10.416-11.094 16.624-2.57 6.218-3.904 12.877-3.904 19.594 0.003 20.698 12.483 39.344 31.594 47.28z" />
<glyph unicode="&#xe94f;" glyph-name="rokfin" d="M624.925 960c137.222 0 248.464-111.243 248.464-248.463h-496.925c-137.221 0-248.464 111.243-248.464 248.463h496.925zM482.176 404.925h142.749c137.222 0 248.464 111.242 248.464 248.461h-491.638c-97.208 0-181.379-55.825-222.201-137.169-64.643-118.067-23.419-266.749 93.755-334.397l425.777-245.821c68.605 118.838 27.891 270.794-90.95 339.405l-121.814 70.333c-28.102 16.224-16.589 59.187 15.859 59.187z" />
<glyph unicode="&#xe950;" glyph-name="rss" horiz-adv-x="993" d="M257.417 84.446c0-70.969-57.715-128.686-128.708-128.686s-128.708 57.716-128.708 128.686c0 70.994 57.715 128.707 128.708 128.707s128.708-57.738 128.708-128.707zM992.948-44.262c1.949 296.010-134.923 589.296-364.259 776.495-174.716 145.858-400.928 228.536-628.689 227.761v-229.732c269.499 3.12 535.102-143.514 673.525-375.192 73.241-120.193 112.097-258.181 112.333-398.935h207.090v-0.397zM641.97-44.262c1.148 190.315-89.318 377.515-237.124 496.86-113.106 92.812-258.566 145.085-404.823 144.288v-193.44c159.114 1.949 315.13-89.315 391.169-229.308 37.047-66.979 56.509-142.258 56.565-218.801h194.212v0.4z" />
<glyph unicode="&#xe951;" glyph-name="rumble" d="M949.139 276.566c43.936 44.912 68.474 105.283 68.326 168.109-0.15 62.826-24.97 123.082-69.117 167.782-159.523 163.012-368.086 291.751-590.179 341.929-119.814 27.079-236.33-46.452-271.287-163.589-66.532-222.928-76.636-473.77-7.792-695.501 36.241-116.73 158.644-180.691 278.285-152.8 227.875 53.11 429.61 167.056 591.763 334.070zM635.792 506.816c41.443-32.173 41.443-93.418-0.429-125.034-62.458-47.216-130.826-86.058-203.363-115.533-48.765-19.843-101.894 11.475-107.12 63.6-7.598 75.907-5.308 155.453 6.445 234.765 7.706 51.91 61.542 82.030 109.603 60.41 67.558-30.397 133.446-70.512 194.864-118.208z" />
<glyph unicode="&#xe952;" glyph-name="sad" d="M960 448c0 247.424-200.576 448-448 448s-448-200.576-448-448c0-247.424 200.576-448 448-448s448 200.576 448 448zM1024 448c0-282.771-229.229-512-512-512s-512 229.229-512 512c0 282.77 229.23 512 512 512s512-229.23 512-512zM347.427 528c0-34.083-27.629-61.715-61.713-61.715s-61.714 27.632-61.714 61.715c0 34.083 27.63 61.715 61.714 61.715s61.713-27.632 61.713-61.715zM800 528c0-34.083-27.632-61.715-61.715-61.715s-61.715 27.632-61.715 61.715c0 34.083 27.632 61.715 61.715 61.715s61.715-27.632 61.715-61.715zM379.971 208.435c-8.595-15.44-28.090-20.998-43.533-12.406-15.443 8.595-20.999 28.090-12.406 43.533 37.139 66.736 107.098 112.438 187.968 112.438s150.832-45.702 187.971-112.438c8.592-15.443 3.034-34.938-12.406-43.533-15.443-8.592-34.938-3.034-43.533 12.406-26.736 48.042-76.163 79.565-132.032 79.565-55.866 0-105.293-31.523-132.029-79.565z" />
<glyph unicode="&#xe953;" glyph-name="search" d="M64 493.84c0-222.106 180.053-402.16 402.16-402.16s402.16 180.054 402.16 402.16c0 222.107-180.054 402.16-402.16 402.16s-402.16-180.053-402.16-402.16zM466.16 960c257.453 0 466.16-208.707 466.16-466.16 0-118.643-44.323-226.934-117.312-309.219 0.118-0.115 0.24-0.234 0.362-0.355l192.57-192.57c12.499-12.499 12.499-32.758 0-45.258-12.496-12.496-32.758-12.496-45.254 0l-192.573 192.573c-0.246 0.25-0.49 0.499-0.73 0.755-81.514-69.875-187.44-112.086-303.222-112.086-257.453 0-466.16 208.707-466.16 466.16s208.707 466.16 466.16 466.16z" />
<glyph unicode="&#xe954;" glyph-name="shopping-bag" d="M512 960c141.386 0 256-114.615 256-256v-160c0-17.674-14.326-32-32-32s-32 14.326-32 32v160c0 106.039-85.962 192-192 192s-192-85.961-192-192v-160c0-17.674-14.327-32-32-32s-32 14.326-32 32v160c0 141.385 114.614 256 256 256zM64 608v-544c0-35.347 28.654-64 64-64h768c35.347 0 64 28.653 64 64v544c0 17.674 14.326 32 32 32s32-14.326 32-32v-544c0-70.691-57.309-128-128-128h-768c-70.692 0-128 57.309-128 128v544c0 17.674 14.327 32 32 32s32-14.326 32-32z" />
<glyph unicode="&#xe955;" glyph-name="shopping-cart" d="M5.959 914.599c-10.272-14.381-6.941-34.367 7.44-44.639l100.635-71.883 78.224-610.148c2.047-15.968 15.64-27.93 31.74-27.93h624.001c17.67 0 32 14.326 32 32s-14.33 32-32 32h-595.842l-10.257 80h622.099c13.197 0 25.043 8.106 29.824 20.406l118.154 304c3.827 9.846 2.55 20.945-3.414 29.663s-15.846 13.93-26.41 13.93h-787.432l-18.983 148.069c-1.132 8.833-5.894 16.794-13.141 21.97l-112 80c-14.381 10.272-34.367 6.941-44.639-7.44zM233.696 368l-30.769 240h732.455l-93.28-240h-608.406zM736 64c17.67 0 32-14.326 32-32s-14.33-32-32-32c-17.674 0-32 14.326-32 32s14.326 32 32 32zM640 32c0-53.021 42.979-96 96-96 53.018 0 96 42.979 96 96 0 53.018-42.982 96-96 96-53.021 0-96-42.982-96-96zM287.999 32c0-17.674 14.327-32 32-32s32.001 14.326 32.001 32-14.33 32-32.001 32c-17.673 0-32-14.326-32-32zM319.999 128c53.019 0 96.001-42.982 96.001-96 0-53.021-42.982-96-96.001-96s-96 42.979-96 96c0 53.018 42.98 96 96 96z" />
<glyph unicode="&#xe956;" glyph-name="signal" d="M511.811 864.673c-74.246-0.089-147.114-20.051-211.033-57.812s-116.563-91.943-152.459-156.919c-35.896-64.976-53.737-138.375-51.67-212.576 2.068-74.198 23.969-146.49 63.428-209.37l-40.012-171.174 170.749 40.003c54.584-34.518 116.456-55.856 180.719-62.326s129.149 2.106 189.52 25.050c60.374 22.944 114.573 59.622 158.31 107.136s75.811 104.557 93.677 166.608c17.869 62.051 21.040 127.411 9.267 190.902-11.776 63.488-38.173 123.368-77.101 174.892-38.931 51.524-89.325 93.279-147.19 121.959-57.869 28.68-121.619 43.497-186.205 43.278v0.349zM274.298 49.728l-68.625-16.048 10.933-46.512 50.596 11.629c38.348-20.755 79.252-36.394 121.665-46.515l11.632 46.515c-44.381 10.675-86.918 27.92-126.202 51.165v-0.234zM50.509 153.69l46.526-10.813 15.935 68.726c-23.375 39.126-40.744 81.539-51.527 125.821l-46.526-11.629c10.44-42.406 26.313-83.29 47.224-121.635l-11.632-50.586v0.115zM162.868 24.029l-99.1-23.258 23.496 99.312-46.526 10.813-23.263-98.96c-1.548-6.109-1.873-12.464-0.955-18.698 0.918-6.237 3.060-12.227 6.303-17.632s7.523-10.115 12.594-13.856c5.071-3.744 10.832-6.448 16.952-7.958h0.814c7.186-1.738 14.682-1.738 21.867 0l99.1 23.258-11.283 46.979zM442.022 907.816c46.272 6.861 93.306 6.861 139.578 0l6.512 46.515c-50.899 7.559-102.634 7.559-153.533 0l7.443-46.748v0.232zM950.314 713.383l-41.056-24.653c23.952-39.773 41.866-82.884 53.155-127.917l46.525 11.629c-12.205 49.853-31.808 97.594-58.157 141.639l-0.467-0.698zM138.326 723.965c27.653 37.626 60.781 70.904 98.285 98.728l-28.497 38.607c-41.387-30.425-77.901-66.97-108.288-108.38l38.616-28.723-0.116-0.233zM787.011 822.693c37.472-27.717 70.634-60.831 98.4-98.263l38.618 28.491c-30.448 41.253-66.909 77.708-108.173 108.148l-28.845-38.375zM885.411 174.042c-27.702-37.488-60.874-70.611-98.4-98.262l28.496-38.608c41.395 30.4 77.981 66.858 108.522 108.147l-38.618 28.723zM581.6-9.926c-46.256-7.094-93.322-7.094-139.578 0l-7.213-47.562c50.851-7.674 102.57-7.674 153.421 0l-6.63 47.562zM1009.171 325.914l-46.528 11.629c-11.229-45.366-29.184-88.797-53.27-128.848l41.059-24.653c26.643 44.048 46.448 91.882 58.739 141.872zM976.138 448.944c0.006-23.354-1.744-46.678-5.235-69.773l47.341-7.21c7.677 50.842 7.677 102.544 0 153.386l-47.341-7.213c3.482-23.094 5.232-46.416 5.235-69.77v0.579zM776.774 10.426l-24.659 41.046c-39.731-24.045-82.867-41.958-127.946-53.142l11.632-46.515c49.894 12.099 97.664 31.702 141.67 58.144l-0.698 0.467zM48.067 448.944c-0.036 23.354 1.675 46.675 5.118 69.773l-47.34 7.094c-7.793-50.832-7.793-102.554 0-153.382l47.456 6.742c-3.452 23.098-5.162 46.419-5.118 69.773h-0.116zM73.656 713.499c-26.446-44.038-46.055-91.835-58.157-141.755l46.526-11.629c11.010 45.216 28.731 88.53 52.574 128.499l-40.943 24.885zM634.87 946.074l-11.632-46.515c45.382-11.382 88.816-29.449 128.877-53.609l24.774 41.050c-44.138 26.586-92.006 46.42-142.019 58.842v0.233zM389.101 946.074l11.629-46.515c-45.357-11.341-88.757-29.412-128.758-53.609l-24.659 41.050c44.141 26.337 91.971 45.935 141.903 58.144l-0.115 0.93z" />
<glyph unicode="&#xe957;" glyph-name="slack" horiz-adv-x="993" d="M364.122 429.304c-54.931 0-99.375-44.535-99.334-99.424v-265.334c-0.074-54.883 44.39-99.43 99.272-99.517 54.89 0.043 99.375 44.597 99.334 99.486v265.272c0.081 54.886-44.389 99.427-99.272 99.517zM628.848 164.001h-99.303v-99.486c-0.037-54.843 44.42-99.396 99.303-99.486 54.89 0.043 99.375 44.597 99.334 99.486 0.040 54.89-44.445 99.443-99.334 99.486zM198.636 429.363h-99.333c-54.885-0.047-99.344-44.597-99.303-99.483-0.040-54.886 44.418-99.44 99.303-99.486 54.89 0.040 99.373 44.597 99.333 99.486v99.483zM893.698 429.394h-264.788c-54.89-0.040-99.375-44.594-99.334-99.486-0.034-54.921 44.392-99.468 99.272-99.514h264.819c54.886 0.047 99.344 44.6 99.303 99.486 0.081 54.89-44.383 99.434-99.272 99.514zM364.060 694.667h-264.757c-54.882-0.046-99.338-44.573-99.303-99.456-0.081-54.89 44.383-99.434 99.273-99.514h264.787c54.886 0.040 99.368 44.569 99.334 99.455 0.040 54.93-44.445 99.474-99.334 99.515zM628.91 960c-54.89-0.041-99.375-44.595-99.334-99.485v-265.304c-0.081-54.883 44.389-99.424 99.272-99.514 54.89 0.040 99.375 44.584 99.334 99.514v265.304c0.040 54.847-44.386 99.4-99.272 99.485zM893.667 694.667c-54.886-0.041-99.368-44.569-99.334-99.456v-99.514h99.334c54.886 0.047 99.344 44.587 99.303 99.514 0.034 54.883-44.42 99.41-99.303 99.456zM364.060 960c-54.886-0.044-99.312-44.597-99.272-99.485-0.036-54.886 44.446-99.414 99.334-99.455h99.303v99.424c0.040 54.89-44.435 99.434-99.365 99.515z" />
<glyph unicode="&#xe958;" glyph-name="smallchat" d="M0 473.69c0-131.194 71.81-252.637 197.036-333.162 17.545-11.299 40.877-6.422 52.212 10.826 11.335 17.187 6.452 40.202-10.973 51.443-103.581 66.608-162.909 165.331-162.909 270.893 0 191.857 195.888 347.971 436.633 347.971s436.637-156.114 436.637-347.971c0-191.856-195.891-347.971-436.637-347.971-41.36 0-82.358 4.64-121.91 13.741l-16.157 3.747-159.594-107.35c-17.183-11.597-21.584-34.73-9.887-51.68 7.356-10.525 19.172-16.176 31.231-16.176 7.295 0 14.651 2.083 21.222 6.426l132.401 89.149c40.096-8.15 81.274-12.195 122.694-12.195 282.349 0 512 189.418 512 422.31 0 232.833-229.651 422.31-512 422.31-282.347 0-512-189.477-512-422.31z" />
<glyph unicode="&#xe959;" glyph-name="smile" d="M960 448c0 247.424-200.576 448-448 448s-448-200.576-448-448c0-247.424 200.576-448 448-448s448 200.576 448 448zM1024 448c0-282.771-229.229-512-512-512s-512 229.229-512 512c0 282.77 229.23 512 512 512s512-229.23 512-512zM347.427 528c0-34.083-27.629-61.715-61.713-61.715s-61.714 27.632-61.714 61.715c0 34.083 27.63 61.715 61.714 61.715s61.713-27.632 61.713-61.715zM800 528c0-34.083-27.632-61.715-61.715-61.715s-61.715 27.632-61.715 61.715c0 34.083 27.632 61.715 61.715 61.715s61.715-27.632 61.715-61.715zM644.029 303.565c8.595 15.44 28.090 20.998 43.533 12.406 15.443-8.595 20.998-28.090 12.406-43.533-37.139-66.736-107.098-112.438-187.968-112.438s-150.832 45.702-187.971 112.438c-8.591 15.443-3.034 34.938 12.406 43.533 15.443 8.592 34.938 3.034 43.533-12.406 26.736-48.042 76.163-79.565 132.032-79.565 55.866 0 105.293 31.523 132.029 79.565z" />
</font>
</defs>
</svg>
