<svg width="32" height="32" viewBox="0 0 32 32" fill="none" xmlns="http://www.w3.org/2000/svg">
<path d="M21.9902 0C22.3724 0 22.7546 0.000176159 23.1367 0.00195312C23.4585 0.0037309 23.7808 0.00673611 24.1025 0.015625C24.8037 0.0342931 25.511 0.0767849 26.2041 0.201172C26.9072 0.328283 27.563 0.534042 28.2021 0.859375C28.8305 1.17936 29.4057 1.5971 29.9043 2.0957C30.4029 2.59429 30.8206 3.16854 31.1406 3.79688C31.466 4.43687 31.6726 5.09288 31.7988 5.79688C31.9232 6.48999 31.9657 7.19635 31.9844 7.89746C31.9933 8.21924 31.9963 8.5415 31.998 8.86328C31.9998 9.24544 32 9.6276 32 10.0098H31.999V21.9893C31.999 22.3714 31.9997 22.7536 31.9971 23.1357C31.9953 23.4575 31.9923 23.7798 31.9834 24.1016C31.9647 24.8019 31.9223 25.5099 31.7979 26.2031C31.6716 26.9069 31.4649 27.5623 31.1396 28.2021C30.8197 28.8305 30.4019 29.4047 29.9033 29.9033C29.4047 30.4019 28.8295 30.8197 28.2012 31.1396C27.5621 31.465 26.9071 31.6716 26.2031 31.7979C25.51 31.9222 24.8027 31.9647 24.1016 31.9834C23.7798 31.9923 23.4575 31.9953 23.1357 31.9971C22.7536 31.9988 22.3714 31.999 21.9893 31.999H10.0098C9.6276 31.999 9.24544 31.9997 8.86328 31.9971C8.5415 31.9953 8.21924 31.9923 7.89746 31.9834C7.19632 31.9647 6.48904 31.9222 5.7959 31.7979C5.09279 31.6707 4.43696 31.465 3.79785 31.1396C3.16951 30.8197 2.5943 30.4019 2.0957 29.9033C1.59711 29.4047 1.17935 28.8305 0.859375 28.2021C0.534118 27.5623 0.327402 26.9069 0.201172 26.2031C0.0767403 25.5099 0.0342945 24.8028 0.015625 24.1016C0.00673611 23.7798 0.0037309 23.4575 0.00195312 23.1357C0.000176544 22.7536 0 22.3714 0 21.9893V10.0098C0 9.62763 0.000176563 9.2455 0.00195312 8.86426C0.0037309 8.54248 0.00673611 8.22021 0.015625 7.89844C0.0342945 7.19806 0.0767404 6.49014 0.201172 5.79688C0.327402 5.09306 0.534118 4.4377 0.859375 3.79785C1.17935 3.16951 1.59711 2.59528 2.0957 2.09668C2.5943 1.59808 3.16951 1.18033 3.79785 0.860352C4.43696 0.535018 5.0919 0.328371 5.7959 0.202148C6.48905 0.0768711 7.19632 0.0351814 7.89746 0.015625C8.21924 0.00673611 8.5415 0.0037309 8.86328 0.00195312C9.24544 0.000176153 9.6276 0 10.0098 0H21.9902ZM22.6221 4.88867C22.5442 4.8959 21.8596 5.01702 21.7754 5.03418L12.2637 6.9541L12.2607 6.95508C12.0128 7.00751 11.8182 7.09549 11.668 7.22168C11.4867 7.37363 11.3859 7.58831 11.3477 7.83887C11.3397 7.8922 11.3262 8.00113 11.3262 8.16113V20.0645C11.3262 20.3427 11.3037 20.6135 11.1152 20.8438C10.9268 21.0738 10.6937 21.1432 10.4209 21.1982C10.2139 21.24 10.0068 21.2815 9.7998 21.3232C9.01418 21.4814 8.50309 21.589 8.04004 21.7686C7.5974 21.9401 7.26595 22.1592 7.00195 22.4365C6.4784 22.985 6.26598 23.7289 6.33887 24.4258C6.40109 25.0204 6.66841 25.5893 7.12793 26.0098C7.43805 26.2941 7.82554 26.51 8.28223 26.6016C8.75599 26.6967 9.26129 26.664 9.99902 26.5146C10.3919 26.4355 10.7601 26.3116 11.1104 26.1045C11.4569 25.9001 11.7534 25.6272 11.9854 25.2949C12.2182 24.9616 12.3685 24.591 12.4512 24.1973C12.5365 23.791 12.5576 23.4239 12.5576 23.0186V12.6943C12.5576 12.1414 12.7139 11.9952 13.1602 11.8867C13.2086 11.8769 21.0649 10.2929 21.4346 10.2207C21.9491 10.1221 22.1923 10.2684 22.1924 10.8076V17.8564C22.1924 18.1353 22.189 18.4175 21.999 18.6484C21.8106 18.8787 21.5776 18.9488 21.3047 19.0039C21.0977 19.0457 20.8906 19.0871 20.6836 19.1289C19.8979 19.2871 19.3869 19.3947 18.9238 19.5742C18.4812 19.7458 18.1497 19.9649 17.8857 20.2422C17.3622 20.7906 17.1302 21.5346 17.2031 22.2314C17.2654 22.826 17.5522 23.3951 18.0117 23.8154C18.3218 24.0997 18.7094 24.3089 19.166 24.4014C19.6398 24.4965 20.145 24.4629 20.8828 24.3145C21.2756 24.2353 21.644 24.1172 21.9941 23.9102C22.3406 23.7058 22.6372 23.4329 22.8691 23.1006C23.102 22.7673 23.2523 22.3966 23.335 22.0029C23.4203 21.5968 23.4238 21.2295 23.4238 20.8242V5.72949C23.4255 5.1821 23.1366 4.84423 22.6221 4.88867Z" fill="#333333"/>
</svg>
