<svg width="33" height="32" viewBox="0 0 33 32" fill="none" xmlns="http://www.w3.org/2000/svg">
<path fill-rule="evenodd" clip-rule="evenodd" d="M12.3757 5.17218C12.8329 4.77213 13.5278 4.81846 13.9278 5.27566C14.3279 5.73286 14.2816 6.4278 13.8244 6.82785L4.02763 15.4L31.1 15.4C31.7075 15.4 32.2 15.8925 32.2 16.5C32.2 17.1075 31.7075 17.6 31.1 17.6L4.02764 17.6L13.8244 26.1721C14.2816 26.5722 14.3279 27.2671 13.9278 27.7243C13.5278 28.1815 12.8328 28.2278 12.3756 27.8278L0.547704 17.4783C0.517423 17.4518 0.48869 17.4243 0.461507 17.3958C0.182157 17.1963 3.91288e-05 16.8694 3.91611e-05 16.5C3.91934e-05 16.1306 0.182153 15.8037 0.461505 15.6042C0.488689 15.5757 0.517421 15.5481 0.547704 15.5216L12.3757 5.17218Z" fill="#333333"/>
</svg>
