<svg width="32" height="33" viewBox="0 0 32 33" fill="none" xmlns="http://www.w3.org/2000/svg">
<path fill-rule="evenodd" clip-rule="evenodd" d="M27.3278 12.3756C27.7279 12.8328 27.6815 13.5277 27.2243 13.9278C26.7671 14.3278 26.0722 14.2815 25.6721 13.8243L17.1 4.02757L17.1 31.0999C17.1 31.7074 16.6075 32.1999 16 32.1999C15.3925 32.1999 14.9 31.7074 14.9 31.0999L14.9 4.02758L6.32787 13.8243C5.92782 14.2815 5.23288 14.3278 4.77568 13.9278C4.31848 13.5277 4.27215 12.8328 4.6722 12.3756L15.0217 0.547641C15.0482 0.51736 15.0757 0.488628 15.1042 0.461444C15.3037 0.182094 15.6306 -2.33791e-05 16 -2.33952e-05C16.3694 -2.34114e-05 16.6963 0.18209 16.8958 0.461442C16.9243 0.488626 16.9519 0.517358 16.9784 0.547641L27.3278 12.3756Z" fill="#333333"/>
</svg>
