<svg width="33" height="32" viewBox="0 0 33 32" fill="none" xmlns="http://www.w3.org/2000/svg">
<path fill-rule="evenodd" clip-rule="evenodd" d="M19.8243 27.8278C19.3671 28.2279 18.6722 28.1815 18.2721 27.7243C17.8721 27.2671 17.9184 26.5722 18.3756 26.1721L28.1723 17.6L1.1 17.6C0.492485 17.6 0 17.1075 0 16.5C0 15.8925 0.492485 15.4 1.1 15.4L28.1723 15.4L18.3756 6.82787C17.9184 6.42782 17.8721 5.73288 18.2721 5.27568C18.6722 4.81848 19.3671 4.77216 19.8243 5.1722L31.6522 15.5217C31.6825 15.5482 31.7113 15.5757 31.7384 15.6042C32.0178 15.8037 32.1999 16.1306 32.1999 16.5C32.1999 16.8694 32.0178 17.1963 31.7384 17.3958C31.7113 17.4243 31.6825 17.4519 31.6522 17.4784L19.8243 27.8278Z" fill="#333333"/>
</svg>
