<svg width="32" height="32" viewBox="0 0 32 32" fill="none" xmlns="http://www.w3.org/2000/svg">
<path fill-rule="evenodd" clip-rule="evenodd" d="M6.636 4.09965C6.46089 3.94039 6.31918 3.74686 6.21934 3.53062C6.11951 3.31439 6.0636 3.0799 6.05497 2.84118C6.04634 2.60247 6.08516 2.36444 6.16912 2.14134C6.25307 1.91823 6.38042 1.71464 6.54356 1.54275C6.7067 1.37085 6.90227 1.23419 7.11856 1.14093C7.33485 1.04767 7.56743 0.999741 7.80236 1C8.0373 1.00026 8.26977 1.04871 8.48586 1.14245C8.70196 1.23618 8.89723 1.37328 9.06 1.54554L12.8307 5.24384C12.9373 5.34959 13.0293 5.46482 13.104 5.58819H18.8067C18.8834 5.46235 18.9752 5.34668 19.08 5.24384L22.8507 1.54554C23.1874 1.23928 23.6278 1.07761 24.0793 1.09449C24.5308 1.11136 24.9583 1.30546 25.272 1.63603C25.5858 1.9666 25.7613 2.40792 25.7618 2.8673C25.7623 3.32668 25.5877 3.76838 25.2747 4.09965L23.76 5.58954H24.8907C26.7761 5.5899 28.5842 6.35159 29.9173 7.70712C31.2505 9.06265 31.9996 10.901 32 12.8181V22.7688C32.0002 23.7183 31.8164 24.6586 31.4591 25.5359C31.1019 26.4133 30.5781 27.2104 29.9178 27.8819C29.2575 28.5534 28.4736 29.0861 27.6108 29.4495C26.748 29.8129 25.8232 30 24.8893 30H7.11067C5.2248 30 3.41617 29.2383 2.08267 27.8824C0.749157 26.5266 0 24.6876 0 22.7701L0 12.8181C0 10.9006 0.749157 9.06163 2.08267 7.70577C3.41617 6.3499 5.2248 5.58819 7.11067 5.58819H8.152L6.636 4.09829V4.09965ZM7.11067 9.07501C6.16779 9.07537 5.26365 9.45646 4.59706 10.1345C3.93047 10.8125 3.556 11.7319 3.556 12.6906V22.8976C3.55635 23.856 3.93098 24.7751 4.59753 25.4528C5.26408 26.1306 6.16802 26.5115 7.11067 26.5118H24.8893C25.832 26.5115 26.7359 26.1306 27.4025 25.4528C28.069 24.7751 28.4436 23.856 28.444 22.8976V12.6893C28.4436 11.7308 28.069 10.8117 27.4025 10.134C26.7359 9.45627 25.832 9.07537 24.8893 9.07501H7.11067ZM8.88933 16.1137C8.88933 15.6344 9.07659 15.1748 9.4099 14.8359C9.74322 14.497 10.1953 14.3066 10.6667 14.3066C11.138 14.3066 11.5901 14.497 11.9234 14.8359C12.2567 15.1748 12.444 15.6344 12.444 16.1137V17.7297C12.444 18.209 12.2567 18.6686 11.9234 19.0075C11.5901 19.3464 11.138 19.5368 10.6667 19.5368C10.1953 19.5368 9.74322 19.3464 9.4099 19.0075C9.07659 18.6686 8.88933 18.209 8.88933 17.7297V16.1137ZM21.3333 14.3066C20.352 14.3066 19.556 15.1159 19.556 16.1137V17.7297C19.556 17.967 19.602 18.202 19.6913 18.4213C19.7806 18.6405 19.9115 18.8397 20.0766 19.0075C20.2416 19.1753 20.4375 19.3085 20.6532 19.3993C20.8688 19.4901 21.0999 19.5368 21.3333 19.5368C21.5667 19.5368 21.7979 19.4901 22.0135 19.3993C22.2291 19.3085 22.4251 19.1753 22.5901 19.0075C22.7551 18.8397 22.8861 18.6405 22.9754 18.4213C23.0647 18.202 23.1107 17.967 23.1107 17.7297V16.1137C23.1107 15.1159 22.3147 14.3066 21.3333 14.3066Z" fill="#333333"/>
</svg>
