<svg width="32" height="32" viewBox="0 0 32 32" fill="none" xmlns="http://www.w3.org/2000/svg">
<path d="M16.8247 14.8074C15.6753 15.2995 14.3709 15.8574 12.6803 15.8574C11.9731 15.856 11.2693 15.759 10.5881 15.569L11.7574 27.5735C11.7988 28.0751 12.0273 28.543 12.3977 28.884C12.7681 29.225 13.2531 29.4142 13.7566 29.4142C13.7566 29.4142 15.4144 29.5002 15.9676 29.5002C16.563 29.5002 18.3483 29.4142 18.3483 29.4142C18.8516 29.4142 19.3366 29.2248 19.7069 28.8838C20.0772 28.5427 20.3057 28.0751 20.3471 27.5735L21.5994 14.3081C21.0397 14.1169 20.4749 13.9899 19.8382 13.9899C18.737 13.9895 17.8497 14.3688 16.8247 14.8074Z" fill="#333333"/>
<path d="M27.0063 8.55289L26.8303 7.66477C26.6723 6.86793 26.3137 6.11499 25.4957 5.82699C25.2335 5.73484 24.9361 5.69526 24.735 5.50454C24.534 5.31384 24.4746 5.01766 24.4281 4.743C24.342 4.23888 24.2611 3.73434 24.1728 3.23109C24.0966 2.79843 24.0363 2.31241 23.8379 1.91549C23.5796 1.38254 23.0436 1.07086 22.5106 0.864649C22.2376 0.762704 21.9589 0.676465 21.6759 0.606353C20.3444 0.255066 18.9444 0.125917 17.5746 0.0523025C15.9304 -0.0384242 14.2818 -0.0110895 12.6415 0.134097C11.4206 0.245165 10.1347 0.379481 8.97455 0.801797C8.55052 0.956345 8.11355 1.14189 7.79113 1.4695C7.39549 1.87201 7.26634 2.49451 7.55519 2.99646C7.76055 3.35291 8.1084 3.60476 8.47733 3.77136C8.95788 3.98603 9.45975 4.14938 9.9746 4.25869C11.4081 4.57554 12.8929 4.69994 14.3575 4.7529C15.9807 4.8184 17.6066 4.76531 19.2221 4.59403C19.6216 4.55012 20.0204 4.49745 20.4184 4.43606C20.8873 4.36415 21.1882 3.75112 21.05 3.32407C20.8847 2.81352 20.4404 2.61549 19.938 2.69255C19.864 2.70416 19.7903 2.71492 19.7163 2.72567L19.6629 2.73343C19.4927 2.75497 19.3225 2.77504 19.1524 2.7937C18.8008 2.83158 18.4484 2.86258 18.0951 2.8867C17.3038 2.94179 16.5104 2.96719 15.7174 2.96849C14.9382 2.96849 14.1586 2.94652 13.3811 2.89531C13.0264 2.87206 12.6725 2.84249 12.3195 2.80661C12.1589 2.78982 11.9988 2.77219 11.8387 2.75237L11.6862 2.733L11.6531 2.72828L11.4951 2.70546C11.1722 2.6568 10.8494 2.60085 10.5299 2.53325C10.4977 2.52609 10.4689 2.50818 10.4482 2.48242C10.4275 2.45667 10.4163 2.42464 10.4163 2.39162C10.4163 2.3586 10.4275 2.32657 10.4482 2.30082C10.4689 2.27507 10.4977 2.25714 10.5299 2.24999H10.536C10.8128 2.19101 11.0917 2.14064 11.3715 2.09673C11.4648 2.08209 11.5584 2.06774 11.6522 2.05368H11.6548C11.83 2.04206 12.0061 2.01063 12.1804 1.98997C13.6974 1.83218 15.2233 1.77839 16.7476 1.82896C17.4876 1.85049 18.2272 1.89397 18.9638 1.96887C19.1222 1.98523 19.2798 2.00245 19.4373 2.02182C19.4976 2.02914 19.5583 2.03775 19.619 2.04507L19.7413 2.06272C20.0977 2.11582 20.4523 2.18025 20.805 2.25602C21.3276 2.36967 21.9988 2.40669 22.2313 2.97925C22.3053 3.16091 22.3389 3.36282 22.3798 3.55352L22.4319 3.79676C22.4332 3.80111 22.4342 3.80559 22.4349 3.81009C22.558 4.38409 22.6813 4.95809 22.8047 5.53209C22.8137 5.57449 22.8139 5.6183 22.8053 5.66079C22.7967 5.70329 22.7794 5.74353 22.7545 5.77905C22.7296 5.81456 22.6977 5.84455 22.6607 5.86717C22.6237 5.88979 22.5825 5.90453 22.5395 5.91051H22.536L22.4607 5.92084L22.3862 5.93072C22.1503 5.96145 21.9141 5.99014 21.6776 6.01684C21.2118 6.06993 20.7453 6.11584 20.2781 6.1546C19.3497 6.23178 18.4194 6.28245 17.4872 6.30656C17.0122 6.31917 16.5374 6.32508 16.0627 6.3242C14.1732 6.32273 12.2854 6.21289 10.4085 5.9953C10.2053 5.9712 10.0021 5.94536 9.79894 5.91911C9.95651 5.93935 9.68443 5.9036 9.62933 5.89587C9.50018 5.87778 9.37103 5.85899 9.24188 5.83948C8.80837 5.77445 8.37746 5.69439 7.94479 5.62421C7.42175 5.53812 6.92151 5.58117 6.44839 5.83948C6.06004 6.05199 5.74572 6.37787 5.54737 6.77365C5.34331 7.19553 5.28261 7.65487 5.19135 8.10819C5.10008 8.5615 4.95802 9.04925 5.01183 9.51461C5.12763 10.519 5.82977 11.3352 6.83972 11.5177C7.78982 11.6899 8.74509 11.8294 9.70294 11.9482C13.4656 12.409 17.2669 12.4642 21.0414 12.1127C21.3487 12.084 21.6557 12.0527 21.9622 12.0188C22.0579 12.0083 22.1548 12.0193 22.2457 12.0511C22.3367 12.0829 22.4193 12.1346 22.4877 12.2024C22.556 12.2703 22.6083 12.3526 22.6407 12.4432C22.6732 12.5339 22.6849 12.6307 22.6751 12.7265L22.5795 13.6556C22.3869 15.5328 22.1944 17.4099 22.0018 19.2869C21.8009 21.258 21.5987 23.229 21.3952 25.1996C21.3378 25.7548 21.2804 26.3098 21.223 26.8644C21.1679 27.4109 21.1602 27.9743 21.0564 28.5142C20.8928 29.3631 20.3181 29.8845 19.4795 30.0752C18.7112 30.2501 17.9264 30.3419 17.1385 30.3489C16.265 30.3537 15.392 30.3149 14.5185 30.3196C13.586 30.3249 12.4439 30.2388 11.7241 29.5448C11.0917 28.9353 11.0043 27.9808 10.9182 27.1554C10.8034 26.0628 10.6897 24.9704 10.5768 23.8781L9.94403 17.8042L9.53463 13.8743C9.52773 13.8093 9.52085 13.7451 9.51439 13.6797C9.4653 13.2109 9.1334 12.752 8.61034 12.7756C8.16264 12.7954 7.65379 13.176 7.70631 13.6797L8.0098 16.5933L8.63746 22.6202C8.81627 24.3322 8.99464 26.0443 9.17258 27.7569C9.20703 28.0849 9.2393 28.4139 9.27546 28.7419C9.47221 30.5345 10.8412 31.5005 12.5365 31.7725C13.5266 31.9319 14.5409 31.9647 15.5456 31.9809C16.8337 32.0017 18.1347 32.0512 19.4016 31.8178C21.279 31.4733 22.6876 30.2198 22.8886 28.2753C22.946 27.7138 23.0034 27.1524 23.0608 26.5907C23.2517 24.7332 23.4422 22.8757 23.6325 21.0179L24.255 14.9479L24.5405 12.1661C24.5547 12.0281 24.6129 11.8984 24.7066 11.7961C24.8002 11.6939 24.9243 11.6245 25.0605 11.5982C25.5973 11.4936 26.1105 11.3149 26.4923 10.9064C27.1002 10.2559 27.2211 9.40786 27.0063 8.55289ZM6.81216 9.15301C6.82034 9.14913 6.80528 9.21928 6.79882 9.25201C6.79753 9.2025 6.80011 9.15859 6.81216 9.15301ZM6.86426 9.55595C6.86856 9.55292 6.88147 9.57016 6.89482 9.59082C6.87459 9.57186 6.86167 9.55767 6.86382 9.55595H6.86426ZM6.91549 9.62352C6.934 9.65495 6.9439 9.67476 6.91549 9.62352V9.62352ZM7.01837 9.70704H7.02095C7.02095 9.71007 7.02569 9.71307 7.02741 9.7161C7.02456 9.71277 7.02139 9.70974 7.01794 9.70704H7.01837ZM25.0355 9.58219C24.8427 9.76558 24.5521 9.85083 24.2649 9.89346C21.0448 10.3713 17.7778 10.6132 14.5223 10.5065C12.1925 10.4269 9.88721 10.1681 7.58061 9.84222C7.35459 9.81037 7.10964 9.76904 6.95423 9.60243C6.66149 9.28816 6.80528 8.65534 6.88147 8.27565C6.95122 7.9278 7.08467 7.46417 7.49838 7.41465C8.14412 7.33889 8.89403 7.61138 9.53291 7.70826C10.3021 7.82562 11.0741 7.91962 11.849 7.99023C15.156 8.29159 18.5187 8.24465 21.8111 7.80383C22.4112 7.72317 23.0092 7.62947 23.605 7.52271C24.1358 7.42756 24.7243 7.24892 25.045 7.79865C25.265 8.17319 25.2942 8.67428 25.2602 9.09746C25.2498 9.28183 25.1692 9.45524 25.0351 9.58219H25.0355Z" fill="#333333"/>
</svg>
