<svg width="32" height="32" viewBox="0 0 32 32" fill="none" xmlns="http://www.w3.org/2000/svg">
<path fill-rule="evenodd" clip-rule="evenodd" d="M9.69307 5C5.44431 5 2 8.4443 2 12.6931C2 16.9418 5.44431 20.3861 9.69307 20.3861H12.4191C12.9714 20.3861 13.4191 20.8339 13.4191 21.3861V25.5772L18.2911 20.6808C18.4788 20.4922 18.7339 20.3861 19 20.3861H22.3069C26.5557 20.3861 30 16.9418 30 12.6931C30 8.4443 26.5557 5 22.3069 5H9.69307ZM0 12.6931C0 7.33974 4.33974 3 9.69307 3H22.3069C27.6603 3 32 7.33974 32 12.6931C32 18.0464 27.6603 22.3861 22.3069 22.3861H19.4157L13.128 28.7053C12.8424 28.9924 12.4119 29.0788 12.0376 28.9244C11.6633 28.7699 11.4191 28.4049 11.4191 28V22.3861H9.69307C4.33974 22.3861 0 18.0464 0 12.6931Z" fill="#333333"/>
</svg>
