<svg width="32" height="32" viewBox="0 0 32 32" fill="none" xmlns="http://www.w3.org/2000/svg">
<path d="M30 0C31.1046 0 32 0.895431 32 2V30C32 31.1046 31.1046 32 30 32H2C0.895431 32 0 31.1046 0 30V2C8.05333e-09 0.895431 0.895431 8.05319e-09 2 0H30ZM16.2012 5.53125C13.3315 5.53132 10.6679 6.52905 8.71777 8.36914C6.64081 10.3184 5.53131 13.0317 5.53125 16.1973C5.53125 22.4818 10.1289 26.8642 16.7246 26.8643C20.3713 26.8643 22.9562 25.5075 24.4941 24.3691V19.4258C22.2268 21.188 19.5626 22.2012 17.2002 22.2012C13.4268 22.2011 10.7794 19.644 10.7793 15.9639C10.7793 12.4707 13.1893 10.0381 16.6299 10.0381C17.7554 10.0381 18.7225 10.318 19.7529 10.5986C20.8152 10.8949 21.9252 11.2226 23.2412 11.2227C23.6533 11.2227 24.0654 11.1912 24.4775 11.1289V6.41992C24.1289 6.4511 23.7959 6.48242 23.4473 6.48242C22.2583 6.48241 21.1802 6.26415 20.0547 6.03027C18.8655 5.78076 17.644 5.53125 16.2012 5.53125Z" fill="#333333"/>
</svg>
