<svg width="32" height="32" viewBox="0 0 32 32" fill="none" xmlns="http://www.w3.org/2000/svg">
<path d="M16 32C7.21311 32 0 24.8306 0 16C0 7.1694 7.21311 0 16 0C24.7869 0 32 7.21311 32 16C32 24.7869 24.8306 32 16 32ZM29.5082 18.1858C29.0273 18.0546 25.224 16.918 20.9836 17.6175C22.7322 22.5574 23.4754 26.4918 23.6066 27.3661C26.7104 25.224 28.8525 21.9891 29.5082 18.1858ZM21.3333 28.5902C21.1148 27.3661 20.3279 23.1694 18.4044 18.1858H18.3169C10.6667 20.8962 7.86885 26.2295 7.60656 26.7104C9.96721 28.5027 12.8525 29.6393 16 29.6393C17.9235 29.6393 19.7158 29.2896 21.3333 28.5902ZM5.85792 25.1803C6.12022 24.6995 9.9235 18.4481 16.9618 16.1749C17.1803 16.0874 17.3115 16.0437 17.5301 16.0437C17.1803 15.2568 16.8306 14.4699 16.3934 13.6831C9.57377 15.7377 2.97268 15.6503 2.31694 15.6066V16.0437C2.36066 19.541 3.62842 22.7322 5.85792 25.1803ZM2.62295 13.2459C3.27869 13.2459 8.87432 13.2459 15.2568 11.6284C12.9836 7.56284 10.5792 4.24044 10.2295 3.75956C6.3388 5.5082 3.49727 8.96175 2.62295 13.2459ZM12.8087 2.79781C13.1585 3.27869 15.6503 6.68853 17.9235 10.7541C22.7322 8.91803 24.8306 6.20765 25.0929 5.85792C22.6885 3.71585 19.4973 2.44809 16.0874 2.44809C14.8634 2.36066 13.8142 2.4918 12.8087 2.79781ZM26.5792 7.38798C26.2732 7.73771 24.0437 10.7104 18.9727 12.8087C19.2787 13.4645 19.6284 14.0765 19.8907 14.776C19.9781 14.9945 20.1093 15.2568 20.1967 15.4754C24.7432 14.9071 29.2896 15.8251 29.7268 15.9126C29.6393 12.6776 28.5027 9.74863 26.5792 7.38798Z" fill="#333333"/>
</svg>
