<svg width="32" height="32" viewBox="0 0 32 32" fill="none" xmlns="http://www.w3.org/2000/svg">
<path d="M29 4C30.6569 4 32 5.34315 32 7V26C32 27.6569 30.6569 29 29 29H3C1.34315 29 2.0133e-08 27.6569 0 26V7C0 5.34315 1.34315 4 3 4H29ZM18.4854 16.8047C17.0295 17.9594 14.9705 17.9594 13.5146 16.8047L2 7.67188V26C2 26.5523 2.44772 27 3 27H29C29.5523 27 30 26.5523 30 26V7.67188L18.4854 16.8047ZM14.7568 15.2383C15.4848 15.8156 16.5152 15.8156 17.2432 15.2383L28.8916 6H3.1084L14.7568 15.2383Z" fill="#333333"/>
</svg>
