<svg width="32" height="32" viewBox="0 0 32 32" fill="none" xmlns="http://www.w3.org/2000/svg">
<g clip-path="url(#clip0_21_274)">
<path fill-rule="evenodd" clip-rule="evenodd" d="M0.295017 0.290776C0.3904 0.195951 0.500141 0.124319 0.617216 0.0758788C0.735123 0.0269856 0.86441 0 1 0H1.00017H9C9.55229 0 10 0.447715 10 1C10 1.55228 9.55229 2 9 2H3.41421L11.7071 10.2929C12.0976 10.6834 12.0976 11.3166 11.7071 11.7071C11.3166 12.0976 10.6834 12.0976 10.2929 11.7071L2 3.41421V9C2 9.55229 1.55229 10 1 10C0.447715 10 0 9.55229 0 9V1.00069V1L3.8147e-06 0.997001C0.000761032 0.743006 0.0976849 0.489245 0.290775 0.295017L0.295017 0.290776ZM31.705 0.290776C31.6096 0.195951 31.4999 0.124319 31.3828 0.0758788C31.2649 0.0269856 31.1356 0 31 0H30.9998H23C22.4477 0 22 0.447715 22 1C22 1.55228 22.4477 2 23 2H28.5858L20.2929 10.2929C19.9024 10.6834 19.9024 11.3166 20.2929 11.7071C20.6834 12.0976 21.3166 12.0976 21.7071 11.7071L30 3.41421V9C30 9.55229 30.4477 10 31 10C31.5523 10 32 9.55229 32 9V1.00069V1L32 0.997001C31.9992 0.743006 31.9023 0.489245 31.7092 0.295017L31.705 0.290776ZM0.617216 31.9241C0.500141 31.8757 0.3904 31.804 0.295017 31.7092L0.290775 31.705C0.0976849 31.5108 0.000761097 31.257 3.90186e-06 31.003L0 31V30.9993V23C0 22.4477 0.447716 22 1 22C1.55229 22 2 22.4477 2 23L2 28.5858L10.2929 20.2929C10.6834 19.9024 11.3166 19.9024 11.7071 20.2929C12.0976 20.6834 12.0976 21.3166 11.7071 21.7071L3.41421 30H9C9.55229 30 10 30.4477 10 31C10 31.5523 9.55229 32 9 32L1.00017 32H1C0.86441 32 0.735123 31.973 0.617216 31.9241ZM31.705 31.7092C31.6096 31.8041 31.4999 31.8757 31.3828 31.9241C31.2649 31.973 31.1356 32 31 32H30.9998H23C22.4477 32 22 31.5523 22 31C22 30.4477 22.4477 30 23 30H28.5858L20.2929 21.7071C19.9024 21.3166 19.9024 20.6834 20.2929 20.2929C20.6834 19.9024 21.3166 19.9024 21.7071 20.2929L30 28.5858V23C30 22.4477 30.4477 22 31 22C31.5523 22 32 22.4477 32 23V30.9993V31L32 31.003C31.9992 31.257 31.9023 31.5108 31.7092 31.705L31.705 31.7092Z" fill="#333333"/>
</g>
<defs>
<clipPath id="clip0_21_274">
<rect width="32" height="32" fill="white"/>
</clipPath>
</defs>
</svg>
