<svg width="32" height="32" viewBox="0 0 32 32" fill="none" xmlns="http://www.w3.org/2000/svg">
<g clip-path="url(#clip0_276_3309)">
<path d="M31 10.9997C31.5522 10.9997 31.9998 11.4476 32 11.9997V27.9997C32 30.2088 30.2091 31.9997 28 31.9997H4C1.79086 31.9997 0 30.2088 0 27.9997V11.9997C0.000203014 11.4476 0.44784 10.9997 1 10.9997C1.55216 10.9997 1.9998 11.4476 2 11.9997V27.9997C2 29.1042 2.89543 29.9997 4 29.9997H28C29.1046 29.9997 30 29.1042 30 27.9997V11.9997C30.0002 11.4476 30.4478 10.9997 31 10.9997ZM15.8047 0.0182348C15.9657 -0.0136188 16.1332 -0.00526574 16.291 0.0426489C16.3016 0.0458583 16.3119 0.0498449 16.3223 0.0533911C16.4627 0.101154 16.5951 0.180678 16.707 0.292649L24.707 8.29265C25.0975 8.68317 25.0975 9.3162 24.707 9.70671C24.3165 10.0972 23.6835 10.0972 23.293 9.70671L17 3.41374V22.9997C17 23.5519 16.5521 23.9995 16 23.9997C15.4477 23.9997 15 23.552 15 22.9997V3.41277L8.70605 9.70671C8.31553 10.0972 7.6825 10.0972 7.29199 9.70671C6.9017 9.31619 6.90159 8.68311 7.29199 8.29265L15.293 0.292649C15.4046 0.181017 15.5358 0.101195 15.6758 0.0533911C15.6862 0.0498329 15.6965 0.0458707 15.707 0.0426489C15.7237 0.0375516 15.7409 0.0341558 15.7578 0.0299536C15.7734 0.0260818 15.7888 0.0213667 15.8047 0.0182348Z" fill="#333333"/>
</g>
<defs>
<clipPath id="clip0_276_3309">
<rect width="32" height="32" fill="white"/>
</clipPath>
</defs>
</svg>
