<svg width="32" height="32" viewBox="0 0 32 32" fill="none" xmlns="http://www.w3.org/2000/svg">
<path fill-rule="evenodd" clip-rule="evenodd" d="M23.7252 1.21611L30.82 8.31092C31.2105 8.70144 31.2105 9.33461 30.82 9.72513L23.7252 16.8199C23.3346 17.2105 22.7015 17.2105 22.311 16.8199C21.9204 16.4294 21.9204 15.7962 22.311 15.4057L27.7167 9.99999H23.5873C12.235 9.99999 3 19.3841 3 31C3 31.5523 2.55228 32 2 32C1.44772 32 1 31.5523 1 31C1 18.3154 11.0949 7.99999 23.5873 7.99999H27.6806L22.311 2.63032C21.9204 2.2398 21.9204 1.60664 22.311 1.21611C22.7015 0.825587 23.3346 0.825587 23.7252 1.21611Z" fill="#333333"/>
</svg>
