<svg width="32" height="32" viewBox="0 0 32 32" fill="none" xmlns="http://www.w3.org/2000/svg">
<path d="M16 0C18.2361 0 20.367 0.449592 22.3086 1.26172C28.0081 3.76781 32 9.56561 32 16.3184C31.9998 23.6173 27.3356 29.7986 20.8926 31.915C20.2828 31.9184 20.0578 31.4816 20.0576 31.1016C20.0576 30.5628 20.0762 28.8004 20.0762 26.6113C20.0762 25.0845 19.5532 24.0883 18.9658 23.5811C22.6097 23.1763 26.4375 21.7907 26.4375 15.5068C26.4374 13.7212 25.8025 12.261 24.7539 11.1152C24.9235 10.7036 25.4844 9.03925 24.5938 6.78613C24.5805 6.78196 23.207 6.35619 20.0986 8.46289C18.7911 8.10021 17.3903 7.91868 16 7.91211C14.6085 7.91868 13.2091 8.10023 11.9043 8.46289C8.77815 6.34594 7.40332 6.78613 7.40332 6.78613C6.5153 9.03931 7.07456 10.7027 7.24414 11.1143C6.1969 12.2601 5.55861 13.7201 5.55859 15.5059C5.55859 21.775 9.37813 23.1788 13.0127 23.5928C12.5437 24.0015 12.1208 24.7228 11.9736 25.7803C11.0407 26.1981 8.67283 26.9225 7.21289 24.4209C7.21289 24.4209 6.34668 22.85 4.7041 22.7344C4.68193 22.7341 3.11838 22.7209 4.59277 23.7295C4.60868 23.737 5.67198 24.2466 6.41016 26.123C6.41016 26.123 7.37095 29.0432 11.9229 28.0537C11.9294 29.42 11.9443 30.709 11.9443 31.0996C11.9443 31.4801 11.7117 31.9167 11.0986 31.9131C4.66005 29.794 0.000151704 23.614 0 16.3184C0 9.56593 3.99141 3.76801 9.69043 1.26172C11.6323 0.449417 13.7637 2.54362e-07 16 0Z" fill="#333333"/>
</svg>
