<svg width="32" height="32" viewBox="0 0 32 32" fill="none" xmlns="http://www.w3.org/2000/svg">
<path d="M23.7273 9.0587C22.7229 8.03273 21.6317 7.24701 20.4748 6.7013C19.3179 6.15559 17.8553 5.89351 16.1745 5.89351C14.8213 5.89351 13.5332 6.13377 12.333 6.61377C11.1327 7.09377 10.0844 7.77065 9.18961 8.6439C8.27273 9.51714 7.55247 10.5868 7.02857 11.8309C6.50468 13.0751 6.24286 14.4501 6.24286 15.9782C6.24286 17.5062 6.50468 18.8813 7.02857 20.1255C7.55247 21.3696 8.27273 22.4174 9.18961 23.2904C10.1065 24.1634 11.1758 24.8621 12.3766 25.3423C13.5774 25.8226 14.8868 26.0626 16.2618 26.0626C17.7242 26.0626 19.0122 25.8662 20.1034 25.4514C21.1945 25.0366 22.1335 24.4691 22.9195 23.7709C23.4434 23.2904 23.9236 22.701 24.3382 22.0026C24.753 21.2823 25.0805 20.4966 25.3205 19.6234H16.0873V14.3847H31.1486C31.2358 14.734 31.3013 15.1486 31.3668 15.6725C31.4322 16.1964 31.4543 16.6766 31.4543 17.1787C31.4543 19.2522 31.1486 21.1294 30.5374 22.854C29.9262 24.5787 28.9875 26.0844 27.7652 27.4161C26.3901 28.8784 24.753 29.9917 22.8322 30.7992C20.9114 31.6068 18.7065 32 16.24 32C14.0135 32 11.9179 31.607 9.95351 30.7992C7.98909 29.9914 6.26468 28.8784 4.78026 27.4597C3.31792 26.0408 2.16104 24.36 1.28779 22.4174C0.414546 20.4748 0 18.3135 0 16C0 13.6865 0.436364 11.547 1.28779 9.5826C2.13922 7.61818 3.2961 5.93714 4.78026 4.51844C6.2426 3.09948 7.96727 2.00805 9.95351 1.20052C11.9397 0.392987 14.0353 0 16.24 0C18.7722 0 21.0203 0.436364 22.9631 1.30961C24.906 2.18286 26.5865 3.38338 28.0055 4.91143L23.7273 9.0587Z" fill="#333333"/>
</svg>
