<svg width="32" height="32" viewBox="0 0 32 32" fill="none" xmlns="http://www.w3.org/2000/svg">
<path fill-rule="evenodd" clip-rule="evenodd" d="M0 5C0 4.44772 0.447715 4 1 4H31C31.5523 4 32 4.44772 32 5C32 5.55228 31.5523 6 31 6H1C0.447715 6 0 5.55228 0 5ZM0 26.3333C0 25.781 0.447715 25.3333 1 25.3333H31C31.5523 25.3333 32 25.781 32 26.3333C32 26.8856 31.5523 27.3333 31 27.3333H1C0.447715 27.3333 0 26.8856 0 26.3333ZM1 14.6667C0.447715 14.6667 0 15.1144 0 15.6667C0 16.219 0.447715 16.6667 1 16.6667H31C31.5523 16.6667 32 16.219 32 15.6667C32 15.1144 31.5523 14.6667 31 14.6667H1Z" fill="#333333"/>
</svg>
