<svg width="32" height="32" viewBox="0 0 32 32" fill="none" xmlns="http://www.w3.org/2000/svg">
<path fill-rule="evenodd" clip-rule="evenodd" d="M16 0C24.8306 0 32 7.16937 32 16C31.9999 24.8305 24.8306 32 16 32C15.3461 32 14.7009 31.9602 14.0674 31.8838C13.8808 31.8613 13.6952 31.8355 13.5107 31.8066C13.3043 31.7743 13.0992 31.7384 12.8955 31.6982L19.667 14.4287C19.9285 13.7617 20.2763 13.4512 20.6377 13.21C20.9728 12.9864 21.3532 12.883 21.5957 12.2646C21.6216 12.1981 21.5991 12.1217 21.5693 12.0371C21.5067 11.8594 21.3835 11.6699 21.2148 11.4707C20.5938 10.7371 19.4091 9.94187 17.8613 9.33496C16.3126 8.72763 14.9162 8.47085 13.9639 8.58008C13.7103 8.60919 13.4945 8.66295 13.3291 8.75391C13.2378 8.80409 13.1637 8.86242 13.1309 8.94629C12.8826 9.57966 13.0756 9.89265 13.1689 10.2734C13.2684 10.6798 13.3199 11.1347 13.083 11.8213C12.0424 14.8372 8.75566 23.1252 6.46582 28.8457C6.27138 28.7012 6.08005 28.5525 5.89258 28.3994C5.76725 28.2971 5.64268 28.1929 5.52051 28.0869C2.13949 25.1525 6.83367e-05 20.8239 0 16C0 7.16943 7.16945 0.00010699 16 0ZM11.8525 31.4561C10.2209 31.0187 8.69179 30.3292 7.30957 29.4326C8.06634 27.501 8.89457 25.3882 9.53809 23.7471C9.97465 22.6343 10.6594 22.2069 11.334 21.9023C12.4286 21.4081 12.9918 21.8494 14.1504 21.334C15.2963 20.8151 16.5646 19.3778 16.5791 19.3613L11.8525 31.4561ZM8.91797 29.5371C8.83959 29.3335 8.60071 29.2395 8.39746 29.3301C8.19424 29.4087 8.10604 29.6547 8.19043 29.8525C8.27496 30.0565 8.50759 30.1505 8.71094 30.0596V30.0479C8.92664 29.9507 9.01485 29.735 8.91797 29.5371ZM10.459 28.0137C10.2836 27.6364 9.85443 27.4672 9.47852 27.6309C9.09663 27.8068 8.93331 28.2428 9.08984 28.626L9.07812 28.6201C9.25345 28.9974 9.68193 29.1733 10.0762 29.0039C10.4522 28.8341 10.6159 28.397 10.459 28.0137ZM12.8145 25.8857C12.736 25.6881 12.4972 25.5876 12.2939 25.6846C12.0969 25.7571 11.9965 25.9971 12.0869 26.2012C12.1653 26.4051 12.405 26.4992 12.6084 26.4082C12.8114 26.3295 12.9052 26.0896 12.8145 25.8857ZM10.9609 23.9922C10.9066 23.8563 10.7538 23.8001 10.6123 23.8545C10.4891 23.9029 10.4203 24.0622 10.4746 24.1982C10.5288 24.3403 10.6816 24.391 10.8232 24.3428C10.9588 24.2883 11.0151 24.1343 10.9609 23.9922ZM14.3232 9.85352C14.491 9.43402 15.9199 9.6021 17.5098 10.2373C19.0995 10.8649 20.2613 11.7073 20.1016 12.127C19.9338 12.5539 18.505 12.3787 16.915 11.751C15.3178 11.1233 14.1558 10.2805 14.3232 9.85352Z" fill="#333333"/>
</svg>
