<svg width="32" height="32" viewBox="0 0 32 32" fill="none" xmlns="http://www.w3.org/2000/svg">
<path fill-rule="evenodd" clip-rule="evenodd" d="M14.1112 23.0326L12.9347 19.8055C12.9347 19.8055 11.0291 21.9583 8.173 21.9583C5.64013 21.9583 3.8465 19.7312 3.8465 16.1693C3.8465 11.6078 6.12013 9.97581 8.35256 9.97581C11.5766 9.97581 12.6024 12.0897 13.4845 14.7972L14.6609 18.5044C15.8368 22.104 18.0373 24.9964 24.3734 24.9964C28.9172 24.9964 32 23.5849 32 19.877C32 16.8724 30.3121 15.3155 27.1614 14.5688L24.818 14.0506C23.2051 13.6781 22.7298 13.0122 22.7298 11.8977C22.7298 10.6381 23.7178 9.89122 25.3307 9.89122C27.0924 9.89122 28.0426 10.5614 28.1862 12.1571L31.8488 11.714C31.5548 8.37263 29.281 7 25.5433 7C22.2426 7 19.0181 8.25957 19.0181 12.3087C19.0181 14.8334 20.23 16.4266 23.2684 17.168L25.7624 17.7627C27.6297 18.2064 28.2558 18.9895 28.2558 20.0651C28.2558 21.4377 26.9371 21.9945 24.4437 21.9945C20.7431 21.9945 19.1994 20.0263 18.3247 17.3193L17.1127 13.6122C15.5811 8.78489 13.1249 7.00576 8.25088 7.00576C2.86194 7.00576 0 10.4541 0 16.3193C0 21.9564 2.85606 25 7.99463 25C12.1322 25 14.1129 23.0319 14.1129 23.0319L14.1112 23.0324V23.0326Z" fill="#333333"/>
</svg>
