<svg width="32" height="32" viewBox="0 0 32 32" fill="none" xmlns="http://www.w3.org/2000/svg">
<g clip-path="url(#clip0_27_530)">
<path d="M30 16C30 8.26801 23.732 2 16 2C8.26801 2 2 8.26801 2 16C2 23.732 8.26801 30 16 30C23.732 30 30 23.732 30 16ZM32 16C32 24.8366 24.8366 32 16 32C7.16344 32 0 24.8366 0 16C0 7.16344 7.16344 0 16 0C24.8366 0 32 7.16344 32 16Z" fill="#333333"/>
<path d="M10.8571 13.5C10.8571 14.5651 9.99369 15.4286 8.92857 15.4286C7.86345 15.4286 7 14.5651 7 13.5C7 12.4349 7.86345 11.5714 8.92857 11.5714C9.99369 11.5714 10.8571 12.4349 10.8571 13.5Z" fill="#333333"/>
<path d="M25 13.5C25 14.5651 24.1365 15.4286 23.0714 15.4286C22.0063 15.4286 21.1428 14.5651 21.1428 13.5C21.1428 12.4349 22.0063 11.5714 23.0714 11.5714C24.1365 11.5714 25 12.4349 25 13.5Z" fill="#333333"/>
<path d="M8.42274 20.7188C10.092 23.307 12.8634 25 16 25C19.1366 25 21.908 23.307 23.5772 20.7188C23.7819 20.4015 23.5436 20 23.166 20H8.83398C8.45636 20 8.21806 20.4015 8.42274 20.7188Z" fill="#333333"/>
</g>
<defs>
<clipPath id="clip0_27_530">
<rect width="32" height="32" fill="white"/>
</clipPath>
</defs>
</svg>
