<svg width="32" height="33" viewBox="0 0 32 33" fill="none" xmlns="http://www.w3.org/2000/svg">
<path d="M29.6348 0C30.9407 0 31.9999 1.03304 32 2.30664V29.8965C31.9998 31.1705 30.9407 32.2031 29.6348 32.2031H2.36426C1.05854 32.2029 0.000158566 31.1703 0 29.8965V2.30664C0.000101169 1.0332 1.0585 0.000252862 2.36426 0H29.6348ZM4.86719 26.957H9.7002V12.416H4.86719V26.957ZM21.5635 12.0742C18.998 12.0743 17.85 13.4866 17.208 14.4775V14.5244H17.1758C17.1859 14.5086 17.1976 14.4935 17.208 14.4775V12.416H12.375C12.4382 13.7796 12.3743 26.8926 12.374 26.957H17.208V18.8369C17.208 18.4024 17.2396 17.9678 17.3672 17.6572C17.7166 16.789 18.5116 15.8897 19.8467 15.8896C21.5956 15.8896 22.2949 17.223 22.2949 19.1777V26.957H27.1279V18.6191C27.1278 14.1528 24.7434 12.0742 21.5635 12.0742ZM7.31543 5.40527C5.6623 5.40532 4.58124 6.49131 4.58105 7.91797C4.58105 9.31339 5.63 10.4296 7.25195 10.4297H7.2832C8.96868 10.4297 10.0176 9.31342 10.0176 7.91797C9.986 6.4913 8.96876 5.40529 7.31543 5.40527Z" fill="#333333"/>
</svg>
