<svg width="32" height="32" viewBox="0 0 32 32" fill="none" xmlns="http://www.w3.org/2000/svg">
<path d="M16 0C25.012 1.74826e-07 32 6.60841 32 15.5244C31.9998 24.4402 25.0119 31.0439 16 31.0439C14.38 31.0439 12.8281 30.8277 11.3682 30.4277C11.0842 30.3517 10.7797 30.3722 10.5117 30.4922L7.33594 31.8916C7.14416 31.9762 6.93463 32.0124 6.72559 31.9971C6.5165 31.9817 6.31408 31.9155 6.13672 31.8037C5.95942 31.6919 5.81206 31.5384 5.70801 31.3564C5.60393 31.1745 5.54645 30.9693 5.54004 30.7598L5.45215 27.9121C5.44415 27.5602 5.28428 27.232 5.02441 27C1.91241 24.216 0 20.1835 0 15.5195C0.000244747 6.60377 6.98816 0 16 0ZM25.6123 11.9443C26.0603 11.2284 25.1798 10.4197 24.5078 10.9316L19.46 14.7637C19.2939 14.8898 19.0913 14.9592 18.8828 14.96C18.6742 14.9607 18.4707 14.8926 18.3037 14.7676L14.5645 11.9639C14.2992 11.7646 13.9948 11.6228 13.6719 11.5469C13.349 11.471 13.0137 11.4623 12.6875 11.5225C12.3613 11.5826 12.051 11.7104 11.7764 11.8965C11.5019 12.0825 11.2685 12.323 11.0918 12.6035L6.3916 20.0596C5.93961 20.7756 6.82019 21.5803 7.49219 21.0684L12.54 17.2363C12.7061 17.1102 12.9087 17.0408 13.1172 17.04C13.3258 17.0393 13.5293 17.1074 13.6963 17.2324L17.4355 20.0361C17.7008 20.2354 18.0052 20.3772 18.3281 20.4531C18.651 20.529 18.9863 20.5377 19.3125 20.4775C19.6387 20.4174 19.949 20.2896 20.2236 20.1035C20.4981 19.9175 20.7315 19.677 20.9082 19.3965L25.6123 11.9443Z" fill="#333333"/>
</svg>
