<svg width="32" height="32" viewBox="0 0 32 32" fill="none" xmlns="http://www.w3.org/2000/svg">
<path d="M16.6416 0C23.8769 0 27.4988 0.000430252 29.7471 2.25293C31.9996 4.50543 32 8.1231 32 15.3584V16.6416C32 23.8769 31.9996 27.4988 29.7471 29.7471C27.4946 31.9996 23.8769 32 16.6416 32H15.3584C8.1231 32 4.50116 31.9996 2.25293 29.7471C0.00043066 27.4946 0 23.8773 0 16.6377V15.3584C0 8.11883 0.000429937 4.50116 2.25293 2.25293C4.50543 0.00469654 8.11883 0 15.3584 0H16.6416ZM10.4307 15.8828C10.3155 15.7847 10.1323 15.7978 10.0342 15.9258L8.38281 18.1904C8.29749 18.3056 8.32766 18.4596 8.42578 18.5449C9.82072 19.6839 11.4461 20.4388 13.1396 20.8398L9.6377 27.0088C9.55238 27.1794 9.68036 27.3926 9.88086 27.3926H13.3145C13.4126 27.3926 13.515 27.3367 13.5576 27.2344L16.0068 21.7656L18.4551 27.2344C18.4977 27.3324 18.596 27.3925 18.6982 27.3926H22.1328C22.3332 27.3925 22.4607 27.1794 22.3584 27.0088L18.8564 20.8398C20.55 20.4388 22.1627 19.6882 23.5576 18.5449C23.6728 18.4596 23.6858 18.3013 23.6133 18.1904H23.6045L21.9365 15.9258C21.8384 15.7978 21.668 15.7848 21.54 15.8828C19.9744 17.2223 18.0501 18.0752 15.9854 18.0752C13.9206 18.0752 11.9963 17.2053 10.4307 15.8828ZM15.998 4.60742C14.4324 4.60744 13.0199 5.23494 11.9961 6.25879C10.9725 7.28257 10.3458 8.69441 10.3457 10.2598C10.3457 11.8253 10.9723 13.2379 11.9961 14.2617C13.0199 15.2727 14.4324 15.9121 15.998 15.9121C17.5637 15.9121 18.9761 15.2856 20 14.2617C21.0238 13.2379 21.6504 11.8126 21.6504 10.2598C21.6503 8.70719 21.0236 7.28257 20 6.25879C18.9761 5.23494 17.5637 4.60743 15.998 4.60742ZM15.998 7.67871C16.6977 7.67872 17.3502 7.96531 17.8066 8.43457C18.2758 8.90383 18.5625 9.54358 18.5625 10.2432C18.5624 10.9427 18.2758 11.5953 17.8066 12.0518C17.3374 12.5209 16.6976 12.8066 15.998 12.8066C15.2985 12.8066 14.6459 12.5209 14.1895 12.0518C13.7202 11.5825 13.4346 10.9427 13.4346 10.2432C13.4346 9.5436 13.7203 8.90383 14.1895 8.43457C14.6587 7.96532 15.2984 7.67873 15.998 7.67871Z" fill="#333333"/>
</svg>
