<svg width="32" height="32" viewBox="0 0 32 32" fill="none" xmlns="http://www.w3.org/2000/svg">
<path d="M15.9941 2.97897C13.6739 2.98176 11.3968 3.60556 9.39932 4.78558C7.40181 5.9656 5.75673 7.65879 4.63498 9.68929C3.51322 11.7198 2.95569 14.0135 3.0203 16.3323C3.08492 18.651 3.76932 20.9101 5.00241 22.8751L3.75203 28.2243L9.08794 26.9742C10.7937 28.0529 12.7272 28.7197 14.7354 28.9219C16.7436 29.1241 18.7713 28.8561 20.6579 28.1391C22.5446 27.4221 24.2383 26.2759 25.6051 24.7911C26.9719 23.3063 27.9742 21.5237 28.5325 19.5846C29.0909 17.6455 29.19 15.603 28.8221 13.6189C28.4541 11.6349 27.6292 9.76366 26.4127 8.15353C25.1961 6.54341 23.6213 5.23855 21.813 4.3423C20.0046 3.44605 18.0124 2.98302 15.9941 2.98987V2.97897ZM8.5718 28.446L6.42726 28.9475L6.76893 30.401L8.35007 30.0376C9.54844 30.6862 10.8267 31.1749 12.1521 31.4912L12.5156 30.0376C11.1287 29.704 9.7994 29.1651 8.5718 28.4387V28.446ZM1.57841 25.1972L3.03234 25.5351L3.53031 23.3874C2.79984 22.1647 2.25705 20.8393 1.92009 19.4555L0.46616 19.8189C0.792421 21.1441 1.28843 22.4217 1.9419 23.62L1.57841 25.2008V25.1972ZM5.08964 29.2491L1.99278 29.9759L2.72702 26.8724L1.27309 26.5345L0.546126 29.627C0.49774 29.8179 0.487596 30.0165 0.516278 30.2113C0.54496 30.4062 0.611901 30.5934 0.71325 30.7623C0.814598 30.9312 0.948352 31.0784 1.10681 31.1953C1.26527 31.3123 1.44531 31.3968 1.63657 31.444H1.66201C1.88656 31.4983 2.12081 31.4983 2.34536 31.444L5.44222 30.7172L5.08964 29.2491ZM13.8132 1.63076C15.2592 1.41635 16.729 1.41635 18.175 1.63076L18.3785 0.17716C16.7879 -0.0590532 15.1712 -0.0590532 13.5806 0.17716L13.8132 1.63802V1.63076ZM29.6973 7.70679L28.4143 8.47719C29.1628 9.72011 29.7226 11.0673 30.0754 12.4746L31.5293 12.1112C31.1479 10.5533 30.5353 9.06139 29.7119 7.68498L29.6973 7.70679ZM4.3227 7.37609C5.18685 6.20027 6.22212 5.16034 7.39412 4.29083L6.50359 3.08435C5.21026 4.03514 4.06919 5.17717 3.11958 6.47123L4.32633 7.36882L4.3227 7.37609ZM24.5941 4.29083C25.7651 5.15698 26.8014 6.19179 27.6691 7.36156L28.8759 6.47123C27.9244 5.18206 26.785 4.04285 25.4955 3.09162L24.5941 4.29083ZM27.6691 24.5612C26.8034 25.7327 25.7668 26.7678 24.5941 27.6319L25.4846 28.8384C26.7782 27.8884 27.9215 26.7491 28.8759 25.4588L27.6691 24.5612ZM18.175 30.3102C16.7295 30.5319 15.2587 30.5319 13.8132 30.3102L13.5878 31.7965C15.1769 32.0363 16.7931 32.0363 18.3822 31.7965L18.175 30.3102ZM31.5366 19.8152L30.0826 19.4518C29.7317 20.8695 29.1706 22.2267 28.4179 23.4783L29.701 24.2487C30.5336 22.8722 31.1525 21.3774 31.5366 19.8152ZM30.5043 15.9705C30.5045 16.7003 30.4498 17.4292 30.3407 18.1509L31.8201 18.3762C32.06 16.7874 32.06 15.1717 31.8201 13.5829L30.3407 13.8083C30.4495 14.53 30.5042 15.2588 30.5043 15.9886V15.9705ZM24.2742 29.6742L23.5036 28.3915C22.262 29.1429 20.914 29.7027 19.5053 30.0522L19.8688 31.5058C21.428 31.1277 22.9208 30.5151 24.296 29.6888L24.2742 29.6742ZM1.50208 15.9705C1.50095 15.2407 1.55441 14.5119 1.66201 13.7901L0.182645 13.5684C-0.0608816 15.1569 -0.0608816 16.7732 0.182645 18.3616L1.66565 18.1509C1.55779 17.4291 1.50433 16.7003 1.50572 15.9705H1.50208ZM2.30174 7.70315C1.47529 9.07935 0.862512 10.573 0.484334 12.133L1.93826 12.4964C2.28232 11.0834 2.83611 9.72983 3.5812 8.48082L2.30174 7.70315ZM19.8397 0.435173L19.4762 1.88877C20.8944 2.24445 22.2517 2.80905 23.5036 3.56404L24.2778 2.28124C22.8985 1.45042 21.4026 0.830621 19.8397 0.442441V0.435173ZM12.1594 0.435173L12.5228 1.88877C11.1054 2.24319 9.74915 2.80788 8.4991 3.56404L7.72852 2.28124C9.10794 1.45821 10.6026 0.845784 12.163 0.464245L12.1594 0.435173Z" fill="#333333"/>
</svg>
