<svg width="32" height="33" viewBox="0 0 32 33" fill="none" xmlns="http://www.w3.org/2000/svg">
<path fill-rule="evenodd" clip-rule="evenodd" d="M11.7344 17.1025C13.5031 17.1054 14.9362 18.5408 14.9336 20.3096V28.8584C14.9349 30.6273 13.5013 32.0631 11.7324 32.0645C9.96375 32.0617 8.53082 30.6261 8.53321 28.8574V20.3066C8.5319 18.5377 9.96416 17.1025 11.7344 17.1025ZM20.2656 25.6523C22.0345 25.6537 23.4681 27.0895 23.4668 28.8584C23.4681 30.6273 22.0345 32.0631 20.2656 32.0645C18.4969 32.0616 17.0642 30.6258 17.0654 28.8584V25.6523H20.2656ZM6.40137 17.1006V20.3066C6.40265 22.0755 4.9691 23.5114 3.2002 23.5127C1.43145 23.5112 -0.00127173 22.0754 3.57296e-06 20.3066C-0.00130375 18.5378 1.43143 17.1021 3.2002 17.1006H6.40137ZM28.8008 17.0996C30.5697 17.1022 32.0026 18.5377 32 20.3066C32.0013 22.0754 30.5686 23.5112 28.7998 23.5127H20.2656C18.497 23.5112 17.0653 22.0756 17.0664 20.3057C17.0651 18.5367 18.4987 17.1009 20.2676 17.0996H28.8008ZM11.7324 8.55078C13.5013 8.55209 14.9349 9.98759 14.9336 11.7578C14.9347 13.5266 13.5012 14.9616 11.7324 14.9629H3.19922C1.43031 14.9603 -0.00261123 13.5248 3.57296e-06 11.7559C-0.00113728 9.9872 1.43154 8.55227 3.2002 8.55078H11.7324ZM20.2676 0C22.0364 0.00273215 23.4681 1.43852 23.4668 3.20605V11.7559C23.4681 13.5261 22.0345 14.9616 20.2656 14.9629C18.4969 14.96 17.0638 13.5246 17.0664 11.7559V3.20605C17.0651 1.43714 18.4987 0.0013074 20.2676 0ZM28.7998 8.55078C30.5685 8.55227 32.0011 9.9872 32 11.7559C32.0013 13.526 30.5686 14.9614 28.7998 14.9629H25.5986V11.7559C25.5975 9.98708 27.031 8.55209 28.7998 8.55078ZM11.7324 0C13.5026 0.00261479 14.9359 1.43813 14.9346 3.20703V6.41113H11.7344C9.96556 6.40983 8.53206 4.97483 8.53321 3.20605C8.5319 1.43721 9.96361 0.00142426 11.7324 0Z" fill="#333333"/>
</svg>
