<svg width="32" height="32" viewBox="0 0 32 32" fill="none" xmlns="http://www.w3.org/2000/svg">
<g clip-path="url(#clip0_23_963)">
<path d="M30 16C30 8.26801 23.732 2 16 2C8.26801 2 2 8.26801 2 16C2 23.732 8.26801 30 16 30C23.732 30 30 23.732 30 16ZM32 16C32 24.8366 24.8366 32 16 32C7.16344 32 0 24.8366 0 16C0 7.16344 7.16344 0 16 0C24.8366 0 32 7.16344 32 16Z" fill="#333333"/>
<path d="M10.8571 13.5C10.8571 14.5651 9.99369 15.4286 8.92857 15.4286C7.86345 15.4286 7 14.5651 7 13.5C7 12.4349 7.86345 11.5714 8.92857 11.5714C9.99369 11.5714 10.8571 12.4349 10.8571 13.5Z" fill="#333333"/>
<path d="M25 13.5C25 14.5651 24.1365 15.4286 23.0714 15.4286C22.0063 15.4286 21.1428 14.5651 21.1428 13.5C21.1428 12.4349 22.0063 11.5714 23.0714 11.5714C24.1365 11.5714 25 12.4349 25 13.5Z" fill="#333333"/>
<path d="M20.1259 20.5136C20.3945 20.0311 21.0037 19.8574 21.4863 20.1259C21.9689 20.3945 22.1425 21.0037 21.874 21.4863C20.7134 23.5718 18.5272 25 16 25C13.4728 25 11.2865 23.5718 10.1259 21.4863C9.85743 21.0037 10.0311 20.3945 10.5136 20.1259C10.9962 19.8574 11.6054 20.0311 11.874 20.5136C12.7095 22.0149 14.2541 23 16 23C17.7458 23 19.2904 22.0149 20.1259 20.5136Z" fill="#333333"/>
</g>
<defs>
<clipPath id="clip0_23_963">
<rect width="32" height="32" fill="white"/>
</clipPath>
</defs>
</svg>
