<svg width="32" height="33" viewBox="0 0 32 33" fill="none" xmlns="http://www.w3.org/2000/svg">
<path fill-rule="evenodd" clip-rule="evenodd" d="M17.4796 9.44533C17.8433 9.86096 17.8012 10.4927 17.3856 10.8564C16.9699 11.2201 16.3382 11.178 15.9745 10.7623L9.99999 3.93434L9.99999 23.3502C9.99999 23.9025 9.55228 24.3502 8.99999 24.3502C8.44771 24.3502 7.99999 23.9025 7.99999 23.3502L7.99999 3.93439L2.02554 10.7623C1.66186 11.178 1.03009 11.2201 0.614459 10.8564C0.198821 10.4927 0.156705 9.86096 0.520387 9.44533L8.09693 0.786429C8.12354 0.756008 8.15131 0.727282 8.18011 0.700249C8.36091 0.441883 8.66072 0.272926 8.99999 0.272926C9.33921 0.272926 9.63898 0.44183 9.81979 0.700123C9.84863 0.727192 9.87645 0.755961 9.90311 0.786429L17.4796 9.44533Z" fill="#333333"/>
<path fill-rule="evenodd" clip-rule="evenodd" d="M14.2474 22.9049C13.8837 22.4893 13.9258 21.8575 14.3415 21.4938C14.7571 21.1301 15.3889 21.1722 15.7526 21.5879L21.7271 28.4159L21.7271 9C21.7271 8.44772 22.1748 8 22.7271 8C23.2793 8 23.7271 8.44772 23.7271 9L23.7271 28.4158L29.7015 21.5879C30.0652 21.1722 30.697 21.1301 31.1126 21.4938C31.5282 21.8575 31.5703 22.4893 31.2067 22.9049L23.6301 31.5638C23.6035 31.5942 23.5757 31.6229 23.5469 31.65C23.3661 31.9083 23.0663 32.0773 22.7271 32.0773C22.3878 32.0773 22.0881 31.9084 21.9073 31.6501C21.8784 31.623 21.8506 31.5943 21.8239 31.5638L14.2474 22.9049Z" fill="#333333"/>
</svg>
