<svg width="32" height="32" viewBox="0 0 32 32" fill="none" xmlns="http://www.w3.org/2000/svg">
<path fill-rule="evenodd" clip-rule="evenodd" d="M9.5197 12.0947C9.60801 12.0947 9.6932 12.1276 9.75896 12.1865C9.82459 12.2455 9.86654 12.3264 9.87615 12.4141C10.2346 16.0626 10.3971 19.3316 9.87224 22.9717C9.87219 23.0656 9.83413 23.1553 9.76775 23.2217C9.70136 23.2881 9.61162 23.3261 9.51775 23.3262C9.42381 23.3262 9.3332 23.2881 9.26677 23.2217C9.20059 23.1553 9.16331 23.0654 9.16326 22.9717C8.65544 19.3786 8.82614 16.0157 9.16326 12.4141C9.17287 12.3264 9.21483 12.2455 9.28045 12.1865C9.3462 12.1276 9.4314 12.0947 9.5197 12.0947ZM7.30681 13.0752C7.40409 13.0752 7.49776 13.1139 7.56658 13.1826C7.6354 13.2514 7.674 13.3451 7.674 13.4424C8.10716 16.6086 8.10296 19.8194 7.6613 22.9844C7.65162 23.0731 7.60953 23.1552 7.54314 23.2148C7.47666 23.2745 7.39025 23.3075 7.30095 23.3076C7.21159 23.3076 7.12531 23.2745 7.05877 23.2148C6.99222 23.1552 6.94931 23.0732 6.93962 22.9844C6.53208 19.8168 6.53208 16.61 6.93962 13.4424C6.93962 13.3451 6.9792 13.2514 7.04802 13.1826C7.11676 13.1141 7.20974 13.0753 7.30681 13.0752ZM5.08806 15.4648C5.18424 15.4649 5.27689 15.5033 5.3449 15.5713C5.41282 15.6393 5.45037 15.732 5.45037 15.8281C6.00933 18.3031 5.75843 20.4879 5.42986 23.0098C5.41697 23.091 5.37522 23.1653 5.31267 23.2188C5.25011 23.2722 5.17033 23.3017 5.08806 23.3018C5.00578 23.3018 4.92603 23.2722 4.86345 23.2188C4.80087 23.1653 4.75916 23.091 4.74627 23.0098C4.44756 20.522 4.20092 18.286 4.72576 15.8281C4.72576 15.732 4.76327 15.6393 4.83123 15.5713C4.89925 15.5033 4.99186 15.4648 5.08806 15.4648ZM19.3713 9C20.6614 8.9985 21.928 9.34642 23.0363 10.0068C23.9014 10.5158 24.6518 11.199 25.2394 12.0127C25.827 12.8266 26.2394 13.754 26.4504 14.7354C26.8266 14.6289 27.2166 14.5755 27.6076 14.5772C28.1938 14.5735 28.7746 14.6884 29.3156 14.9141C29.8567 15.1399 30.3472 15.4722 30.757 15.8916C31.1668 16.311 31.4881 16.8092 31.7013 17.3555C31.9145 17.9016 32.0154 18.4853 31.9982 19.0713C31.9333 20.2251 31.4255 21.3097 30.5802 22.0977C29.735 22.8856 28.6176 23.3159 27.4621 23.2998H16.5588C16.3188 23.2976 16.0894 23.2013 15.9201 23.0313C15.7509 22.8613 15.6557 22.6314 15.6545 22.3916V10.6514C15.6466 10.45 15.6994 10.2507 15.8068 10.0801C15.9142 9.90953 16.071 9.77526 16.256 9.69532C16.2748 9.68245 17.2788 9 19.3713 9ZM11.7219 12.4277C11.8134 12.4278 11.9018 12.4623 11.9699 12.5234C12.0379 12.5846 12.0812 12.6688 12.091 12.7598C12.5291 16.1525 12.5271 19.5881 12.0861 22.9805C12.0726 23.068 12.0283 23.1484 11.9611 23.2061C11.8939 23.2636 11.8083 23.2948 11.7199 23.2949C11.6313 23.2949 11.545 23.2637 11.4777 23.2061C11.4105 23.1483 11.3662 23.068 11.3527 22.9805C10.958 19.5851 10.958 16.1551 11.3527 12.7598C11.3625 12.6687 11.4057 12.5846 11.4738 12.5234C11.5419 12.4622 11.6303 12.4277 11.7219 12.4277ZM13.9406 11.001C13.9904 11.001 14.0397 11.0119 14.0851 11.0322C14.1306 11.0525 14.1711 11.0821 14.2043 11.1191C14.2375 11.1562 14.2633 11.1997 14.2785 11.2471C14.2936 11.2943 14.2985 11.3443 14.2931 11.3936C14.6217 15.375 14.8607 19.007 14.2931 22.9756C14.2836 23.0623 14.2419 23.143 14.1769 23.2012C14.112 23.2592 14.0277 23.291 13.9406 23.291C13.8535 23.291 13.7692 23.2593 13.7043 23.2012C13.6393 23.143 13.5986 23.0623 13.589 22.9756C13.0599 19.0411 13.2903 15.3409 13.589 11.3936C13.5837 11.3442 13.5885 11.2944 13.6037 11.2471C13.6189 11.1997 13.6438 11.1562 13.6769 11.1191C13.7101 11.0822 13.7507 11.0525 13.7961 11.0322C13.8415 11.0119 13.8909 11.001 13.9406 11.001ZM2.87127 15.1172C2.96388 15.1172 3.05335 15.151 3.12224 15.2129C3.19111 15.2748 3.23441 15.3601 3.24431 15.4522C3.75638 17.9869 3.59005 20.1335 3.23162 22.6768C3.18894 23.0523 2.54505 23.0566 2.51091 22.6768C2.18661 20.1719 2.03211 17.9613 2.49724 15.4522C2.50713 15.3601 2.55139 15.2748 2.62029 15.2129C2.6892 15.151 2.77866 15.1172 2.87127 15.1172ZM0.643726 16.3457C0.736325 16.3458 0.825825 16.3805 0.894703 16.4424C0.963464 16.5043 1.00692 16.5896 1.01677 16.6816C1.55436 18.3629 1.37079 19.7282 0.995289 21.4522C0.985792 21.5378 0.945201 21.6174 0.881031 21.6748C0.816897 21.7321 0.73364 21.7637 0.647632 21.7637C0.561604 21.7636 0.478354 21.7322 0.414234 21.6748C0.350064 21.6174 0.309473 21.5378 0.299976 21.4522C-0.0243019 19.7625 -0.156909 18.3671 0.269703 16.6816C0.279565 16.5895 0.32385 16.5043 0.39275 16.4424C0.461681 16.3804 0.55105 16.3457 0.643726 16.3457Z" fill="#333333"/>
</svg>
