<svg width="32" height="32" viewBox="0 0 32 32" fill="none" xmlns="http://www.w3.org/2000/svg">
<path fill-rule="evenodd" clip-rule="evenodd" d="M14.4964 2.09239C14.9697 0.635855 17.0303 0.635881 17.5036 2.0924L20.5518 11.4739H30.416C31.9475 11.4739 32.5843 13.4336 31.3453 14.3338L23.3649 20.1319L26.4132 29.5133C26.8864 30.9698 25.2194 32.1811 23.9804 31.2809L16 25.4828L8.01964 31.2809C6.78064 32.1811 5.11359 30.9699 5.58685 29.5133L8.63507 20.1319L0.654713 14.3338C-0.584288 13.4336 0.0524838 11.4739 1.58396 11.4739H11.4482L14.4964 2.09239ZM16 4.28626L13.3346 12.4894C13.123 13.1408 12.516 13.5818 11.8311 13.5818H3.20583L10.1838 18.6516C10.7379 19.0542 10.9698 19.7677 10.7581 20.4191L8.09277 28.6222L15.0708 23.5524C15.6248 23.1498 16.3752 23.1498 16.9292 23.5524L23.9072 28.6222L21.2419 20.4191C21.0302 19.7677 21.2621 19.0542 21.8162 18.6516L28.7942 13.5818H20.1689C19.484 13.5818 18.877 13.1408 18.6654 12.4894L16 4.28626Z" fill="#333333"/>
</svg>
