<svg width="32" height="32" viewBox="0 0 32 32" fill="none" xmlns="http://www.w3.org/2000/svg">
<path d="M30 0C31.1046 5.13391e-07 32 0.895431 32 2V30C32 31.1046 31.1046 32 30 32H2C0.895431 32 0 31.1046 0 30V2C1.79942e-08 0.895431 0.895431 9.4625e-08 2 0H30ZM16.3389 6.00781C11.8781 6.00788 8.91797 8.33495 8.91797 12.2236C8.91802 18.2841 17.2578 17.3183 17.2588 19.9307C17.2588 20.9373 16.3793 21.2705 15.1523 21.2705C13.332 21.2705 11.003 20.5246 9.15723 19.5117V24.7393C11.198 25.6187 13.2641 25.9922 15.1523 25.9922C19.7191 25.9922 22.8553 23.7267 22.8555 19.7979C22.8343 13.252 14.4728 14.4168 14.4717 11.957C14.4717 11.103 15.1713 10.7696 16.3389 10.7695C18.0067 10.7695 20.1134 11.2761 21.7812 12.1768V7.01465C19.9609 6.29412 18.1593 6.00781 16.3389 6.00781Z" fill="#333333"/>
</svg>
