<svg width="32" height="32" viewBox="0 0 32 32" fill="none" xmlns="http://www.w3.org/2000/svg">
<path d="M25.4375 0C29.0469 0 32 2.95312 32 6.5625V25.4375C32 29.0469 29.0469 32 25.4375 32H6.5625C2.95312 32 0 29.0469 0 25.4375V6.5625C0 2.95312 2.95312 0 6.5625 0H25.4375ZM16.1514 5.37402C13.0439 5.3959 10.6538 6.44185 9.04883 8.48242C7.62012 10.298 6.88282 12.8248 6.8584 15.9922V16.0078C6.88282 19.1752 7.62012 21.702 9.04883 23.5176C10.6538 25.5581 13.0439 26.6047 16.1514 26.626H16.1641C18.9264 26.6066 20.8742 25.8833 22.4785 24.2803C24.5771 22.1835 24.514 19.5552 23.8223 17.9414C23.326 16.7845 22.3793 15.8443 21.085 15.2236C20.9939 15.18 20.9009 15.1376 20.8066 15.0977C20.6429 12.0752 18.9909 10.3446 16.2178 10.3271C14.6179 10.3166 13.1854 10.969 12.293 12.3232L13.8184 13.3691C14.4527 12.4069 15.4486 12.2021 16.1816 12.2021H16.2061C17.1189 12.2078 17.8083 12.473 18.2539 12.9902C18.5782 13.3677 18.7958 13.8886 18.9033 14.5459C18.0935 14.4085 17.2183 14.3662 16.2822 14.4199C13.6461 14.5719 11.9517 16.1099 12.0654 18.2461C12.1231 19.3302 12.6627 20.2618 13.585 20.8711C14.365 21.3861 15.3703 21.6386 16.4141 21.5811C17.7932 21.506 18.874 20.9792 19.6289 20.0176C20.202 19.287 20.5646 18.34 20.7246 17.1475C21.3815 17.5437 21.8683 18.0659 22.1377 18.6934C22.5946 19.7596 22.6214 21.5117 21.1914 22.9404C19.9389 24.1922 18.4328 24.7341 16.1572 24.751C13.6324 24.7322 11.7227 23.9218 10.4814 22.3438C9.31905 20.8663 8.71879 18.7317 8.69629 16C8.71879 13.2683 9.31905 11.1337 10.4814 9.65625C11.7227 8.07818 13.6324 7.26783 16.1572 7.24902C18.6997 7.26777 20.6423 8.08234 21.9316 9.66797C22.5634 10.4454 23.0401 11.4236 23.3545 12.5635L25.1416 12.0859C24.761 10.683 24.1622 9.47373 23.3467 8.4707C21.6942 6.43765 19.2777 5.39597 16.1641 5.37402H16.1514ZM17.0273 16.2734C17.7171 16.2735 18.3625 16.34 18.9492 16.4688C18.7305 19.2022 17.4472 19.6464 16.3154 19.709C15.1605 19.774 13.9599 19.255 13.9004 18.1445C13.8566 17.3208 14.4867 16.4014 16.3867 16.292C16.6041 16.2795 16.8181 16.2734 17.0273 16.2734Z" fill="#333333"/>
</svg>
