<svg width="33" height="32" viewBox="0 0 33 32" fill="none" xmlns="http://www.w3.org/2000/svg">
<path d="M5.39534 5H5.46154C5.96649 5.57926 6.53731 6.09232 7.07519 6.64675L10.7328 10.3044V10.3706C8.9621 12.1332 7.19932 13.9123 5.42844 15.6749C3.64928 13.9041 1.8784 12.1249 0.0992432 10.354C0.190435 10.1802 0.364048 10.0644 0.496451 9.92371C2.12666 8.27696 3.78169 6.65503 5.39534 5ZM16.0703 5H16.1365C16.1863 5.07448 16.2358 5.14068 16.302 5.20688C18.0149 6.90328 19.7032 8.62451 21.4326 10.3126C21.3912 10.4119 21.3002 10.4781 21.2257 10.5526C19.5129 12.2573 17.8081 13.9703 16.0951 15.6749C14.3077 13.9123 12.5533 12.1166 10.7576 10.3623C12.4954 8.55004 14.3242 6.80398 16.0703 5ZM26.7452 5H26.8114C27.1424 5.39721 27.5314 5.73649 27.8872 6.10887C29.2278 7.44944 30.5602 8.78174 31.9006 10.1223C31.967 10.1968 32.0746 10.263 32.0992 10.3706C30.3035 12.1166 28.5658 13.9289 26.7618 15.6749L21.6726 10.5857C21.5898 10.4947 21.4822 10.4285 21.4409 10.3126C22.3428 9.43548 23.22 8.53349 24.1137 7.64805C24.9909 6.76261 25.8846 5.90199 26.7452 5ZM10.8321 20.9297C12.5782 19.1836 14.3325 17.4375 16.0786 15.6832L16.1529 15.7163C17.9072 17.4789 19.6615 19.2415 21.4324 20.9876C21.3747 21.12 21.2505 21.1945 21.1593 21.302C19.8851 22.5681 18.6106 23.8508 17.3362 25.1169C16.9225 25.5141 16.5252 25.9609 16.1034 26.3333C15.4993 25.7872 14.9449 25.1748 14.3572 24.6121C13.1657 23.4205 11.9824 22.2289 10.7825 21.0455C10.799 21.0124 10.8156 20.9628 10.8321 20.9297Z" fill="#333333" stroke="#333333" stroke-width="0.161675"/>
</svg>
