<svg width="32" height="32" viewBox="0 0 32 32" fill="none" xmlns="http://www.w3.org/2000/svg">
<path d="M19.762 31.996H7.338C4.404 31.996 2 29.624 2 26.721V8.303C2 5.869 3.561 3.839 5.871 3.278C5.996 1.468 7.557 0.031 9.398 0.031C11.208 0.031 12.738 1.249 12.957 2.965H19.481C19.7 1.249 21.073 0 22.884 0C24.756 0 26.13 1.467 26.286 3.278C28.596 3.839 30.438 5.9 30.438 8.335V21.32C30.438 26.596 25.1 31.996 19.762 31.996ZM19.762 29.311C23.664 29.311 27.753 25.316 27.753 21.476V20.634C26.942 21.164 26.036 21.32 25.1 21.32H22.447C22.447 21.32 19.762 21.476 19.762 24.098V26.721C19.762 27.626 19.419 28.5 18.888 29.311H19.762ZM10.897 3.528C10.897 2.779 10.304 2.218 9.554 2.218C8.837 2.218 8.212 2.779 8.212 3.528V4.402C8.212 5.12 8.837 5.713 9.554 5.713C10.304 5.713 10.897 5.12 10.897 4.403V3.528ZM24.195 3.528C24.195 2.779 23.602 2.218 22.884 2.218C22.134 2.218 21.541 2.779 21.541 3.528V4.402C21.541 5.12 22.134 5.713 22.884 5.713C23.601 5.713 24.194 5.12 24.194 4.403L24.195 3.528ZM27.753 10.958H25.287C24.2001 9.58089 22.8153 8.46796 21.2366 7.7028C19.6579 6.93763 17.9264 6.54012 16.172 6.54012C14.4176 6.54012 12.6861 6.93763 11.1074 7.7028C9.5287 8.46796 8.1439 9.58089 7.057 10.958H4.685V26.658C4.685 28.094 5.871 29.311 7.338 29.311H14.455C14.455 29.311 17.109 29.343 17.109 26.721V23.224C17.109 20.602 19.762 18.948 22.447 18.948H25.1C27.753 18.948 27.753 16.295 27.753 16.295V10.957V10.958ZM22.134 16.296C21.7396 14.846 20.8303 13.5893 19.5764 12.7612C18.3224 11.9331 16.8097 11.5902 15.3213 11.7968C13.8328 12.0033 12.4706 12.7451 11.4895 13.8834C10.5084 15.0216 9.97571 16.4784 9.991 17.981C9.991 20.728 11.864 23.101 14.455 23.85V26.565C12.4601 26.1758 10.6614 25.1082 9.36408 23.5435C8.06681 21.9789 7.35095 20.0135 7.338 17.981C7.39886 15.829 8.24349 13.7733 9.71319 12.2001C11.1829 10.6269 13.1765 9.64457 15.3194 9.43764C17.4623 9.23072 19.607 9.81346 21.3506 11.0764C23.0941 12.3393 24.3165 14.1954 24.788 16.296H22.134ZM12.208 17.981C12.208 17.607 12.301 17.263 12.395 16.92C12.6451 17.2501 12.9915 17.4944 13.3865 17.619C13.7814 17.7436 14.2053 17.7424 14.5996 17.6156C14.9938 17.4887 15.3389 17.2425 15.5871 16.911C15.8353 16.5795 15.9743 16.179 15.985 15.765C15.985 15.109 15.673 14.547 15.173 14.173C16.1215 13.911 17.1333 14.0081 18.0145 14.4458C18.8958 14.8835 19.5846 15.631 19.949 16.545C17.327 17.325 15.299 19.23 14.674 21.602C13.238 21.009 12.208 19.603 12.208 17.981Z" fill="#333333"/>
</svg>
