<svg width="32" height="32" viewBox="0 0 32 32" fill="none" xmlns="http://www.w3.org/2000/svg">
<path d="M27.2002 0C29.851 0.000105137 31.9999 2.14899 32 4.7998V27.2002C31.9999 29.851 29.851 31.9999 27.2002 32H4.7998C2.14899 31.9999 0.000105137 29.851 0 27.2002V4.7998C0.000105652 2.14899 2.14899 0.000105652 4.7998 0H27.2002ZM26.125 11.5625C27.3125 4.75 18 6.1875 16.9375 12.125C19.4375 10.625 20.8125 12.75 19.5 15.0625C18.25 17.5 17.0625 19 16.4375 19C15.875 19 15.4375 17.4375 14.75 14.625C14 11.8125 14 6.625 11.0625 7.25C8.25 7.75 4.5625 12.1875 4.5625 12.1875L5.375 13.375C5.375 13.375 7.25 11.875 7.8125 12.625C8.4375 13.375 10.75 22 11.5 23.625C12.1875 24.9375 14.0625 26.8125 16.0625 25.5C18.125 24.1875 24.9375 18.375 26.125 11.5625Z" fill="#333333"/>
</svg>
