<svg width="32" height="32" viewBox="0 0 32 32" fill="none" xmlns="http://www.w3.org/2000/svg">
<path d="M15.9787 8.3221e-05C15.9033 0.00130142 15.8286 0.0142321 15.7572 0.0384116C14.5246 0.0566177 13.313 0.188814 12.1657 0.475639C11.6681 0.5968 11.1763 0.749899 10.6879 0.928482C10.5709 0.941667 10.4589 0.983075 10.3614 1.04915C9.73715 1.27743 9.13126 1.54186 8.55575 1.84694C7.61105 2.3376 6.72622 2.94684 5.89831 3.62425C5.78748 3.66927 5.68947 3.74094 5.61298 3.83292C5.53564 3.8976 5.4583 3.96213 5.38301 4.03166C4.42458 4.8836 3.56468 5.84919 2.82636 6.91481C2.6091 7.22719 2.41005 7.55257 2.21879 7.88012C2.14221 7.96629 2.08723 8.06945 2.05838 8.18107C1.21907 9.66602 0.613453 11.3026 0.293851 13.0317C0.244943 13.134 0.220637 13.2463 0.222873 13.3597C0.180576 13.5957 0.140029 13.8337 0.113566 14.0851C0.0382527 14.7139 0 15.3507 0 16.0001C0 16.6495 0.0382525 17.2862 0.113566 17.9151C0.140029 18.1665 0.180576 18.4044 0.222873 18.6405C0.220858 18.7533 0.24516 18.8651 0.293851 18.967C0.613152 20.6953 1.21697 22.3317 2.05554 23.8162C2.0848 23.9291 2.14079 24.0333 2.21879 24.12C2.41025 24.4479 2.60884 24.774 2.82636 25.0867C3.56547 26.1533 4.42551 27.1109 5.38017 27.967C5.45522 28.0364 5.53307 28.0998 5.61014 28.1644L5.61156 28.1658C5.68852 28.2592 5.78757 28.3319 5.89974 28.3773H5.90115C6.72838 29.0539 7.61198 29.663 8.55575 30.1532C9.13126 30.4583 9.73715 30.7227 10.3614 30.951C10.4585 31.0168 10.57 31.0582 10.6865 31.0716C11.1753 31.2504 11.6677 31.4032 12.1657 31.5245C13.313 31.8113 14.5246 31.9435 15.7572 31.9617C15.9082 32.0128 16.0718 32.0128 16.2229 31.9617C17.4555 31.9435 18.6671 31.8113 19.8144 31.5245C20.312 31.4033 20.8038 31.2502 21.2921 31.0716C21.4091 31.0585 21.5212 31.017 21.6186 30.951C22.2429 30.7227 22.8488 30.4583 23.4243 30.1532C24.369 29.6625 25.2539 29.0533 26.0818 28.3759C26.1926 28.3309 26.2906 28.2592 26.3671 28.1672C26.4452 28.1019 26.5239 28.0373 26.5999 27.967C27.5546 27.1109 28.4146 26.1533 29.1537 25.0867V25.0853C29.371 24.7729 29.57 24.4475 29.7613 24.12C29.8379 24.0338 29.8929 23.9307 29.9217 23.8191C30.761 22.3341 31.3666 20.6975 31.6862 18.9684C31.7351 18.8661 31.7594 18.7538 31.7572 18.6405C31.7994 18.4044 31.8401 18.1665 31.8665 17.9151C31.9418 17.2862 31.9801 16.6495 31.9801 16.0001C31.9801 15.3507 31.9418 14.7139 31.8665 14.0851C31.8401 13.8337 31.7995 13.5957 31.7572 13.3597C31.7592 13.2468 31.7349 13.135 31.6862 13.0332C31.3669 11.3048 30.7631 9.66839 29.9245 8.18391C29.8953 8.07101 29.8393 7.96682 29.7613 7.88012C29.57 7.55257 29.371 7.22719 29.1537 6.91481V6.91339C28.4155 5.84816 27.5552 4.88337 26.5971 4.03166C26.5228 3.96305 26.4462 3.89963 26.3699 3.83576C26.3695 3.83529 26.369 3.83482 26.3685 3.83434C26.2916 3.74095 26.1925 3.66825 26.0803 3.62283C26.0799 3.62283 26.0794 3.62283 26.0789 3.62283C25.2518 2.94626 24.3681 2.33711 23.4243 1.84694C22.8488 1.54186 22.2429 1.27743 21.6186 1.04915C21.5216 0.983289 21.4101 0.94189 21.2936 0.928482C20.8048 0.749677 20.3124 0.596907 19.8144 0.475639C18.6671 0.188814 17.4555 0.0566174 16.2229 0.0384116C16.1442 0.011791 16.0617 -0.00117251 15.9787 8.3221e-05ZM10.5318 0.973908C10.5268 0.975667 10.5226 0.97924 10.5176 0.981006C10.5153 0.981879 10.5128 0.981553 10.5105 0.982426L10.5318 0.973908ZM21.4483 0.973908L21.4696 0.982426C21.4673 0.981554 21.4648 0.981878 21.4625 0.981006C21.4575 0.97924 21.4533 0.975675 21.4483 0.973908ZM15.2632 1.55167V4.45753C14.566 4.50164 13.8671 4.54433 13.2091 4.70454C13.2086 4.70454 13.2082 4.70454 13.2077 4.70454C13.0396 4.74576 12.8757 4.80802 12.7094 4.85643L11.7157 2.12944C11.9804 2.048 12.235 1.95443 12.5135 1.88669C12.5149 1.88622 12.5164 1.88575 12.5178 1.88527C13.3908 1.66701 14.3264 1.59935 15.2632 1.55167ZM16.7169 1.55167C17.6537 1.59935 18.5893 1.66701 19.4623 1.88527C19.4637 1.88575 19.4651 1.88622 19.4666 1.88669C19.745 1.95443 19.9996 2.048 20.2644 2.12944L19.2707 4.85643C19.1044 4.80802 18.9405 4.74576 18.7724 4.70454C18.7719 4.70454 18.7715 4.70454 18.771 4.70454C18.113 4.54433 17.414 4.50164 16.7169 4.45753V1.55167ZM10.3543 2.63623L11.3466 5.36606C11.0921 5.47724 10.8328 5.57168 10.5857 5.70534L10.5843 5.70676C10.1944 5.91206 9.84651 6.19837 9.47847 6.44777C9.32998 6.46733 9.19116 6.53228 9.08099 6.63374L7.25259 4.45611C7.88694 3.97591 8.52772 3.49817 9.23147 3.13307C9.23336 3.13214 9.23526 3.13119 9.23714 3.13024C9.60057 2.93758 9.97934 2.79399 10.3543 2.63623ZM21.6257 2.63623C22.0007 2.79399 22.3795 2.93758 22.7429 3.13024C22.7448 3.13119 22.7467 3.13214 22.7486 3.13307C23.4524 3.49817 24.0931 3.97591 24.7275 4.45611L22.8991 6.63374C22.7887 6.5328 22.6499 6.46835 22.5016 6.44919C22.1334 6.19962 21.7859 5.91218 21.3958 5.70676C21.1482 5.57275 20.8886 5.47749 20.6335 5.36606L21.6257 2.63623ZM6.12403 5.37174L7.99928 7.60614C7.42356 8.15509 6.8712 8.73369 6.41504 9.3948C6.37487 9.45249 6.3442 9.51274 6.30573 9.57083L3.78599 8.11577C3.86516 7.99278 3.93761 7.8626 4.02022 7.74384C4.02022 7.74337 4.02022 7.74289 4.02022 7.74242C4.62705 6.86659 5.35118 6.09086 6.12403 5.37174ZM25.8561 5.37174C26.6289 6.09086 27.353 6.86659 27.9599 7.74242C27.9599 7.74289 27.9599 7.74337 27.9599 7.74384C28.0425 7.8626 28.1149 7.99278 28.1941 8.11577L25.6744 9.57083C25.6359 9.51274 25.6052 9.45249 25.565 9.3948L25.5622 9.39196C25.1066 8.7321 24.5556 8.15417 23.9808 7.60614L25.8561 5.37174ZM15.2632 5.91117V8.76877C14.2025 8.87485 13.211 9.21555 12.3332 9.72982L10.6439 7.40598C10.856 7.2749 11.0405 7.10851 11.2629 6.99147C11.2652 6.99006 11.2676 6.98864 11.27 6.98721C11.6389 6.78711 12.0347 6.61831 12.4383 6.46765C12.4935 6.4536 12.5468 6.43311 12.5973 6.4066C12.903 6.29442 13.2172 6.19821 13.5541 6.11559L13.5526 6.11701C14.1007 5.98358 14.6841 5.95293 15.2632 5.91117ZM16.7169 5.91117C17.2959 5.95293 17.8794 5.98357 18.4274 6.11701L18.426 6.11559C18.7633 6.19832 19.0782 6.29421 19.3842 6.4066C19.4355 6.43381 19.4898 6.45478 19.5461 6.46907C19.9481 6.61936 20.3425 6.78781 20.7101 6.98721C20.7125 6.98864 20.7148 6.99006 20.7172 6.99147C20.9396 7.10851 21.1241 7.2749 21.3361 7.40598L19.6469 9.72982C18.769 9.21555 17.7776 8.87485 16.7169 8.76877V5.91117ZM9.44298 8.22507L11.1592 10.5872C10.3893 11.2753 9.76338 12.1206 9.34077 13.0772L6.57971 12.1772C6.74352 11.763 6.9236 11.3603 7.14328 10.9833C7.17696 10.9371 7.20508 10.8871 7.22703 10.8342C7.35009 10.6227 7.47502 10.4179 7.61032 10.2238C7.61079 10.2229 7.61127 10.2219 7.61174 10.221C8.07929 9.54337 8.62997 8.92472 9.2414 8.38123C9.24235 8.38028 9.2433 8.37934 9.24424 8.37839C9.28911 8.33801 9.31473 8.31683 9.34645 8.29037C9.3474 8.2899 9.34835 8.28943 9.34929 8.28895C9.38214 8.27013 9.41346 8.24878 9.44298 8.22507ZM22.5371 8.22507C22.5658 8.24768 22.5962 8.26808 22.628 8.28612C22.6607 8.31318 22.6886 8.33589 22.7358 8.37839C22.7368 8.37934 22.7377 8.38028 22.7387 8.38123C23.3501 8.92472 23.9008 9.54337 24.3683 10.221C24.3688 10.2219 24.3693 10.2229 24.3698 10.2238C24.5053 10.4183 24.6298 10.6237 24.753 10.8357C24.7753 10.8895 24.8038 10.9405 24.8382 10.9876C24.8387 10.988 24.8392 10.9885 24.8396 10.989C25.0566 11.3619 25.2369 11.763 25.4046 12.1757L22.6393 13.0772C22.2167 12.1206 21.5908 11.2753 20.8208 10.5872L22.5371 8.22507ZM3.08899 9.39054L5.60872 10.8442C5.44068 11.1832 5.25433 11.5146 5.12323 11.8691V11.8705C5.08517 11.968 5.07214 12.0771 5.03664 12.1757C4.97774 12.251 4.93426 12.3371 4.90868 12.4292C4.8831 12.5213 4.87593 12.6175 4.88758 12.7123C4.83114 12.8975 4.77664 13.0835 4.73001 13.2731L1.86248 12.7677C2.13037 11.5799 2.54342 10.4489 3.08899 9.39054ZM28.8911 9.39054C29.4367 10.4489 29.8497 11.5799 30.1176 12.7677L27.2529 13.2731C27.2063 13.0796 27.1509 12.8892 27.0939 12.6996C27.113 12.5169 27.0623 12.3339 26.952 12.1871C26.9152 12.0839 26.9038 11.9712 26.864 11.8691C26.729 11.516 26.5432 11.1824 26.3742 10.8428L28.8911 9.39054ZM15.9049 10.1898C15.9633 10.1969 16.0224 10.1969 16.0809 10.1898C17.2628 10.2079 18.3579 10.573 19.2664 11.192C19.3384 11.2778 19.4293 11.3458 19.5319 11.3907C20.4092 12.0649 21.0844 12.9829 21.4625 14.0467C21.472 14.1621 21.509 14.2736 21.5704 14.3718C21.7202 14.8887 21.8046 15.4337 21.8046 16.0001C21.8046 16.5654 21.7197 17.1093 21.5704 17.6255C21.5086 17.7245 21.4716 17.837 21.4625 17.9534C21.0849 19.0159 20.4105 19.9326 19.5347 20.6066C19.4308 20.6519 19.3389 20.7209 19.2664 20.8081C18.3564 21.4281 17.2593 21.7933 16.0752 21.8104C16.0168 21.8032 15.9576 21.8032 15.8992 21.8104C13.4064 21.7721 11.3084 20.1785 10.5176 17.9534C10.508 17.838 10.4711 17.7265 10.4097 17.6283C10.2599 17.1114 10.1755 16.5664 10.1755 16.0001C10.1755 15.4347 10.2604 14.8908 10.4097 14.3747C10.4715 14.2756 10.5085 14.1631 10.5176 14.0467C11.309 11.8199 13.4096 10.2257 15.9049 10.1898ZM25.8333 13.5641C25.8826 13.7638 25.9614 13.9518 25.998 14.1575C26.0019 14.2138 26.0124 14.2696 26.0292 14.3235C26.0518 14.476 26.0747 14.6245 26.0903 14.765C26.0903 14.7669 26.0903 14.7688 26.0903 14.7707C26.138 15.1735 26.1655 15.5885 26.1655 16.0001C26.1655 16.4116 26.1381 16.8266 26.0903 17.2294C26.0903 17.2313 26.0903 17.2332 26.0903 17.2351C26.0746 17.3765 26.052 17.5259 26.0292 17.6794C26.0127 17.732 26.0023 17.7863 25.998 17.8412C25.9614 18.0474 25.8827 18.2358 25.8333 18.436L23.0893 17.5431C23.1977 17.0451 23.2582 16.5299 23.2582 16.0001C23.2582 15.4702 23.1977 14.955 23.0893 14.457L25.8333 13.5641ZM6.14958 13.5655L8.89077 14.457C8.78242 14.955 8.72184 15.4702 8.72184 16.0001C8.72184 16.5299 8.78242 17.0451 8.89077 17.5431L6.14958 18.4346C6.09939 18.2352 6.01852 18.0455 5.98207 17.8412C5.97804 17.7853 5.96756 17.7301 5.95084 17.6766C5.92826 17.5241 5.90541 17.3756 5.8898 17.2351C5.8898 17.2332 5.8898 17.2313 5.8898 17.2294C5.84201 16.8266 5.81456 16.4116 5.81456 16.0001C5.81456 15.5885 5.84201 15.1735 5.8898 14.7707C5.8898 14.7688 5.8898 14.7669 5.8898 14.765C5.90551 14.6236 5.92809 14.4743 5.95084 14.3207C5.96725 14.2686 5.97772 14.2148 5.98207 14.1603C6.01857 13.9556 6.09928 13.7654 6.14958 13.5655ZM1.56579 14.1915L4.44042 14.6983C4.39333 15.123 4.36092 15.5586 4.36092 16.0001C4.36092 16.4415 4.39333 16.8771 4.44042 17.3018L1.56579 17.8086C1.56411 17.7936 1.56027 17.7782 1.55869 17.7632C1.55824 17.7594 1.55777 17.7556 1.55727 17.7518C1.48811 17.1778 1.45364 16.597 1.45364 16.0001C1.45364 15.4032 1.48811 14.8223 1.55727 14.2483C1.55777 14.2445 1.55824 14.2407 1.55869 14.237C1.56027 14.2219 1.5641 14.2066 1.56579 14.1915ZM30.4143 14.1915C30.416 14.2066 30.4198 14.2219 30.4214 14.237C30.4218 14.2407 30.4223 14.2445 30.4228 14.2483C30.4919 14.8223 30.5264 15.4032 30.5264 16.0001C30.5264 16.597 30.492 17.1778 30.4228 17.7518C30.4223 17.7556 30.4218 17.7594 30.4214 17.7632C30.4198 17.7782 30.416 17.7936 30.4143 17.8086L27.5397 17.3018C27.5867 16.8771 27.6192 16.4415 27.6192 16.0001C27.6192 15.5586 27.5867 15.123 27.5397 14.6983L30.4143 14.1915ZM4.73001 18.7271C4.77675 18.9171 4.83099 19.1036 4.88758 19.2892C4.86445 19.4803 4.91805 19.6728 5.03664 19.8244C5.07214 19.923 5.08517 20.0322 5.12323 20.1296V20.131C5.25433 20.4855 5.44068 20.8169 5.60872 21.1559L3.08899 22.6096C2.54342 21.5512 2.13037 20.4202 1.86248 19.2324L4.73001 18.7271ZM27.2529 18.7271L30.1176 19.2324C29.8497 20.4202 29.4367 21.5513 28.8911 22.6096L26.3742 21.1574C26.5432 20.8177 26.729 20.4842 26.864 20.131C26.904 20.0285 26.9151 19.9153 26.952 19.8116C27.0627 19.6645 27.1134 19.4808 27.0939 19.2977C27.1506 19.109 27.2065 18.9197 27.2529 18.7271ZM9.34077 18.923C9.76338 19.8795 10.3893 20.7248 11.1592 21.4129L9.44298 23.775C9.41428 23.7524 9.38391 23.732 9.35213 23.714C9.31942 23.6869 9.29147 23.6642 9.24424 23.6217C9.2433 23.6208 9.24235 23.6198 9.2414 23.6189C8.62997 23.0754 8.07929 22.4568 7.61174 21.7791C7.61127 21.7782 7.61079 21.7772 7.61032 21.7763C7.4748 21.5819 7.35028 21.3764 7.22703 21.1645C7.20483 21.1106 7.17623 21.0596 7.14186 21.0126C7.14186 21.0121 7.14186 21.0116 7.14186 21.0111C6.92339 20.6356 6.74281 20.2353 6.57971 19.823L9.34077 18.923ZM22.6393 18.923L25.4046 19.8244C25.2362 20.2387 25.0548 20.6412 24.8368 21.0154C24.803 21.0621 24.7749 21.1126 24.753 21.1659C24.63 21.3774 24.5051 21.5822 24.3698 21.7763C24.3693 21.7772 24.3688 21.7782 24.3683 21.7791C23.9008 22.4568 23.3501 23.0754 22.7387 23.6189C22.7377 23.6198 22.7368 23.6208 22.7358 23.6217C22.691 23.6621 22.6654 23.6833 22.6336 23.7097C22.6329 23.7104 22.6315 23.7105 22.6308 23.7112C22.5979 23.73 22.5666 23.7513 22.5371 23.775L20.8208 21.4129C21.5908 20.7248 22.2167 19.8795 22.6393 18.923ZM12.3332 22.2703C13.211 22.7846 14.2025 23.1253 15.2632 23.2314V26.0889C14.6841 26.0472 14.1007 26.0166 13.5526 25.8831L13.5541 25.8845C13.2168 25.8018 12.9019 25.7059 12.5958 25.5935C12.5446 25.5663 12.4903 25.5453 12.434 25.5311C12.0319 25.3807 11.6376 25.2123 11.27 25.0129C11.2676 25.0115 11.2652 25.0101 11.2629 25.0087C11.0405 24.8916 10.856 24.7252 10.6439 24.5941L12.3332 22.2703ZM19.6469 22.2703L21.3361 24.5941C21.1241 24.7252 20.9396 24.8916 20.7172 25.0087C20.7148 25.0101 20.7125 25.0115 20.7101 25.0129C20.3412 25.213 19.9454 25.3818 19.5418 25.5325C19.4866 25.5465 19.4332 25.567 19.3828 25.5935C19.0771 25.7057 18.7629 25.8019 18.426 25.8845L18.4274 25.8831C17.8794 26.0165 17.2959 26.0472 16.7169 26.0889V23.2314C17.7776 23.1253 18.769 22.7846 19.6469 22.2703ZM6.30573 22.4293C6.34493 22.4885 6.37692 22.5494 6.41788 22.6082C6.8735 23.268 7.42453 23.846 7.99928 24.394L6.12403 26.6284C5.34942 25.9034 4.6257 25.1316 4.02022 24.2577C4.02022 24.2572 4.02022 24.2568 4.02022 24.2563C3.93761 24.1376 3.86516 24.0073 3.78599 23.8844L6.30573 22.4293ZM25.6744 22.4293L28.1941 23.8844C28.1149 24.0073 28.0425 24.1375 27.9599 24.2563C27.9599 24.2568 27.9599 24.2572 27.9599 24.2577C27.3544 25.1316 26.6307 25.9034 25.8561 26.6284L23.9808 24.394C24.5556 23.846 25.1066 23.268 25.5622 22.6082L25.565 22.6053C25.6052 22.5476 25.6359 22.4874 25.6744 22.4293ZM9.08099 25.3664C9.19116 25.4678 9.32998 25.5328 9.47847 25.5524C9.84651 25.8017 10.1944 26.0881 10.5843 26.2934L10.5857 26.2948C10.8328 26.4284 11.0921 26.5229 11.3466 26.6341L10.3543 29.3639C9.97934 29.2061 9.60057 29.0625 9.23714 28.8699C9.23526 28.8689 9.23336 28.868 9.23147 28.867C8.52768 28.5019 7.88694 28.0242 7.25259 27.544L9.08099 25.3664ZM22.8991 25.3678L24.7275 27.544C24.0931 28.0242 23.4524 28.5019 22.7486 28.867C22.7467 28.868 22.7448 28.8689 22.7429 28.8699C22.3795 29.0625 22.0007 29.2061 21.6257 29.3639L20.6335 26.6341C20.888 26.5229 21.1473 26.4284 21.3943 26.2948L21.3958 26.2934C21.7857 26.0881 22.1336 25.8017 22.5016 25.5524C22.6499 25.5332 22.7887 25.4687 22.8991 25.3678ZM12.7094 27.1437C12.8757 27.1921 13.0396 27.2544 13.2077 27.2956C13.2082 27.2956 13.2086 27.2956 13.2091 27.2956C13.8671 27.4558 14.566 27.4985 15.2632 27.5426V30.4484C14.3264 30.4008 13.3908 30.3331 12.5178 30.1148C12.5164 30.1144 12.5149 30.1139 12.5135 30.1134C12.235 30.0457 11.9804 29.9521 11.7157 29.8707L12.7094 27.1437ZM19.2707 27.1437L20.2644 29.8707C19.9996 29.9521 19.745 30.0457 19.4666 30.1134C19.4651 30.1139 19.4637 30.1144 19.4623 30.1148C18.5893 30.333 17.6537 30.4008 16.7169 30.4484V27.5426C17.414 27.4985 18.113 27.4558 18.771 27.2956C18.7715 27.2956 18.7719 27.2956 18.7724 27.2956C18.9405 27.2544 19.1044 27.1921 19.2707 27.1437ZM10.5105 31.0177C10.5128 31.0186 10.5153 31.0182 10.5176 31.0191C10.5226 31.0209 10.5267 31.0244 10.5318 31.0262L10.5105 31.0177ZM21.4696 31.0177L21.4483 31.0262C21.4534 31.0245 21.4574 31.0209 21.4625 31.0191C21.4647 31.0183 21.4673 31.0185 21.4696 31.0177Z" fill="#333333"/>
</svg>
