<svg width="32" height="32" viewBox="0 0 32 32" fill="none" xmlns="http://www.w3.org/2000/svg">
<path d="M22.4053 11.7461C27.6999 11.7461 31.9998 15.3725 32 19.8184C32 22.3043 30.6842 24.4989 28.6348 25.9902C28.3723 26.1656 28.2839 26.4591 28.3428 26.751L28.8115 28.6514C28.8704 28.8267 28.6655 28.974 28.5195 28.8857L26.1494 27.5996C25.8857 27.4819 25.5937 27.4519 25.3301 27.5107C24.4238 27.7744 23.4586 27.8916 22.4346 27.8916C17.1399 27.8915 12.8398 24.2643 12.8398 19.8184C12.84 15.3725 17.1107 11.7461 22.4053 11.7461ZM11.583 3C17.2873 3.00007 22.0249 6.42209 22.9619 10.8975H22.5234C16.7322 10.8975 12.052 14.9052 12.0518 19.8477C12.0518 20.608 12.1678 21.3687 12.4033 22.0996C12.1102 22.129 11.8477 22.1289 11.584 22.1289C10.3551 22.1289 9.15523 21.953 8.01465 21.6611C7.75111 21.5742 7.48902 21.6033 7.25488 21.749L3.83301 23.7959C3.62818 23.9137 3.39326 23.7087 3.45215 23.5039L4.3291 20.4033C4.35842 20.1988 4.29997 19.9944 4.125 19.8779C1.60953 18.1229 4.45816e-05 15.4905 0 12.5654C0 7.27071 5.17712 3 11.583 3ZM18.9834 16.1348C18.2525 16.1348 17.6671 16.7193 17.667 17.4502C17.667 18.1812 18.2524 18.7666 18.9834 18.7666C19.7144 18.7666 20.2998 18.1812 20.2998 17.4502C20.2997 16.7193 19.7143 16.1348 18.9834 16.1348ZM25.4482 16.1348C24.7173 16.1348 24.1319 16.7193 24.1318 17.4502C24.1318 18.1812 24.7173 18.7666 25.4482 18.7666C26.1497 18.7666 26.7646 18.1811 26.7646 17.4502C26.7646 16.7193 26.1791 16.1348 25.4482 16.1348ZM7.69238 8.06055C6.84379 8.06058 6.14278 8.76179 6.14258 9.61035C6.14258 10.4591 6.84367 11.1611 7.69238 11.1611C8.57057 11.1611 9.24316 10.4591 9.24316 9.61035C9.24296 8.76177 8.541 8.06055 7.69238 8.06055ZM15.4736 8.06055C14.6263 8.06055 13.9231 8.76177 13.9229 9.61035C13.9229 10.4591 14.6249 11.1611 15.4736 11.1611C16.3222 11.1609 17.0234 10.459 17.0234 9.61035C17.0232 8.76191 16.3221 8.06078 15.4736 8.06055Z" fill="#333333"/>
</svg>
