<svg width="32" height="32" viewBox="0 0 32 32" fill="none" xmlns="http://www.w3.org/2000/svg">
<path d="M32 0.800024V9.43842C32 9.95689 31.7477 10.4446 31.3246 10.7446L23.0769 16.5861C23.0769 16.5861 23.0692 16.5908 23.0661 16.5938C22.6847 16.8692 22.4447 17.297 22.4077 17.7616C22.4031 17.8061 22.4015 17.8507 22.4015 17.8954V31.2C22.4015 31.6415 22.0431 32 21.6015 32H20.9939C20.7093 32 20.4461 31.8477 20.3031 31.603L11.8646 17.1354C11.8646 17.1354 11.8615 17.1293 11.8584 17.1277C11.6739 16.8231 11.2016 16.9538 11.2016 17.3138V31.2C11.2016 31.6415 10.8431 32 10.4015 32H9.79391C9.50917 32 9.24614 31.8477 9.10311 31.603L0.323039 16.5523C0.110688 16.1908 0 15.7784 0 15.3585V0.800024C0 0.356916 0.35843 0 0.800026 0H1.40766C1.6908 0 1.95383 0.150726 2.09845 0.395401L10.5368 14.8631C10.7199 15.1769 11.2 15.0476 11.2 14.6846V0.800024C11.2 0.356916 11.5584 0 12 0H12.6076C12.8908 0 13.1538 0.150726 13.2984 0.395401L21.737 14.8631C21.92 15.1769 22.3999 15.0476 22.3999 14.6846V7.09235C22.3999 6.32306 22.7724 5.60162 23.3999 5.1569L30.4739 0.146189C30.6092 0.0507778 30.7708 0 30.9369 0H31.2C31.6416 0 32 0.356916 32 0.800024Z" fill="#333333"/>
</svg>
