<svg width="32" height="32" viewBox="0 0 32 32" fill="none" xmlns="http://www.w3.org/2000/svg">
<path d="M30 0C31.1046 0 32 0.895431 32 2V30C32 31.1046 31.1046 32 30 32H2C0.895431 32 0 31.1046 0 30V2C0 0.895431 0.895431 0 2 0H30ZM14.4004 4.23535C14.3063 4.23535 14.2119 4.32971 14.2119 4.42383V7.50586H9.6709C9.45913 7.50586 9.29395 7.67105 9.29395 7.88281V10.3525C9.29395 10.5643 9.45913 10.7295 9.6709 10.7295H17.5762L9.01172 21.6475C8.96479 21.718 8.94141 21.8123 8.94141 21.8828V24.1172C8.94141 24.3289 9.10575 24.494 9.31738 24.4941H14.2354V27.5762C14.2354 27.6703 14.3297 27.7646 14.4238 27.7646H17.2705C17.3646 27.7646 17.459 27.6703 17.459 27.5762V24.4941H22.4941C22.6353 24.4941 22.7762 24.3999 22.8232 24.2588C22.8938 24.1411 22.847 23.976 22.7529 23.8584L22.6826 23.7881C22.0474 23.1293 21.5532 22.3529 21.1768 21.4824C21.1297 21.3412 20.9879 21.2471 20.8467 21.2471H13.7881L22.4004 10.2119C22.4474 10.1414 22.4707 10.0706 22.4707 9.97656V7.83496C22.4705 7.62336 22.3054 7.45898 22.0938 7.45898H17.4355V4.42383C17.4355 4.32971 17.3412 4.23536 17.2471 4.23535H14.4004Z" fill="#333333"/>
</svg>
