<svg xmlns="http://www.w3.org/2000/svg" width="384" height="254" fill="none"><path fill="#fff" d="M0 0h384v254H0z"/><path fill="#000" d="M24 44h103v45H24z"/><path fill="#fff" d="M43.242 73V60.4h8.28v1.962h-5.85v3.294h5.31v1.89h-5.31v3.492h5.85V73zm9.594 0 3.258-4.536-3.258-4.536h2.628l2.178 3.114 2.178-3.114h2.61l-3.258 4.536L62.43 73h-2.61l-2.178-3.132L55.464 73zm11.13 3.96V63.928h2.16l.27 1.26q.288-.396.683-.72.396-.342.936-.54.558-.216 1.296-.216 1.278 0 2.25.63t1.53 1.71q.576 1.062.576 2.43t-.576 2.448a4.43 4.43 0 0 1-1.548 1.674q-.972.612-2.214.612-1.008 0-1.746-.36a3.4 3.4 0 0 1-1.188-1.026v5.13zm4.787-5.868q.72 0 1.26-.324.558-.324.864-.918t.306-1.368-.306-1.368a2.2 2.2 0 0 0-.864-.936q-.54-.342-1.26-.342a2.36 2.36 0 0 0-2.124 1.26q-.306.594-.306 1.368t.306 1.386q.324.594.864.918.558.324 1.26.324M75.76 73V60.04h2.43V73zm9.083.216q-1.296 0-2.34-.594a4.57 4.57 0 0 1-1.638-1.674q-.594-1.08-.594-2.466 0-1.422.594-2.484.612-1.08 1.656-1.674 1.044-.612 2.34-.612 1.314 0 2.34.612a4.23 4.23 0 0 1 1.638 1.674q.612 1.062.612 2.466t-.612 2.484a4.4 4.4 0 0 1-1.638 1.674q-1.044.594-2.358.594m0-2.106q.612 0 1.08-.288.486-.288.756-.882.288-.594.288-1.476t-.288-1.458q-.27-.594-.756-.882a1.9 1.9 0 0 0-1.062-.306q-.576 0-1.062.306-.486.288-.774.882-.27.576-.27 1.458t.27 1.476q.288.594.756.882.486.288 1.062.288M91.545 73v-9.072h2.16l.234 1.674q.324-.594.81-1.008a3.9 3.9 0 0 1 1.134-.648 4.2 4.2 0 0 1 1.422-.234v2.574h-.828q-.54 0-1.008.126-.45.126-.792.414-.342.27-.522.756t-.18 1.224V73zm10.426.216q-1.134 0-1.872-.36-.738-.378-1.098-.99a2.86 2.86 0 0 1-.342-1.386q0-.828.414-1.458.432-.63 1.278-.99.864-.36 2.16-.36h2.25q0-.666-.18-1.098-.18-.45-.558-.666t-1.008-.216q-.684 0-1.17.306-.468.288-.576.9h-2.358q.09-.972.63-1.674.558-.72 1.458-1.116a5.1 5.1 0 0 1 2.034-.396q1.278 0 2.214.432t1.44 1.242.504 1.998V73h-2.052l-.27-1.386a3.2 3.2 0 0 1-.468.648q-.27.288-.63.504t-.81.324q-.45.126-.99.126m.576-1.872q.468 0 .828-.162.378-.18.648-.468.27-.306.414-.684.162-.396.216-.846v-.018h-1.854q-.558 0-.918.144a.97.97 0 0 0-.504.378q-.162.252-.162.576 0 .36.162.594t.468.36.702.126"/><rect width="111" height="45" x="143" y="44" fill="#000" rx="22.5"/><path fill="#fff" d="M172.16 68.112h.576L172.448 72H161.36v-.486c1.368 0 1.692-.936 1.692-2.07v-7.47c0-1.134-.324-2.07-1.692-2.07V59.4h10.44l.288 3.888h-.558c-.576-1.8-1.458-3.168-3.006-3.168h-2.43v5.22h.234c1.548 0 2.556 0 2.718-2.25h.486v5.22h-.486c-.162-2.25-1.17-2.25-2.718-2.25h-.234v5.238h3.078c1.548 0 2.412-1.368 2.988-3.186m10.316 2.754c.324.378.648.648 1.224.648V72h-4.518v-.486c.666 0 .522-.45.054-1.116l-1.026-1.44-1.116 1.386c-.648.828-.522 1.17.288 1.17V72h-2.952v-.486c.882 0 1.494-.54 1.998-1.17l1.44-1.854-2.592-3.636c-.252-.306-.558-.522-1.098-.522v-.486h4.446v.486c-.468 0-.54.216-.36.594l1.314 1.854.99-1.278c.648-.828.648-1.17-.234-1.17v-.486h2.88v.486c-.882 0-1.458.504-1.962 1.17l-1.35 1.746zm8.483-7.2c2.736-.378 4.68 1.71 4.68 4.248s-1.782 4.644-4.518 4.248c-.9-.126-1.566-.558-2.07-1.098v2.628c0 1.134.468 2.07 1.836 2.07v.504h-6.282v-.504c1.368 0 1.548-.936 1.548-2.07v-6.066c0-1.134-.18-2.07-1.548-2.07v-.486c1.044 0 2.88-.45 3.96-1.404h.486v.936a3.3 3.3 0 0 1 1.908-.936m.63 7.866c1.098-.198 1.458-1.692 1.08-3.852s-1.224-3.438-2.322-3.24-1.476 1.692-1.098 3.852c.396 2.142 1.242 3.42 2.34 3.24m9.784-2.088c0 1.134.162 2.07 1.548 2.07V72h-6.012v-.486c1.368 0 1.548-.936 1.548-2.07v-6.066c0-1.134-.18-2.07-1.548-2.07v-.504c1.044 0 2.88-.432 3.978-1.404h.486zm7.316-5.778c2.7 0 4.662 1.71 4.662 4.248s-1.962 4.248-4.662 4.248c-2.718 0-4.68-1.71-4.68-4.248s1.962-4.248 4.68-4.248m.612 7.794c1.098-.198 1.476-1.692 1.098-3.852s-1.242-3.438-2.34-3.24-1.458 1.692-1.08 3.852c.378 2.142 1.242 3.42 2.322 3.24m12.912-7.794c1.296.216 1.8 1.404 1.404 2.43-.432 1.044-1.53 1.206-2.124.99.18-.63.18-1.404-.522-1.638-.81-.252-1.458.198-1.53 1.008v2.988c0 1.134.108 2.07 1.476 2.07V72h-5.94v-.486c1.386 0 1.548-.936 1.548-2.07v-1.818c0-1.134-.162-2.07-1.548-2.07v-.486c1.062 0 2.88-.45 3.978-1.404h.486v1.62c.576-1.098 1.44-1.836 2.772-1.62m12.493 7.398c.072.198.09.216.144.396-.324.378-.882.702-1.89.702-.972 0-2.106-.324-2.376-1.188-.63.972-1.638 1.188-2.538 1.188-1.494 0-2.898-.486-3.15-1.8s.414-2.538 2.538-2.97c1.692-.342 2.736.018 2.538-1.224-.162-.918-.486-1.872-1.386-1.872-1.134-.09-1.656 1.026-.954 1.602-.432.774-1.17.828-1.674.594-.468-.234-.666-.738-.414-1.368.432-1.17 1.998-1.458 3.024-1.458 2.88 0 4.068.954 4.392 3.222.252 1.818.342 2.538.342 2.538.108.63.216 1.35.396 1.584.198.234.594.252 1.008.054m-5.382-.018c.864-.198 1.098-.972 1.044-1.836a26 26 0 0 0-.198-1.764c-.144.288-.342.378-1.26.63-.774.234-1.314.9-1.188 1.818.126.828.936 1.332 1.602 1.152"/><path stroke="#000" stroke-width="2" d="M25 106h154v43H25z"/><path fill="#000" d="M42.504 132v-.108c1.26 0 1.53-.396 1.53-1.764v-7.38c0-1.368-.27-1.764-1.53-1.764v-.108h9.702l.252 3.636-.072.018c-.468-2.07-1.638-3.528-4.374-3.528h-1.296v5.382h.486c2.052 0 2.952-1.098 3.276-2.61h.09v5.328h-.09c-.324-1.512-1.224-2.592-3.276-2.592h-.486v5.364h1.422c2.898 0 3.888-1.908 4.428-3.78l.09.018-.342 3.888zm16.284 0v-.108c1.008 0 1.944-.558 2.862-1.404.702-.648 1.44-1.512 2.196-2.52l.72-.936-2.268-3.51c-.828-1.278-1.728-2.538-2.97-2.538v-.108h6.498v.108c-1.422 0-1.296 1.098-.702 2.016l1.512 2.34.486-.648c.864-1.152 1.278-1.998 1.278-2.628 0-.666-.468-1.08-1.35-1.08v-.108h5.256v.108c-.99 0-1.872.468-2.808 1.296-.72.63-1.476 1.494-2.286 2.556l-.504.63 2.556 3.942c.774 1.224 1.836 2.484 3.024 2.484V132h-6.48v-.108c1.188 0 1.368-.864.63-1.998l-1.782-2.718-.684.882c-.81 1.134-1.188 1.962-1.188 2.592 0 .792.594 1.242 1.53 1.242V132zm19.529 0v-.108c1.26 0 1.53-.396 1.53-1.764v-7.38c0-1.368-.27-1.764-1.53-1.764v-.108h5.904c3.492 0 4.788 1.476 4.788 3.258 0 1.764-1.296 3.204-4.788 3.204h-.954v-.126h.378c1.944 0 2.502-1.62 2.502-3.078 0-1.476-.558-3.132-2.502-3.132h-1.116v9.126c0 1.368.27 1.764 1.53 1.764V132zm17.22 0v-.108c1.26 0 1.53-.396 1.53-1.764v-7.38c0-1.368-.27-1.764-1.53-1.764v-.108h6.013v.108c-1.26 0-1.8.36-1.8 1.908v8.982h1.116c2.7 0 4.014-1.764 4.482-3.834l.072.018-.27 3.942zm22.945.216c-3.582 0-6.21-2.412-6.21-5.778s2.628-5.778 6.21-5.778c3.564 0 6.21 2.412 6.21 5.778s-2.646 5.778-6.21 5.778m0-.144c2.61 0 3.312-2.79 3.312-5.634s-.702-5.634-3.312-5.634c-2.628 0-3.33 2.826-3.33 5.634 0 2.826.72 5.634 3.33 5.634m13.01-.072v-.108c1.26 0 1.53-.396 1.53-1.764v-7.38c0-1.368-.27-1.764-1.53-1.764v-.108h5.958c3.438 0 4.968 1.152 4.968 2.934 0 2.34-2.592 2.736-4.644 2.826v.072c4.122.036 3.618 1.08 4.428 3.618.36 1.134.684 1.566 1.764 1.566V132h-3.942c-.27-.45-.45-1.08-.684-1.98-.612-2.574-.612-3.294-2.538-3.294h-1.098v3.402c0 1.368.27 1.764 1.53 1.764V132zm4.212-5.4h1.35c1.908 0 2.61-1.368 2.61-2.79 0-1.458-.72-2.808-2.718-2.808h-1.242zm13.208 5.4v-.108c1.908 0 2.61-1.926 3.42-3.762l3.186-7.344h.126l4.14 8.748c.522 1.134 1.224 2.358 2.376 2.358V132h-6.354v-.108c1.314 0 1.584-1.008 1.008-2.304l-.576-1.26h-3.798l-.126.324c-.63 1.71-.504 3.24 1.548 3.24V132zm3.618-3.852h3.618l-1.854-4.086z"/><rect width="105" height="43" x="166" y="167" stroke="#000" stroke-width="2" rx="21.5"/><path fill="#000" d="M183.396 195v-.18l.414-.162q.306-.126.414-.324.126-.216.126-.576v-9.396q0-.36-.108-.558-.09-.216-.432-.342l-.414-.162v-.18h8.622l.108 2.772h-.18l-.774-1.692a2.3 2.3 0 0 0-.342-.522q-.18-.198-.54-.198h-3.24v5.202h1.926q.36 0 .54-.18.198-.198.342-.522l.36-.72h.18v3.24h-.18l-.36-.756a2 2 0 0 0-.342-.504q-.18-.198-.54-.198h-1.926v5.598h3.636q.36 0 .558-.18a1.5 1.5 0 0 0 .324-.54l.738-1.692h.18l-.108 2.772zm11.262 0v-.18l.468-.108q.414-.09.666-.27a2.2 2.2 0 0 0 .504-.54l1.944-2.79-2.448-3.888a3 3 0 0 0-.324-.414q-.144-.144-.45-.216l-.252-.072v-.18h4.572v.18l-.306.072q-.63.198-.252.792l1.476 2.286 1.602-2.214q.198-.306.18-.504 0-.216-.342-.306l-.45-.126v-.18h2.628v.18l-.432.108q-.396.108-.612.288-.216.162-.468.522l-1.89 2.556 2.466 3.834q.45.702 1.206.9l.288.09v.18h-4.968v-.18l.306-.072q.306-.072.378-.288.09-.234-.09-.522l-1.584-2.466-1.71 2.484q-.216.288-.144.504.09.198.378.27l.36.09v.18zm11.445 4.14v-.18l.216-.072q.666-.18.666-.864v-9.792q0-.396-.144-.594-.126-.198-.486-.27l-.252-.054v-.18l3.06-1.044.18.18.162.558a5.2 5.2 0 0 1 1.314-.558 5.8 5.8 0 0 1 1.512-.198q1.548 0 2.448 1.188.918 1.17.918 3.366 0 2.16-1.008 3.402-.99 1.242-2.808 1.242-1.422 0-2.394-.414v3.114q0 .72.648.9l.342.09v.18zm4.914-4.392q.9 0 1.422-.936.54-.936.54-3.114t-.504-3.042q-.504-.882-1.458-.882-.666 0-1.476.432v7.254q.684.288 1.476.288m6.916.252v-.18l.216-.072q.648-.216.648-.9v-9.63q0-.36-.144-.54-.144-.198-.504-.288l-.234-.054v-.18l3.294-.774.216.162-.072 2.52v7.488q.018.648.018 1.296 0 .36.144.594.144.216.486.324l.234.054v.18zm11.091.27q-1.368 0-2.376-.558a4 4 0 0 1-1.566-1.62q-.54-1.044-.54-2.448t.576-2.43a4.14 4.14 0 0 1 1.602-1.584q1.026-.558 2.304-.558t2.286.558q1.008.54 1.584 1.566.594 1.026.594 2.448t-.558 2.466a3.9 3.9 0 0 1-1.548 1.602q-.99.558-2.358.558m0-.36q.63 0 1.008-.36t.54-1.278q.18-.918.18-2.592 0-1.692-.18-2.61-.162-.918-.54-1.278t-1.008-.36-1.026.36q-.378.36-.558 1.278-.162.918-.162 2.61 0 1.674.162 2.592.18.918.558 1.278.396.36 1.026.36m6.694.09v-.18l.27-.072q.36-.108.486-.324.144-.216.144-.558v-5.634q0-.396-.144-.576-.126-.198-.486-.27l-.27-.072v-.18l3.096-1.044.18.18.162 1.548v.144q.252-.504.648-.918.414-.432.9-.702.504-.27.99-.27.684 0 1.044.378t.36.954q0 .612-.36.954a1.16 1.16 0 0 1-.828.324q-.756 0-1.332-.756l-.036-.036q-.18-.252-.414-.27-.234-.036-.432.216-.18.162-.306.396a5 5 0 0 0-.216.504v5.022q0 .72.63.9l.576.162v.18zm11.627.27q-1.044 0-1.764-.594-.702-.594-.702-1.71 0-.846.864-1.548.864-.72 2.718-1.08.288-.054.648-.108.36-.072.756-.144v-1.422q0-1.224-.306-1.71-.288-.504-.918-.504-.432 0-.684.288-.252.27-.324.954l-.036.198q-.036.774-.378 1.134t-.846.36q-.468 0-.774-.288t-.306-.774q0-.738.504-1.242.522-.504 1.368-.756a6.4 6.4 0 0 1 1.836-.252q1.602 0 2.466.792.882.774.882 2.538v3.978q0 .81.756.81h.396l.162.144q-.342.432-.756.666-.396.234-1.134.234-.792 0-1.26-.36a1.8 1.8 0 0 1-.594-.99q-.54.576-1.116.99-.558.396-1.458.396m1.098-1.098q.36 0 .666-.162.324-.18.756-.54v-3.024l-.36.072q-.18.036-.414.072-.828.216-1.332.738-.486.504-.486 1.368 0 .738.342 1.116.342.36.828.36M196.5 105.5h147v44h-147z"/><path stroke="#333" d="M196.5 105.5h147v44h-147z"/><path fill="#fff" d="M214.72 134v-13.23h4.446v1.998h-2.502v3.564h1.8v1.944h-1.8v3.726h2.502V134zm11.199 0 2.142-6.948-2.106-6.282h1.908l1.062 3.348.054.252h.072l.054-.252 1.062-3.348h1.908l-2.106 6.282 2.142 6.948h-1.908l-1.116-3.942-.036-.252h-.072l-.036.252-1.116 3.942zm12.942 0v-13.23h1.944q1.107 0 1.845.486.747.486 1.116 1.377t.369 2.097-.387 2.079a3.1 3.1 0 0 1-1.134 1.368q-.738.486-1.809.531V134zm1.944-7.272q.513 0 .81-.198.297-.207.423-.648.135-.441.135-1.134 0-.702-.135-1.143-.126-.441-.432-.648-.297-.207-.801-.207zM250.949 134v-13.23h1.944v11.43h2.574v1.8zm13.571.144q-.81 0-1.395-.378a2.5 2.5 0 0 1-.891-1.026 3.4 3.4 0 0 1-.306-1.458v-7.794q0-.819.306-1.458.315-.648.891-1.026.585-.378 1.395-.378t1.386.378q.585.378.891 1.026.315.648.315 1.458v7.794q0 .81-.315 1.458a2.43 2.43 0 0 1-.891 1.026q-.576.378-1.386.378m0-1.89q.36 0 .504-.297.144-.306.144-.675v-7.794q0-.369-.153-.666a.52.52 0 0 0-.495-.306.53.53 0 0 0-.495.306q-.153.297-.153.666v7.794q0 .369.153.675a.52.52 0 0 0 .495.297m9.709 1.746v-13.23h1.944q1.746 0 2.574.972.828.963.828 2.844 0 1.116-.396 1.935-.387.81-.945 1.188l1.323 6.291h-1.944l-1.098-5.58h-.342V134zm1.944-7.38q.54 0 .855-.234.315-.243.45-.684t.135-1.044q0-.945-.315-1.449-.306-.513-1.125-.513zm9.845 7.38 1.998-13.23h2.376L292.39 134h-1.89l-.36-2.7h-1.872l-.36 2.7zm2.52-4.752h1.332l-.558-4.446-.054-.702h-.108l-.054.702zM320.581 127l1.14.813-1.14.814-7 5-1.162-1.627 4.461-3.187H306v-2h10.88l-4.461-3.186 1.162-1.627z"/><g filter="url(#a)"><rect width="117" height="45" x="32" y="166" fill="#fff" rx="6" shape-rendering="crispEdges"/><rect width="115" height="43" x="33" y="167" stroke="#000" stroke-width="2" rx="5" shape-rendering="crispEdges"/><path fill="#000" d="M60.08 199h-9v-21.42h8.91v3.96h-4.68v4.086h4.32v3.96h-4.32v5.454h4.77zm5.307-15.66 1.476 3.726q.036.108.09.234.054.108.072.216l.018.216q.018 0 .018.018t.054.27v.252h.288v-.252l.054-.252q.036-.234.108-.486l.036-.108.036-.108 1.458-3.726h4.23l-3.744 7.83 3.744 7.83h-4.23l-1.566-3.762q-.036-.126-.072-.144a3 3 0 0 1-.09-.324 1.3 1.3 0 0 1-.054-.234l-.036-.252a.4.4 0 0 1-.018-.126v-.108h-.288q0 .162-.018.252 0 .09-.018.234a3 3 0 0 0-.054.27q-.018.108-.054.234l-.036.108-.036.108L65.387 199h-4.32l3.744-7.83-3.744-7.83zm9.296 0h4.05q0 .108-.036.288-.018.162-.108.396-.09.252-.144.414a2.4 2.4 0 0 1-.216.432l-.108.216-.108.18.216.18q1.494-2.286 3.906-2.286 1.368 0 2.16.72.81.738 1.062 2.16.054.36.09.774.036.396.036.846v6.966q0 .882-.144 1.656-.126.756-.414 1.278-.288.54-.684.9a2.9 2.9 0 0 1-.972.54 4.2 4.2 0 0 1-1.278.18q-.81 0-1.422-.198a6 6 0 0 1-.684-.234 7 7 0 0 1-.594-.324 3 3 0 0 1-.558-.378v6.354h-4.05zm3.87 5.328v5.004q0 .594.234 1.008.072.144.252.324.198.162.45.234.216.072.504.072.252 0 .486-.054a1.26 1.26 0 0 0 .702-.54q.126-.18.198-.486.054-.288.054-.558v-5.004q0-.594-.234-1.026a1.1 1.1 0 0 0-.27-.288 1 1 0 0 0-.414-.252 1.8 1.8 0 0 0-.522-.072q-.252 0-.486.072a.9.9 0 0 0-.414.216 1.6 1.6 0 0 0-.306.324 1.2 1.2 0 0 0-.162.468 2.3 2.3 0 0 0-.072.558M91.161 199h-4.05v-21.6h4.05zm9.273.18a7.7 7.7 0 0 1-2.555-.414 7.9 7.9 0 0 1-2.125-1.152 8.5 8.5 0 0 1-1.71-1.692q-.72-.972-1.133-2.268a8 8 0 0 1-.397-2.538q0-1.296.397-2.502a7.9 7.9 0 0 1 1.115-2.196 8 8 0 0 1 1.746-1.746 8.05 8.05 0 0 1 3.366-1.404q.63-.108 1.296-.108 1.278 0 2.484.414a8.2 8.2 0 0 1 2.196 1.116q.954.72 1.692 1.728.756.99 1.152 2.196.18.594.288 1.224t.108 1.278q0 1.08-.342 2.322-.324 1.242-1.188 2.448a7.7 7.7 0 0 1-1.728 1.746 8.1 8.1 0 0 1-2.16 1.134 8 8 0 0 1-1.224.306 7.6 7.6 0 0 1-1.278.108m.018-3.87q.594 0 1.188-.198.612-.198 1.08-.594.594-.468.918-1.008.342-.558.468-1.026.09-.306.144-.63a4.4 4.4 0 0 0 .054-.684q0-.702-.198-1.314a4.6 4.6 0 0 0-.54-1.152 4.5 4.5 0 0 0-.774-.828 3.4 3.4 0 0 0-1.134-.648 3.8 3.8 0 0 0-1.206-.198q-1.296 0-2.285.774a4 4 0 0 0-.847.9 3.7 3.7 0 0 0-.557 1.134q-.09.306-.145.648a4.4 4.4 0 0 0-.053.684q0 .558.162 1.188t.593 1.26q.344.504.81.882.469.378 1.099.594.593.216 1.223.216m9.247-11.97h4.05q0 .198-.036.36a5 5 0 0 1-.126.396l-.108.324a.5.5 0 0 1-.072.126 3 3 0 0 0-.162.36 1.8 1.8 0 0 1-.216.36l.216.18q.288-.432.558-.756.288-.324.72-.63.72-.504 1.728-.648a7 7 0 0 1 1.08-.072h.702l-.18 3.87h-1.134q-1.422 0-2.178.45-.792.486-.792 1.332V199h-4.05zm8.849 11.592a5.5 5.5 0 0 1 .252-1.71 4.05 4.05 0 0 1 .792-1.422q.54-.63 1.332-1.062.81-.45 1.908-.774.558-.162 1.188-.27.63-.126 1.332-.216v-1.188q0-.18-.072-.396a1 1 0 0 0-.144-.36 1.6 1.6 0 0 0-.234-.252.86.86 0 0 0-.342-.198 1.6 1.6 0 0 0-.396-.054q-.162 0-.396.054a.8.8 0 0 0-.342.162 1.1 1.1 0 0 0-.396.594 1.3 1.3 0 0 0-.072.396v.414h-3.96v-1.062q0-.792.216-1.512.234-.72.666-1.26.882-1.062 2.538-1.476.396-.09.846-.126.468-.054.954-.054 2.466 0 3.834 1.17 1.35 1.17 1.35 3.258V199h-4.05q0-.162.036-.378.036-.234.09-.396.072-.198.144-.378.09-.198.198-.414.09-.162.252-.36l-.216-.18q-.288.504-.594.846a5 5 0 0 1-.63.594q-.324.27-.72.468-.378.18-.864.27a3 3 0 0 1-.45.072 3 3 0 0 1-.45.036q-.594 0-1.17-.18a3 3 0 0 1-1.062-.576 2.9 2.9 0 0 1-.756-.882 4.6 4.6 0 0 1-.45-1.188 4 4 0 0 1-.126-.684 7 7 0 0 1-.036-.738m4.14-.612q0 .27.054.504.072.216.162.324.234.36.63.45.216.072.414.072.612 0 1.404-.45v-3.33q-.54.18-.972.36t-.756.432q-.288.216-.522.468a1.5 1.5 0 0 0-.306.558q-.108.324-.108.612"/></g><defs><filter id="a" width="124" height="52" x="25" y="166" color-interpolation-filters="sRGB" filterUnits="userSpaceOnUse"><feFlood flood-opacity="0" result="BackgroundImageFix"/><feColorMatrix in="SourceAlpha" result="hardAlpha" values="0 0 0 0 0 0 0 0 0 0 0 0 0 0 0 0 0 0 127 0"/><feOffset dx="-7" dy="7"/><feComposite in2="hardAlpha" operator="out"/><feColorMatrix values="0 0 0 0 0 0 0 0 0 0 0 0 0 0 0 0 0 0 1 0"/><feBlend in2="BackgroundImageFix" result="effect1_dropShadow_266_1566"/><feBlend in="SourceGraphic" in2="effect1_dropShadow_266_1566" result="shape"/></filter></defs></svg>