<svg width="327" height="409" viewBox="0 0 327 409" fill="none" xmlns="http://www.w3.org/2000/svg">
<rect width="327" height="409" fill="#EBEBEB"/>
<path d="M145.933 220.5V214.645H130.075V209.713L145.103 188.23H152.156V209.252H156.351V214.645H152.156V220.5H145.933ZM136.713 209.252H146.348V195.099L136.713 209.252ZM163.838 220.731C162.67 220.731 161.732 220.392 161.026 219.716C160.319 219.009 159.965 218.149 159.965 217.135C159.965 216.12 160.319 215.275 161.026 214.599C161.732 213.892 162.67 213.539 163.838 213.539C164.944 213.539 165.851 213.892 166.558 214.599C167.264 215.275 167.618 216.12 167.618 217.135C167.618 218.149 167.264 219.009 166.558 219.716C165.851 220.392 164.944 220.731 163.838 220.731ZM163.838 203.858C162.67 203.858 161.732 203.52 161.026 202.844C160.319 202.137 159.965 201.276 159.965 200.262C159.965 199.248 160.319 198.403 161.026 197.727C161.732 197.02 162.67 196.666 163.838 196.666C164.944 196.666 165.851 197.02 166.558 197.727C167.264 198.403 167.618 199.248 167.618 200.262C167.618 201.276 167.264 202.137 166.558 202.844C165.851 203.52 164.944 203.858 163.838 203.858ZM184.394 221.053C182.058 221.053 180.03 220.638 178.309 219.808C176.618 218.979 175.297 217.842 174.344 216.397C173.391 214.953 172.838 213.308 172.685 211.464H178.77C178.985 212.663 179.6 213.677 180.614 214.507C181.628 215.337 182.903 215.752 184.44 215.752C185.546 215.752 186.515 215.475 187.344 214.922C188.174 214.369 188.82 213.631 189.281 212.709C189.742 211.756 189.972 210.681 189.972 209.482C189.972 208.253 189.726 207.192 189.234 206.301C188.773 205.41 188.128 204.718 187.298 204.227C186.499 203.735 185.577 203.489 184.532 203.489C183.211 203.489 182.074 203.812 181.121 204.457C180.199 205.072 179.538 205.825 179.139 206.716H173.099L175.773 188.23H193.891V193.67H180.383L179.046 200.861C179.723 200.155 180.629 199.571 181.766 199.11C182.903 198.649 184.179 198.418 185.593 198.418C187.344 198.418 188.866 198.725 190.156 199.34C191.447 199.955 192.523 200.785 193.383 201.829C194.244 202.844 194.889 204.012 195.32 205.333C195.75 206.624 195.965 207.992 195.965 209.436C195.965 211.126 195.673 212.678 195.089 214.092C194.536 215.506 193.737 216.735 192.692 217.78C191.678 218.825 190.464 219.639 189.05 220.223C187.667 220.777 186.115 221.053 184.394 221.053Z" fill="white"/>
</svg>
