<svg xmlns="http://www.w3.org/2000/svg" width="488" height="323" fill="none"><path fill="#fff" d="M0 0h488v322.349H0z"/><path fill="#333" d="M264.037 39v-9.94h1.42v8.818h4.544V39zm10.503.17a3.56 3.56 0 0 1-1.818-.468 3.43 3.43 0 0 1-1.264-1.307q-.454-.851-.454-1.96 0-1.136.468-1.973a3.37 3.37 0 0 1 1.278-1.32 3.56 3.56 0 0 1 1.818-.47q1.022 0 1.818.47.795.468 1.249 1.306.47.837.469 1.974 0 1.136-.469 1.973a3.3 3.3 0 0 1-1.264 1.307q-.809.468-1.831.468m0-1.22q.582 0 1.05-.285.483-.284.767-.838.298-.568.298-1.405t-.284-1.392a1.964 1.964 0 0 0-1.803-1.136q-.568 0-1.051.284t-.781.852q-.284.554-.284 1.392t.284 1.405q.299.555.767.838.483.285 1.037.284m5.234 1.05v-7.157h1.278l.128 1.35q.241-.485.625-.81.383-.341.894-.526a3.6 3.6 0 0 1 1.193-.184v1.505h-.511a3 3 0 0 0-.838.114 1.8 1.8 0 0 0-.71.355q-.299.255-.468.695-.171.44-.171 1.094V39zm8.438.17q-1.022 0-1.818-.468a3.3 3.3 0 0 1-1.249-1.307q-.44-.837-.44-1.945 0-1.135.44-1.974a3.3 3.3 0 0 1 1.249-1.32q.796-.483 1.846-.483t1.804.468q.753.47 1.164 1.25.412.767.412 1.704 0 .142-.014.312 0 .157-.014.355h-5.851v-1.008h4.459q-.042-.894-.596-1.391-.555-.512-1.378-.512-.582 0-1.065.27a1.96 1.96 0 0 0-.781.767q-.284.497-.284 1.264v.397q0 .795.284 1.35.298.54.781.823.483.27 1.051.27.681 0 1.122-.298.44-.3.653-.81h1.42a3.1 3.1 0 0 1-.625 1.179 3.1 3.1 0 0 1-1.093.81q-.639.297-1.477.297m4.986-.17v-7.157h1.278l.099 1.008q.34-.553.909-.866a2.6 2.6 0 0 1 1.278-.312q.54 0 .98.156a2.2 2.2 0 0 1 1.334 1.179 2.75 2.75 0 0 1 1.023-.98 2.84 2.84 0 0 1 1.377-.355q.867 0 1.491.355.625.34.952 1.036.326.682.326 1.704V39h-1.406v-4.09q0-.993-.411-1.505-.398-.51-1.179-.511-.526 0-.937.27t-.653.78q-.228.513-.228 1.25V39h-1.42v-4.09q0-.993-.411-1.505-.398-.51-1.179-.511-.497 0-.909.27-.411.27-.653.78-.241.513-.241 1.25V39zm16.615 0v-7.157h1.42V39zm.724-8.506a.95.95 0 0 1-.682-.255.89.89 0 0 1-.255-.654q0-.383.255-.624a.95.95 0 0 1 .682-.256.93.93 0 0 1 .667.256.8.8 0 0 1 .27.624.86.86 0 0 1-.27.654.93.93 0 0 1-.667.255m2.726 11.63v-10.28h1.278l.142 1.107q.228-.328.568-.61.341-.299.81-.484a3.1 3.1 0 0 1 1.122-.184q1.022 0 1.789.497.781.496 1.207 1.349.44.837.44 1.917t-.44 1.931a3.36 3.36 0 0 1-1.221 1.32q-.767.484-1.79.483-.837 0-1.476-.326a2.6 2.6 0 0 1-1.009-.937v4.217zm3.678-4.189a2.11 2.11 0 0 0 1.946-1.193q.298-.568.298-1.32t-.298-1.307a2.1 2.1 0 0 0-.796-.88 2.04 2.04 0 0 0-1.15-.327q-.668 0-1.178.327a2.14 2.14 0 0 0-.781.88q-.285.555-.284 1.307 0 .752.284 1.32.283.568.781.88.51.313 1.178.313m8.105 1.235q-.909 0-1.59-.298a2.6 2.6 0 0 1-1.079-.838 2.6 2.6 0 0 1-.483-1.263h1.448q.07.34.27.624.213.285.568.455.37.17.866.17.469 0 .767-.128.313-.141.454-.369a1 1 0 0 0 .142-.511q0-.398-.198-.596-.186-.213-.568-.327a6.5 6.5 0 0 0-.895-.227 8 8 0 0 1-.966-.227 4 4 0 0 1-.823-.384 1.8 1.8 0 0 1-.568-.568q-.213-.354-.213-.866 0-.611.326-1.093.327-.497.923-.767.61-.285 1.435-.284 1.193 0 1.917.568.723.568.852 1.604h-1.378q-.057-.483-.426-.738-.37-.27-.98-.27t-.937.242a.76.76 0 0 0-.326.639q0 .255.184.454.185.2.54.34.369.129.894.242.753.142 1.349.355.597.213.952.625.355.411.355 1.179a1.94 1.94 0 0 1-.341 1.178q-.34.511-.98.795-.624.284-1.491.284m7.111 0q-.838 0-1.463-.34a2.3 2.3 0 0 1-.951-1.023q-.327-.681-.327-1.718v-4.246h1.42v4.09q0 1.007.44 1.52.44.51 1.264.51a1.86 1.86 0 0 0 1.704-1.05q.255-.512.256-1.25v-3.82h1.42V39h-1.264l-.1-1.221a2.4 2.4 0 0 1-.951 1.022q-.624.37-1.448.37m5.707-.17v-7.157h1.278l.099 1.008q.34-.553.909-.866a2.6 2.6 0 0 1 1.278-.312q.54 0 .98.156a2.2 2.2 0 0 1 .781.44q.34.298.554.739a2.74 2.74 0 0 1 1.022-.98 2.85 2.85 0 0 1 1.377-.355q.867 0 1.491.355.625.34.952 1.036.327.682.326 1.704V39h-1.405v-4.09q0-.993-.412-1.505-.397-.51-1.179-.511-.525 0-.937.27-.411.27-.653.78-.227.513-.227 1.25V39h-1.42v-4.09q0-.993-.412-1.505-.397-.51-1.179-.511-.497 0-.909.27-.411.27-.653.78-.241.513-.241 1.25V39zm19.696.17q-1.021 0-1.803-.482a3.45 3.45 0 0 1-1.221-1.335q-.426-.852-.426-1.931 0-1.094.426-1.932.44-.837 1.221-1.32.795-.497 1.818-.497.837 0 1.476.34.64.327.994.938v-4.175h1.42V39h-1.263l-.157-1.108a3 3 0 0 1-.553.625q-.342.285-.824.469a3.1 3.1 0 0 1-1.108.184m.228-1.235q.667 0 1.178-.312a2 2 0 0 0 .781-.88q.285-.57.284-1.321 0-.753-.284-1.307a2 2 0 0 0-.781-.88 2.14 2.14 0 0 0-1.178-.327q-.64 0-1.151.327-.51.312-.795.88-.284.555-.284 1.307t.284 1.32q.285.568.795.88.512.313 1.151.313m8.885 1.235a3.56 3.56 0 0 1-1.817-.468 3.4 3.4 0 0 1-1.264-1.307q-.455-.851-.455-1.96 0-1.136.469-1.973a3.36 3.36 0 0 1 1.278-1.32 3.56 3.56 0 0 1 1.818-.47q1.022 0 1.817.47.795.468 1.25 1.306.468.837.468 1.974 0 1.136-.468 1.973a3.3 3.3 0 0 1-1.264 1.307q-.81.468-1.832.468m0-1.22a1.99 1.99 0 0 0 1.818-1.123q.298-.568.298-1.405t-.284-1.392a2 2 0 0 0-.767-.852 1.96 1.96 0 0 0-1.036-.284q-.568 0-1.051.284t-.781.852q-.284.554-.284 1.392t.284 1.405q.298.555.767.838.482.285 1.036.284m5.235 1.05V28.776h1.42V39zm6.636.17a3.56 3.56 0 0 1-1.818-.468 3.43 3.43 0 0 1-1.264-1.307q-.454-.851-.454-1.96 0-1.136.468-1.973a3.37 3.37 0 0 1 1.278-1.32 3.56 3.56 0 0 1 1.818-.47q1.022 0 1.818.47.795.468 1.249 1.306.47.837.469 1.974 0 1.136-.469 1.973a3.3 3.3 0 0 1-1.264 1.307q-.809.468-1.831.468m0-1.22q.582 0 1.05-.285.483-.284.767-.838.298-.568.298-1.405t-.284-1.392a1.964 1.964 0 0 0-1.803-1.136q-.568 0-1.051.284t-.781.852q-.284.554-.284 1.392t.284 1.405q.299.555.767.838.483.285 1.037.284m5.234 1.05v-7.157h1.278l.128 1.35q.241-.485.625-.81.383-.341.894-.526a3.6 3.6 0 0 1 1.193-.184v1.505h-.511q-.44 0-.838.114a1.8 1.8 0 0 0-.71.355q-.298.255-.468.695t-.171 1.094V39zm11.824.17q-.908 0-1.59-.298a2.6 2.6 0 0 1-1.079-.838 2.6 2.6 0 0 1-.483-1.263h1.448q.072.34.27.624.214.285.568.455.37.17.866.17.469 0 .767-.128a1 1 0 0 0 .455-.369 1 1 0 0 0 .142-.511q0-.398-.199-.596-.185-.213-.568-.327a6.4 6.4 0 0 0-.895-.227 8 8 0 0 1-.965-.227 4 4 0 0 1-.824-.384 1.8 1.8 0 0 1-.568-.568q-.213-.354-.213-.866 0-.611.327-1.093a2.1 2.1 0 0 1 .923-.767q.61-.285 1.434-.284 1.192 0 1.917.568t.852 1.604h-1.378a.99.99 0 0 0-.426-.738q-.369-.27-.979-.27t-.938.242a.76.76 0 0 0-.326.639q0 .255.184.454.184.2.54.34a8 8 0 0 0 .895.242q.752.142 1.349.355.595.213.951.625.355.411.355 1.179a1.94 1.94 0 0 1-.341 1.178q-.34.511-.98.795-.624.284-1.491.284m4.583-.17v-7.157h1.42V39zm.725-8.506a.95.95 0 0 1-.682-.255.89.89 0 0 1-.256-.654q0-.383.256-.624a.95.95 0 0 1 .682-.256q.397 0 .667.256a.8.8 0 0 1 .27.624.86.86 0 0 1-.27.654.93.93 0 0 1-.667.255M406.575 39q-.668 0-1.164-.213a1.55 1.55 0 0 1-.767-.71q-.27-.497-.27-1.349V33.05h-1.235v-1.207h1.235l.171-1.789h1.249v1.79h2.031v1.206h-2.031v3.692q0 .611.256.838.255.213.88.213h.824V39zm8.82.17q-.88 0-1.462-.298t-.866-.795a2.2 2.2 0 0 1-.284-1.093q0-.71.369-1.207.369-.512 1.051-.781.68-.27 1.633-.27h1.86q0-.625-.185-1.037a1.25 1.25 0 0 0-.554-.61q-.354-.213-.908-.213-.64 0-1.094.312-.454.298-.568.895h-1.42q.085-.753.511-1.278.441-.54 1.122-.824a3.6 3.6 0 0 1 1.449-.298q1.008 0 1.689.355.682.354 1.023 1.008.355.639.355 1.534V39h-1.236l-.113-1.207q-.156.285-.369.54t-.512.44a2.2 2.2 0 0 1-.667.284 2.8 2.8 0 0 1-.824.113m.27-1.15q.455 0 .824-.184.369-.186.625-.497a2.2 2.2 0 0 0 .397-.725q.143-.411.156-.837v-.043h-1.689q-.611 0-.994.156-.37.142-.54.398-.17.255-.17.596 0 .355.156.61.17.243.483.384t.752.142m5.263.98v-7.157h1.278l.1 1.008q.34-.553.908-.866a2.6 2.6 0 0 1 1.278-.312q.54 0 .98.156.44.142.781.44.34.298.554.739a2.75 2.75 0 0 1 1.022-.98 2.85 2.85 0 0 1 1.378-.355q.865 0 1.491.355.625.34.951 1.036.327.682.327 1.704V39h-1.406v-4.09q0-.993-.412-1.505-.398-.51-1.178-.511-.526 0-.938.27t-.653.78q-.227.513-.227 1.25V39h-1.42v-4.09q0-.993-.412-1.505-.398-.51-1.178-.511-.498 0-.909.27t-.653.78q-.242.513-.242 1.25V39zm16.121.17q-1.023 0-1.818-.468a3.3 3.3 0 0 1-1.25-1.307q-.44-.837-.44-1.945 0-1.135.44-1.974a3.3 3.3 0 0 1 1.25-1.32q.795-.483 1.846-.483 1.05 0 1.803.468.753.47 1.165 1.25a3.55 3.55 0 0 1 .412 1.704q0 .142-.015.312 0 .157-.014.355h-5.85v-1.008h4.459q-.044-.894-.597-1.391-.554-.512-1.377-.512-.582 0-1.065.27a1.96 1.96 0 0 0-.781.767q-.284.497-.284 1.264v.397q0 .795.284 1.35.298.54.781.823.483.27 1.051.27.681 0 1.121-.298.441-.3.654-.81h1.42a3.2 3.2 0 0 1-.625 1.179q-.44.51-1.094.81-.639.297-1.476.297m7.73-.17q-.668 0-1.164-.213a1.55 1.55 0 0 1-.767-.71q-.27-.497-.27-1.349V33.05h-1.235v-1.207h1.235l.171-1.789h1.249v1.79h2.031v1.206h-2.031v3.692q0 .611.256.838.255.213.88.213h.824V39zm2.589 1.747.809-3.28h1.434l-1.292 3.28zM267.274 60.17q-1.036 0-1.846-.468a3.5 3.5 0 0 1-1.278-1.32q-.454-.84-.454-1.946 0-1.122.454-1.96a3.37 3.37 0 0 1 1.278-1.32q.81-.483 1.846-.483 1.307 0 2.187.681.88.682 1.122 1.846h-1.477a1.52 1.52 0 0 0-.653-.965q-.497-.34-1.193-.341-.568 0-1.051.298-.483.285-.781.852-.284.555-.284 1.378 0 .61.171 1.093.17.469.454.795.298.327.682.497.383.156.809.156.468 0 .838-.142.382-.156.639-.454.27-.298.369-.71h1.477q-.242 1.136-1.122 1.832-.88.681-2.187.681m8.236 0a3.56 3.56 0 0 1-1.817-.468 3.4 3.4 0 0 1-1.264-1.307q-.454-.851-.454-1.96 0-1.136.468-1.973a3.37 3.37 0 0 1 1.278-1.32 3.56 3.56 0 0 1 1.818-.47q1.022 0 1.817.47.795.468 1.25 1.306.468.837.469 1.974 0 1.136-.469 1.973a3.3 3.3 0 0 1-1.264 1.307q-.809.468-1.832.468m0-1.22a1.99 1.99 0 0 0 1.818-1.123q.298-.568.298-1.405t-.284-1.392a2 2 0 0 0-.767-.852 1.96 1.96 0 0 0-1.036-.284q-.568 0-1.051.284t-.781.852q-.284.554-.284 1.392t.284 1.405q.298.555.767.838.483.285 1.036.284m5.235 1.05v-7.157h1.278l.085 1.221q.34-.639.966-1.008a2.7 2.7 0 0 1 1.434-.383q.852 0 1.462.34.612.341.952 1.037.34.682.341 1.718V60h-1.42v-4.09q0-.993-.441-1.505-.44-.51-1.278-.511-.553 0-.994.27-.44.255-.71.767-.255.51-.255 1.25V60zm11.103.17q-.909 0-1.59-.298a2.6 2.6 0 0 1-1.08-.838 2.6 2.6 0 0 1-.482-1.263h1.448q.07.34.27.624.213.285.568.455.37.17.866.17.468 0 .767-.128.313-.141.454-.369a1 1 0 0 0 .142-.511q0-.398-.199-.596-.184-.213-.568-.327a6.4 6.4 0 0 0-.894-.227 8 8 0 0 1-.966-.227 4 4 0 0 1-.823-.384 1.8 1.8 0 0 1-.568-.568q-.213-.354-.213-.866 0-.611.326-1.093.327-.497.923-.767.61-.284 1.434-.284 1.194 0 1.917.568t.852 1.604h-1.377q-.057-.483-.426-.738-.37-.27-.98-.27t-.937.242a.76.76 0 0 0-.327.639q0 .255.185.454.185.2.54.34.369.129.894.242.753.142 1.349.355.597.213.952.625.354.411.355 1.179a1.94 1.94 0 0 1-.341 1.178q-.34.511-.98.795-.624.284-1.491.284m7.721 0q-1.022 0-1.817-.468a3.3 3.3 0 0 1-1.25-1.307q-.44-.837-.44-1.945 0-1.135.44-1.974a3.3 3.3 0 0 1 1.25-1.32q.795-.483 1.846-.483 1.05 0 1.803.468.753.47 1.164 1.25.412.767.412 1.704 0 .142-.014.312 0 .157-.014.355h-5.851v-1.008h4.459q-.042-.894-.596-1.391-.554-.512-1.378-.512-.582 0-1.065.27-.482.255-.781.767-.284.497-.284 1.264v.397q0 .795.284 1.35.299.54.781.823.483.27 1.051.27.682 0 1.122-.298.44-.3.653-.81h1.42a3.1 3.1 0 0 1-.625 1.179 3.1 3.1 0 0 1-1.093.81q-.639.297-1.477.297m8.294 0q-1.036 0-1.846-.468a3.5 3.5 0 0 1-1.278-1.32q-.454-.84-.454-1.946 0-1.122.454-1.96a3.37 3.37 0 0 1 1.278-1.32q.81-.483 1.846-.483 1.307 0 2.187.681.88.682 1.122 1.846h-1.477a1.52 1.52 0 0 0-.653-.965q-.497-.34-1.193-.341-.567 0-1.051.298-.482.285-.781.852-.284.555-.284 1.378 0 .61.171 1.093.17.469.454.795.298.327.682.497.383.156.809.156.47 0 .838-.142.384-.156.639-.454.27-.298.369-.71h1.477q-.241 1.136-1.122 1.832-.88.681-2.187.681m7.757-.17q-.668 0-1.164-.213a1.55 1.55 0 0 1-.767-.71q-.27-.497-.27-1.349V54.05h-1.235v-1.207h1.235l.171-1.789h1.249v1.79h2.031v1.206h-2.031v3.692q0 .611.256.838.255.213.88.213h.824V60zm5.859.17q-1.022 0-1.817-.468a3.3 3.3 0 0 1-1.25-1.307q-.44-.837-.44-1.945 0-1.135.44-1.974a3.3 3.3 0 0 1 1.25-1.32q.795-.483 1.846-.483 1.05 0 1.803.468.753.47 1.165 1.25a3.55 3.55 0 0 1 .411 1.704q0 .142-.014.312 0 .157-.014.355h-5.85v-1.008h4.458q-.042-.894-.596-1.391-.553-.512-1.377-.512-.584 0-1.065.27-.484.255-.781.767-.284.497-.284 1.264v.397q0 .795.284 1.35.298.54.781.823.482.27 1.05.27.682 0 1.122-.298.44-.3.653-.81h1.42a3.15 3.15 0 0 1-.624 1.179q-.44.51-1.094.81-.639.297-1.477.297m7.731-.17q-.668 0-1.164-.213a1.55 1.55 0 0 1-.767-.71q-.27-.497-.27-1.349V54.05h-1.235v-1.207h1.235l.171-1.789h1.249v1.79h2.031v1.206h-2.031v3.692q0 .611.256.838.256.213.88.213h.824V60zm5.443.17q-.838 0-1.463-.34a2.3 2.3 0 0 1-.951-1.023q-.327-.681-.327-1.718v-4.246h1.42v4.09q0 1.007.44 1.52.44.51 1.264.51a1.86 1.86 0 0 0 1.704-1.05q.256-.512.256-1.25v-3.82h1.42V60h-1.264l-.099-1.221a2.4 2.4 0 0 1-.952 1.022q-.624.37-1.448.37m5.707-.17v-7.157h1.278l.128 1.35q.241-.485.625-.81.382-.341.894-.526.525-.184 1.193-.184v1.505h-.511q-.44 0-.838.114a1.8 1.8 0 0 0-.71.355q-.298.255-.469.695t-.17 1.094V60zm11.427.17q-.88 0-1.463-.298-.582-.298-.866-.795a2.2 2.2 0 0 1-.284-1.093q0-.71.369-1.207.369-.512 1.051-.781.681-.27 1.633-.27h1.86q0-.625-.185-1.037a1.25 1.25 0 0 0-.553-.61q-.356-.213-.909-.213-.64 0-1.094.312-.454.298-.568.895h-1.42q.086-.753.512-1.278.44-.54 1.121-.824a3.6 3.6 0 0 1 1.449-.298q1.008 0 1.69.355.681.354 1.022 1.008.355.639.355 1.534V60h-1.235l-.114-1.207q-.156.285-.369.54-.214.255-.511.44a2.3 2.3 0 0 1-.668.284 2.8 2.8 0 0 1-.823.113m.269-1.15q.455 0 .824-.184.369-.186.625-.497.27-.327.397-.725.142-.411.157-.837v-.043h-1.69q-.611 0-.994.156-.369.142-.54.398-.17.255-.17.596 0 .355.156.61.171.243.483.384t.752.142m8.444 1.15q-1.021 0-1.803-.482a3.45 3.45 0 0 1-1.221-1.335q-.426-.852-.426-1.931 0-1.094.426-1.932.44-.837 1.221-1.32.795-.497 1.818-.497.837 0 1.476.34.64.326.994.938v-4.175h1.42V60h-1.263l-.157-1.108a3 3 0 0 1-.553.625q-.341.285-.824.469a3.1 3.1 0 0 1-1.108.184m.228-1.235q.666 0 1.178-.312a2 2 0 0 0 .781-.88q.284-.57.284-1.321 0-.753-.284-1.307a2 2 0 0 0-.781-.88 2.14 2.14 0 0 0-1.178-.327q-.64 0-1.151.327-.51.312-.795.88-.284.555-.284 1.307t.284 1.32q.284.568.795.88t1.151.313M366.446 60v-7.157h1.42V60zm.725-8.506a.95.95 0 0 1-.682-.255.89.89 0 0 1-.256-.654q0-.383.256-.624a.95.95 0 0 1 .682-.256q.397 0 .667.256a.8.8 0 0 1 .27.624.86.86 0 0 1-.27.654.93.93 0 0 1-.667.255m2.726 11.63v-10.28h1.278l.142 1.107q.228-.328.568-.61.34-.299.809-.484a3.1 3.1 0 0 1 1.122-.184q1.023 0 1.789.497.781.496 1.207 1.349.441.837.441 1.917t-.441 1.931q-.44.839-1.221 1.32-.766.484-1.789.483-.837 0-1.477-.326a2.6 2.6 0 0 1-1.008-.937v4.217zm3.678-4.189a2.12 2.12 0 0 0 1.945-1.193q.298-.568.298-1.32t-.298-1.307a2.1 2.1 0 0 0-.795-.88 2.05 2.05 0 0 0-1.15-.327q-.668 0-1.179.327a2.15 2.15 0 0 0-.781.88q-.284.555-.284 1.307t.284 1.32q.285.568.781.88.511.313 1.179.313M379.01 60v-7.157h1.42V60zm.724-8.506a.95.95 0 0 1-.681-.255.88.88 0 0 1-.256-.654q0-.383.256-.624a.95.95 0 0 1 .681-.256q.398 0 .668.256a.8.8 0 0 1 .27.624.86.86 0 0 1-.27.654.94.94 0 0 1-.668.255m5.496 8.676q-.909 0-1.591-.298a2.6 2.6 0 0 1-1.079-.838 2.6 2.6 0 0 1-.483-1.263h1.449q.07.34.27.624.213.285.568.455.368.17.866.17.468 0 .767-.128.312-.141.454-.369a1 1 0 0 0 .142-.511q0-.398-.199-.596-.184-.213-.568-.327a6.4 6.4 0 0 0-.894-.227 8 8 0 0 1-.966-.227 4 4 0 0 1-.824-.384 1.8 1.8 0 0 1-.568-.568q-.213-.354-.213-.866 0-.611.327-1.093.327-.497.923-.767.61-.284 1.434-.284 1.192 0 1.917.568t.852 1.604h-1.377q-.057-.483-.426-.738-.37-.27-.98-.27-.611 0-.937.242a.76.76 0 0 0-.327.639q0 .255.185.454.185.2.539.34.37.129.895.242.753.142 1.349.355.597.213.951.625.355.411.355 1.179a1.94 1.94 0 0 1-.34 1.178q-.341.511-.98.795-.625.284-1.491.284m7.792 0q-1.037 0-1.846-.468a3.5 3.5 0 0 1-1.278-1.32q-.455-.84-.455-1.946 0-1.122.455-1.96a3.36 3.36 0 0 1 1.278-1.32q.809-.483 1.846-.483 1.306 0 2.187.681.88.682 1.121 1.846h-1.476a1.52 1.52 0 0 0-.654-.965q-.496-.34-1.192-.341-.568 0-1.051.298-.483.285-.781.852-.284.555-.284 1.378 0 .61.17 1.093.17.469.455.795.298.327.681.497.384.156.81.156.468 0 .837-.142.384-.156.639-.454.27-.298.37-.71h1.476a3.07 3.07 0 0 1-1.121 1.832q-.88.681-2.187.681m5.069-.17v-7.157h1.42V60zm.725-8.506a.95.95 0 0 1-.682-.255.89.89 0 0 1-.256-.654q0-.383.256-.624a.95.95 0 0 1 .682-.256q.397 0 .667.256a.8.8 0 0 1 .27.624.86.86 0 0 1-.27.654.93.93 0 0 1-.667.255M401.542 60v-7.157h1.278l.085 1.221q.34-.639.966-1.008a2.7 2.7 0 0 1 1.434-.383q.852 0 1.463.34.61.341.951 1.037.34.682.341 1.718V60h-1.42v-4.09q0-.993-.44-1.505-.441-.51-1.278-.511-.555 0-.994.27-.441.255-.71.767-.256.51-.256 1.25V60zm11.245 3.294q-.98 0-1.732-.255-.753-.242-1.165-.753-.411-.51-.411-1.25 0-.383.17-.78a2.3 2.3 0 0 1 .554-.739q.383-.355 1.036-.639l.796.64q-.725.27-.98.638-.242.384-.242.739 0 .425.256.71.255.283.696.426.454.142 1.022.142.553 0 .966-.157.411-.156.639-.44.227-.285.227-.667a1 1 0 0 0-.341-.767q-.341-.298-1.306-.355a14 14 0 0 1-1.378-.156 6 6 0 0 1-.951-.242 3.5 3.5 0 0 1-.653-.312 3 3 0 0 1-.44-.355v-.327l1.42-1.462 1.15.397-1.548 1.435.298-.64q.156.1.298.2.143.084.384.156.241.071.653.127.411.057 1.079.114.966.07 1.548.34.596.27.866.725t.27 1.08q0 .609-.341 1.164-.327.554-1.036.908-.696.355-1.804.355m0-5.495q-.909 0-1.548-.34a2.45 2.45 0 0 1-.965-.924 2.6 2.6 0 0 1-.327-1.292q0-.724.327-1.292a2.43 2.43 0 0 1 .98-.923q.639-.355 1.533-.355.895 0 1.52.355.639.34.965.923.34.569.341 1.292 0 .71-.341 1.292a2.33 2.33 0 0 1-.965.923q-.625.34-1.52.341m0-1.136q.696 0 1.108-.355.411-.369.412-1.065 0-.696-.412-1.05-.412-.37-1.108-.37t-1.122.37q-.426.354-.426 1.05t.426 1.065q.426.355 1.122.355m1.165-2.698-.341-1.122h2.939v.98zm10.893 6.205q-1.022 0-1.817-.468a3.3 3.3 0 0 1-1.25-1.307q-.44-.837-.44-1.945 0-1.135.44-1.974a3.3 3.3 0 0 1 1.25-1.32q.795-.483 1.846-.483 1.05 0 1.803.468.753.47 1.165 1.25a3.55 3.55 0 0 1 .411 1.704q0 .142-.014.312 0 .157-.014.355h-5.85v-1.008h4.458q-.042-.894-.596-1.391-.554-.512-1.377-.512-.584 0-1.065.27-.483.255-.781.767-.284.497-.284 1.264v.397q0 .795.284 1.35.298.54.781.823.482.27 1.05.27.683 0 1.122-.298.44-.3.653-.81h1.42a3.15 3.15 0 0 1-.624 1.179q-.44.51-1.094.81-.639.297-1.477.297m4.986-.17V49.776h1.42V60zm3.469 0v-7.157h1.42V60zm.724-8.506a.95.95 0 0 1-.681-.255.88.88 0 0 1-.256-.654q0-.383.256-.624a.95.95 0 0 1 .681-.256q.398 0 .668.256a.8.8 0 0 1 .27.624.86.86 0 0 1-.27.654.94.94 0 0 1-.668.255M439.69 60q-.668 0-1.164-.213a1.55 1.55 0 0 1-.767-.71q-.27-.497-.27-1.349V54.05h-1.235v-1.207h1.235l.171-1.789h1.249v1.79h2.031v1.206h-2.031v3.692q0 .611.256.838.256.213.88.213h.824V60zm2.588 1.747.81-3.28h1.434l-1.292 3.28zM266.735 81.17q-.909 0-1.591-.298a2.6 2.6 0 0 1-1.079-.838 2.6 2.6 0 0 1-.483-1.263h1.449q.07.34.269.624.214.284.568.455.37.17.867.17.468 0 .766-.128.313-.141.455-.369a1 1 0 0 0 .142-.511q0-.398-.199-.596-.184-.213-.568-.327a6.4 6.4 0 0 0-.895-.227 8 8 0 0 1-.965-.227 4 4 0 0 1-.824-.384 1.8 1.8 0 0 1-.568-.568q-.213-.355-.213-.866 0-.61.327-1.093.327-.498.923-.767.61-.284 1.434-.284 1.193 0 1.917.568.725.568.852 1.604h-1.377q-.057-.483-.426-.738-.37-.27-.98-.27-.611 0-.937.242a.76.76 0 0 0-.327.639q0 .255.185.454.185.2.539.34.37.129.895.242.752.142 1.349.355.596.213.951.625t.355 1.179q.015.667-.341 1.178-.34.511-.979.795-.625.285-1.491.284m7.721 0q-1.023 0-1.818-.468a3.3 3.3 0 0 1-1.249-1.307q-.441-.838-.441-1.945 0-1.135.441-1.974a3.3 3.3 0 0 1 1.249-1.32q.796-.483 1.846-.483t1.804.468a3.2 3.2 0 0 1 1.164 1.25 3.55 3.55 0 0 1 .412 1.704q0 .143-.014.312 0 .157-.015.355h-5.85v-1.008h4.459q-.043-.894-.597-1.391-.553-.512-1.377-.512-.582 0-1.065.27a1.96 1.96 0 0 0-.781.767q-.284.497-.284 1.264v.397q0 .795.284 1.35.298.54.781.823.483.27 1.051.27.681 0 1.122-.298.44-.3.653-.81h1.42a3.16 3.16 0 0 1-.625 1.179 3.15 3.15 0 0 1-1.093.81q-.64.297-1.477.297m8.166 0q-1.022 0-1.803-.482a3.45 3.45 0 0 1-1.221-1.335q-.426-.852-.426-1.931 0-1.094.426-1.932.44-.837 1.221-1.32.795-.498 1.817-.497.838 0 1.477.34.64.326.994.938v-4.175h1.42V81h-1.264l-.156-1.108a3 3 0 0 1-.554.625q-.34.285-.823.469a3.1 3.1 0 0 1-1.108.184m.227-1.235q.668 0 1.179-.312a2 2 0 0 0 .781-.88q.284-.57.284-1.321 0-.753-.284-1.307a2 2 0 0 0-.781-.88 2.14 2.14 0 0 0-1.179-.327q-.639 0-1.15.327a2.1 2.1 0 0 0-.795.88q-.284.555-.284 1.307t.284 1.32a2.11 2.11 0 0 0 1.945 1.193m12.434 1.235q-1.023 0-1.803-.482a3.46 3.46 0 0 1-1.222-1.335q-.426-.852-.426-1.931 0-1.094.426-1.932a3.36 3.36 0 0 1 1.222-1.32q.795-.498 1.817-.497.838 0 1.477.34.639.326.994.938v-4.175h1.42V81h-1.264l-.156-1.108a3 3 0 0 1-.554.625q-.341.285-.823.469a3.1 3.1 0 0 1-1.108.184m.227-1.235q.668 0 1.179-.312a2 2 0 0 0 .781-.88q.284-.57.284-1.321 0-.753-.284-1.307a2 2 0 0 0-.781-.88 2.14 2.14 0 0 0-1.179-.327q-.639 0-1.15.327a2.1 2.1 0 0 0-.795.88q-.284.555-.284 1.307t.284 1.32a2.11 2.11 0 0 0 1.945 1.193m8.886 1.235a3.56 3.56 0 0 1-1.818-.468 3.43 3.43 0 0 1-1.264-1.307q-.454-.851-.454-1.96 0-1.136.468-1.973a3.37 3.37 0 0 1 1.278-1.32 3.56 3.56 0 0 1 1.818-.47q1.023 0 1.818.47.795.468 1.249 1.306.47.837.469 1.974 0 1.136-.469 1.973a3.3 3.3 0 0 1-1.264 1.307q-.809.468-1.831.468m0-1.22q.582 0 1.05-.285.483-.284.767-.838.298-.567.298-1.405t-.284-1.392q-.283-.569-.766-.852a1.96 1.96 0 0 0-1.037-.284q-.568 0-1.051.284t-.781.852q-.284.554-.284 1.392t.284 1.405q.299.555.767.838.483.284 1.037.284m12.105 1.22q-1.022 0-1.818-.468a3.3 3.3 0 0 1-1.249-1.307q-.44-.838-.44-1.945 0-1.135.44-1.974a3.3 3.3 0 0 1 1.249-1.32q.796-.483 1.846-.483t1.804.468q.753.47 1.164 1.25.412.767.412 1.704 0 .143-.014.312 0 .157-.014.355h-5.851v-1.008h4.459q-.042-.894-.596-1.391-.555-.512-1.378-.512-.582 0-1.065.27a1.96 1.96 0 0 0-.781.767q-.284.497-.284 1.264v.397q0 .795.284 1.35.298.54.781.823.483.27 1.051.27.681 0 1.122-.298.44-.3.653-.81h1.42a3.1 3.1 0 0 1-.625 1.179 3.1 3.1 0 0 1-1.093.81q-.639.297-1.477.297m5.085-.17v-7.157h1.42V81zm.724-8.506a.95.95 0 0 1-.681-.255.88.88 0 0 1-.256-.654q0-.382.256-.624a.95.95 0 0 1 .681-.256q.398 0 .668.256.27.24.269.624a.86.86 0 0 1-.269.654.94.94 0 0 1-.668.255m5.354 8.676q-.838 0-1.463-.34a2.3 2.3 0 0 1-.951-1.023q-.327-.681-.327-1.718v-4.246h1.42v4.09q0 1.008.44 1.52.44.51 1.264.51a1.86 1.86 0 0 0 1.704-1.05q.255-.512.256-1.25v-3.82h1.42V81h-1.264l-.1-1.221a2.4 2.4 0 0 1-.951 1.022q-.624.37-1.448.37m8.476 0q-.909 0-1.591-.298a2.6 2.6 0 0 1-1.079-.838 2.6 2.6 0 0 1-.483-1.263h1.449q.07.34.27.624.213.284.568.455.37.17.866.17.468 0 .767-.128.312-.141.454-.369a1 1 0 0 0 .142-.511q0-.398-.199-.596-.184-.213-.568-.327a6.4 6.4 0 0 0-.894-.227 8 8 0 0 1-.966-.227 4 4 0 0 1-.824-.384 1.8 1.8 0 0 1-.568-.568q-.213-.355-.213-.866 0-.61.327-1.093.327-.498.923-.767.61-.284 1.434-.284 1.193 0 1.917.568t.852 1.604h-1.377q-.057-.483-.426-.738-.37-.27-.98-.27t-.937.242a.76.76 0 0 0-.327.639q0 .255.185.454.185.2.539.34.37.129.895.242.752.142 1.349.355t.951.625.355 1.179a1.94 1.94 0 0 1-.34 1.178q-.341.511-.98.795-.625.285-1.491.284m4.483-.17v-7.157h1.278l.1 1.008q.34-.553.909-.866a2.6 2.6 0 0 1 1.278-.312q.539 0 .979.156.44.142.781.44t.554.739a2.75 2.75 0 0 1 1.023-.98 2.84 2.84 0 0 1 1.377-.355q.865 0 1.491.355.625.34.951 1.036.327.683.327 1.704V81h-1.406v-4.09q0-.993-.412-1.505-.398-.51-1.178-.511-.526 0-.937.27t-.654.78q-.227.512-.227 1.25V81h-1.42v-4.09q0-.993-.412-1.505-.398-.51-1.178-.511-.497 0-.909.27t-.653.78q-.242.512-.242 1.25V81zm16.149.17a3.56 3.56 0 0 1-1.818-.468 3.4 3.4 0 0 1-1.263-1.307q-.455-.851-.455-1.96 0-1.136.469-1.973a3.36 3.36 0 0 1 1.278-1.32 3.56 3.56 0 0 1 1.817-.47q1.023 0 1.818.47.795.468 1.25 1.306.468.837.468 1.974 0 1.136-.468 1.973a3.3 3.3 0 0 1-1.264 1.307q-.81.468-1.832.468m0-1.22a1.99 1.99 0 0 0 1.818-1.123q.298-.567.298-1.405t-.284-1.392q-.285-.569-.767-.852a1.96 1.96 0 0 0-1.037-.284q-.568 0-1.05.284t-.781.852q-.284.554-.284 1.392t.284 1.405q.297.555.766.838.483.284 1.037.284m8.415 1.22q-1.021 0-1.803-.482a3.45 3.45 0 0 1-1.221-1.335q-.426-.852-.426-1.931 0-1.094.426-1.932.44-.837 1.221-1.32.795-.498 1.818-.497.837 0 1.476.34.64.326.994.938v-4.175h1.42V81h-1.263l-.157-1.108a3 3 0 0 1-.553.625q-.341.285-.824.469a3.1 3.1 0 0 1-1.108.184m.228-1.235q.667 0 1.178-.312a2 2 0 0 0 .781-.88q.284-.57.284-1.321 0-.753-.284-1.307a2 2 0 0 0-.781-.88 2.14 2.14 0 0 0-1.178-.327q-.64 0-1.151.327-.51.313-.795.88-.284.555-.284 1.307t.284 1.32q.285.568.795.88.512.313 1.151.313M377.607 81q-.667 0-1.165-.213a1.55 1.55 0 0 1-.766-.71q-.27-.497-.27-1.349V75.05h-1.236v-1.207h1.236l.17-1.789h1.25v1.79h2.03v1.206h-2.03v3.692q0 .61.255.838.256.213.881.213h.823V81zm5.859.17q-1.023 0-1.818-.468a3.3 3.3 0 0 1-1.25-1.307q-.44-.838-.44-1.945 0-1.135.44-1.974a3.3 3.3 0 0 1 1.25-1.32q.796-.483 1.846-.483 1.052 0 1.803.468.753.47 1.165 1.25a3.55 3.55 0 0 1 .412 1.704q0 .143-.015.312 0 .157-.014.355h-5.85v-1.008h4.459q-.043-.894-.597-1.391-.553-.512-1.377-.512-.582 0-1.065.27a1.96 1.96 0 0 0-.781.767q-.284.497-.284 1.264v.397q0 .795.284 1.35.298.54.781.823.483.27 1.051.27.681 0 1.121-.298.441-.3.654-.81h1.42a3.16 3.16 0 0 1-.625 1.179q-.44.51-1.094.81-.639.297-1.476.297m4.985-.17v-7.157h1.278l.1 1.008q.34-.553.909-.866a2.6 2.6 0 0 1 1.278-.312q.539 0 .979.156.44.142.781.44t.554.739a2.75 2.75 0 0 1 1.023-.98 2.84 2.84 0 0 1 1.377-.355q.865 0 1.491.355.625.34.951 1.036.327.683.327 1.704V81h-1.406v-4.09q0-.993-.412-1.505-.398-.51-1.178-.511-.526 0-.937.27t-.654.78q-.227.512-.227 1.25V81h-1.42v-4.09q0-.993-.412-1.505-.398-.51-1.178-.511-.498 0-.909.27t-.653.78-.242 1.25V81zm12.883 3.124v-10.28h1.278l.142 1.107q.227-.327.568-.61.34-.299.809-.484a3.1 3.1 0 0 1 1.122-.184q1.023 0 1.789.497.781.496 1.207 1.349.441.837.441 1.917t-.441 1.931q-.44.838-1.221 1.32-.766.484-1.789.483-.838 0-1.477-.326a2.6 2.6 0 0 1-1.008-.937v4.217zm3.678-4.189a2.12 2.12 0 0 0 1.945-1.193q.298-.569.298-1.32 0-.753-.298-1.307a2.1 2.1 0 0 0-.795-.88 2.05 2.05 0 0 0-1.15-.327q-.668 0-1.179.327a2.15 2.15 0 0 0-.781.88q-.284.555-.284 1.307t.284 1.32q.284.568.781.88.512.313 1.179.313m8.602 1.235a3.56 3.56 0 0 1-1.818-.468 3.43 3.43 0 0 1-1.264-1.307q-.454-.851-.454-1.96 0-1.136.468-1.973a3.37 3.37 0 0 1 1.278-1.32 3.56 3.56 0 0 1 1.818-.47q1.023 0 1.818.47.795.468 1.249 1.306.47.837.469 1.974 0 1.136-.469 1.973a3.3 3.3 0 0 1-1.264 1.307q-.809.468-1.831.468m0-1.22q.582 0 1.05-.285.483-.284.767-.838.298-.567.298-1.405t-.284-1.392q-.283-.569-.766-.852a1.96 1.96 0 0 0-1.037-.284q-.568 0-1.051.284t-.781.852q-.284.554-.284 1.392t.284 1.405q.299.555.767.838.483.284 1.037.284m5.234 1.05v-7.157h1.278l.128 1.35q.241-.484.625-.81.383-.34.894-.526a3.6 3.6 0 0 1 1.193-.184v1.505h-.511a3 3 0 0 0-.838.114 1.8 1.8 0 0 0-.71.355q-.299.255-.468.695-.171.44-.171 1.094V81zm-154.783 21v-7.157h1.42V102zm.724-8.506a.95.95 0 0 1-.681-.255.88.88 0 0 1-.256-.654q0-.382.256-.624a.95.95 0 0 1 .681-.256q.398 0 .668.256.269.24.269.624 0 .398-.269.654a.94.94 0 0 1-.668.255m2.727 8.506v-7.157h1.278l.085 1.221q.34-.639.965-1.008a2.7 2.7 0 0 1 1.435-.383q.852 0 1.462.34.61.341.952 1.037.34.682.34 1.718V102h-1.42v-4.09q0-.993-.44-1.505-.44-.51-1.278-.511-.553 0-.994.27-.44.255-.71.767-.255.51-.255 1.25V102zm11.642.17q-1.036 0-1.846-.468a3.5 3.5 0 0 1-1.278-1.321q-.454-.837-.454-1.945 0-1.122.454-1.96a3.37 3.37 0 0 1 1.278-1.32q.81-.483 1.846-.483 1.307 0 2.187.681.88.682 1.122 1.846h-1.477a1.52 1.52 0 0 0-.653-.965q-.497-.34-1.193-.341-.567 0-1.051.298-.482.285-.781.852-.284.555-.284 1.378 0 .61.171 1.093.17.468.454.795.298.327.682.497.383.156.809.156.47 0 .838-.142.384-.156.639-.454.27-.299.369-.71h1.477q-.242 1.136-1.122 1.832-.88.681-2.187.681m5.07-.17v-7.157h1.42V102zm.724-8.506a.95.95 0 0 1-.682-.255.89.89 0 0 1-.255-.654q0-.382.255-.624a.95.95 0 0 1 .682-.256.93.93 0 0 1 .667.256.8.8 0 0 1 .27.624.86.86 0 0 1-.27.654.93.93 0 0 1-.667.255m5.907 8.676q-1.022 0-1.803-.482a3.46 3.46 0 0 1-1.221-1.335q-.426-.852-.426-1.931 0-1.094.426-1.932.44-.837 1.221-1.32.795-.498 1.817-.497.838 0 1.477.34.64.327.994.938v-4.175h1.42V102H293.5l-.156-1.108a3 3 0 0 1-.554.625q-.34.285-.823.469a3.1 3.1 0 0 1-1.108.184m.227-1.235q.668 0 1.179-.312.511-.313.781-.88.284-.57.284-1.321 0-.753-.284-1.307a2 2 0 0 0-.781-.88 2.14 2.14 0 0 0-1.179-.327q-.639 0-1.15.327a2.1 2.1 0 0 0-.795.88q-.284.555-.284 1.307t.284 1.32q.284.568.795.881.511.312 1.15.312m5.719 1.065v-7.157h1.42V102zm.725-8.506a.95.95 0 0 1-.682-.255.89.89 0 0 1-.256-.654q0-.382.256-.624a.95.95 0 0 1 .682-.256q.397 0 .667.256a.8.8 0 0 1 .27.624.86.86 0 0 1-.27.654.93.93 0 0 1-.667.255m5.907 8.676q-1.023 0-1.804-.482a3.5 3.5 0 0 1-1.221-1.335q-.426-.852-.426-1.931 0-1.094.426-1.932a3.36 3.36 0 0 1 1.221-1.32q.796-.498 1.818-.497.838 0 1.477.34.639.327.994.938v-4.175h1.42V102h-1.264l-.156-1.108a3 3 0 0 1-.554.625q-.34.285-.824.469a3.1 3.1 0 0 1-1.107.184m.227-1.235q.668 0 1.179-.312.51-.313.781-.88.284-.57.284-1.321 0-.753-.284-1.307a2.03 2.03 0 0 0-.781-.88 2.14 2.14 0 0 0-1.179-.327q-.639 0-1.15.327a2.1 2.1 0 0 0-.795.88q-.284.555-.284 1.307t.284 1.32q.284.568.795.881.511.312 1.15.312m8.247 1.235q-.838 0-1.463-.34a2.32 2.32 0 0 1-.951-1.023q-.327-.681-.327-1.718v-4.246h1.42v4.09q0 1.008.44 1.519t1.264.511q.554 0 .994-.269.455-.27.71-.781.256-.512.256-1.25v-3.82h1.42V102h-1.264l-.1-1.221a2.4 2.4 0 0 1-.951 1.022q-.625.369-1.448.369m5.707-.17v-7.157h1.278l.085 1.221q.34-.639.966-1.008a2.7 2.7 0 0 1 1.434-.383q.852 0 1.462.34.611.341.952 1.037.34.682.341 1.718V102h-1.42v-4.09q0-.993-.441-1.505-.44-.51-1.278-.511-.553 0-.994.27-.44.255-.71.767-.255.51-.255 1.25V102zm11.273 0q-.668 0-1.164-.213a1.55 1.55 0 0 1-.767-.71q-.27-.497-.27-1.349V96.05h-1.235v-1.207h1.235l.171-1.789h1.249v1.79h2.031v1.206h-2.031v3.692q0 .611.256.838.255.213.88.213h.824V102zm9.076.17q-.838 0-1.463-.34a2.32 2.32 0 0 1-.951-1.023q-.327-.681-.327-1.718v-4.246h1.42v4.09q0 1.008.441 1.519.44.511 1.263.511.555 0 .994-.269.455-.27.71-.781.256-.512.256-1.25v-3.82h1.42V102h-1.264l-.099-1.221a2.4 2.4 0 0 1-.952 1.022q-.624.369-1.448.369m8.647-.17q-.667 0-1.165-.213a1.55 1.55 0 0 1-.767-.71q-.269-.497-.269-1.349V96.05h-1.236v-1.207h1.236l.17-1.789h1.25v1.79h2.03v1.206h-2.03v3.692q0 .611.255.838.256.213.881.213h.823V102zm6.448 0V91.776h1.42V102zm5.741.17q-.88 0-1.462-.298-.582-.299-.866-.795a2.2 2.2 0 0 1-.284-1.093q0-.71.369-1.207.369-.512 1.051-.781.68-.27 1.633-.27h1.86q0-.625-.185-1.037a1.25 1.25 0 0 0-.554-.61q-.354-.213-.908-.213-.64 0-1.094.312-.454.298-.568.895h-1.42q.085-.753.511-1.278.441-.54 1.122-.824a3.6 3.6 0 0 1 1.449-.298q1.008 0 1.689.355.682.354 1.023 1.008.355.639.355 1.534V102h-1.236l-.113-1.207a3.4 3.4 0 0 1-.369.54 2.1 2.1 0 0 1-.512.44 2.2 2.2 0 0 1-.667.284 2.8 2.8 0 0 1-.824.113m.27-1.15q.455 0 .824-.184.369-.185.625-.497.269-.327.397-.725.142-.411.156-.837v-.043h-1.689q-.611 0-.994.156-.37.142-.54.398-.17.255-.17.596 0 .355.156.611.17.242.483.383t.752.142m9.168 1.15q-.582 0-1.065-.17a2.6 2.6 0 0 1-.823-.44 2.8 2.8 0 0 1-.597-.653l-.142 1.093h-1.278V91.776h1.42v4.189q.342-.54.952-.909.624-.383 1.533-.383 1.023 0 1.804.497.78.483 1.207 1.335.44.838.44 1.93 0 1.065-.44 1.918a3.24 3.24 0 0 1-1.207 1.335q-.781.482-1.804.482m-.227-1.235a2.12 2.12 0 0 0 1.946-1.193q.297-.569.298-1.32 0-.753-.298-1.307a2.1 2.1 0 0 0-.796-.88 2.04 2.04 0 0 0-1.15-.327q-.668 0-1.178.327a2.14 2.14 0 0 0-.781.88q-.284.555-.284 1.307t.284 1.32q.283.568.781.881.51.312 1.178.312m8.602 1.235a3.57 3.57 0 0 1-1.818-.468 3.4 3.4 0 0 1-1.263-1.307q-.455-.851-.455-1.96 0-1.136.469-1.973a3.36 3.36 0 0 1 1.278-1.32 3.56 3.56 0 0 1 1.817-.47q1.023 0 1.818.47.795.468 1.25 1.306.468.837.468 1.974 0 1.136-.468 1.973a3.3 3.3 0 0 1-1.264 1.307q-.81.468-1.832.468m0-1.221q.582 0 1.051-.284a2 2 0 0 0 .767-.838q.298-.567.298-1.405t-.284-1.392q-.284-.569-.767-.852a1.96 1.96 0 0 0-1.037-.284q-.568 0-1.05.284t-.781.852q-.284.554-.284 1.392t.284 1.405q.298.555.766.838.483.284 1.037.284m5.235 1.051v-7.157h1.278l.127 1.35a2.728 2.728 0 0 1 1.52-1.335q.525-.185 1.193-.185v1.505h-.512q-.44 0-.837.114a1.8 1.8 0 0 0-.71.355q-.298.255-.469.695t-.17 1.094V102zm8.437.17q-1.022 0-1.817-.468a3.33 3.33 0 0 1-1.25-1.307q-.44-.837-.44-1.945 0-1.135.44-1.974a3.3 3.3 0 0 1 1.25-1.32q.795-.483 1.846-.483 1.05 0 1.803.468.753.47 1.165 1.25a3.55 3.55 0 0 1 .411 1.704q0 .143-.014.312 0 .157-.014.355h-5.85v-1.008h4.458q-.042-.894-.596-1.391-.554-.512-1.377-.512-.584 0-1.065.27-.483.255-.781.767-.284.497-.284 1.264v.397q0 .795.284 1.35.298.539.781.823.482.27 1.05.27.683 0 1.122-.298.44-.299.653-.81h1.42a3.15 3.15 0 0 1-.624 1.179q-.44.511-1.094.809-.639.298-1.477.298m11.857 0q-1.023 0-1.818-.468a3.3 3.3 0 0 1-1.249-1.307q-.441-.837-.441-1.945 0-1.135.441-1.974a3.3 3.3 0 0 1 1.249-1.32q.796-.483 1.846-.483t1.804.468a3.2 3.2 0 0 1 1.164 1.25q.412.767.412 1.704 0 .143-.014.312 0 .157-.015.355h-5.85v-1.008h4.459q-.043-.894-.597-1.391-.554-.512-1.377-.512-.582 0-1.065.27a1.96 1.96 0 0 0-.781.767q-.284.497-.284 1.264v.397q0 .795.284 1.35.298.539.781.823.483.27 1.051.27.681 0 1.122-.298.44-.299.653-.81h1.42a3.15 3.15 0 0 1-.625 1.179 3.1 3.1 0 0 1-1.093.809q-.64.298-1.477.298m7.731-.17q-.667 0-1.165-.213a1.55 1.55 0 0 1-.766-.71q-.27-.497-.27-1.349V96.05h-1.236v-1.207h1.236l.17-1.789h1.25v1.79h2.03v1.206h-2.03v3.692q0 .611.255.838.256.213.881.213h.823V102zm9.629.17q-1.022 0-1.803-.482a3.46 3.46 0 0 1-1.221-1.335q-.426-.852-.426-1.931 0-1.094.426-1.932.44-.837 1.221-1.32.795-.498 1.817-.497.838 0 1.477.34.64.327.994.938v-4.175h1.42V102h-1.264l-.156-1.108a3 3 0 0 1-.554.625q-.34.285-.823.469a3.1 3.1 0 0 1-1.108.184m.227-1.235q.667 0 1.179-.312.511-.313.781-.88.284-.57.284-1.321 0-.753-.284-1.307a2 2 0 0 0-.781-.88 2.14 2.14 0 0 0-1.179-.327q-.639 0-1.15.327a2.1 2.1 0 0 0-.795.88q-.284.555-.284 1.307t.284 1.32q.283.568.795.881.511.312 1.15.312m8.886 1.235a3.57 3.57 0 0 1-1.818-.468 3.4 3.4 0 0 1-1.263-1.307q-.455-.851-.455-1.96 0-1.136.469-1.973a3.36 3.36 0 0 1 1.278-1.32 3.56 3.56 0 0 1 1.817-.47q1.023 0 1.818.47.795.468 1.25 1.306.468.837.468 1.974 0 1.136-.468 1.973a3.3 3.3 0 0 1-1.264 1.307q-.81.468-1.832.468m0-1.221q.582 0 1.051-.284a2 2 0 0 0 .767-.838q.298-.567.298-1.405t-.284-1.392q-.285-.569-.767-.852a1.96 1.96 0 0 0-1.037-.284q-.568 0-1.05.284t-.781.852q-.284.554-.284 1.392t.284 1.405q.297.555.766.838.483.284 1.037.284m5.235 1.051V91.776h1.42V102zm6.635.17a3.56 3.56 0 0 1-1.817-.468 3.4 3.4 0 0 1-1.264-1.307q-.455-.851-.455-1.96 0-1.136.469-1.973a3.36 3.36 0 0 1 1.278-1.32 3.56 3.56 0 0 1 1.818-.47q1.022 0 1.817.47.795.468 1.25 1.306.468.837.468 1.974 0 1.136-.468 1.973a3.3 3.3 0 0 1-1.264 1.307q-.81.468-1.832.468m0-1.221q.582 0 1.051-.284.483-.283.767-.838.298-.567.298-1.405t-.284-1.392a2 2 0 0 0-.767-.852 1.96 1.96 0 0 0-1.036-.284q-.568 0-1.051.284t-.781.852q-.284.554-.284 1.392t.284 1.405q.298.555.767.838.483.284 1.036.284m5.235 1.051v-7.157h1.278l.128 1.35q.242-.484.624-.81.384-.34.895-.526.525-.184 1.193-.184v1.505h-.511q-.44 0-.838.114a1.8 1.8 0 0 0-.71.355q-.298.255-.469.695t-.17 1.094V102zm8.438.17q-1.023 0-1.818-.468a3.33 3.33 0 0 1-1.25-1.307q-.44-.837-.44-1.945 0-1.135.44-1.974a3.3 3.3 0 0 1 1.25-1.32q.795-.483 1.846-.483t1.803.468q.753.47 1.165 1.25a3.55 3.55 0 0 1 .412 1.704q0 .143-.015.312 0 .157-.014.355h-5.85v-1.008h4.459q-.043-.894-.597-1.391-.553-.512-1.377-.512-.582 0-1.065.27a1.96 1.96 0 0 0-.781.767q-.285.497-.284 1.264v.397q0 .795.284 1.35.298.539.781.823.483.27 1.051.27.681 0 1.121-.298a1.8 1.8 0 0 0 .654-.81h1.42a3.15 3.15 0 0 1-.625 1.179q-.44.511-1.094.809-.639.298-1.476.298M263.966 123v-7.157h1.278l.099 1.008q.34-.554.909-.866a2.6 2.6 0 0 1 1.278-.312q.54 0 .98.156.44.142.781.44.34.298.553.739a2.74 2.74 0 0 1 1.023-.98 2.84 2.84 0 0 1 1.377-.355q.867 0 1.491.355.625.341.952 1.036.326.683.326 1.704V123h-1.406v-4.09q0-.993-.411-1.505-.398-.511-1.179-.511-.526 0-.937.27t-.653.781q-.228.511-.228 1.249V123h-1.42v-4.09q0-.993-.411-1.505-.398-.511-1.179-.511-.497 0-.909.27-.411.27-.653.781-.241.511-.241 1.249V123zm15.254.17q-.88 0-1.463-.298-.582-.299-.866-.795a2.2 2.2 0 0 1-.284-1.093q0-.71.369-1.207.369-.512 1.051-.781.681-.27 1.633-.27h1.86q0-.625-.185-1.037a1.25 1.25 0 0 0-.553-.61q-.356-.213-.909-.213-.64 0-1.094.312-.454.298-.568.895h-1.42q.086-.753.512-1.278a2.8 2.8 0 0 1 1.121-.824 3.6 3.6 0 0 1 1.449-.298q1.008 0 1.69.355t1.022 1.008q.355.639.355 1.534V123h-1.235l-.114-1.207a3.4 3.4 0 0 1-.369.54q-.213.255-.511.44-.284.185-.668.284a2.8 2.8 0 0 1-.823.113m.269-1.15q.455 0 .824-.184.369-.185.625-.497.27-.327.397-.725.142-.411.157-.837v-.043h-1.69q-.611 0-.994.156-.369.142-.54.398-.17.255-.17.596 0 .355.156.611.171.242.483.383t.752.142m8.175 4.274q-.98 0-1.733-.255-.753-.242-1.164-.753-.412-.511-.412-1.249 0-.384.17-.781.171-.384.554-.739.383-.354 1.037-.639l.795.639q-.724.27-.98.639-.241.384-.241.739 0 .426.255.71.257.283.696.426.454.141 1.023.142.554 0 .965-.157.413-.156.639-.44.228-.284.227-.667a1 1 0 0 0-.34-.767q-.341-.298-1.307-.355-.81-.057-1.377-.156a6 6 0 0 1-.952-.242 3.5 3.5 0 0 1-.653-.312 3 3 0 0 1-.44-.355v-.327l1.42-1.462 1.15.397-1.548 1.435.299-.639q.156.099.298.198.141.085.383.157.242.071.653.127.413.057 1.08.114.965.07 1.547.341.597.27.867.724.269.455.269 1.079 0 .61-.34 1.165-.327.554-1.037.908-.696.355-1.803.355m0-5.495q-.909 0-1.548-.341a2.45 2.45 0 0 1-.966-.923 2.6 2.6 0 0 1-.326-1.292q0-.725.326-1.292.34-.582.98-.923.639-.355 1.534-.355.894 0 1.519.355.639.34.966.923.34.567.34 1.292 0 .71-.34 1.292-.327.582-.966.923-.625.34-1.519.341m0-1.136q.695 0 1.107-.355.412-.369.412-1.065t-.412-1.051q-.412-.369-1.107-.369t-1.122.369q-.426.355-.426 1.051t.426 1.065q.426.355 1.122.355m1.164-2.698-.341-1.122h2.94v.98zm4.023 6.035v-7.157h1.278l.085 1.221q.34-.639.966-1.008a2.7 2.7 0 0 1 1.434-.383q.851 0 1.463.341.61.34.951 1.036.34.682.341 1.718V123h-1.42v-4.09q0-.993-.44-1.505-.441-.511-1.278-.511-.555 0-.994.27-.441.255-.71.767-.256.51-.256 1.249V123zm10.706.17q-.88 0-1.463-.298-.582-.299-.866-.795a2.2 2.2 0 0 1-.284-1.093q0-.71.369-1.207.369-.512 1.051-.781.68-.27 1.633-.27h1.86q0-.625-.185-1.037a1.25 1.25 0 0 0-.553-.61q-.356-.213-.909-.213-.64 0-1.094.312-.454.298-.568.895h-1.42q.086-.753.512-1.278a2.8 2.8 0 0 1 1.121-.824 3.6 3.6 0 0 1 1.449-.298q1.008 0 1.69.355t1.022 1.008q.355.639.355 1.534V123h-1.235l-.114-1.207a3.4 3.4 0 0 1-.369.54q-.214.255-.511.44-.284.185-.668.284a2.8 2.8 0 0 1-.823.113m.269-1.15q.455 0 .824-.184.369-.185.625-.497.27-.327.397-.725.142-.411.157-.837v-.043h-1.69q-.611 0-.994.156-.369.142-.54.398-.17.255-.17.596 0 .355.156.611.17.242.483.383t.752.142m11.268 1.15q-.88 0-1.463-.298-.581-.299-.866-.795a2.2 2.2 0 0 1-.284-1.093q0-.71.369-1.207.37-.512 1.051-.781.682-.27 1.633-.27h1.86q0-.625-.184-1.037a1.25 1.25 0 0 0-.554-.61q-.356-.213-.909-.213-.639 0-1.093.312-.454.298-.568.895h-1.42q.085-.753.511-1.278.44-.54 1.122-.824a3.6 3.6 0 0 1 1.448-.298q1.008 0 1.69.355t1.022 1.008q.355.639.355 1.534V123h-1.235l-.114-1.207a3.4 3.4 0 0 1-.369.54q-.213.255-.511.44a2.3 2.3 0 0 1-.667.284 2.8 2.8 0 0 1-.824.113m.27-1.15q.454 0 .823-.184.37-.185.625-.497.27-.327.398-.725.142-.411.156-.837v-.043h-1.69q-.61 0-.994.156-.37.142-.539.398-.171.255-.171.596 0 .355.156.611.171.242.483.383t.753.142m5.263.98v-10.224h1.42V123zm3.469 0v-7.157h1.42V123zm.724-8.506a.95.95 0 0 1-.681-.255.89.89 0 0 1-.256-.654q0-.382.256-.624a.95.95 0 0 1 .681-.256q.398 0 .668.256.27.242.269.624a.86.86 0 0 1-.269.654.94.94 0 0 1-.668.255m8.392 11.63v-4.232q-.34.54-.965.909-.61.369-1.505.369-1.023 0-1.818-.482a3.46 3.46 0 0 1-1.221-1.335q-.426-.852-.426-1.931t.44-1.917a3.34 3.34 0 0 1 1.221-1.335q.781-.498 1.804-.497.582 0 1.05.17.483.156.838.44.356.284.582.668l.157-1.108h1.263v10.281zm-2.257-4.189q.667 0 1.178-.312.511-.313.781-.881.284-.568.284-1.32t-.284-1.307a2.02 2.02 0 0 0-.781-.88 2.14 2.14 0 0 0-1.178-.327q-.64 0-1.151.327-.51.313-.795.88-.284.554-.284 1.307t.284 1.32q.285.568.795.881.512.312 1.151.312m8.246 1.235q-.837 0-1.462-.34a2.33 2.33 0 0 1-.952-1.023q-.327-.681-.326-1.718v-4.246h1.42v4.09q0 1.008.44 1.519t1.264.511q.553 0 .994-.269.454-.27.71-.781.255-.512.255-1.25v-3.82h1.42V123H341.7l-.099-1.221a2.42 2.42 0 0 1-.951 1.022q-.625.369-1.449.369m8.079 0q-.88 0-1.463-.298-.582-.299-.866-.795a2.2 2.2 0 0 1-.284-1.093q0-.71.369-1.207.37-.512 1.051-.781.682-.27 1.633-.27h1.86q0-.625-.184-1.037a1.25 1.25 0 0 0-.554-.61q-.356-.213-.909-.213-.639 0-1.093.312-.455.298-.568.895h-1.42q.084-.753.511-1.278.44-.54 1.122-.824a3.6 3.6 0 0 1 1.448-.298q1.008 0 1.69.355t1.022 1.008q.355.639.355 1.534V123h-1.235l-.114-1.207a3.4 3.4 0 0 1-.369.54q-.213.255-.511.44-.284.185-.668.284a2.8 2.8 0 0 1-.823.113m.27-1.15q.454 0 .823-.184.37-.185.625-.497.27-.327.398-.725.141-.411.156-.837v-.043h-1.69q-.61 0-.994.156-.369.142-.54.398-.17.255-.17.596 0 .355.156.611.171.242.483.383t.753.142m5.831 1.051a.95.95 0 0 1-.682-.256.9.9 0 0 1-.256-.639.87.87 0 0 1 .256-.639.93.93 0 0 1 .682-.269.88.88 0 0 1 .667.269.87.87 0 0 1 .256.639q0 .37-.256.639-.255.256-.667.256m6.187-.071v-9.94h3.393q1.194 0 1.96.398.767.398 1.136 1.065t.369 1.519a3.1 3.1 0 0 1-.369 1.491q-.355.668-1.122 1.079-.767.398-1.974.398h-1.973V123zm1.42-5.169h1.917q1.122 0 1.59-.483.483-.496.483-1.306 0-.865-.483-1.335-.468-.468-1.59-.468h-1.917zm6.898 5.169v-7.157h1.278l.128 1.349q.241-.483.625-.809a2.7 2.7 0 0 1 .895-.526q.525-.184 1.192-.184v1.505h-.511q-.44 0-.838.114a1.8 1.8 0 0 0-.71.355q-.298.255-.468.695t-.171 1.094V123zm8.466.17a3.56 3.56 0 0 1-1.817-.468 3.4 3.4 0 0 1-1.264-1.307q-.454-.852-.454-1.959 0-1.136.468-1.974a3.4 3.4 0 0 1 1.278-1.321 3.57 3.57 0 0 1 1.818-.468q1.022 0 1.817.468.796.469 1.25 1.307.469.837.469 1.974 0 1.136-.469 1.973a3.3 3.3 0 0 1-1.264 1.307q-.809.468-1.832.468m0-1.221q.583 0 1.051-.284.483-.283.767-.838.298-.567.298-1.405t-.284-1.392a1.98 1.98 0 0 0-1.803-1.136 2.04 2.04 0 0 0-1.051.284q-.483.284-.781.852-.284.553-.284 1.392t.284 1.405q.298.555.767.838.483.284 1.036.284m5.334 1.051v-7.157h1.42V123zm.725-8.506a.95.95 0 0 1-.682-.255.9.9 0 0 1-.256-.654q0-.382.256-.624a.95.95 0 0 1 .682-.256.93.93 0 0 1 .667.256q.27.242.27.624 0 .398-.27.654a.93.93 0 0 1-.667.255m2.726 8.506v-7.157h1.278l.085 1.221q.34-.639.966-1.008a2.7 2.7 0 0 1 1.434-.383q.852 0 1.463.341.61.34.951 1.036.34.682.341 1.718V123h-1.42v-4.09q0-.993-.44-1.505-.441-.511-1.278-.511-.555 0-.994.27-.44.255-.71.767-.256.51-.256 1.249V123zm14.907 0q-.667 0-1.165-.213a1.55 1.55 0 0 1-.766-.71q-.27-.497-.27-1.349v-3.678h-1.236v-1.207h1.236l.17-1.789h1.25v1.789h2.03v1.207h-2.03v3.692q0 .611.255.838.256.213.881.213h.823V123zm5.887.17a3.56 3.56 0 0 1-1.817-.468 3.4 3.4 0 0 1-1.264-1.307q-.455-.852-.455-1.959 0-1.136.469-1.974a3.36 3.36 0 0 1 1.278-1.321 3.57 3.57 0 0 1 1.818-.468q1.022 0 1.817.468t1.25 1.307q.468.837.468 1.974 0 1.136-.468 1.973a3.3 3.3 0 0 1-1.264 1.307q-.81.468-1.832.468m0-1.221q.582 0 1.051-.284.483-.283.767-.838.298-.567.298-1.405t-.284-1.392a1.98 1.98 0 0 0-1.803-1.136 2.04 2.04 0 0 0-1.051.284q-.483.284-.781.852-.285.553-.284 1.392 0 .838.284 1.405.298.555.767.838a2 2 0 0 0 1.036.284m5.235 1.051v-7.157h1.278l.128 1.349q.242-.483.624-.809a2.7 2.7 0 0 1 .895-.526q.525-.184 1.193-.184v1.505h-.511q-.44 0-.838.114a1.8 1.8 0 0 0-.71.355q-.298.255-.469.695t-.17 1.094V123zm8.361 0q-.668 0-1.164-.213a1.55 1.55 0 0 1-.767-.71q-.27-.497-.27-1.349v-3.678h-1.235v-1.207h1.235l.171-1.789h1.249v1.789h2.031v1.207h-2.031v3.692q0 .611.256.838.256.213.88.213h.824V123zm5.888.17a3.57 3.57 0 0 1-1.818-.468 3.43 3.43 0 0 1-1.264-1.307q-.454-.852-.454-1.959 0-1.136.468-1.974a3.4 3.4 0 0 1 1.278-1.321 3.57 3.57 0 0 1 1.818-.468q1.022 0 1.818.468.795.469 1.249 1.307.47.837.469 1.974 0 1.136-.469 1.973a3.3 3.3 0 0 1-1.264 1.307q-.809.468-1.831.468m0-1.221q.582 0 1.05-.284.483-.283.767-.838.298-.567.298-1.405t-.284-1.392a1.967 1.967 0 0 0-1.803-1.136 2.04 2.04 0 0 0-1.051.284q-.483.284-.781.852-.284.553-.284 1.392t.284 1.405q.299.555.767.838.482.284 1.037.284m5.234 1.051v-7.157h1.278l.128 1.349q.241-.483.625-.809.383-.341.894-.526a3.6 3.6 0 0 1 1.193-.184v1.505h-.511q-.44 0-.838.114a1.8 1.8 0 0 0-.71.355q-.299.255-.468.695-.171.44-.171 1.094V123zm-166.683 24.124v-10.281h1.278l.142 1.108q.226-.326.568-.611.34-.299.809-.483a3.1 3.1 0 0 1 1.122-.184q1.022 0 1.789.497.781.497 1.207 1.349.44.837.44 1.917 0 1.079-.44 1.931a3.35 3.35 0 0 1-1.221 1.321q-.767.482-1.789.482-.838 0-1.477-.326a2.6 2.6 0 0 1-1.008-.937v4.217zm3.677-4.189a2.1 2.1 0 0 0 1.151-.312q.51-.313.795-.881.298-.568.298-1.32t-.298-1.307a2.1 2.1 0 0 0-.795-.88 2.05 2.05 0 0 0-1.151-.327q-.667 0-1.178.327a2.14 2.14 0 0 0-.781.88q-.285.554-.284 1.307 0 .752.284 1.32.283.568.781.881.511.312 1.178.312m7.963 1.235q-.837 0-1.462-.34a2.33 2.33 0 0 1-.952-1.023q-.326-.681-.326-1.718v-4.246h1.42v4.09q0 1.008.44 1.519t1.264.511q.553 0 .994-.269.454-.27.71-.781.255-.512.255-1.25v-3.82h1.42V144h-1.264l-.099-1.221a2.42 2.42 0 0 1-.951 1.022q-.625.369-1.449.369m5.707-.17v-7.157h1.278l.128 1.349q.241-.483.625-.809a2.7 2.7 0 0 1 .895-.526q.526-.184 1.192-.184v1.505h-.511q-.44 0-.838.114a1.8 1.8 0 0 0-.71.355q-.298.255-.468.695t-.171 1.094V144zm8.05.17q-.839 0-1.463-.34a2.32 2.32 0 0 1-.951-1.023q-.327-.681-.327-1.718v-4.246h1.42v4.09q0 1.008.44 1.519t1.264.511q.553 0 .994-.269.455-.27.71-.781.256-.512.256-1.25v-3.82h1.42V144h-1.264l-.1-1.221a2.4 2.4 0 0 1-.951 1.022q-.625.369-1.448.369m8.476 0q-.909 0-1.591-.298a2.6 2.6 0 0 1-1.079-.838 2.6 2.6 0 0 1-.483-1.263h1.449q.07.34.27.624.213.285.568.455.368.17.866.17.468 0 .767-.128a1 1 0 0 0 .454-.369 1 1 0 0 0 .142-.511q0-.398-.199-.596-.184-.213-.568-.327a6.4 6.4 0 0 0-.894-.227 8 8 0 0 1-.966-.227 4 4 0 0 1-.824-.384 1.8 1.8 0 0 1-.568-.568q-.213-.354-.213-.866 0-.611.327-1.093.327-.498.923-.767.61-.284 1.434-.284 1.193 0 1.917.568.725.567.852 1.604h-1.377q-.057-.482-.426-.738-.37-.27-.98-.27-.611 0-.937.242a.76.76 0 0 0-.327.639q0 .255.185.454t.539.341q.37.127.895.241.753.142 1.349.355.597.213.951.625.355.412.355 1.179.014.667-.34 1.178-.341.512-.98.795-.625.285-1.491.284m8.116 2.954v-10.281h1.278l.142 1.108q.228-.326.568-.611.341-.299.81-.483a3.1 3.1 0 0 1 1.122-.184q1.022 0 1.789.497.781.497 1.207 1.349.44.837.44 1.917 0 1.079-.44 1.931a3.36 3.36 0 0 1-1.221 1.321q-.767.482-1.79.482-.837 0-1.476-.326a2.6 2.6 0 0 1-1.009-.937v4.217zm3.678-4.189a2.12 2.12 0 0 0 1.946-1.193q.298-.568.298-1.32t-.298-1.307a2.1 2.1 0 0 0-.796-.88 2.04 2.04 0 0 0-1.15-.327q-.668 0-1.178.327a2.14 2.14 0 0 0-.781.88q-.284.554-.284 1.307t.284 1.32q.283.568.781.881.51.312 1.178.312m5.336 1.065v-10.224h1.42V144zm5.741.17q-.88 0-1.462-.298t-.867-.795a2.2 2.2 0 0 1-.284-1.093q0-.71.37-1.207.369-.512 1.05-.781.682-.27 1.633-.27h1.861q0-.625-.185-1.037a1.25 1.25 0 0 0-.554-.61q-.354-.213-.909-.213-.639 0-1.093.312-.454.298-.568.895h-1.42q.085-.753.511-1.278a2.8 2.8 0 0 1 1.122-.824 3.6 3.6 0 0 1 1.448-.298q1.01 0 1.69.355a2.34 2.34 0 0 1 1.023 1.008q.355.639.355 1.534V144h-1.236l-.113-1.207a3.5 3.5 0 0 1-.37.54q-.213.255-.511.44a2.3 2.3 0 0 1-.667.284 2.8 2.8 0 0 1-.824.113m.27-1.15a1.82 1.82 0 0 0 1.448-.681q.27-.327.398-.725.143-.411.156-.837v-.043h-1.69q-.61 0-.994.156-.37.142-.539.398-.171.255-.171.596 0 .355.157.611.17.242.482.383.313.142.753.142m8.05.98q-.668 0-1.164-.213a1.55 1.55 0 0 1-.767-.71q-.27-.497-.27-1.349v-3.678h-1.235v-1.207h1.235l.17-1.789h1.25v1.789h2.031v1.207h-2.031v3.692q0 .611.256.838.255.213.88.213h.824V144zm5.859.17q-1.023 0-1.818-.468a3.3 3.3 0 0 1-1.249-1.307q-.44-.837-.44-1.945 0-1.135.44-1.974a3.3 3.3 0 0 1 1.249-1.32q.795-.483 1.846-.483t1.804.468q.752.469 1.164 1.25.412.766.412 1.704 0 .143-.014.312 0 .157-.014.355h-5.851v-1.008h4.459q-.042-.894-.596-1.391-.555-.512-1.378-.512-.582 0-1.065.27a1.96 1.96 0 0 0-.781.767q-.284.497-.284 1.264v.397q0 .796.284 1.349.298.54.781.824.483.27 1.051.27.681 0 1.122-.298.44-.299.653-.81h1.42a3.1 3.1 0 0 1-.625 1.179 3.1 3.1 0 0 1-1.093.809q-.64.298-1.477.298m7.357 0q-.88 0-1.463-.298-.581-.298-.866-.795a2.2 2.2 0 0 1-.284-1.093q0-.71.369-1.207.37-.512 1.051-.781.682-.27 1.633-.27h1.86q0-.625-.184-1.037a1.25 1.25 0 0 0-.554-.61q-.356-.213-.909-.213-.639 0-1.093.312-.454.298-.568.895h-1.42q.085-.753.511-1.278.44-.54 1.122-.824a3.6 3.6 0 0 1 1.448-.298q1.009 0 1.69.355t1.022 1.008q.355.639.355 1.534V144h-1.235l-.114-1.207a3.4 3.4 0 0 1-.369.54q-.213.255-.511.44a2.3 2.3 0 0 1-.667.284 2.8 2.8 0 0 1-.824.113m.27-1.15q.454 0 .823-.184.37-.185.625-.497.27-.327.398-.725.142-.411.156-.837v-.043h-1.69q-.61 0-.994.156-.37.142-.539.398-.171.255-.171.596 0 .355.156.611.171.242.483.383t.753.142m11.665 1.15q-.909 0-1.59-.298a2.6 2.6 0 0 1-1.08-.838 2.6 2.6 0 0 1-.482-1.263h1.448q.07.34.27.624.213.285.568.455.37.17.866.17.468 0 .767-.128a1 1 0 0 0 .454-.369 1 1 0 0 0 .142-.511q0-.398-.199-.596-.184-.213-.568-.327a6.4 6.4 0 0 0-.894-.227 8 8 0 0 1-.966-.227 4 4 0 0 1-.823-.384 1.8 1.8 0 0 1-.568-.568q-.213-.354-.213-.866 0-.611.326-1.093.327-.498.923-.767.61-.284 1.434-.284 1.194 0 1.917.568.725.567.852 1.604h-1.377q-.057-.482-.426-.738-.37-.27-.98-.27t-.937.242a.76.76 0 0 0-.327.639q0 .255.185.454.184.199.54.341.369.127.894.241a9 9 0 0 1 1.349.355q.597.213.952.625t.355 1.179a1.94 1.94 0 0 1-.341 1.178q-.34.512-.98.795-.624.285-1.491.284m4.583-.17v-7.157h1.42V144zm.724-8.506a.95.95 0 0 1-.681-.255.89.89 0 0 1-.256-.654q0-.383.256-.624a.95.95 0 0 1 .681-.256q.398 0 .668.256a.8.8 0 0 1 .269.624q0 .397-.269.654a.94.94 0 0 1-.668.255m5.666 8.506q-.668 0-1.164-.213a1.55 1.55 0 0 1-.767-.71q-.27-.497-.27-1.349v-3.678h-1.235v-1.207h1.235l.17-1.789h1.25v1.789h2.031v1.207h-2.031v3.692q0 .611.256.838.255.213.88.213h.824V144zm9.686.17q-1.022 0-1.817-.468a3.33 3.33 0 0 1-1.25-1.307q-.44-.837-.44-1.945 0-1.135.44-1.974a3.3 3.3 0 0 1 1.25-1.32q.795-.483 1.846-.483 1.05 0 1.803.468t1.165 1.25q.411.766.411 1.704 0 .143-.014.312 0 .157-.014.355h-5.85v-1.008h4.458q-.042-.894-.596-1.391-.553-.512-1.377-.512-.583 0-1.065.27a1.96 1.96 0 0 0-.781.767q-.284.497-.284 1.264v.397q0 .796.284 1.349.298.54.781.824.482.27 1.05.27.683 0 1.122-.298.44-.299.653-.81h1.42a3.15 3.15 0 0 1-.624 1.179q-.44.511-1.094.809-.639.298-1.477.298m7.613 0q-.838 0-1.463-.34a2.32 2.32 0 0 1-.951-1.023q-.327-.681-.327-1.718v-4.246h1.42v4.09q0 1.008.441 1.519.44.511 1.263.511.555 0 .994-.269.455-.27.71-.781.256-.512.256-1.25v-3.82h1.42V144h-1.264l-.099-1.221a2.4 2.4 0 0 1-.952 1.022q-.624.369-1.448.369m9.44-.17v-7.157h1.42V144zm.724-8.506a.95.95 0 0 1-.682-.255.9.9 0 0 1-.255-.654.82.82 0 0 1 .255-.624.95.95 0 0 1 .682-.256.93.93 0 0 1 .667.256q.27.241.27.624 0 .397-.27.654a.93.93 0 0 1-.667.255m5.907 8.676q-1.022 0-1.803-.482a3.46 3.46 0 0 1-1.221-1.335q-.426-.852-.426-1.931 0-1.094.426-1.932a3.35 3.35 0 0 1 1.221-1.32q.795-.498 1.817-.497.838 0 1.477.341.639.326.994.937v-4.175h1.42V144h-1.264l-.156-1.108a3 3 0 0 1-.554.625q-.34.285-.823.469a3.1 3.1 0 0 1-1.108.184m.227-1.235q.668 0 1.179-.312.511-.313.781-.881.284-.568.284-1.32t-.284-1.307a2.02 2.02 0 0 0-.781-.88 2.14 2.14 0 0 0-1.179-.327q-.639 0-1.15.327a2.1 2.1 0 0 0-.795.88q-.284.554-.284 1.307t.284 1.32q.284.568.795.881.511.312 1.15.312m9.253 1.065v-7.157h1.278l.085 1.221q.34-.639.966-1.008a2.7 2.7 0 0 1 1.434-.383q.852 0 1.463.341.61.34.951 1.036.34.682.341 1.718V144h-1.42v-4.09q0-.993-.44-1.505-.441-.511-1.278-.511-.555 0-.994.27-.44.255-.71.767-.256.51-.256 1.249V144zm8.434 0v-7.157h1.42V144zm.724-8.506a.95.95 0 0 1-.682-.255.9.9 0 0 1-.255-.654.82.82 0 0 1 .255-.624.95.95 0 0 1 .682-.256.93.93 0 0 1 .667.256q.27.241.27.624 0 .397-.27.654a.93.93 0 0 1-.667.255m5.495 8.676q-.909 0-1.59-.298a2.6 2.6 0 0 1-1.079-.838 2.6 2.6 0 0 1-.483-1.263h1.448q.072.34.27.624.213.285.568.455.37.17.866.17.469 0 .767-.128a1 1 0 0 0 .454-.369 1 1 0 0 0 .142-.511q0-.398-.198-.596-.185-.213-.568-.327a6.4 6.4 0 0 0-.895-.227 8 8 0 0 1-.966-.227 4 4 0 0 1-.823-.384 1.8 1.8 0 0 1-.568-.568q-.213-.354-.213-.866 0-.611.326-1.093.327-.498.923-.767.612-.284 1.435-.284 1.193 0 1.917.568.723.567.852 1.604h-1.378q-.057-.482-.426-.738-.368-.27-.98-.27-.61 0-.937.242a.76.76 0 0 0-.326.639q0 .255.184.454t.54.341q.369.127.894.241a9 9 0 0 1 1.349.355q.597.213.952.625t.355 1.179a1.94 1.94 0 0 1-.341 1.178q-.34.512-.98.795-.624.285-1.491.284m4.583-.17v-7.157h1.42V144zm.724-8.506a.95.95 0 0 1-.681-.255.89.89 0 0 1-.256-.654q0-.383.256-.624a.95.95 0 0 1 .681-.256q.398 0 .668.256.27.241.27.624 0 .397-.27.654a.94.94 0 0 1-.668.255M263.966 165v-10.224h1.42V165zm3.469 0v-7.157h1.42V165zm.724-8.506a.95.95 0 0 1-.682-.255.9.9 0 0 1-.255-.654.82.82 0 0 1 .255-.624.95.95 0 0 1 .682-.256.93.93 0 0 1 .667.256q.27.241.27.624 0 .397-.27.654a.93.93 0 0 1-.667.255m5.666 8.506q-.667 0-1.165-.213a1.55 1.55 0 0 1-.766-.71q-.27-.497-.27-1.349v-3.678h-1.236v-1.207h1.236l.17-1.789h1.25v1.789h2.03v1.207h-2.03v3.692q0 .611.255.838.256.213.881.213h.823V165zm5.887.17a3.57 3.57 0 0 1-1.818-.468 3.4 3.4 0 0 1-1.263-1.307q-.455-.852-.455-1.959 0-1.136.469-1.974a3.36 3.36 0 0 1 1.278-1.321 3.56 3.56 0 0 1 1.817-.468q1.023 0 1.818.468t1.25 1.307q.468.837.468 1.974 0 1.136-.468 1.973a3.3 3.3 0 0 1-1.264 1.307q-.81.468-1.832.468m0-1.221q.582 0 1.051-.284.483-.283.767-.838.298-.567.298-1.405t-.284-1.392a1.98 1.98 0 0 0-1.804-1.136q-.567 0-1.05.284a2.07 2.07 0 0 0-.781.852q-.284.554-.284 1.392t.284 1.405q.298.555.766.838.483.285 1.037.284m5.235 1.051v-7.157h1.278l.127 1.349a2.55 2.55 0 0 1 .625-.809 2.7 2.7 0 0 1 .895-.526q.525-.184 1.193-.184v1.505h-.512q-.44 0-.837.114a1.8 1.8 0 0 0-.71.355q-.298.255-.469.695t-.17 1.094V165zm7.793.17q-.88 0-1.462-.298-.583-.298-.867-.795a2.2 2.2 0 0 1-.284-1.093q0-.71.37-1.207.369-.512 1.05-.781.682-.27 1.633-.27h1.861q0-.625-.185-1.037a1.25 1.25 0 0 0-.554-.61q-.355-.213-.909-.213-.639 0-1.093.312-.454.298-.568.895h-1.42q.085-.753.511-1.278a2.8 2.8 0 0 1 1.122-.824 3.6 3.6 0 0 1 1.448-.298q1.008 0 1.69.355a2.34 2.34 0 0 1 1.023 1.008q.355.639.355 1.534V165h-1.236l-.113-1.207a3.5 3.5 0 0 1-.37.54q-.213.255-.511.44a2.3 2.3 0 0 1-.667.284 2.8 2.8 0 0 1-.824.113m.27-1.15a1.82 1.82 0 0 0 1.448-.681q.27-.327.398-.725.143-.411.156-.837v-.043h-1.69q-.61 0-.994.156-.37.142-.539.398-.171.255-.171.596 0 .355.157.611.17.242.482.383.313.142.753.142m8.896.98v-10.224h1.42V165zm3.469 0v-7.157h1.42V165zm.725-8.506a.95.95 0 0 1-.682-.255.9.9 0 0 1-.256-.654q0-.383.256-.624a.95.95 0 0 1 .682-.256.93.93 0 0 1 .667.256q.27.241.27.624 0 .397-.27.654a.93.93 0 0 1-.667.255m6.631 8.676q-.582 0-1.065-.17a2.7 2.7 0 0 1-.824-.44 2.8 2.8 0 0 1-.596-.653l-.142 1.093h-1.278v-10.224h1.42v4.189q.34-.54.951-.909.625-.383 1.534-.383 1.023 0 1.803.497.781.483 1.207 1.335.441.837.441 1.931 0 1.065-.441 1.917a3.23 3.23 0 0 1-1.207 1.335q-.78.482-1.803.482m-.227-1.235q.653 0 1.15-.312.511-.313.795-.881.298-.568.298-1.32t-.298-1.307a2.1 2.1 0 0 0-.795-.88 2.04 2.04 0 0 0-1.15-.327q-.668 0-1.179.327a2.15 2.15 0 0 0-.781.88q-.284.554-.284 1.307t.284 1.32q.284.568.781.881.512.312 1.179.312m8.573 1.235q-1.022 0-1.817-.468a3.3 3.3 0 0 1-1.25-1.307q-.44-.837-.44-1.945 0-1.135.44-1.974a3.3 3.3 0 0 1 1.25-1.32q.795-.483 1.846-.483 1.05 0 1.803.468t1.164 1.25q.412.766.412 1.704 0 .143-.014.312 0 .157-.014.355h-5.851v-1.008h4.459q-.042-.894-.596-1.391-.554-.512-1.378-.512-.582 0-1.065.27a1.97 1.97 0 0 0-.781.767q-.284.497-.284 1.264v.397q0 .796.284 1.349.299.54.781.824.483.27 1.051.27.683 0 1.122-.298.44-.299.653-.81h1.42a3.1 3.1 0 0 1-.625 1.179 3.1 3.1 0 0 1-1.093.809q-.639.298-1.477.298m4.986-.17v-7.157h1.278l.128 1.349q.242-.483.624-.809a2.7 2.7 0 0 1 .895-.526q.525-.184 1.193-.184v1.505h-.511q-.44 0-.838.114a1.8 1.8 0 0 0-.71.355q-.298.255-.469.695t-.17 1.094V165zm8.466.17a3.57 3.57 0 0 1-1.818-.468 3.4 3.4 0 0 1-1.263-1.307q-.455-.852-.455-1.959 0-1.136.469-1.974a3.36 3.36 0 0 1 1.278-1.321 3.56 3.56 0 0 1 1.817-.468q1.023 0 1.818.468t1.25 1.307q.468.837.468 1.974 0 1.136-.468 1.973a3.3 3.3 0 0 1-1.264 1.307q-.81.468-1.832.468m0-1.221q.582 0 1.051-.284.483-.283.767-.838.298-.567.298-1.405t-.284-1.392a1.98 1.98 0 0 0-1.804-1.136q-.567 0-1.05.284a2.07 2.07 0 0 0-.781.852q-.284.554-.284 1.392t.284 1.405q.298.555.766.838.483.285 1.037.284m5.803 1.122a.95.95 0 0 1-.682-.256.9.9 0 0 1-.256-.639.87.87 0 0 1 .256-.639.93.93 0 0 1 .682-.269.88.88 0 0 1 .667.269.87.87 0 0 1 .256.639q0 .37-.256.639-.255.256-.667.256M264.037 199v-9.94h3.393q1.194 0 1.96.398.767.398 1.136 1.065t.369 1.519a3.1 3.1 0 0 1-.369 1.491q-.356.668-1.122 1.079-.767.398-1.974.398h-1.973V199zm1.42-5.169h1.917q1.121 0 1.59-.483.483-.496.483-1.306 0-.865-.483-1.335-.469-.468-1.59-.468h-1.917zm6.898 5.169v-10.224h1.42v4.232q.356-.626.98-.98a2.84 2.84 0 0 1 1.406-.355q.852 0 1.462.355.612.341.938 1.036.326.683.326 1.719V199h-1.406v-4.061q0-1.008-.426-1.52-.426-.525-1.263-.525-.569 0-1.023.27t-.724.795q-.27.511-.27 1.25V199zm10.72.17q-.88 0-1.463-.298-.582-.298-.866-.795a2.2 2.2 0 0 1-.284-1.093q0-.71.369-1.207.369-.512 1.051-.781.681-.27 1.633-.27h1.86q0-.625-.185-1.037a1.25 1.25 0 0 0-.553-.61q-.356-.213-.909-.213-.64 0-1.094.312-.454.298-.568.895h-1.42q.086-.753.512-1.278a2.8 2.8 0 0 1 1.121-.824 3.6 3.6 0 0 1 1.449-.298q1.008 0 1.69.355t1.022 1.008q.355.639.355 1.534V199h-1.235l-.114-1.207a3.4 3.4 0 0 1-.369.54q-.213.255-.511.44-.284.185-.668.284a2.8 2.8 0 0 1-.823.113m.269-1.15q.455 0 .824-.184.369-.185.625-.497.27-.327.397-.725.142-.411.157-.837v-.043h-1.69q-.611 0-.994.156-.369.142-.54.398-.17.255-.17.596 0 .355.156.611.171.242.483.383t.752.142m8.033 1.15q-.909 0-1.591-.298a2.6 2.6 0 0 1-1.079-.838 2.6 2.6 0 0 1-.483-1.263h1.449q.07.34.269.624.213.285.568.455.37.17.867.17.469 0 .766-.128a1 1 0 0 0 .455-.369 1 1 0 0 0 .142-.511q0-.398-.199-.596-.184-.213-.568-.327a6.4 6.4 0 0 0-.895-.227 8 8 0 0 1-.965-.227 4 4 0 0 1-.824-.384 1.8 1.8 0 0 1-.568-.568q-.213-.354-.213-.866 0-.611.327-1.093.327-.498.923-.767.61-.285 1.434-.284 1.193 0 1.917.568.724.567.852 1.604h-1.377q-.057-.482-.426-.738-.37-.27-.98-.27-.611 0-.937.242a.76.76 0 0 0-.327.639q0 .255.185.454t.539.341q.37.127.895.241.753.142 1.349.355t.951.625.355 1.179q.015.667-.341 1.178-.34.512-.979.795-.625.285-1.491.284m7.721 0q-1.023 0-1.818-.468a3.3 3.3 0 0 1-1.249-1.307q-.441-.837-.441-1.945 0-1.135.441-1.974a3.3 3.3 0 0 1 1.249-1.32q.796-.483 1.846-.483t1.804.468q.751.469 1.164 1.25.411.766.412 1.704 0 .142-.014.312 0 .157-.015.355h-5.85v-1.008h4.459q-.043-.894-.597-1.391-.554-.512-1.377-.512-.582 0-1.065.27a1.96 1.96 0 0 0-.781.767q-.284.497-.284 1.264v.397q0 .796.284 1.349.298.54.781.824.483.27 1.051.27.681 0 1.122-.298.44-.299.653-.81h1.42a3.15 3.15 0 0 1-.625 1.179q-.44.511-1.093.809-.64.298-1.477.298m4.985-.17v-10.224h1.42V199zm3.37 0v-10.224h1.42V199zm5.997.17q-.838 0-1.463-.34a2.32 2.32 0 0 1-.951-1.023q-.327-.681-.327-1.718v-4.246h1.42v4.09q0 1.008.44 1.519t1.264.511q.554 0 .994-.269.455-.27.71-.781.256-.512.256-1.25v-3.82h1.42V199h-1.264l-.099-1.221a2.4 2.4 0 0 1-.952 1.022q-.624.369-1.448.369m8.476 0q-.909 0-1.59-.298a2.6 2.6 0 0 1-1.08-.838 2.6 2.6 0 0 1-.482-1.263h1.448q.07.34.27.624.213.285.568.455.37.17.866.17.468 0 .767-.128a1 1 0 0 0 .454-.369 1 1 0 0 0 .142-.511q0-.398-.199-.596-.184-.213-.568-.327a6.4 6.4 0 0 0-.894-.227 8 8 0 0 1-.966-.227 4 4 0 0 1-.823-.384 1.8 1.8 0 0 1-.568-.568q-.213-.354-.213-.866a1.9 1.9 0 0 1 .326-1.093q.327-.498.923-.767.61-.285 1.434-.284 1.194 0 1.917.568.725.567.852 1.604h-1.377q-.057-.482-.426-.738-.37-.27-.98-.27t-.937.242a.76.76 0 0 0-.327.639q0 .255.185.454.184.199.54.341.369.127.894.241a9 9 0 0 1 1.349.355q.597.213.952.625.354.412.355 1.179.013.667-.341 1.178-.34.512-.98.795-.625.285-1.491.284m8.5-.17v-8.122q0-.74.242-1.207.255-.47.738-.682t1.164-.213h.838v1.207h-.61q-.511 0-.739.213-.213.199-.213.71V199zm-1.051-5.95v-1.207h4.189v1.207zm8.592 6.12q-1.022 0-1.817-.468a3.33 3.33 0 0 1-1.25-1.307q-.44-.837-.44-1.945 0-1.135.44-1.974a3.3 3.3 0 0 1 1.25-1.32q.795-.483 1.846-.483 1.05 0 1.803.468t1.165 1.25q.411.766.411 1.704 0 .142-.014.312 0 .157-.014.355h-5.85v-1.008h4.458q-.042-.894-.596-1.391-.553-.512-1.377-.512-.582 0-1.065.27a1.96 1.96 0 0 0-.781.767q-.285.497-.284 1.264v.397q0 .796.284 1.349.297.54.781.824.483.27 1.05.27.683 0 1.122-.298.44-.299.653-.81h1.42a3.15 3.15 0 0 1-.624 1.179q-.44.511-1.094.809-.639.298-1.477.298m4.986-.17v-7.157h1.278l.128 1.349q.241-.483.625-.809.382-.341.894-.526a3.6 3.6 0 0 1 1.193-.184v1.505h-.511q-.44 0-.838.114a1.8 1.8 0 0 0-.71.355q-.298.255-.469.695t-.17 1.094V199zm5.422 0v-7.157h1.278l.1 1.008a2.4 2.4 0 0 1 .908-.866 2.6 2.6 0 0 1 1.278-.312q.54 0 .98.156.44.142.781.44.34.298.554.739a2.74 2.74 0 0 1 1.022-.98 2.84 2.84 0 0 1 1.378-.355q.865 0 1.491.355.624.341.951 1.036.327.683.327 1.704V199h-1.406v-4.09q0-.993-.412-1.505-.398-.511-1.178-.511-.526 0-.938.27t-.653.781q-.227.511-.227 1.249V199h-1.42v-4.09q0-.993-.412-1.505-.398-.511-1.178-.511-.498 0-.909.27t-.653.781-.242 1.249V199zm16.12.17q-1.022 0-1.817-.468a3.33 3.33 0 0 1-1.25-1.307q-.44-.837-.44-1.945 0-1.135.44-1.974a3.3 3.3 0 0 1 1.25-1.32q.795-.483 1.846-.483 1.05 0 1.803.468t1.165 1.25q.411.766.411 1.704 0 .142-.014.312 0 .157-.014.355h-5.85v-1.008h4.458q-.042-.894-.596-1.391-.553-.512-1.377-.512-.584 0-1.065.27a1.96 1.96 0 0 0-.781.767q-.284.497-.284 1.264v.397q0 .796.284 1.349.297.54.781.824.482.27 1.05.27.683 0 1.122-.298.44-.299.653-.81h1.42a3.15 3.15 0 0 1-.624 1.179q-.44.511-1.094.809-.639.298-1.477.298m4.986-.17v-7.157h1.278l.085 1.221q.34-.639.966-1.008a2.7 2.7 0 0 1 1.434-.383q.852 0 1.463.341.61.34.951 1.036.34.682.341 1.718V199h-1.42v-4.09q0-.993-.44-1.505-.441-.511-1.278-.511-.555 0-.994.27-.441.255-.71.767-.256.51-.256 1.249V199zm11.274 0q-.667 0-1.165-.213a1.55 1.55 0 0 1-.767-.71q-.269-.497-.269-1.349v-3.678h-1.236v-1.207h1.236l.17-1.789h1.25v1.789h2.03v1.207h-2.03v3.692q0 .611.255.838.256.213.881.213h.823V199zm5.442.17q-.837 0-1.463-.34a2.32 2.32 0 0 1-.951-1.023q-.327-.681-.327-1.718v-4.246h1.42v4.09q0 1.008.441 1.519.44.511 1.263.511.555 0 .994-.269.455-.27.71-.781.256-.512.256-1.25v-3.82h1.42V199h-1.264l-.099-1.221a2.4 2.4 0 0 1-.952 1.022q-.624.369-1.448.369m5.707-.17v-7.157h1.278l.1 1.008a2.4 2.4 0 0 1 .908-.866 2.6 2.6 0 0 1 1.278-.312q.54 0 .98.156.44.142.781.44.34.298.554.739a2.74 2.74 0 0 1 1.022-.98 2.84 2.84 0 0 1 1.378-.355q.865 0 1.491.355.625.341.951 1.036.327.683.327 1.704V199h-1.406v-4.09q0-.993-.412-1.505-.398-.511-1.178-.511-.526 0-.938.27t-.653.781q-.227.511-.227 1.249V199h-1.42v-4.09q0-.993-.412-1.505-.398-.511-1.178-.511-.498 0-.909.27t-.653.781-.242 1.249V199zm-127.938 21v-7.157h1.278l.099 1.008q.34-.554.909-.866a2.6 2.6 0 0 1 1.278-.312q.54 0 .98.156.44.142.781.44.34.298.553.739a2.74 2.74 0 0 1 1.023-.98 2.84 2.84 0 0 1 1.377-.355q.867 0 1.491.355.625.341.952 1.036.326.683.326 1.704V220h-1.406v-4.09q0-.993-.411-1.505-.398-.511-1.179-.511-.526 0-.937.27t-.653.781q-.228.511-.228 1.249V220h-1.42v-4.09q0-.993-.411-1.505-.398-.511-1.179-.511-.497 0-.909.27-.411.27-.653.781-.241.511-.241 1.249V220zm15.254.17q-.88 0-1.463-.298-.582-.298-.866-.795a2.2 2.2 0 0 1-.284-1.093q0-.71.369-1.207.369-.512 1.051-.781.681-.27 1.633-.27h1.86q0-.625-.185-1.037a1.25 1.25 0 0 0-.553-.61q-.356-.213-.909-.213-.64 0-1.094.312-.454.298-.568.895h-1.42q.086-.753.512-1.278a2.8 2.8 0 0 1 1.121-.824 3.6 3.6 0 0 1 1.449-.298q1.008 0 1.69.355t1.022 1.008q.355.639.355 1.534V220h-1.235l-.114-1.207a3.4 3.4 0 0 1-.369.54q-.213.255-.511.44-.284.185-.668.284a2.8 2.8 0 0 1-.823.113m.269-1.15q.455 0 .824-.184.369-.185.625-.497.27-.327.397-.725.142-.411.157-.837v-.043h-1.69q-.611 0-.994.156-.369.142-.54.398-.17.255-.17.596 0 .355.156.611.171.242.483.383t.752.142m5.264.98v-10.224h1.42V220zm6.607.17q-1.023 0-1.818-.468a3.3 3.3 0 0 1-1.249-1.307q-.441-.837-.441-1.945 0-1.135.441-1.974a3.3 3.3 0 0 1 1.249-1.32q.796-.483 1.846-.483t1.804.468q.752.469 1.164 1.25.412.766.412 1.704 0 .142-.014.312 0 .157-.015.355h-5.85v-1.008h4.459q-.043-.894-.597-1.391-.553-.512-1.377-.512-.582 0-1.065.27a1.96 1.96 0 0 0-.781.767q-.284.497-.284 1.264v.397q0 .796.284 1.349.298.54.781.824.483.27 1.051.27.681 0 1.122-.298.44-.299.653-.81h1.42a3.1 3.1 0 0 1-.625 1.179 3.1 3.1 0 0 1-1.093.809q-.64.298-1.477.298m7.754 0q-.908 0-1.59-.298a2.6 2.6 0 0 1-1.079-.838 2.6 2.6 0 0 1-.483-1.263h1.448q.072.34.27.624.214.285.568.455.37.17.866.17.469 0 .767-.128a1 1 0 0 0 .455-.369 1 1 0 0 0 .142-.511q0-.398-.199-.596-.185-.213-.568-.327a6.4 6.4 0 0 0-.895-.227 8 8 0 0 1-.965-.227 4 4 0 0 1-.824-.384 1.8 1.8 0 0 1-.568-.568q-.213-.354-.213-.866 0-.611.327-1.093.326-.498.923-.767.61-.285 1.434-.284 1.193 0 1.917.568.725.567.852 1.604h-1.378q-.055-.482-.426-.738-.369-.27-.979-.27t-.938.242a.76.76 0 0 0-.326.639q0 .255.184.454.185.199.54.341.369.127.895.241.752.142 1.349.355.595.213.951.625.355.412.355 1.179.015.667-.341 1.178-.34.512-.98.795-.624.285-1.491.284m7.111 0q-.838 0-1.463-.34a2.32 2.32 0 0 1-.951-1.023q-.327-.681-.327-1.718v-4.246h1.42v4.09q0 1.008.441 1.519.44.511 1.263.511.555 0 .994-.269.455-.27.71-.781.256-.512.256-1.25v-3.82h1.42V220h-1.264l-.099-1.221a2.4 2.4 0 0 1-.952 1.022q-.624.369-1.448.369m8.079 0q-.88 0-1.463-.298-.582-.298-.866-.795a2.2 2.2 0 0 1-.284-1.093q0-.71.369-1.207.369-.512 1.051-.781.682-.27 1.633-.27h1.86q0-.625-.185-1.037a1.25 1.25 0 0 0-.553-.61q-.356-.213-.909-.213-.64 0-1.094.312-.454.298-.568.895h-1.42q.086-.753.512-1.278a2.8 2.8 0 0 1 1.121-.824 3.6 3.6 0 0 1 1.449-.298q1.008 0 1.69.355t1.022 1.008q.355.639.355 1.534V220h-1.235l-.114-1.207a3.4 3.4 0 0 1-.369.54q-.214.255-.511.44-.284.185-.668.284a2.8 2.8 0 0 1-.823.113m.269-1.15q.455 0 .824-.184.369-.185.625-.497.27-.327.397-.725.142-.411.157-.837v-.043h-1.69q-.611 0-.994.156-.369.142-.54.398-.17.255-.17.596 0 .355.156.611.171.242.483.383t.752.142m8.444 1.15q-1.022 0-1.803-.482a3.46 3.46 0 0 1-1.221-1.335q-.426-.852-.426-1.931 0-1.094.426-1.932a3.35 3.35 0 0 1 1.221-1.32q.795-.498 1.817-.497.838 0 1.477.341.64.326.994.937v-4.175h1.42V220h-1.264l-.156-1.108a3 3 0 0 1-.554.625q-.34.285-.823.469a3.1 3.1 0 0 1-1.108.184m.227-1.235q.668 0 1.179-.312.511-.313.781-.881.284-.568.284-1.32t-.284-1.307a2.02 2.02 0 0 0-.781-.88 2.14 2.14 0 0 0-1.179-.327q-.639 0-1.15.327a2.1 2.1 0 0 0-.795.88q-.284.554-.284 1.307t.284 1.32q.284.568.795.881.511.312 1.15.312m7.991 1.235q-.88 0-1.462-.298t-.866-.795a2.2 2.2 0 0 1-.284-1.093q0-.71.369-1.207.369-.512 1.051-.781.68-.27 1.633-.27h1.86q0-.625-.185-1.037a1.24 1.24 0 0 0-.554-.61q-.354-.213-.908-.213-.64 0-1.094.312-.454.298-.568.895h-1.42q.085-.753.511-1.278a2.8 2.8 0 0 1 1.122-.824 3.6 3.6 0 0 1 1.449-.298q1.008 0 1.689.355.683.355 1.023 1.008.355.639.355 1.534V220h-1.236l-.113-1.207a3.4 3.4 0 0 1-.369.54 2.1 2.1 0 0 1-.512.44 2.2 2.2 0 0 1-.667.284 2.8 2.8 0 0 1-.824.113m.27-1.15q.455 0 .824-.184.369-.185.625-.497.27-.327.397-.725.142-.411.156-.837v-.043h-1.689q-.611 0-.994.156-.369.142-.54.398-.17.255-.17.596 0 .355.156.611.17.242.483.383t.752.142m8.897 4.104v-10.281h1.278l.142 1.108q.226-.326.568-.611.34-.299.809-.483a3.1 3.1 0 0 1 1.122-.184q1.022 0 1.789.497.781.497 1.207 1.349.44.837.44 1.917 0 1.079-.44 1.931a3.36 3.36 0 0 1-1.221 1.321q-.767.482-1.789.482-.838 0-1.477-.326a2.6 2.6 0 0 1-1.008-.937v4.217zm3.677-4.189a2.1 2.1 0 0 0 1.151-.312q.51-.313.795-.881.298-.568.298-1.32t-.298-1.307a2.1 2.1 0 0 0-.795-.88 2.05 2.05 0 0 0-1.151-.327q-.667 0-1.178.327a2.14 2.14 0 0 0-.781.88q-.284.554-.284 1.307t.284 1.32q.283.568.781.881.511.312 1.178.312m5.336 1.065v-10.224h1.42v4.232q.355-.626.98-.98a2.84 2.84 0 0 1 1.406-.355q.852 0 1.462.355.61.341.938 1.036.326.683.326 1.719V220h-1.406v-4.061q0-1.008-.426-1.52-.426-.525-1.263-.525-.569 0-1.023.27t-.724.795q-.27.511-.27 1.25V220zm10.72.17q-.88 0-1.463-.298-.582-.298-.866-.795a2.2 2.2 0 0 1-.284-1.093q0-.71.369-1.207.369-.512 1.051-.781.682-.27 1.633-.27h1.86q0-.625-.185-1.037a1.25 1.25 0 0 0-.553-.61q-.356-.213-.909-.213-.64 0-1.094.312-.454.298-.568.895h-1.42q.086-.753.512-1.278a2.8 2.8 0 0 1 1.121-.824 3.6 3.6 0 0 1 1.449-.298q1.008 0 1.69.355t1.022 1.008q.355.639.355 1.534V220h-1.235l-.114-1.207a3.4 3.4 0 0 1-.369.54q-.213.255-.511.44-.284.185-.668.284a2.8 2.8 0 0 1-.823.113m.269-1.15q.455 0 .824-.184.369-.185.625-.497.27-.327.397-.725.142-.411.157-.837v-.043h-1.69q-.611 0-.994.156-.369.142-.54.398-.17.255-.17.596 0 .355.156.611.171.242.483.383t.752.142m8.033 1.15q-.909 0-1.591-.298a2.6 2.6 0 0 1-1.079-.838 2.6 2.6 0 0 1-.483-1.263h1.449q.07.34.269.624.214.285.568.455.369.17.867.17.468 0 .766-.128a1 1 0 0 0 .455-.369 1 1 0 0 0 .142-.511q0-.398-.199-.596-.184-.213-.568-.327a6.4 6.4 0 0 0-.895-.227 8 8 0 0 1-.965-.227 4 4 0 0 1-.824-.384 1.8 1.8 0 0 1-.568-.568q-.213-.354-.213-.866 0-.611.327-1.093.326-.498.923-.767.61-.285 1.434-.284 1.193 0 1.917.568.725.567.852 1.604h-1.377q-.057-.482-.426-.738-.37-.27-.98-.27-.611 0-.937.242a.76.76 0 0 0-.327.639q0 .255.185.454.184.199.539.341.369.127.895.241.752.142 1.349.355.596.213.951.625t.355 1.179q.015.667-.341 1.178-.34.512-.979.795-.625.285-1.491.284m7.721 0q-1.023 0-1.818-.468a3.33 3.33 0 0 1-1.25-1.307q-.44-.837-.44-1.945 0-1.135.44-1.974a3.3 3.3 0 0 1 1.25-1.32q.796-.483 1.846-.483 1.052 0 1.803.468.753.469 1.165 1.25.411.766.412 1.704 0 .142-.015.312 0 .157-.014.355h-5.85v-1.008h4.459q-.043-.894-.597-1.391-.553-.512-1.377-.512-.582 0-1.065.27a1.96 1.96 0 0 0-.781.767q-.284.497-.284 1.264v.397q0 .796.284 1.349.298.54.781.824.483.27 1.051.27.681 0 1.121-.298a1.8 1.8 0 0 0 .654-.81h1.42a3.15 3.15 0 0 1-.625 1.179q-.44.511-1.094.809-.639.298-1.476.298m4.985-.17v-10.224h1.42V220zm3.37 0v-10.224h1.42V220zm5.997.17q-.838 0-1.463-.34a2.32 2.32 0 0 1-.951-1.023q-.327-.681-.327-1.718v-4.246h1.42v4.09q0 1.008.44 1.519t1.264.511q.554 0 .994-.269.455-.27.71-.781.256-.512.256-1.25v-3.82h1.42V220h-1.264l-.099-1.221a2.4 2.4 0 0 1-.952 1.022q-.624.369-1.448.369m8.476 0q-.909 0-1.59-.298a2.6 2.6 0 0 1-1.08-.838 2.6 2.6 0 0 1-.482-1.263h1.448q.07.34.27.624.213.285.568.455.37.17.866.17.468 0 .767-.128a1 1 0 0 0 .454-.369 1 1 0 0 0 .142-.511q0-.398-.199-.596-.184-.213-.568-.327a6.4 6.4 0 0 0-.894-.227 8 8 0 0 1-.966-.227 4 4 0 0 1-.823-.384 1.8 1.8 0 0 1-.568-.568q-.213-.354-.213-.866a1.9 1.9 0 0 1 .326-1.093q.327-.498.923-.767.61-.285 1.434-.284 1.194 0 1.917.568.724.567.852 1.604h-1.377q-.057-.482-.426-.738-.37-.27-.98-.27t-.937.242a.76.76 0 0 0-.327.639q0 .255.185.454.184.199.54.341.369.127.894.241a9 9 0 0 1 1.349.355q.597.213.952.625.354.412.355 1.179.013.667-.341 1.178-.34.512-.98.795-.625.285-1.491.284m8.117-.17v-7.157h1.278l.085 1.221q.34-.639.966-1.008a2.7 2.7 0 0 1 1.434-.383q.852 0 1.462.341.611.34.952 1.036.34.682.341 1.718V220h-1.42v-4.09q0-.993-.441-1.505-.44-.511-1.278-.511-.553 0-.994.27-.44.255-.71.767-.255.51-.255 1.249V220zm11.571.17q-1.022 0-1.817-.468a3.33 3.33 0 0 1-1.25-1.307q-.44-.837-.44-1.945 0-1.135.44-1.974a3.3 3.3 0 0 1 1.25-1.32q.795-.483 1.846-.483 1.05 0 1.803.468t1.165 1.25q.411.766.411 1.704 0 .142-.014.312 0 .157-.014.355h-5.85v-1.008h4.458q-.042-.894-.596-1.391-.554-.512-1.377-.512-.582 0-1.065.27a1.96 1.96 0 0 0-.781.767q-.284.497-.284 1.264v.397q0 .796.284 1.349.297.54.781.824.483.27 1.05.27.683 0 1.122-.298.44-.299.653-.81h1.42a3.15 3.15 0 0 1-.624 1.179q-.44.511-1.094.809-.639.298-1.477.298m7.731-.17q-.668 0-1.164-.213a1.55 1.55 0 0 1-.767-.71q-.27-.497-.27-1.349v-3.678h-1.235v-1.207h1.235l.171-1.789h1.249v1.789h2.031v1.207h-2.031v3.692q0 .611.256.838.255.213.88.213h.824V220zm5.443.17q-.838 0-1.463-.34a2.32 2.32 0 0 1-.951-1.023q-.327-.681-.327-1.718v-4.246h1.42v4.09q0 1.008.44 1.519t1.264.511q.554 0 .994-.269.455-.27.71-.781.256-.512.256-1.25v-3.82h1.42V220h-1.264l-.099-1.221a2.4 2.4 0 0 1-.952 1.022q-.624.369-1.448.369m8.476 0q-.909 0-1.59-.298a2.6 2.6 0 0 1-1.08-.838 2.6 2.6 0 0 1-.482-1.263h1.448q.07.34.27.624.213.285.568.455.37.17.866.17.468 0 .767-.128a1 1 0 0 0 .454-.369 1 1 0 0 0 .142-.511q0-.398-.199-.596-.184-.213-.568-.327a6.4 6.4 0 0 0-.894-.227 8 8 0 0 1-.966-.227 4 4 0 0 1-.823-.384 1.8 1.8 0 0 1-.568-.568q-.213-.354-.213-.866 0-.611.326-1.093.327-.498.923-.767.61-.285 1.434-.284 1.194 0 1.917.568.725.567.852 1.604h-1.377q-.057-.482-.426-.738-.37-.27-.98-.27t-.937.242a.76.76 0 0 0-.327.639q0 .255.185.454t.54.341q.369.127.894.241a9 9 0 0 1 1.349.355q.597.213.952.625t.355 1.179a1.94 1.94 0 0 1-.341 1.178q-.34.512-.98.795-.624.285-1.491.284m5.052-.099a.95.95 0 0 1-.682-.256.9.9 0 0 1-.256-.639.87.87 0 0 1 .256-.639.93.93 0 0 1 .682-.269.88.88 0 0 1 .667.269.87.87 0 0 1 .256.639q0 .37-.256.639-.255.256-.667.256"/><path stroke="#c2c2c2" d="M31.5 27.5h204v190h-204z"/><path fill="#fff" stroke="#c2c2c2" d="M28.5 24.5h7v7h-7zM231.5 24.5h7v7h-7zM28.5 214.5h7v7h-7zM231.5 214.5h7v7h-7z"/><path fill="#000" d="M175.54 166.806c-14.491 0-24.379-7.501-24.379-19.776 0-14.15 13.127-19.776 29.152-19.776 6.479 0 13.468 1.023 18.753 2.558v-17.56c0-10.229-2.387-18.412-13.809-18.412-7.671 0-12.274 3.75-15.172 7.842 4.432 1.876 7.16 6.479 7.16 11.082 0 6.307-5.115 11.422-11.593 11.422-7.331 0-11.252-6.137-11.252-11.934 0-10.74 12.957-19.435 32.051-19.435 16.877 0 35.971 6.99 35.971 26.595v36.995c0 3.921 2.046 5.285 4.603 5.285 4.774 0 8.865-5.285 11.252-9.036l.852.512c-4.262 6.819-10.058 13.468-21.139 13.468-9.547 0-15.514-4.944-17.73-11.934-4.603 6.308-11.934 12.104-24.72 12.104m10.57-4.773c4.944 0 9.206-2.899 12.956-7.843v-23.014c-3.068-.853-6.649-1.705-10.058-1.705-9.206 0-13.98 5.626-13.98 16.536 0 9.036 3.41 16.026 11.082 16.026M24 164.931v-1.023c18.071 0 24.72-18.242 32.391-35.631l30.175-69.556h1.194l39.21 82.854c4.944 10.74 11.593 22.333 22.504 22.333v1.023h-60.18v-1.023c12.445 0 15.002-9.547 9.547-21.822l-5.455-11.933H57.414l-1.193 3.068c-5.967 16.196-4.774 30.687 14.661 30.687v1.023zm34.267-36.483h34.266l-17.56-38.7z"/><path fill="#333" d="M29.439 253.17q-1.491 0-2.57-.639a4.4 4.4 0 0 1-1.648-1.803q-.567-1.164-.568-2.684 0-1.519.568-2.684a4.4 4.4 0 0 1 1.647-1.817q1.08-.653 2.57-.653 1.804 0 2.954.894 1.15.895 1.434 2.528H31.74q-.184-.795-.781-1.236-.582-.454-1.534-.454-.88 0-1.519.426-.625.412-.966 1.179-.34.752-.34 1.817 0 1.052.34 1.818.342.767.966 1.178.638.412 1.52.412.951 0 1.533-.412.582-.425.767-1.178h2.101q-.284 1.548-1.434 2.428t-2.953.88m9.361 0a3.67 3.67 0 0 1-1.846-.468 3.6 3.6 0 0 1-1.292-1.321q-.468-.852-.468-1.945 0-1.122.468-1.96a3.43 3.43 0 0 1 1.307-1.32 3.6 3.6 0 0 1 1.846-.483q1.035 0 1.846.483.824.468 1.292 1.32.483.838.483 1.946 0 1.107-.483 1.959a3.46 3.46 0 0 1-1.292 1.321q-.825.468-1.86.468m0-1.661q.483 0 .852-.227.384-.228.597-.696.227-.469.227-1.164 0-.696-.227-1.151a1.5 1.5 0 0 0-.597-.695 1.5 1.5 0 0 0-.837-.242q-.455 0-.838.242-.385.227-.61.695-.214.455-.214 1.151 0 .695.213 1.164.227.468.597.696.383.227.837.227M44.088 253v-7.157h1.704l.184 1.321q.255-.47.64-.795.397-.327.894-.512.51-.184 1.122-.184v2.03h-.653q-.427 0-.796.1a1.65 1.65 0 0 0-.624.326q-.27.213-.412.597-.142.383-.142.965V253zm5.81 0v-7.157h1.704l.185 1.321q.255-.47.639-.795.398-.327.894-.512.511-.184 1.122-.184v2.03h-.653a3 3 0 0 0-.795.1 1.65 1.65 0 0 0-.625.326q-.27.213-.412.597-.142.383-.142.965V253zm9.136.17q-1.08 0-1.917-.454a3.4 3.4 0 0 1-1.292-1.292q-.455-.838-.455-1.931 0-1.122.455-1.974a3.3 3.3 0 0 1 1.278-1.349q.837-.498 1.931-.497 1.065 0 1.86.468.795.47 1.236 1.264.44.795.44 1.804v.326q0 .17-.029.355h-5.807v-1.164h3.905q-.044-.696-.497-1.094-.44-.397-1.108-.397-.483 0-.895.227a1.53 1.53 0 0 0-.653.667q-.227.455-.227 1.151v.411q0 .583.213 1.023.227.426.625.667.397.227.923.227.525 0 .866-.227.356-.227.525-.582h1.96a3.2 3.2 0 0 1-.667 1.207q-.47.54-1.15.852-.683.312-1.52.312m8.485 0a3.67 3.67 0 0 1-1.846-.468 3.6 3.6 0 0 1-1.292-1.321q-.468-.852-.468-1.945 0-1.122.468-1.96a3.43 3.43 0 0 1 1.306-1.32 3.6 3.6 0 0 1 1.847-.483q1.036 0 1.845.483.824.468 1.293 1.32.483.838.483 1.946 0 1.107-.483 1.959a3.46 3.46 0 0 1-1.293 1.321q-.824.468-1.86.468m0-1.661q.483 0 .852-.227.384-.228.597-.696.227-.469.227-1.164 0-.696-.227-1.151a1.5 1.5 0 0 0-.597-.695 1.5 1.5 0 0 0-.837-.242q-.455 0-.838.242-.384.227-.61.695-.214.455-.214 1.151 0 .695.213 1.164.227.468.597.696.382.227.837.227m12.066 1.661q-1.08 0-1.917-.454a3.4 3.4 0 0 1-1.292-1.292q-.455-.838-.455-1.931 0-1.122.455-1.974a3.3 3.3 0 0 1 1.278-1.349q.838-.498 1.931-.497 1.065 0 1.86.468.795.47 1.236 1.264.44.795.44 1.804v.326q0 .17-.028.355h-5.808v-1.164h3.905q-.043-.696-.497-1.094-.44-.397-1.108-.397-.483 0-.894.227a1.54 1.54 0 0 0-.654.667q-.227.455-.227 1.151v.411q0 .583.213 1.023a1.7 1.7 0 0 0 .625.667q.398.227.923.227t.866-.227q.355-.227.526-.582h1.96a3.2 3.2 0 0 1-.668 1.207q-.47.54-1.15.852-.682.312-1.52.312m5.106-.17v-10.224h1.917V253zm7.222.17q-1.08 0-1.917-.454a3.4 3.4 0 0 1-1.292-1.292q-.454-.838-.454-1.931-.001-1.122.454-1.974a3.3 3.3 0 0 1 1.278-1.349q.837-.498 1.931-.497 1.065 0 1.86.468.795.47 1.236 1.264.44.795.44 1.804v.326q0 .17-.028.355h-5.808v-1.164h3.905q-.043-.696-.497-1.094-.44-.397-1.108-.397-.483 0-.894.227a1.53 1.53 0 0 0-.654.667q-.227.455-.227 1.151v.411q0 .583.213 1.023.227.426.625.667.398.227.923.227t.866-.227q.356-.227.525-.582h1.96a3.2 3.2 0 0 1-.667 1.207q-.47.54-1.15.852-.682.312-1.52.312m8.571 0q-1.08 0-1.917-.482a3.43 3.43 0 0 1-1.307-1.321q-.468-.838-.468-1.917 0-1.108.468-1.945a3.4 3.4 0 0 1 1.307-1.335q.837-.498 1.917-.497 1.377 0 2.314.724t1.193 1.988h-2.031a1.32 1.32 0 0 0-.539-.781 1.6 1.6 0 0 0-.952-.284q-.497 0-.894.256-.384.241-.61.724-.214.468-.214 1.122 0 .496.128.894.128.383.355.668.227.27.54.411.326.142.695.142.37 0 .668-.127a1.5 1.5 0 0 0 .525-.355q.214-.241.298-.583h2.031q-.255 1.236-1.207 1.974-.938.724-2.3.724m8.3-.17q-.752 0-1.32-.227a1.82 1.82 0 0 1-.866-.781q-.313-.554-.313-1.505v-3.039h-1.221v-1.605h1.221l.213-1.945h1.704v1.945h1.889v1.605h-1.889v3.067q0 .483.213.667t.724.185h.938V253zm2.92 0v-7.157h1.704l.185 1.321a2.8 2.8 0 0 1 .639-.795q.397-.327.894-.512a3.3 3.3 0 0 1 1.122-.184v2.03h-.653q-.426 0-.795.1a1.65 1.65 0 0 0-.625.326q-.27.213-.412.597-.141.383-.142.965V253zm9.079.17a3.67 3.67 0 0 1-1.846-.468 3.6 3.6 0 0 1-1.292-1.321q-.468-.852-.469-1.945 0-1.122.469-1.96a3.43 3.43 0 0 1 1.306-1.32 3.6 3.6 0 0 1 1.846-.483q1.037 0 1.846.483.824.468 1.293 1.32.482.838.482 1.946 0 1.107-.482 1.959a3.47 3.47 0 0 1-1.293 1.321q-.823.468-1.86.468m0-1.661q.483 0 .852-.227.384-.228.597-.696.227-.469.227-1.164 0-.696-.227-1.151a1.5 1.5 0 0 0-.597-.695 1.5 1.5 0 0 0-.838-.242q-.454 0-.837.242-.384.227-.611.695-.213.455-.213 1.151 0 .695.213 1.164.227.468.596.696.384.227.838.227m-1.477-6.276-.17-1.264 3.11-1.775.227 1.462zm6.765 7.767v-7.157h1.689l.142 1.165q.327-.597.923-.966.61-.369 1.449-.369.894 0 1.505.369.61.37.923 1.079.327.71.327 1.747V253h-1.903v-3.948q0-.852-.369-1.306-.355-.454-1.108-.454-.483 0-.866.227-.369.227-.582.653-.213.412-.213 1.008V253zm8.806 0v-7.157h1.917V253zm.966-8.137q-.511 0-.852-.298a1.03 1.03 0 0 1-.327-.781q0-.468.327-.767.34-.312.852-.312.525 0 .852.312a.97.97 0 0 1 .341.767q0 .47-.341.781-.327.298-.852.298m6.353 8.307q-1.078 0-1.917-.482a3.43 3.43 0 0 1-1.306-1.321q-.47-.838-.469-1.917 0-1.108.469-1.945a3.4 3.4 0 0 1 1.306-1.335q.839-.498 1.917-.497 1.377 0 2.315.724t1.193 1.988h-2.031a1.3 1.3 0 0 0-.54-.781 1.6 1.6 0 0 0-.951-.284q-.497 0-.895.256a1.66 1.66 0 0 0-.61.724q-.213.468-.213 1.122 0 .496.128.894.127.383.355.668.227.27.539.411.327.142.696.142.37 0 .667-.127.313-.129.526-.355.213-.241.298-.583h2.031q-.256 1.236-1.207 1.974-.937.724-2.301.724m8.54 0a3.67 3.67 0 0 1-1.846-.468 3.6 3.6 0 0 1-1.292-1.321q-.468-.852-.468-1.945 0-1.122.468-1.96a3.43 3.43 0 0 1 1.307-1.32 3.6 3.6 0 0 1 1.846-.483q1.036 0 1.846.483.823.468 1.292 1.32.483.838.483 1.946 0 1.107-.483 1.959a3.47 3.47 0 0 1-1.292 1.321q-.825.468-1.861.468m0-1.661q.483 0 .852-.227.384-.228.597-.696.227-.469.227-1.164 0-.696-.227-1.151a1.5 1.5 0 0 0-.597-.695 1.5 1.5 0 0 0-.837-.242q-.455 0-.838.242-.384.227-.611.695-.213.455-.213 1.151 0 .695.213 1.164.227.468.597.696.382.227.837.227"/><path fill="#fff" stroke="#c2c2c2" d="M24.5 263.5h326v32h-326z"/><path fill="#000" d="M363 263h101v33H363z"/><path fill="#fff" d="M392.48 284v-9.94h6.532v1.548h-4.615v2.598h4.189v1.491h-4.189v2.755h4.615V284zm8.236 0v-7.157h1.69l.142 1.165q.326-.597.923-.966.61-.369 1.448-.369.895 0 1.505.369.61.37.923 1.079.327.71.327 1.747V284h-1.903v-3.948q0-.852-.369-1.306-.355-.454-1.108-.454-.483 0-.866.227-.369.227-.582.653-.213.413-.213 1.008V284zm10.626 0-2.627-7.157h2.016l1.775 5.354 1.775-5.354h2.002L413.67 284zm6.154 0v-7.157h1.917V284zm.966-8.137q-.512 0-.852-.298a1.03 1.03 0 0 1-.327-.781q0-.468.327-.767.34-.312.852-.312.525 0 .852.312a.97.97 0 0 1 .341.767q0 .47-.341.781-.327.298-.852.298m5.302 8.307q-.894 0-1.477-.284-.581-.297-.866-.781a2.25 2.25 0 0 1-.27-1.093q0-.653.327-1.15.34-.498 1.008-.781.683-.284 1.704-.284h1.775q0-.525-.142-.866a1 1 0 0 0-.44-.526q-.298-.17-.795-.17-.54 0-.923.241-.37.227-.455.71h-1.86q.072-.767.497-1.32a2.9 2.9 0 0 1 1.15-.881 4 4 0 0 1 1.605-.312q1.008 0 1.747.341.738.34 1.136.979.397.64.397 1.577V284h-1.619l-.213-1.093a2.5 2.5 0 0 1-.369.511 2.27 2.27 0 0 1-1.136.653 3 3 0 0 1-.781.099m.455-1.476q.37 0 .653-.128.298-.143.511-.369.213-.241.327-.54.128-.313.17-.667v-.015h-1.463q-.44 0-.724.114a.77.77 0 0 0-.397.298.8.8 0 0 0-.128.455q0 .284.128.468a.8.8 0 0 0 .369.284q.241.1.554.1m5.452 1.306v-7.157h1.704l.184 1.321q.257-.47.639-.795.397-.327.895-.512a3.3 3.3 0 0 1 1.122-.184v2.03h-.654q-.426 0-.795.1a1.65 1.65 0 0 0-.625.326 1.3 1.3 0 0 0-.411.597q-.142.383-.142.965V284z"/><path fill="#fff" stroke="#333" stroke-linejoin="round" stroke-width="2" d="M226.844 212.131c-.302-.804.483-1.589 1.287-1.288l18.116 6.794c.859.322.867 1.536.011 1.868l-7.332 2.852a1 1 0 0 0-.569.569l-2.852 7.332c-.332.856-1.546.848-1.868-.011z"/></svg>