<svg width="327" height="184" viewBox="0 0 327 184" fill="none" xmlns="http://www.w3.org/2000/svg">
<rect width="327" height="184" fill="#EBEBEB"/>
<path d="M127.145 108V82.8755L121.429 84.3968V79.418L129.819 75.73H133.6V108H127.145ZM152.097 108.553C149.67 108.553 147.61 108.108 145.92 107.216C144.26 106.325 142.924 105.126 141.909 103.62C140.926 102.115 140.204 100.44 139.743 98.5956C139.312 96.7209 139.097 94.8308 139.097 92.9253C139.097 89.2988 139.604 86.164 140.619 83.5209C141.633 80.8778 143.093 78.8341 144.998 77.3896C146.904 75.9144 149.209 75.1768 151.913 75.1768C154.187 75.1768 156.108 75.6224 157.676 76.5137C159.243 77.3742 160.457 78.5114 161.317 79.9251C162.178 81.3388 162.685 82.8601 162.839 84.489H157.03C156.784 83.1367 156.216 82.1072 155.324 81.4003C154.433 80.6627 153.281 80.2939 151.867 80.2939C150.545 80.2939 149.393 80.6934 148.409 81.4925C147.426 82.2916 146.658 83.4902 146.104 85.0883C145.582 86.6864 145.275 88.6995 145.182 91.1274C145.182 91.1581 145.182 91.2042 145.182 91.2657C145.182 91.3272 145.182 91.3733 145.182 91.404C145.674 90.5742 146.32 89.8366 147.119 89.1912C147.918 88.5458 148.84 88.0387 149.885 87.6699C150.93 87.3011 152.036 87.1167 153.204 87.1167C154.986 87.1167 156.646 87.547 158.183 88.4075C159.719 89.268 160.964 90.482 161.917 92.0494C162.87 93.6168 163.346 95.4762 163.346 97.6275C163.346 99.5637 162.87 101.377 161.917 103.067C160.995 104.727 159.689 106.064 157.998 107.078C156.308 108.061 154.341 108.553 152.097 108.553ZM151.729 103.206C152.835 103.206 153.803 102.975 154.633 102.514C155.494 102.053 156.17 101.423 156.661 100.624C157.153 99.7942 157.399 98.8568 157.399 97.8119C157.399 96.7055 157.153 95.7528 156.661 94.9537C156.17 94.1546 155.494 93.5246 154.633 93.0636C153.772 92.6026 152.789 92.3721 151.683 92.3721C150.607 92.3721 149.639 92.6026 148.778 93.0636C147.918 93.5246 147.226 94.17 146.704 94.9998C146.212 95.7989 145.966 96.7209 145.966 97.7658C145.966 98.8415 146.212 99.7942 146.704 100.624C147.226 101.423 147.918 102.053 148.778 102.514C149.67 102.975 150.653 103.206 151.729 103.206ZM171.865 108.231C170.697 108.231 169.759 107.892 169.053 107.216C168.346 106.509 167.992 105.649 167.992 104.635C167.992 103.62 168.346 102.775 169.053 102.099C169.759 101.392 170.697 101.039 171.865 101.039C172.971 101.039 173.878 101.392 174.585 102.099C175.291 102.775 175.645 103.62 175.645 104.635C175.645 105.649 175.291 106.509 174.585 107.216C173.878 107.892 172.971 108.231 171.865 108.231ZM171.865 91.3579C170.697 91.3579 169.759 91.0198 169.053 90.3437C168.346 89.6368 167.992 88.7763 167.992 87.7621C167.992 86.7479 168.346 85.9027 169.053 85.2266C169.759 84.5197 170.697 84.1663 171.865 84.1663C172.971 84.1663 173.878 84.5197 174.585 85.2266C175.291 85.9027 175.645 86.7479 175.645 87.7621C175.645 88.7763 175.291 89.6368 174.585 90.3437C173.878 91.0198 172.971 91.3579 171.865 91.3579ZM191.822 108.553C189.578 108.553 187.673 108.123 186.105 107.262C184.538 106.371 183.324 105.219 182.463 103.805C181.634 102.391 181.126 100.87 180.942 99.241H186.751C187.027 100.593 187.596 101.638 188.456 102.376C189.348 103.083 190.5 103.436 191.914 103.436C193.235 103.436 194.373 103.052 195.325 102.284C196.309 101.485 197.077 100.301 197.63 98.7339C198.183 97.1358 198.491 95.1688 198.552 92.8331C198.552 92.7409 198.552 92.6487 198.552 92.5565C198.552 92.4643 198.552 92.3875 198.552 92.326C198.122 93.1251 197.492 93.8627 196.662 94.5388C195.832 95.1842 194.895 95.6913 193.85 96.0601C192.836 96.4289 191.745 96.6133 190.577 96.6133C188.825 96.6133 187.166 96.183 185.598 95.3225C184.031 94.462 182.771 93.248 181.818 91.6806C180.865 90.1132 180.389 88.2538 180.389 86.1025C180.389 84.1356 180.865 82.3223 181.818 80.6627C182.771 79.0031 184.092 77.6816 185.783 76.6981C187.473 75.6839 189.424 75.1768 191.637 75.1768C194.096 75.1768 196.155 75.6224 197.815 76.5137C199.474 77.405 200.796 78.6036 201.779 80.1095C202.793 81.6154 203.516 83.3058 203.946 85.1805C204.407 87.0245 204.637 88.8992 204.637 90.8047C204.637 94.4005 204.13 97.5353 203.116 100.209C202.133 102.852 200.688 104.911 198.783 106.387C196.877 107.831 194.557 108.553 191.822 108.553ZM192.052 91.3579C193.159 91.3579 194.127 91.1274 194.956 90.6664C195.817 90.2054 196.493 89.5754 196.985 88.7763C197.507 87.9465 197.769 87.0091 197.769 85.9642C197.769 84.8885 197.507 83.9358 196.985 83.106C196.493 82.2762 195.817 81.6462 194.956 81.2159C194.096 80.7549 193.112 80.5244 192.006 80.5244C190.93 80.5244 189.962 80.7549 189.102 81.2159C188.241 81.6769 187.565 82.3069 187.073 83.106C186.612 83.9051 186.382 84.8424 186.382 85.9181C186.382 86.9938 186.612 87.9465 187.073 88.7763C187.565 89.5754 188.241 90.2054 189.102 90.6664C189.962 91.1274 190.946 91.3579 192.052 91.3579Z" fill="white"/>
</svg>
