<svg width="327" height="489" viewBox="0 0 327 489" fill="none" xmlns="http://www.w3.org/2000/svg">
<rect width="327" height="489" fill="#EBEBEB"/>
<path d="M132.305 260.5V255.936C134.272 254.369 136.177 252.801 138.021 251.234C139.896 249.667 141.571 248.114 143.046 246.578C144.522 245.01 145.689 243.489 146.55 242.014C147.41 240.539 147.841 239.11 147.841 237.727C147.841 236.866 147.687 236.082 147.38 235.376C147.072 234.638 146.581 234.054 145.905 233.624C145.259 233.163 144.399 232.932 143.323 232.932C142.247 232.932 141.341 233.178 140.603 233.67C139.865 234.162 139.312 234.822 138.943 235.652C138.575 236.451 138.39 237.358 138.39 238.372H132.351C132.443 236.006 132.981 234.023 133.965 232.425C134.948 230.827 136.27 229.644 137.929 228.875C139.589 228.076 141.448 227.677 143.507 227.677C145.782 227.677 147.702 228.107 149.27 228.968C150.837 229.797 152.02 230.935 152.82 232.379C153.649 233.823 154.064 235.483 154.064 237.358C154.064 238.772 153.803 240.155 153.28 241.507C152.789 242.859 152.082 244.181 151.16 245.471C150.269 246.731 149.254 247.945 148.117 249.113C146.98 250.281 145.797 251.403 144.568 252.479C143.338 253.524 142.14 254.507 140.972 255.429H154.848V260.5H132.305ZM162.461 260.731C161.293 260.731 160.356 260.392 159.649 259.716C158.942 259.009 158.589 258.149 158.589 257.135C158.589 256.12 158.942 255.275 159.649 254.599C160.356 253.892 161.293 253.539 162.461 253.539C163.568 253.539 164.474 253.892 165.181 254.599C165.888 255.275 166.241 256.12 166.241 257.135C166.241 258.149 165.888 259.009 165.181 259.716C164.474 260.392 163.568 260.731 162.461 260.731ZM162.461 243.858C161.293 243.858 160.356 243.52 159.649 242.844C158.942 242.137 158.589 241.276 158.589 240.262C158.589 239.248 158.942 238.403 159.649 237.727C160.356 237.02 161.293 236.666 162.461 236.666C163.568 236.666 164.474 237.02 165.181 237.727C165.888 238.403 166.241 239.248 166.241 240.262C166.241 241.276 165.888 242.137 165.181 242.844C164.474 243.52 163.568 243.858 162.461 243.858ZM182.142 261.053C180.052 261.053 178.131 260.669 176.379 259.901C174.627 259.132 173.229 257.964 172.184 256.397C171.139 254.83 170.586 252.847 170.524 250.45H176.61C176.64 251.464 176.871 252.386 177.301 253.216C177.731 254.015 178.361 254.661 179.191 255.152C180.021 255.613 181.004 255.844 182.142 255.844C183.217 255.844 184.139 255.629 184.908 255.199C185.676 254.768 186.26 254.2 186.659 253.493C187.059 252.786 187.259 251.971 187.259 251.049C187.259 249.974 186.982 249.083 186.429 248.376C185.906 247.638 185.169 247.085 184.216 246.716C183.294 246.347 182.234 246.163 181.035 246.163H178.638V241.046H181.035C182.541 241.046 183.801 240.692 184.815 239.985C185.86 239.279 186.383 238.218 186.383 236.805C186.383 235.637 185.999 234.699 185.23 233.992C184.493 233.286 183.448 232.932 182.096 232.932C180.62 232.932 179.468 233.362 178.638 234.223C177.808 235.084 177.347 236.144 177.255 237.404H171.17C171.262 235.375 171.769 233.639 172.691 232.195C173.644 230.719 174.919 229.598 176.517 228.829C178.116 228.061 179.975 227.677 182.096 227.677C184.339 227.677 186.229 228.076 187.766 228.875C189.333 229.644 190.516 230.689 191.316 232.01C192.115 233.332 192.514 234.761 192.514 236.297C192.514 237.558 192.268 238.679 191.777 239.663C191.316 240.646 190.685 241.461 189.886 242.106C189.087 242.751 188.211 243.212 187.259 243.489C188.457 243.735 189.502 244.211 190.394 244.918C191.316 245.594 192.022 246.47 192.514 247.546C193.037 248.622 193.298 249.866 193.298 251.28C193.298 253.032 192.868 254.661 192.007 256.167C191.177 257.642 189.917 258.825 188.227 259.716C186.567 260.608 184.539 261.053 182.142 261.053Z" fill="white"/>
</svg>
