<svg width="327" height="327" viewBox="0 0 327 327" fill="none" xmlns="http://www.w3.org/2000/svg">
<rect width="327" height="327" fill="#EBEBEB"/>
<path d="M147.645 179.5V154.376L141.929 155.897V150.918L150.319 147.23H154.1V179.5H147.645ZM163.147 179.731C161.979 179.731 161.042 179.392 160.335 178.716C159.628 178.009 159.275 177.149 159.275 176.135C159.275 175.12 159.628 174.275 160.335 173.599C161.042 172.892 161.979 172.539 163.147 172.539C164.253 172.539 165.16 172.892 165.867 173.599C166.574 174.275 166.927 175.12 166.927 176.135C166.927 177.149 166.574 178.009 165.867 178.716C165.16 179.392 164.253 179.731 163.147 179.731ZM163.147 162.858C161.979 162.858 161.042 162.52 160.335 161.844C159.628 161.137 159.275 160.276 159.275 159.262C159.275 158.248 159.628 157.403 160.335 156.727C161.042 156.02 161.979 155.666 163.147 155.666C164.253 155.666 165.16 156.02 165.867 156.727C166.574 157.403 166.927 158.248 166.927 159.262C166.927 160.276 166.574 161.137 165.867 161.844C165.16 162.52 164.253 162.858 163.147 162.858ZM176.143 179.5V154.376L170.426 155.897V150.918L178.817 147.23H182.597V179.5H176.143Z" fill="white"/>
</svg>
