<svg width="327" height="216" viewBox="0 0 327 216" fill="none" xmlns="http://www.w3.org/2000/svg">
<rect width="327" height="216" fill="#EBEBEB"/>
<path d="M143.83 124.553C141.74 124.553 139.819 124.169 138.068 123.401C136.316 122.632 134.917 121.464 133.872 119.897C132.827 118.33 132.274 116.347 132.213 113.95H138.298C138.329 114.964 138.559 115.886 138.99 116.716C139.42 117.515 140.05 118.161 140.88 118.652C141.709 119.113 142.693 119.344 143.83 119.344C144.906 119.344 145.828 119.129 146.596 118.699C147.364 118.268 147.948 117.7 148.348 116.993C148.747 116.286 148.947 115.471 148.947 114.549C148.947 113.474 148.67 112.583 148.117 111.876C147.595 111.138 146.857 110.585 145.905 110.216C144.983 109.847 143.922 109.663 142.724 109.663H140.326V104.546H142.724C144.23 104.546 145.49 104.192 146.504 103.485C147.549 102.779 148.071 101.718 148.071 100.305C148.071 99.1367 147.687 98.1994 146.919 97.4925C146.181 96.7856 145.136 96.4322 143.784 96.4322C142.309 96.4322 141.156 96.8625 140.326 97.723C139.497 98.5835 139.036 99.6438 138.943 100.904H132.858C132.95 98.8755 133.458 97.1391 134.38 95.6946C135.332 94.2194 136.608 93.0976 138.206 92.3293C139.804 91.561 141.663 91.1768 143.784 91.1768C146.027 91.1768 147.918 91.5763 149.454 92.3754C151.022 93.1437 152.205 94.1887 153.004 95.5102C153.803 96.8317 154.203 98.2608 154.203 99.7975C154.203 101.058 153.957 102.179 153.465 103.163C153.004 104.146 152.374 104.961 151.575 105.606C150.776 106.251 149.9 106.712 148.947 106.989C150.146 107.235 151.191 107.711 152.082 108.418C153.004 109.094 153.711 109.97 154.203 111.046C154.725 112.122 154.986 113.366 154.986 114.78C154.986 116.532 154.556 118.161 153.695 119.667C152.866 121.142 151.606 122.325 149.915 123.216C148.256 124.108 146.227 124.553 143.83 124.553ZM163.632 124.231C162.464 124.231 161.527 123.892 160.82 123.216C160.113 122.509 159.759 121.649 159.759 120.635C159.759 119.62 160.113 118.775 160.82 118.099C161.527 117.392 162.464 117.039 163.632 117.039C164.738 117.039 165.645 117.392 166.352 118.099C167.059 118.775 167.412 119.62 167.412 120.635C167.412 121.649 167.059 122.509 166.352 123.216C165.645 123.892 164.738 124.231 163.632 124.231ZM163.632 107.358C162.464 107.358 161.527 107.02 160.82 106.344C160.113 105.637 159.759 104.776 159.759 103.762C159.759 102.748 160.113 101.903 160.82 101.227C161.527 100.52 162.464 100.166 163.632 100.166C164.738 100.166 165.645 100.52 166.352 101.227C167.059 101.903 167.412 102.748 167.412 103.762C167.412 104.776 167.059 105.637 166.352 106.344C165.645 107.02 164.738 107.358 163.632 107.358ZM171.787 124V119.436C173.754 117.869 175.66 116.301 177.504 114.734C179.378 113.167 181.053 111.614 182.528 110.078C184.004 108.51 185.171 106.989 186.032 105.514C186.893 104.039 187.323 102.61 187.323 101.227C187.323 100.366 187.169 99.5824 186.862 98.8755C186.554 98.1379 186.063 97.554 185.387 97.1237C184.741 96.6627 183.881 96.4322 182.805 96.4322C181.729 96.4322 180.823 96.6781 180.085 97.1698C179.348 97.6615 178.794 98.3223 178.426 99.1521C178.057 99.9512 177.872 100.858 177.872 101.872H171.833C171.925 99.5055 172.463 97.5232 173.447 95.9251C174.43 94.327 175.752 93.1437 177.411 92.3754C179.071 91.5763 180.93 91.1768 182.989 91.1768C185.264 91.1768 187.185 91.6071 188.752 92.4676C190.319 93.2974 191.503 94.4345 192.302 95.879C193.131 97.3235 193.546 98.9831 193.546 100.858C193.546 102.272 193.285 103.655 192.763 105.007C192.271 106.359 191.564 107.681 190.642 108.971C189.751 110.231 188.737 111.445 187.599 112.613C186.462 113.781 185.279 114.903 184.05 115.979C182.82 117.024 181.622 118.007 180.454 118.929H194.33V124H171.787Z" fill="white"/>
</svg>
