<svg width="327" height="163" viewBox="0 0 327 163" fill="none" xmlns="http://www.w3.org/2000/svg">
<rect width="327" height="163" fill="#EBEBEB"/>
<path d="M146.933 97.5V91.6453H131.075V86.7126L146.103 65.23H153.156V86.2516H157.351V91.6453H153.156V97.5H146.933ZM137.713 86.2516H147.348V72.0989L137.713 86.2516ZM164.838 97.7305C163.67 97.7305 162.732 97.3924 162.026 96.7163C161.319 96.0094 160.965 95.1489 160.965 94.1347C160.965 93.1205 161.319 92.2753 162.026 91.5992C162.732 90.8923 163.67 90.5389 164.838 90.5389C165.944 90.5389 166.851 90.8923 167.558 91.5992C168.264 92.2753 168.618 93.1205 168.618 94.1347C168.618 95.1489 168.264 96.0094 167.558 96.7163C166.851 97.3924 165.944 97.7305 164.838 97.7305ZM164.838 80.8579C163.67 80.8579 162.732 80.5198 162.026 79.8437C161.319 79.1368 160.965 78.2763 160.965 77.2621C160.965 76.2479 161.319 75.4027 162.026 74.7266C162.732 74.0197 163.67 73.6663 164.838 73.6663C165.944 73.6663 166.851 74.0197 167.558 74.7266C168.264 75.4027 168.618 76.2479 168.618 77.2621C168.618 78.2763 168.264 79.1368 167.558 79.8437C166.851 80.5198 165.944 80.8579 164.838 80.8579ZM172.993 97.5V92.9361C174.96 91.3687 176.865 89.8013 178.709 88.2339C180.584 86.6665 182.259 85.1145 183.734 83.5778C185.21 82.0104 186.377 80.4891 187.238 79.0139C188.099 77.5387 188.529 76.1096 188.529 74.7266C188.529 73.8661 188.375 73.0824 188.068 72.3755C187.76 71.6379 187.269 71.054 186.593 70.6237C185.947 70.1627 185.087 69.9322 184.011 69.9322C182.935 69.9322 182.029 70.1781 181.291 70.6698C180.553 71.1615 180 71.8223 179.631 72.6521C179.263 73.4512 179.078 74.3578 179.078 75.372H173.039C173.131 73.0055 173.669 71.0232 174.653 69.4251C175.636 67.827 176.958 66.6437 178.617 65.8754C180.277 65.0763 182.136 64.6768 184.195 64.6768C186.47 64.6768 188.39 65.1071 189.958 65.9676C191.525 66.7974 192.709 67.9345 193.508 69.379C194.337 70.8235 194.752 72.4831 194.752 74.3578C194.752 75.7715 194.491 77.1545 193.969 78.5068C193.477 79.8591 192.77 81.1806 191.848 82.4714C190.957 83.7315 189.943 84.9454 188.805 86.1133C187.668 87.2812 186.485 88.4029 185.256 89.4786C184.026 90.5235 182.828 91.507 181.66 92.429H195.536V97.5H172.993Z" fill="white"/>
</svg>
