<svg width="327" height="245" viewBox="0 0 327 245" fill="none" xmlns="http://www.w3.org/2000/svg">
<rect width="327" height="245" fill="#EBEBEB"/>
<path d="M146.433 138.5V132.645H130.575V127.713L145.603 106.23H152.656V127.252H156.851V132.645H152.656V138.5H146.433ZM137.213 127.252H146.848V113.099L137.213 127.252ZM164.338 138.731C163.17 138.731 162.232 138.392 161.526 137.716C160.819 137.009 160.465 136.149 160.465 135.135C160.465 134.12 160.819 133.275 161.526 132.599C162.232 131.892 163.17 131.539 164.338 131.539C165.444 131.539 166.351 131.892 167.058 132.599C167.764 133.275 168.118 134.12 168.118 135.135C168.118 136.149 167.764 137.009 167.058 137.716C166.351 138.392 165.444 138.731 164.338 138.731ZM164.338 121.858C163.17 121.858 162.232 121.52 161.526 120.844C160.819 120.137 160.465 119.276 160.465 118.262C160.465 117.248 160.819 116.403 161.526 115.727C162.232 115.02 163.17 114.666 164.338 114.666C165.444 114.666 166.351 115.02 167.058 115.727C167.764 116.403 168.118 117.248 168.118 118.262C168.118 119.276 167.764 120.137 167.058 120.844C166.351 121.52 165.444 121.858 164.338 121.858ZM184.018 139.053C181.928 139.053 180.007 138.669 178.256 137.901C176.504 137.132 175.105 135.964 174.06 134.397C173.016 132.83 172.462 130.847 172.401 128.45H178.486C178.517 129.464 178.747 130.386 179.178 131.216C179.608 132.015 180.238 132.661 181.068 133.152C181.897 133.613 182.881 133.844 184.018 133.844C185.094 133.844 186.016 133.629 186.784 133.199C187.552 132.768 188.136 132.2 188.536 131.493C188.935 130.786 189.135 129.971 189.135 129.049C189.135 127.974 188.859 127.083 188.305 126.376C187.783 125.638 187.045 125.085 186.093 124.716C185.171 124.347 184.11 124.163 182.912 124.163H180.514V119.046H182.912C184.418 119.046 185.678 118.692 186.692 117.985C187.737 117.279 188.259 116.218 188.259 114.805C188.259 113.637 187.875 112.699 187.107 111.992C186.369 111.286 185.324 110.932 183.972 110.932C182.497 110.932 181.344 111.362 180.514 112.223C179.685 113.084 179.224 114.144 179.131 115.404H173.046C173.138 113.375 173.646 111.639 174.568 110.195C175.52 108.719 176.796 107.598 178.394 106.829C179.992 106.061 181.851 105.677 183.972 105.677C186.216 105.677 188.106 106.076 189.642 106.875C191.21 107.644 192.393 108.689 193.192 110.01C193.991 111.332 194.391 112.761 194.391 114.297C194.391 115.558 194.145 116.679 193.653 117.663C193.192 118.646 192.562 119.461 191.763 120.106C190.964 120.751 190.088 121.212 189.135 121.489C190.334 121.735 191.379 122.211 192.27 122.918C193.192 123.594 193.899 124.47 194.391 125.546C194.913 126.622 195.174 127.866 195.174 129.28C195.174 131.032 194.744 132.661 193.883 134.167C193.054 135.642 191.794 136.825 190.103 137.716C188.444 138.608 186.415 139.053 184.018 139.053Z" fill="white"/>
</svg>
