<svg width="32" height="32" viewBox="0 0 32 32" fill="none" xmlns="http://www.w3.org/2000/svg">
<path d="M24.8072 0H7.1928C3.22 0 0 3.2267 0 7.20695V24.7922C0 28.7725 3.22 32 7.1928 32H24.808C28.78 31.9992 32 28.7725 32 24.7922V7.20695C32 3.2267 28.78 0 24.8072 0ZM8.9368 25.3975C8.6392 25.9074 8.104 26.1903 7.5544 26.1903C7.28 26.1903 7.0016 26.1198 6.7472 25.9707C5.9848 25.5226 5.7288 24.5405 6.176 23.7773L6.4088 23.3789C6.8208 23.249 7.2544 23.1785 7.7 23.1913H7.704C8.5224 23.2154 9.2072 23.5865 9.6752 24.1341L8.9368 25.3975ZM17.9304 21.5856H5.6C4.7168 21.5856 4 20.8673 4 19.9823C4 19.0972 4.7168 18.3789 5.6 18.3789H9.332L14.0248 10.3543L12.576 7.87634C12.1288 7.11236 12.3848 6.13032 13.1472 5.68219C13.9096 5.23486 14.8896 5.49059 15.3368 6.25458L15.8792 7.1821L16.4216 6.25458C16.868 5.49059 17.848 5.23486 18.6112 5.68219C19.3736 6.13032 19.6296 7.11236 19.1824 7.87634L13.0408 18.3789H16.3848C16.8848 18.7124 17.3144 19.1533 17.624 19.6937L17.6264 19.6969C17.9784 20.3101 18.056 20.9739 17.9304 21.5856ZM26.4 21.5856H24.3016L25.5832 23.7765C26.0304 24.5397 25.7744 25.5226 25.012 25.9699C24.7576 26.1198 24.4792 26.1895 24.2048 26.1895C23.6552 26.1895 23.1208 25.9058 22.8224 25.3967L17.9016 16.9816C17.2344 15.7399 17.2592 14.2343 17.9888 13.019L18.6496 11.9183L22.4264 18.3789H26.4C27.2832 18.3789 28 19.0972 28 19.9823C28 20.8673 27.2832 21.5856 26.4 21.5856Z" fill="#333333"/>
</svg>
