<svg width="32" height="32" viewBox="0 0 32 32" fill="none" xmlns="http://www.w3.org/2000/svg">
<path d="M15.8069 7.74218C17.5985 7.74218 19.1701 7.05206 20.5218 5.67178C21.8735 4.2915 22.5494 2.68648 22.5494 0.856724C22.5494 0.655764 22.5333 0.370189 22.5012 0C22.2651 0.0317305 22.0881 0.0581726 21.9701 0.0793263C20.318 0.312017 18.8644 1.11057 17.6092 2.47495C16.354 3.83936 15.7265 5.29896 15.7265 6.85376C15.7265 7.03353 15.7533 7.32972 15.8069 7.74218ZM22.2276 32C23.5042 32 24.9149 31.138 26.4598 29.414C28.0046 27.69 29.1847 25.6645 30 23.3376C26.964 21.7934 25.446 19.5776 25.446 16.6901C25.446 14.2786 26.6743 12.2162 29.131 10.5027C27.4253 8.39794 25.1724 7.34555 22.3724 7.34555C21.1923 7.34555 20.1142 7.52007 19.1379 7.8691L18.5265 8.09122L17.7057 8.40852C17.1693 8.60948 16.6812 8.71 16.2414 8.71C15.8981 8.71 15.4475 8.59362 14.8897 8.36093L14.2621 8.10708L13.6667 7.8691C12.7977 7.50949 11.8644 7.32968 10.8667 7.32968C8.19541 7.32968 6.04982 8.21814 4.42989 9.99505C2.80995 11.7719 2 14.1147 2 17.0233C2 21.1165 3.29807 24.8977 5.89425 28.3669C7.69657 30.789 9.34331 32 10.8345 32C11.4674 32 12.095 31.8784 12.7172 31.6351L13.5057 31.3178L14.1334 31.0957C15.013 30.789 15.823 30.6356 16.5632 30.6356C17.3464 30.6356 18.2475 30.8313 19.2667 31.2226L19.7655 31.413C20.8061 31.8043 21.6268 32 22.2276 32Z" fill="#333333"/>
</svg>
