<svg width="32" height="32" viewBox="0 0 32 32" fill="none" xmlns="http://www.w3.org/2000/svg">
<path d="M10.4071 13.7949V15.61H0V13.7949C0 11.699 1.68978 10 3.77435 10H6.63241C8.71699 10 10.4068 11.699 10.4068 13.7949H10.4071ZM0 21H10.4071V15.9952H0V21ZM20.8409 13.7949V17.2047C20.8409 19.3006 22.5307 20.9996 24.6153 20.9996H26.2284V10H24.6153C22.5307 10 20.8409 11.699 20.8409 13.7949ZM10.7895 10V21L21.7291 20.9993L10.7895 10ZM20.5813 13.7949C20.5813 11.699 18.8915 10 16.8069 10H11.3315L18.4868 17.1944C19.7285 16.5731 20.5816 15.2843 20.5816 13.7953L20.5813 13.7949ZM32 21L30.4866 19.6219C31.4054 18.9298 32 17.826 32 16.5827V13.7949C32 11.699 30.3103 10 28.2256 10H26.6115V21H32Z" fill="#333333"/>
</svg>
