<svg width="32" height="33" viewBox="0 0 32 33" fill="none" xmlns="http://www.w3.org/2000/svg">
<path fill-rule="evenodd" clip-rule="evenodd" d="M5.17218 19.8243C4.77213 19.3671 4.81846 18.6722 5.27566 18.2721C5.73286 17.8721 6.4278 17.9184 6.82785 18.3756L15.4 28.1723L15.4 1.1C15.4 0.492484 15.8925 -5.33607e-07 16.5 -5.07051e-07C17.1075 -4.80496e-07 17.6 0.492485 17.6 1.1L17.6 28.1723L26.1721 18.3756C26.5722 17.9184 27.2671 17.8721 27.7243 18.2721C28.1815 18.6722 28.2278 19.3671 27.8278 19.8243L17.4783 31.6522C17.4518 31.6825 17.4243 31.7113 17.3958 31.7384C17.1963 32.0178 16.8694 32.1999 16.5 32.1999C16.1306 32.1999 15.8037 32.0178 15.6042 31.7384C15.5757 31.7113 15.5481 31.6825 15.5216 31.6522L5.17218 19.8243Z" fill="#333333"/>
</svg>
