<svg width="32" height="32" viewBox="0 0 32 32" fill="none" xmlns="http://www.w3.org/2000/svg">
<path d="M24.1857 0.00359407C24.1021 -0.00268777 24.0174 -0.00056765 23.9325 0.00864571C17.7168 0.772956 11.7132 1.90014 5.69463 3.64085C4.91151 3.88657 4.42761 4.76306 4.62598 5.5403C5.06681 7.26807 5.28783 8.1341 5.73514 9.86963C5.92444 10.6029 6.66337 10.9805 7.41408 10.731C13.5623 8.84282 19.7279 7.55145 26.0875 6.61126C26.8161 6.51428 27.2143 5.7613 26.9459 5.00734C26.3806 3.41794 26.0972 2.6246 25.5202 1.04426C25.3058 0.456962 24.771 0.0475502 24.1857 0.00359407ZM29.3694 9.62967C29.2899 9.62341 29.2088 9.62679 29.1288 9.63723C19.3982 10.8749 9.92401 13.2737 0.938896 17.2401C0.284139 17.5505 -0.110176 18.3723 0.0272567 19.0991C0.378623 20.9549 0.556962 21.8795 0.916105 23.7391C1.0704 24.5319 1.81437 24.898 2.54692 24.5424C11.6734 20.3691 21.3189 17.7167 31.2129 16.1312C31.8417 16.0278 32.1606 15.3126 31.9194 14.5702C31.4228 13.0326 31.1718 12.2658 30.6583 10.7385C30.4496 10.1161 29.9258 9.67392 29.3694 9.62967ZM29.2655 19.9529C29.1816 19.9512 29.0961 19.9581 29.0123 19.9756C22.9367 21.2921 17.0001 22.876 11.1163 24.8934C10.3708 25.1663 9.95068 25.9512 10.1465 26.6742C10.6132 28.3968 10.8482 29.258 11.3215 30.9858C11.5432 31.7967 12.4565 32.2107 13.2967 31.8926C19.1778 29.7911 25.1171 27.9551 31.1876 26.4847C31.7697 26.3437 32.0575 25.6613 31.8409 24.9591C31.3638 23.4085 31.1219 22.6361 30.6305 21.092C30.4195 20.4266 29.8529 19.9645 29.2655 19.9529Z" fill="#333333"/>
</svg>
