<svg width="32" height="32" viewBox="0 0 32 32" fill="none" xmlns="http://www.w3.org/2000/svg">
<path d="M25.0605 11.0283C26.2661 11.0283 27.3224 11.2603 28.2275 11.7334C29.1295 12.199 29.8687 12.8305 30.4502 13.6211C31.0309 14.4111 31.4445 15.3143 31.7031 16.3262C31.9587 17.3374 32.0486 18.3938 31.9746 19.5H21.6904C21.6904 20.6264 22.0719 21.6931 22.6602 22.2656C23.2461 22.838 24.0936 23.127 25.1914 23.127C25.9807 23.1269 26.6628 22.9267 27.2354 22.5283C27.8026 22.1315 28.1484 21.7066 28.2822 21.2656H31.7295C31.1757 22.9807 30.3346 24.2054 29.1875 24.9424C28.0544 25.6831 26.6713 26.0527 25.0605 26.0527C23.9379 26.0527 22.9271 25.87 22.0205 25.5127C21.1141 25.1502 20.3562 24.6425 19.7188 23.9805C19.0976 23.3153 18.6153 22.5285 18.2715 21.6055C17.9315 20.6869 17.7598 19.6697 17.7598 18.5674C17.7598 17.5016 17.9386 16.506 18.2861 15.5859C18.6419 14.6629 19.1325 13.8655 19.7783 13.1973C20.4263 12.5254 21.194 11.9955 22.0879 11.6084C22.9826 11.222 23.9686 11.0283 25.0605 11.0283ZM9.28027 6C10.2212 6.00001 11.0711 6.08184 11.8477 6.25C12.6197 6.41369 13.2792 6.68733 13.8359 7.0625C14.3842 7.43683 14.813 7.93504 15.1201 8.5625C15.4198 9.18128 15.5712 9.95591 15.5713 10.8721C15.5713 11.8631 15.3464 12.6911 14.8965 13.3525C14.4435 14.0133 13.7771 14.5548 12.8877 14.9756C14.0993 15.3239 14.9968 15.9381 15.5918 16.8096C16.1896 17.687 16.4814 18.7379 16.4814 19.9688C16.4814 20.9673 16.2903 21.8261 15.9092 22.5488C15.5236 23.2804 14.9989 23.8737 14.3525 24.3311C13.7009 24.7929 12.9517 25.132 12.1133 25.3525C11.2836 25.573 10.422 25.6836 9.54004 25.6836H0V6H9.28027ZM4.33398 22.3311H8.95898C9.38634 22.331 9.79203 22.2932 10.1738 22.208C10.561 22.1228 10.9053 21.9889 11.1953 21.79C11.4851 21.5995 11.7246 21.338 11.8994 21.0049C12.0743 20.6753 12.1582 20.2465 12.1582 19.7285C12.1582 18.7144 11.8729 17.9938 11.3057 17.5566C10.7369 17.1254 9.9777 16.9111 9.04492 16.9111H4.33398V22.3311ZM24.9434 13.9844C24.3179 13.9844 23.7998 14.0893 23.3857 14.3037C22.9806 14.5152 22.6479 14.7797 22.3945 15.0898C22.142 15.4052 21.9693 15.738 21.8691 16.0938C21.7691 16.4404 21.7091 16.7553 21.6904 17.0332H28.0596C27.9661 16.0346 27.6253 15.2961 27.1582 14.7773C26.6926 14.2624 25.9044 13.9844 24.9434 13.9844ZM4.33398 13.9531H8.71973C9.48714 13.9531 10.1223 13.7702 10.626 13.4004C11.1245 13.0372 11.3672 12.4354 11.3672 11.6104C11.3672 11.1531 11.2863 10.7742 11.125 10.4805C10.9583 10.1867 10.7366 9.9566 10.457 9.7959C10.1798 9.62849 9.86688 9.51224 9.50293 9.4502C9.14649 9.37995 8.77201 9.35255 8.38867 9.35254H4.33398V13.9531ZM28.8691 9.26367H20.8896V7.32031H28.8691V9.26367Z" fill="#333333"/>
</svg>
