<svg width="32" height="32" viewBox="0 0 32 32" fill="none" xmlns="http://www.w3.org/2000/svg">
<path d="M6.9365 3.90258C10.605 6.66608 14.5515 12.2686 16 15.2751V23.2161C16 23.0471 15.935 23.2381 15.795 23.6496C15.039 25.8776 12.086 34.5731 5.3335 27.6216C1.778 23.9616 3.424 20.3016 9.896 19.1966C6.1935 19.8286 2.031 18.7841 0.889 14.6891C0.56 13.5111 0 6.25508 0 5.27508C0 0.366081 4.2895 1.90908 6.9365 3.90258ZM25.0635 3.90258C21.395 6.66608 17.4485 12.2686 16 15.2751V23.2161C16 23.0471 16.065 23.2381 16.205 23.6496C16.961 25.8776 19.914 34.5731 26.6665 27.6216C30.222 23.9616 28.576 20.3016 22.104 19.1966C25.8065 19.8286 29.969 18.7841 31.111 14.6891C31.44 13.5111 32 6.25508 32 5.27508C32 0.366081 27.711 1.90908 25.0635 3.90258Z" fill="#333333"/>
</svg>
