<svg width="32" height="32" viewBox="0 0 32 32" fill="none" xmlns="http://www.w3.org/2000/svg">
<path d="M20.8262 0C24.0553 0 25.6427 0.000384683 27.3857 0.548828C28.3207 0.888342 29.17 1.42906 29.873 2.13281C30.576 2.83651 31.1164 3.68579 31.4551 4.62109C32.0005 6.353 32 7.95239 32 11.165V20.835C32 24.0448 32.0005 25.647 31.4551 27.3789C31.1161 28.3145 30.5755 29.1644 29.8721 29.8682C29.1685 30.572 28.3183 31.113 27.3828 31.4521C25.6514 32.0005 24.0525 32 20.8408 32H11.1445C7.93862 32 6.33395 32.0006 4.60254 31.4521C3.6671 31.113 2.81783 30.5719 2.11426 29.8682C1.41068 29.1644 0.870314 28.3146 0.53125 27.3789C0.000271621 25.647 2.99214e-09 24.0621 2.99214e-09 20.835V11.1504C3.52312e-09 7.94077 -0.000422405 6.33831 0.547852 4.60645C0.885709 3.67068 1.42586 2.82098 2.12891 2.11719C2.83209 1.41331 3.68176 0.872817 4.61719 0.53418C6.33129 0.000180078 7.93864 3.04833e-10 11.1475 0H20.8262ZM17.251 5.42383C17.1032 5.42357 16.9592 5.47404 16.8438 5.56641C16.7286 5.65871 16.6484 5.78758 16.6162 5.93164L16.2842 7.56543C13.1099 7.72133 10.4287 9.298 10.4287 12.5078C10.4289 15.2872 12.6482 16.4823 14.9941 17.3193C17.2162 18.1449 18.3936 18.451 18.3936 19.6143C18.3934 20.7774 17.2187 21.5107 15.4902 21.5107C13.8148 21.5385 12.1954 20.9072 10.9805 19.7529C10.8597 19.635 10.6971 19.5684 10.5283 19.5684C10.3597 19.5684 10.1978 19.6351 10.0771 19.7529L8.75293 21.0488C8.69089 21.1083 8.64116 21.1797 8.60742 21.2588C8.57373 21.3378 8.55668 21.4229 8.55664 21.5088C8.55664 21.5948 8.57369 21.6806 8.60742 21.7598C8.64115 21.8387 8.69097 21.9103 8.75293 21.9697C9.83211 22.9807 11.1493 23.7029 12.582 24.0684L12.2129 25.7598C12.1935 25.8543 12.1944 25.952 12.2168 26.0459C12.2391 26.1396 12.282 26.2272 12.3418 26.3027C12.4018 26.3784 12.4781 26.4402 12.5645 26.4834C12.6507 26.5265 12.7454 26.5511 12.8418 26.5537H15.2285C15.3768 26.5533 15.521 26.5019 15.6367 26.4092C15.7524 26.3164 15.8335 26.1867 15.8662 26.042L16.209 24.4375C20.0065 24.2066 22.3269 22.1631 22.3271 19.1729C22.3271 16.4163 20.0186 15.2554 17.2051 14.3086C15.5979 13.7025 14.2093 13.3071 14.209 12.1152C14.209 10.9231 15.5051 10.4893 16.8008 10.4893C18.3735 10.4891 19.8953 11.0479 21.0947 12.0654C21.2185 12.1777 21.3809 12.2381 21.5479 12.2344C21.7146 12.2305 21.8737 12.1634 21.9922 12.0459L23.2305 10.8047C23.292 10.743 23.3402 10.669 23.3721 10.5879C23.4039 10.5066 23.4183 10.4192 23.415 10.332C23.4118 10.245 23.3912 10.1596 23.3535 10.0811C23.3157 10.0024 23.2614 9.93201 23.1953 9.875C22.225 9.04882 21.1029 8.41987 19.8916 8.02441L20.2607 6.19727C20.28 6.10366 20.2786 6.00688 20.2559 5.91406C20.233 5.82113 20.1894 5.73426 20.1289 5.66016C20.0684 5.58606 19.9918 5.52624 19.9053 5.48535C19.8189 5.44456 19.7244 5.42358 19.6289 5.42383H17.251Z" fill="#333333"/>
</svg>
