<svg width="32" height="32" viewBox="0 0 32 32" fill="none" xmlns="http://www.w3.org/2000/svg">
<path d="M15.1616 0.252593C15.669 -0.0842035 16.3289 -0.0841921 16.8363 0.252593L31.321 9.86583C31.643 10.0795 31.8669 10.4053 31.9555 10.7725C31.9563 10.7758 31.957 10.7792 31.9578 10.7826C31.9676 10.8243 31.9756 10.8664 31.9819 10.909C31.983 10.9166 31.9841 10.9242 31.9851 10.9318C31.9875 10.9498 31.9895 10.9678 31.9912 10.986C31.9919 10.9929 31.9923 10.9999 31.9929 11.0069C31.9942 11.0231 31.9952 11.0394 31.9959 11.0557C31.9963 11.0622 31.9966 11.0687 31.9968 11.0752C31.9975 11.0926 31.9979 11.1102 31.9979 11.1277C31.9979 11.1339 31.998 11.14 31.9979 11.1462V20.7944C32.0144 21.1106 31.9323 21.4346 31.742 21.7175C31.6169 21.9035 31.4573 22.0523 31.278 22.1624L16.8363 31.7474C16.3289 32.0842 15.669 32.0842 15.1616 31.7474L0.676914 22.134C0.254164 21.8534 0 21.3797 0 20.8723V11.1277C0 11.1102 0.000480349 11.0926 0.00108364 11.0752C0.00138247 11.0666 0.00190366 11.0581 0.00234789 11.0495C0.00297003 11.0375 0.00378787 11.0254 0.00469578 11.0134C0.00539054 11.0043 0.00582032 10.9951 0.00668245 10.986C0.00851572 10.9664 0.0109652 10.947 0.0135455 10.9276C0.0142949 10.922 0.0150804 10.9164 0.0158934 10.9108C0.0181406 10.8953 0.0207565 10.8798 0.0234789 10.8644C0.0248553 10.8566 0.0261325 10.8489 0.0276328 10.8411C0.103773 10.446 0.335068 10.0927 0.676914 9.86583L15.1616 0.252593ZM17.5133 21.5552V27.6631L27.7589 20.8631L23.1887 17.7884L17.5133 21.5552ZM4.24083 20.8643L14.4847 27.663V21.5552L8.8109 17.7897L4.24083 20.8643ZM11.5308 15.9597L15.9989 18.9251L20.4689 15.9586L16.0009 12.9526L11.5308 15.9597ZM3.02878 18.0295L6.07959 15.9769L3.02878 13.9521V18.0295ZM25.92 15.9756L28.9693 18.027V13.9519L25.92 15.9756ZM4.25148 11.1285L8.79953 14.1471L14.4847 10.3226V4.33687L4.25148 11.1285ZM17.5133 10.3201L23.2 14.1459L27.7464 11.1285L17.5133 4.33669V10.3201Z" fill="#333333"/>
</svg>
