<svg width="32" height="32" viewBox="0 0 32 32" fill="none" xmlns="http://www.w3.org/2000/svg">
<path fill-rule="evenodd" clip-rule="evenodd" d="M26.8364 4.88248C27.1334 3.16658 27.5657 2.08719 28.0484 2.08453C28.9448 2.08719 29.6741 5.82927 29.6741 10.4492C29.6741 15.0691 28.9448 18.8139 28.0484 18.8139C27.6798 18.8139 27.3403 18.1774 27.0671 17.1112C26.6348 21.0124 25.7384 23.6937 24.6988 23.6937C23.8952 23.6937 23.1739 22.0839 22.6885 19.5432C22.357 24.3753 21.5269 27.8018 20.5536 27.8018C19.9436 27.8018 19.3867 26.4439 18.9756 24.2321C18.4797 28.7963 17.3366 31.9973 16 31.9973C14.6634 31.9973 13.5177 28.7989 13.0244 24.2321C12.6159 26.4439 12.059 27.8018 11.4464 27.8018C10.4731 27.8018 9.64296 24.3726 9.31145 19.5432C8.82612 22.0839 8.10741 23.6937 7.30118 23.6937C6.26421 23.6937 5.36516 21.0124 4.93287 17.1112C4.66236 18.18 4.32024 18.8139 3.9516 18.8139C3.05254 18.8139 2.32587 15.0691 2.32587 10.4492C2.32587 5.82927 3.05254 2.08453 3.9516 2.08453C4.43428 2.08453 4.86391 3.16658 5.1636 4.88248C5.64363 1.92276 6.42069 0 7.30118 0C8.3461 0 9.25046 2.72103 9.68009 6.66998C10.0991 3.79513 10.7356 1.96254 11.4464 1.96254C12.4436 1.96254 13.2922 5.56672 13.6078 10.5951C14.1992 8.01724 15.0559 6.39947 16.0027 6.39947C16.9494 6.39947 17.8061 8.01724 18.3948 10.5951C18.7104 5.56672 19.5564 1.96254 20.5563 1.96254C21.267 1.96254 21.9009 3.79513 22.3226 6.66998C22.7495 2.72103 23.6566 0 24.6988 0C25.5767 0 26.3564 1.92541 26.8364 4.88248ZM0 9.62705C0 7.56108 0.413725 5.88762 0.922924 5.88762C1.43212 5.88762 1.84585 7.56108 1.84585 9.62705C1.84585 11.693 1.43212 13.3665 0.922924 13.3665C0.413725 13.3665 0 11.6904 0 9.62705ZM30.1542 9.62705C30.1542 7.56108 30.5679 5.88762 31.0771 5.88762C31.5863 5.88762 32 7.56108 32 9.62705C32 11.693 31.5863 13.3665 31.0771 13.3665C30.5679 13.3665 30.1542 11.6904 30.1542 9.62705Z" fill="#333333"/>
</svg>
