<svg width="32" height="32" viewBox="0 0 32 32" fill="none" xmlns="http://www.w3.org/2000/svg">
<path d="M16 0C24.8366 0 32 7.16344 32 16C32 24.8366 24.8366 32 16 32C7.16344 32 0 24.8366 0 16C0 7.16344 7.16344 0 16 0ZM17.4707 7.55859V12.9014H13.1553C8.98735 12.9014 6.37999 15.1417 6.37988 18.7861C6.37988 22.19 8.98687 24.3437 13.1348 24.3438H22.8711V7.55859H17.4707ZM17.4414 16.4521V20.7324H14.5557C12.9265 20.7323 12.0781 20.003 12.0781 18.6055C12.0783 17.188 12.9535 16.4521 14.583 16.4521H17.4414Z" fill="#333333"/>
</svg>
