<svg width="32" height="32" viewBox="0 0 32 32" fill="none" xmlns="http://www.w3.org/2000/svg">
<path d="M27.129 6.03758C25.0429 5.08348 22.8274 4.38811 20.5149 4C20.2238 4.50132 19.9004 5.1805 19.674 5.71416C17.2143 5.35839 14.7725 5.35839 12.3467 5.71416C12.1203 5.1805 11.7807 4.50132 11.5058 4C9.17716 4.38811 6.96169 5.08348 4.89014 6.03758C0.701768 12.215 -0.430231 18.2469 0.135767 24.198C2.91723 26.2194 5.6017 27.4484 8.23925 28.2571C8.88611 27.3838 9.46828 26.4458 9.9696 25.4594C9.01548 25.1036 8.10989 24.6669 7.23663 24.1494C7.46303 23.9878 7.68944 23.8099 7.89967 23.632C13.1715 26.0416 18.8816 26.0416 24.0888 23.632C24.3152 23.8099 24.5254 23.9878 24.7518 24.1494C23.8785 24.6669 22.973 25.1036 22.0188 25.4594C22.5202 26.4458 23.1024 27.3838 23.7491 28.2571C26.3851 27.4484 29.0857 26.2194 31.8526 24.198C32.5479 17.309 30.7514 11.3257 27.129 6.03758ZM10.6973 20.5271C9.11249 20.5271 7.81878 19.0879 7.81878 17.3252C7.81878 15.5626 9.08014 14.1232 10.6973 14.1232C12.2982 14.1232 13.6081 15.5626 13.5757 17.3252C13.5757 19.0879 12.2982 20.5271 10.6973 20.5271ZM21.3235 20.5271C19.7387 20.5271 18.4433 19.0879 18.4433 17.3252C18.4433 15.5626 19.7063 14.1232 21.3235 14.1232C22.9245 14.1232 24.2343 15.5626 24.202 17.3252C24.202 19.0879 22.9406 20.5271 21.3235 20.5271Z" fill="#333333"/>
</svg>
