<svg width="32" height="32" viewBox="0 0 32 32" fill="none" xmlns="http://www.w3.org/2000/svg">
<path d="M29 0C30.6569 0 32 1.34315 32 3V29C32 30.6569 30.6569 32 29 32H3C1.34315 32 0 30.6569 0 29V3C0 1.34315 1.34315 0 3 0H29ZM22.3975 6.5459C17.9363 7.05507 10.351 6.79878 7.27246 6.70117V7.75586C9.30845 8.1381 9.77148 8.06843 9.81445 9.24609C9.96129 12.4691 9.88916 19.5823 9.81445 22.5762C9.79888 23.7034 9.16646 23.6648 7.27246 24.0352V25.0908C13.4643 24.8945 17.7153 24.9129 22.627 25.0908C22.6999 24.1802 23.1993 20.0738 23.2725 19.627H22.3457C21.0048 22.7211 20.8825 23.7558 18.2314 23.7559H14.5127C13.2629 23.7559 12.6691 23.2489 12.6689 22.1729V16.418C15.4133 16.418 16.3181 16.4994 16.335 16.501C17.6031 16.5198 17.6 17.3875 17.9814 19.0469H19.0537C18.9637 14.9728 18.9433 16.6086 19.127 12.4131H18.0537C17.5042 14.762 17.5965 15.0748 16.3564 15.1143C16.3564 15.1143 15.0854 15.2385 12.6689 15.2178V8.43945C12.6689 8.18078 12.6894 8.03619 13.1162 8.03613H18.8252C20.3245 8.03647 20.6459 10.0092 21.1064 11.7822H22.0752C22.0752 11.7822 22.2516 8.12955 22.3975 6.5459Z" fill="#333333"/>
</svg>
