<svg width="32" height="32" viewBox="0 0 32 32" fill="none" xmlns="http://www.w3.org/2000/svg">
<g clip-path="url(#clip0_21_289)">
<path fill-rule="evenodd" clip-rule="evenodd" d="M2 3C2 2.44772 2.44772 2 3 2H12.5C13.0523 2 13.5 1.55228 13.5 1C13.5 0.447715 13.0523 0 12.5 0H3C1.34315 0 0 1.34315 0 3V29C0 30.6569 1.34315 32 3 32H29C30.6569 32 32 30.6569 32 29V19C32 18.4477 31.5523 18 31 18C30.4477 18 30 18.4477 30 19V29C30 29.5523 29.5523 30 29 30H3C2.44772 30 2 29.5523 2 29V3ZM31.7071 0.292893C31.6112 0.197017 31.5007 0.124678 31.3828 0.0758787C31.2649 0.0269854 31.1356 0 31 0H30.9998H20C19.4477 0 19 0.447715 19 1C19 1.55228 19.4477 2 20 2H28.5858L9.29289 21.2929C8.90237 21.6834 8.90237 22.3166 9.29289 22.7071C9.68342 23.0976 10.3166 23.0976 10.7071 22.7071L30 3.41421V12C30 12.5523 30.4477 13 31 13C31.5523 13 32 12.5523 32 12V1.00098V1C32 0.984005 31.9996 0.96801 31.9989 0.952029C31.9874 0.712324 31.8902 0.475951 31.7071 0.292893Z" fill="#333333"/>
</g>
<defs>
<clipPath id="clip0_21_289">
<rect width="32" height="32" fill="white"/>
</clipPath>
</defs>
</svg>
