<svg width="32" height="32" viewBox="0 0 32 32" fill="none" xmlns="http://www.w3.org/2000/svg">
<path d="M16 0C24.8365 0 31.9999 7.20715 32 16.0977C32 24.1324 26.1491 30.7924 18.5 32V20.751H22.2285L22.9375 16.0977H18.5V13.0791C18.5 12.7608 18.5389 12.4447 18.6279 12.1494C18.784 11.6324 19.0946 11.1795 19.6221 10.8916C19.9989 10.686 20.4862 10.5645 21.1074 10.5645H23.125V6.60254C23.122 6.60202 22.6648 6.52367 21.9902 6.44531C21.3136 6.36672 20.4179 6.28809 19.543 6.28809C15.8887 6.28828 13.5002 8.51674 13.5 12.5508V16.0977H9.4375V20.751H13.5V32C5.85094 30.7924 0 24.1324 0 16.0977C6.65995e-05 7.20715 7.16348 0 16 0Z" fill="#333333"/>
</svg>
