<svg width="32" height="32" viewBox="0 0 32 32" fill="none" xmlns="http://www.w3.org/2000/svg">
<path d="M21.1729 0C24.4834 0.000190502 27.167 2.68448 27.167 5.99512C27.1668 8.07607 26.106 9.90866 24.4961 10.9834C26.1302 12.0541 27.2099 13.9005 27.21 16C27.21 19.3107 24.5265 21.995 21.2158 21.9951H21.0801C19.5339 21.9951 18.1299 21.395 17.0752 20.4209V26.0557C17.075 29.3387 14.4139 31.9999 11.1309 32H10.9941C7.68372 31.9997 5.00014 29.3163 5 26.0059C5 23.9156 6.07041 22.0758 7.69238 21.0029C6.07037 19.9301 5 18.0903 5 16C5.00005 13.91 6.06974 12.0699 7.69141 10.9971C6.06999 9.92424 5.00015 8.08487 5 5.99512C5 2.68452 7.68363 0.000258807 10.9941 0H21.1729ZM10.9941 21.9951C8.77927 21.9954 6.9834 23.7909 6.9834 26.0059C6.98354 28.2207 8.77935 30.0163 10.9941 30.0166H11.1309C13.3183 30.0165 15.0916 28.2431 15.0918 26.0557V21.9951H10.9941ZM10.9941 11.9893C8.77931 11.9895 6.98347 13.7851 6.9834 16C6.9834 18.215 8.77927 20.0105 10.9941 20.0107H15.0918V11.9893H10.9941ZM21.0801 11.9893C18.9054 11.9893 17.1182 13.7995 17.1182 16C17.1182 18.2006 18.9053 20.0107 21.0801 20.0107H21.2158C23.4308 20.0106 25.2266 18.215 25.2266 16C25.2265 13.785 23.4308 11.9894 21.2158 11.9893H21.0801ZM10.9941 1.9834C8.77927 1.98366 6.9834 3.78017 6.9834 5.99512C6.98364 8.20986 8.77942 10.0056 10.9941 10.0059H15.0918V1.9834H10.9941ZM17.0752 10.0059H21.1729C23.3876 10.0057 25.1833 8.2099 25.1836 5.99512C25.1836 3.78012 23.3878 1.98359 21.1729 1.9834H17.0752V10.0059Z" fill="#333333"/>
</svg>
