<svg width="32" height="32" viewBox="0 0 32 32" fill="none" xmlns="http://www.w3.org/2000/svg">
<path d="M31.4668 13.1983L31.4232 13.0828L27.0691 1.72191C26.9796 1.49897 26.8226 1.30964 26.62 1.18047C26.4175 1.0513 26.1796 0.988771 25.9397 1.00166C25.6998 1.01454 25.47 1.1022 25.2825 1.25232C25.0949 1.40245 24.9591 1.60752 24.894 1.83876L21.9536 10.8396H10.047L7.10668 1.83876C7.04014 1.60872 6.90364 1.4051 6.71611 1.25617C6.52858 1.10724 6.29934 1.0204 6.06021 1.00769C5.82108 0.994988 5.58392 1.05705 5.38167 1.18527C5.17942 1.31349 5.0221 1.5015 4.93157 1.7232L0.578796 13.0841L0.533856 13.1983C-0.0928398 14.8363 -0.169975 16.6336 0.314083 18.3193C0.798142 20.0049 1.81715 21.4874 3.21743 22.5433L3.23283 22.5562L3.27135 22.5844L9.89682 27.5497L13.1839 30.0342L15.1792 31.5442C15.4136 31.7215 15.6994 31.8174 15.9933 31.8174C16.2871 31.8174 16.573 31.7215 16.8073 31.5442L18.804 30.0342L22.091 27.5497L28.764 22.5549L28.782 22.542C30.1822 21.4864 31.2013 20.0042 31.6856 18.3188C32.1698 16.6334 32.0931 14.8363 31.4668 13.1983Z" fill="#333333"/>
</svg>
