<svg width="32" height="32" viewBox="0 0 32 32" fill="none" xmlns="http://www.w3.org/2000/svg">
<path d="M14.7383 0C20.9529 0 26.3086 3.73879 28.4639 9.05859C32.0274 12.2768 34.4251 21.3636 27.9268 27.2832C20.7121 33.8549 12.4565 30.273 9.38574 27.5684C3.90916 25.4994 0.000182023 20.3485 0 14.2705C0 6.34821 6.64057 0.000161516 14.7383 0ZM14.7383 0.979492C7.14838 0.979653 0.980469 6.92226 0.980469 14.2705C0.980706 21.6186 7.14852 27.5604 14.7383 27.5605C22.3282 27.5605 28.4968 21.6187 28.4971 14.2705C28.4971 6.92216 22.3283 0.979492 14.7383 0.979492ZM14.8389 6.44922C19.921 6.44922 21.6414 9.90657 21.7197 11.8711H18.0449C17.9668 10.771 17.0279 9.12109 14.7607 9.12109C12.3374 9.12154 10.7734 11.2429 10.7734 13.8359C10.7736 16.4287 12.3375 18.5503 14.7607 18.5508C16.9495 18.5508 17.8883 16.8222 18.2793 15.0938H14.7607V13.6787H22.1436V20.9082H18.9053V16.3506C18.6706 18.001 17.6538 21.2224 13.667 21.2227C9.67972 21.2225 7.33322 18.0006 7.33301 13.9932C7.33301 9.82833 9.9135 6.44955 14.8389 6.44922Z" fill="#333333"/>
</svg>
