<svg width="32" height="32" viewBox="0 0 32 32" fill="none" xmlns="http://www.w3.org/2000/svg">
<path fill-rule="evenodd" clip-rule="evenodd" d="M2.59824 4.60841C4.26236 2.93867 6.52011 2 8.875 2H8.92136L8.96753 2.00429C10.7024 2.1655 12.3602 2.79872 13.7623 3.83533C14.6384 4.48305 15.3938 5.27288 16 6.16793C16.6062 5.27288 17.3616 4.48305 18.2377 3.83533C19.6398 2.79872 21.2976 2.1655 23.0325 2.00429L23.0786 2H23.125C25.4799 2 27.7376 2.93867 29.4018 4.60841C31.0658 6.27804 32 8.54183 32 10.9016C32 16.8421 28.2963 21.6184 24.6154 24.8377C22.7596 26.4608 20.8667 27.7271 19.3537 28.5909C18.5974 29.0227 17.9266 29.3592 17.3938 29.5913C17.1284 29.7069 16.8863 29.8014 16.6781 29.869C16.5046 29.9253 16.2478 30 16 30C15.7535 30 15.4976 29.9262 15.324 29.8703C15.1159 29.8032 14.8738 29.7094 14.6084 29.5946C14.0756 29.3641 13.4048 29.0296 12.6483 28.6C11.135 27.7406 9.24164 26.4794 7.38547 24.8596C3.70269 21.6459 0 16.8695 0 10.9016C0 8.54183 0.934226 6.27804 2.59824 4.60841ZM8.82876 4.00016C7.02318 4.01233 5.2935 4.73726 4.01483 6.02024C2.72514 7.31428 2 9.07009 2 10.9016C2 16.0147 5.18794 20.2875 8.70047 23.3527C10.442 24.8724 12.2224 26.0581 13.6359 26.8608C14.3428 27.2622 14.9485 27.5626 15.4027 27.7591C15.6307 27.8577 15.8097 27.9255 15.9374 27.9667C15.9617 27.9745 15.9822 27.9807 15.9993 27.9857C16.0162 27.9807 16.0365 27.9745 16.0605 27.9667C16.1881 27.9253 16.367 27.8571 16.5951 27.7577C17.0493 27.5599 17.6551 27.2577 18.3621 26.854C19.7759 26.0469 21.5568 24.8558 23.2987 23.3323C26.8131 20.2586 30 15.9857 30 10.9016C30 9.07009 29.2749 7.31428 27.9852 6.02024C26.7065 4.73726 24.9768 4.01233 23.1712 4.00016C21.817 4.13443 20.5233 4.63282 19.4267 5.44353C18.3177 6.2635 17.4522 7.37194 16.9242 8.64967C16.7696 9.02374 16.4048 9.26773 16 9.26773C15.5952 9.26773 15.2304 9.02374 15.0758 8.64967C14.5478 7.37194 13.6823 6.2635 12.5733 5.44353C11.4767 4.63282 10.183 4.13443 8.82876 4.00016Z" fill="#333333"/>
</svg>
