<svg width="32" height="32" viewBox="0 0 32 32" fill="none" xmlns="http://www.w3.org/2000/svg">
<path d="M8.96777 2.00391C10.7025 2.16515 12.3607 2.79839 13.7627 3.83496C14.6387 4.48267 15.3938 5.27296 16 6.16797C16.6062 5.27296 17.3613 4.48267 18.2373 3.83496C19.6393 2.79839 21.2975 2.16515 23.0322 2.00391L23.0791 2H23.125C25.4798 2 27.7373 2.93878 29.4014 4.6084C31.0653 6.27798 31.9999 8.54168 32 10.9014C32 16.8418 28.2962 21.6185 24.6152 24.8379C22.7596 26.4609 20.8665 27.7271 19.3535 28.5908C18.5972 29.0226 17.9263 29.3597 17.3936 29.5918C17.1283 29.7073 16.8858 29.8016 16.6777 29.8691C16.5043 29.9254 16.2477 30 16 30C15.7535 30 15.4978 29.9261 15.3242 29.8701C15.1161 29.8031 14.8738 29.7096 14.6084 29.5947C14.0756 29.3642 13.4049 29.0292 12.6484 28.5996C11.1352 27.7403 9.24189 26.4791 7.38574 24.8594C3.70296 21.6456 0 16.8693 0 10.9014C5.91494e-05 8.54168 0.934675 6.27798 2.59863 4.6084C4.26274 2.93878 6.52021 2 8.875 2H8.9209L8.96777 2.00391Z" fill="#333333"/>
</svg>
