<svg width="32" height="32" viewBox="0 0 32 32" fill="none" xmlns="http://www.w3.org/2000/svg">
<path d="M29 14.8722C29 14.5942 28.8843 14.3289 28.6807 14.1397L16.6807 2.99619C16.297 2.64002 15.703 2.64002 15.3193 2.99619L3.31934 14.1397C3.11575 14.3289 3.00002 14.5942 3 14.8722V29.0001C3 29.5524 3.44772 30.0001 4 30.0001H10C10.5523 30.0001 11 29.5524 11 29.0001V23.0001C11 21.3432 12.3431 20.0001 14 20.0001H18C19.6569 20.0001 21 21.3432 21 23.0001V29.0001C21 29.5524 21.4477 30.0001 22 30.0001H28C28.5523 30.0001 29 29.5524 29 29.0001V14.8722ZM31 29.0001C31 30.657 29.6569 32.0001 28 32.0001H22C20.3431 32.0001 19 30.657 19 29.0001V23.0001C19 22.4478 18.5523 22.0001 18 22.0001H14C13.4477 22.0001 13 22.4478 13 23.0001V29.0001C13 30.657 11.6569 32.0001 10 32.0001H4C2.34315 32.0001 1 30.657 1 29.0001V14.8722C1.00002 14.038 1.3477 13.2415 1.95898 12.6739L13.959 1.53135C15.11 0.462532 16.89 0.462532 18.041 1.53135L30.041 12.6739C30.6523 13.2415 31 14.038 31 14.8722V29.0001Z" fill="#333333"/>
</svg>
