<svg width="32" height="32" viewBox="0 0 32 32" fill="none" xmlns="http://www.w3.org/2000/svg">
<path d="M7.58398 7C9.64784 7.00007 11.4875 7.53774 12.7451 8.34766L10.3672 12.0518C9.60243 11.6229 8.68088 11.2871 7.38184 11.2871C5.63198 11.2871 4.46387 11.918 4.46387 15.667C4.46392 19.4156 5.16167 20.3603 7.20312 20.3604C9.39129 20.3604 9.33398 19.5467 9.33398 17.709V17.418H6.4707L6.95996 13.8037H13.3984V23.8398H9.31152C8.59513 23.9743 7.76633 24.042 6.7998 24.042C1.34716 24.042 2.50649e-05 20.5618 0 15.5322C0 9.7631 1.84021 7 7.58398 7ZM22.2812 7C28.4734 7.00007 29.5518 11.0854 29.5518 15.5322C29.5517 19.9791 28.4768 24.0419 22.2812 24.042C16.0863 24.042 14.9854 20.0016 14.9854 15.5322C14.9854 11.0629 16.0862 7 22.2812 7ZM30.9854 21.208C31.795 21.208 31.9999 21.7589 32 22.4727C32 23.1866 31.7952 23.7314 30.9854 23.7314C30.1756 23.7314 29.9775 23.1897 29.9775 22.4727C29.9776 21.7557 30.1758 21.2081 30.9854 21.208ZM30.9854 21.3945C30.3229 21.3946 30.1699 21.8651 30.1699 22.4766C30.17 23.0879 30.323 23.5546 30.9854 23.5547C31.6478 23.5547 31.8046 23.0911 31.8047 22.4766C31.8047 21.8618 31.6479 21.3945 30.9854 21.3945ZM31.0557 21.7139C31.4462 21.7139 31.5449 21.8876 31.5449 22.1885L31.542 22.1914C31.542 22.4248 31.4816 22.5909 31.2803 22.6582L31.5332 23.2188H31.2158L30.9824 22.6875H30.7871V23.2188H30.4795V21.7139H31.0557ZM30.79 22.4375H31.043C31.1899 22.4374 31.2412 22.3731 31.2412 22.21C31.2411 22.0472 31.1932 21.9835 31.043 21.9834H30.79V22.4375ZM22.2812 11.29C19.8334 11.29 19.4971 12.9551 19.4971 15.6924C19.4971 18.4296 19.8368 20.1133 22.2812 20.1133C24.7037 20.1132 25.04 18.4103 25.04 15.6924C25.04 12.9743 24.7297 11.2901 22.2812 11.29Z" fill="#333333"/>
</svg>
