<svg width="32" height="32" viewBox="0 0 32 32" fill="none" xmlns="http://www.w3.org/2000/svg">
<path d="M15.9072 0C20.2265 0 20.7697 0.0190166 22.4746 0.0888672C24.1733 0.165073 25.3295 0.438302 26.3398 0.832031C27.3816 1.24479 28.2723 1.79073 29.1562 2.67969C30.0401 3.56858 30.589 4.45781 30.9932 5.51172C31.3847 6.53409 31.6566 7.69665 31.7324 9.39844C31.8082 11.1067 31.8271 11.647 31.8271 15.9971C31.8271 20.3467 31.8082 20.8867 31.7324 22.5947C31.6566 24.303 31.3847 25.4654 30.9932 26.4814C30.5827 27.5291 30.0401 28.4245 29.1562 29.3135C28.2722 30.2025 27.388 30.7557 26.3398 31.1621C25.3231 31.5558 24.167 31.8281 22.4746 31.9043C20.776 31.9805 20.2387 32 15.9131 32C11.5879 32 11.0511 31.9805 9.35254 31.9043C7.65383 31.8281 6.49769 31.5558 5.4873 31.1621C4.44542 30.7493 3.55494 30.2025 2.6709 29.3135C1.78702 28.4245 1.23809 27.5354 0.833984 26.4814C0.44246 25.459 0.170505 24.2967 0.0947266 22.5947C0.0189578 20.8867 7.13157e-07 20.3404 0 15.9971C0 11.6535 0.0189563 11.107 0.0947266 9.40527C0.170505 7.697 0.44246 6.53463 0.833984 5.51855C1.2444 4.4709 1.78702 3.57545 2.6709 2.68652C3.55494 1.79751 4.43911 1.24431 5.4873 0.837891C6.49761 0.444191 7.65351 0.171932 9.3457 0.0957031C11.0444 0.0194976 11.5878 5.10299e-08 15.9072 0ZM15.9072 2.88281C11.6573 2.88281 11.1583 2.89596 9.47852 2.97852C7.92515 3.04838 7.08544 3.31534 6.52344 3.53125C5.7784 3.81697 5.24799 4.16593 4.69238 4.72461C4.13668 5.28345 3.79537 5.81706 3.50488 6.56641C3.28388 7.13156 3.02456 7.97606 2.95508 9.53809C2.8793 11.2273 2.86035 11.7293 2.86035 16.0029C2.86035 20.2766 2.87931 20.7787 2.95508 22.4678C3.02454 24.03 3.29018 24.8752 3.50488 25.4404C3.78902 26.1896 4.13678 26.7225 4.69238 27.2812C5.24809 27.8401 5.77829 28.1835 6.52344 28.4756C7.08545 28.6978 7.92528 28.9585 9.47852 29.0283C11.1583 29.1045 11.6573 29.123 15.9072 29.123C20.1572 29.123 20.6562 29.1045 22.3359 29.0283C23.8892 28.9585 24.729 28.6915 25.291 28.4756C26.0362 28.1898 26.5664 27.8401 27.1221 27.2812C27.6777 26.7225 28.0191 26.1895 28.3096 25.4404C28.5306 24.8752 28.7899 24.03 28.8594 22.4678C28.9351 20.7787 28.9541 20.2766 28.9541 16.0029C28.9541 11.7293 28.9352 11.2273 28.8594 9.53809C28.7899 7.97606 28.5243 7.13156 28.3096 6.56641C28.0254 5.81707 27.6778 5.28344 27.1221 4.72461C26.5665 4.16594 26.036 3.82332 25.291 3.53125C24.729 3.30899 23.8893 3.04838 22.3359 2.97852C20.6562 2.90231 20.1572 2.88281 15.9072 2.88281ZM15.9072 7.7793C20.4161 7.7793 24.0791 11.4628 24.0791 15.9971C24.079 20.5312 20.416 24.2139 15.9072 24.2139C11.3985 24.2139 7.73549 20.5375 7.73535 15.9971C7.73535 11.4565 11.3984 7.77931 15.9072 7.7793ZM15.9072 10.6621C12.9771 10.6621 10.6025 13.0505 10.6025 15.9971C10.6027 18.9436 12.9772 21.331 15.9072 21.3311C18.8373 21.3311 21.2118 18.9436 21.2119 15.9971C21.2119 13.0505 18.8373 10.6621 15.9072 10.6621ZM24.4004 5.53809C25.4535 5.53809 26.3074 6.39606 26.3076 7.45508C26.3076 8.51427 25.4537 9.37305 24.4004 9.37305C23.3473 9.37285 22.4941 8.51415 22.4941 7.45508C22.4943 6.39618 23.3474 5.53828 24.4004 5.53809Z" fill="#333333"/>
</svg>
