<svg width="32" height="32" viewBox="0 0 32 32" fill="none" xmlns="http://www.w3.org/2000/svg">
<path d="M29.5 0C30.8807 0 32 1.11925 32 2.5V29.5C32 30.8807 30.8807 32 29.5 32H2.5C1.11925 32 0 30.8807 0 29.5V2.5C0 1.11925 1.11925 0 2.5 0H29.5ZM16 4.5C8.82025 4.5 3 9.08912 3 14.75C3 18.4099 5.4335 21.6212 9.09375 23.4346C8.89467 24.1212 7.81393 27.851 7.77051 28.1455C7.77051 28.1455 7.74507 28.3662 7.8877 28.4502C8.03029 28.5341 8.19824 28.4688 8.19824 28.4688C8.60868 28.4105 12.9414 25.3674 13.6914 24.8389C14.4407 24.945 15.2121 25 16 25C23.1797 25 29 20.411 29 14.75C29 9.08913 23.1797 4.5 16 4.5ZM10.7324 11.6875C11.1383 11.6875 11.4688 12.017 11.4688 12.4219C11.4688 12.8268 11.1382 13.1562 10.7324 13.1562H9.5625V17.6123C9.56226 18.0071 9.22598 18.3281 8.8125 18.3281C8.39902 18.3281 8.06274 18.0071 8.0625 17.6123V13.1562H6.89258C6.4867 13.1562 6.15625 12.8268 6.15625 12.4219C6.15625 12.017 6.48683 11.6875 6.89258 11.6875H10.7324ZM13.249 11.6875C13.7389 11.6985 14.1234 12.0688 14.25 12.4287L16.043 17.1484C16.2711 17.8569 16.0728 18.1195 15.8662 18.2148C15.7165 18.2831 15.5532 18.3185 15.3887 18.3184C15.0761 18.3183 14.8368 18.1914 14.7646 17.9873L14.3936 17.0146H12.1064L11.7354 17.9873C11.6635 18.1911 11.424 18.3183 11.1113 18.3184C10.9469 18.3185 10.7843 18.2831 10.6348 18.2148C10.428 18.1195 10.2293 17.8568 10.457 17.1494L12.251 12.4277C12.3774 12.0688 12.7608 11.6988 13.249 11.6875ZM21.417 11.6875C21.8305 11.6876 22.167 12.024 22.167 12.4375V14.0498L24.2588 11.957C24.3663 11.8495 24.5145 11.7901 24.6748 11.79C24.8621 11.79 25.0505 11.871 25.1914 12.0117C25.3227 12.143 25.4014 12.312 25.4121 12.4873C25.4229 12.6641 25.3635 12.8258 25.2461 12.9434L23.5371 14.6523L25.3838 17.0986C25.4432 17.1769 25.486 17.2663 25.5107 17.3613C25.5355 17.4567 25.5413 17.5568 25.5273 17.6543C25.5139 17.7518 25.4815 17.8458 25.4316 17.9307C25.3817 18.0155 25.3151 18.0894 25.2363 18.1484C25.1066 18.247 24.9481 18.3002 24.7852 18.2998C24.669 18.3003 24.5542 18.2734 24.4502 18.2217C24.3463 18.17 24.2561 18.0948 24.1865 18.002L22.4277 15.6709L22.167 15.9316V17.5684C22.1667 17.7671 22.0878 17.958 21.9473 18.0986C21.8067 18.2392 21.6158 18.318 21.417 18.3184C21.0034 18.3184 20.667 17.982 20.667 17.5684V12.4375C20.667 12.0239 21.0034 11.6875 21.417 11.6875ZM17.2969 11.6875C17.719 11.6875 18.0625 12.0239 18.0625 12.4375V16.8438H19.6562C20.0526 16.8438 20.375 17.1522 20.375 17.5312C20.375 17.9103 20.0526 18.2188 19.6562 18.2188H17.25C16.8536 18.2188 16.5312 17.9103 16.5312 17.5312V12.4375C16.5312 12.0239 16.8747 11.6875 17.2969 11.6875ZM12.501 15.6865H13.999L13.25 13.5586L12.501 15.6865Z" fill="#333333"/>
</svg>
