<svg width="32" height="32" viewBox="0 0 32 32" fill="none" xmlns="http://www.w3.org/2000/svg">
<path d="M24.8914 16.0094L27.7683 13.1213C30.7439 10.127 30.7439 5.25103 27.7683 2.25669C24.7926 -0.737644 19.9402 -0.737644 16.9646 2.25669L15.9151 3.3069C14.5322 1.3065 12.248 0 9.63664 0C5.42013 0 2 3.43817 2 7.6765V24.3235C2 28.5618 5.42013 32 9.63664 32C12.248 32 14.5322 30.6935 15.9151 28.6931L16.9646 29.7433C19.9402 32.7376 24.7926 32.7376 27.7683 29.7433C30.7439 26.749 30.7439 21.873 27.7683 18.8787L24.8914 16.0094Z" fill="#333333"/>
</svg>
