<svg width="32" height="32" viewBox="0 0 32 32" fill="none" xmlns="http://www.w3.org/2000/svg">
<path d="M15.1348 4C20.7449 4 22.1995 4.06985 24.2773 4.27734C29.1607 4.76192 32 7.77512 32 12.1045V12.6582C31.9999 16.6759 29.0561 19.966 25.0732 20.3115C24.7616 21.3509 24.2773 22.3893 23.6191 23.4287C22.0954 25.7835 19.0474 28.7616 13.4375 28.7617H12.3291C7.75748 28.7617 4.22489 26.7883 2.1123 23.1865C0.241936 20.0355 0 16.5363 0 11.8613C0.000178823 7.25517 2.77218 4.76263 6.02734 4.34668C8.48638 4.03497 11.534 4 15.1348 4ZM15.1338 6.59766C11.3597 6.59766 8.65821 6.63265 6.61523 6.94434C3.74127 7.36033 2.59766 8.98773 2.59766 11.8965C2.59769 16.3635 2.87579 19.2378 4.33008 21.9043C5.99201 24.9863 9.00491 26.164 12.4336 26.1641H13.5068C18.0084 26.1639 20.1912 23.9822 21.4033 22.0781C21.992 21.1083 22.5111 20.0347 22.7881 18.6836L22.9961 17.8184H24.2432C27.0135 17.818 29.403 15.567 29.4033 12.6924V12.1729C29.4032 8.95253 27.3947 7.25489 23.8965 6.83984C21.9229 6.66709 20.7445 6.59766 15.1338 6.59766ZM16.21 9.8877C18.5994 9.88792 20.2607 11.8624 20.2607 14.0791C20.2606 16.123 19.1178 17.8885 17.6289 19.2734C16.6936 20.2085 15.1712 21.1794 14.1318 21.8027C13.8539 21.9755 13.5084 22.079 13.0928 22.0791C12.7462 22.0791 12.4338 21.9756 12.1221 21.8027C11.0836 21.1794 9.55975 20.2085 8.58984 19.2734C7.22639 17.9741 6.13656 16.3407 6.00586 14.458L5.99219 14.0791C5.99219 11.8622 7.58544 9.8877 10.0098 9.8877C11.4303 9.8877 12.4345 10.6145 13.0928 11.6191C13.8203 10.6156 14.7906 9.8877 16.21 9.8877ZM23.8633 9.64551C25.6292 9.64565 26.5996 10.6859 26.5996 12.3477C26.5993 14.009 25.629 15.0135 23.8633 15.0137C23.3095 15.0136 22.9982 14.7019 22.998 14.2861V10.374C22.998 9.95809 23.3093 9.64556 23.8633 9.64551Z" fill="#333333"/>
</svg>
