<svg width="32" height="32" viewBox="0 0 32 32" fill="none" xmlns="http://www.w3.org/2000/svg">
<path d="M24.7861 0C28.7702 7.1124e-05 31.9999 3.22979 32 7.21387V24.7861C31.9999 28.7702 28.7702 31.9999 24.7861 32H7.21387C3.22979 31.9999 7.1126e-05 28.7702 0 24.7861V7.21387C7.18971e-05 3.22979 3.22979 7.18991e-05 7.21387 0H24.7861ZM15.9971 5.83398C10.1141 5.83398 5.32812 9.71819 5.32812 14.4922C5.32823 18.7721 9.12807 22.3572 14.25 23.0342C14.5979 23.1092 15.0713 23.2627 15.1904 23.5596C15.2984 23.8296 15.2606 24.2534 15.2246 24.5254C15.2212 24.546 15.0999 25.2807 15.0732 25.4385C15.0261 25.7089 14.8587 26.4924 15.9971 26.0137C17.1364 25.5344 22.1409 22.3962 24.3789 19.8193C25.9249 18.1244 26.666 16.4001 26.666 14.4922C26.666 9.71821 21.88 5.83401 15.9971 5.83398ZM18.9844 12.1846C19.0108 12.1846 19.0371 12.19 19.0615 12.2002C19.0861 12.2105 19.1083 12.2261 19.127 12.2451C19.1455 12.2641 19.1601 12.2868 19.1699 12.3115C19.1796 12.3361 19.1841 12.3623 19.1836 12.3887V17.0332C19.1835 17.0862 19.1625 17.1373 19.125 17.1748C19.0876 17.212 19.0371 17.2333 18.9844 17.2334H18.2324C18.2142 17.2331 18.1954 17.2299 18.1777 17.2256H18.1475L18.1367 17.2207H18.1309L18.1191 17.2129C18.0988 17.199 18.0813 17.1814 18.0674 17.1611L15.9336 14.2812V17.0742C15.9335 17.1272 15.9125 17.1784 15.875 17.2158C15.8376 17.253 15.7871 17.2743 15.7344 17.2744H14.9766C14.9239 17.2743 14.8733 17.253 14.8359 17.2158C14.7985 17.1784 14.7774 17.1272 14.7773 17.0742V12.418C14.7774 12.3649 14.7984 12.3139 14.8359 12.2764C14.8733 12.2391 14.9238 12.2179 14.9766 12.2178H15.8242L15.835 12.2236H15.8408L15.8516 12.2324H15.8584L15.8691 12.2412L15.8809 12.2529C15.8873 12.2593 15.8936 12.2668 15.8984 12.2744L18.0283 15.1514V12.3848C18.0284 12.3318 18.0495 12.2806 18.0869 12.2432C18.1243 12.206 18.1748 12.1847 18.2275 12.1846H18.9844ZM9.79199 12.1934C9.84504 12.1934 9.89609 12.2144 9.93359 12.252C9.97083 12.2893 9.99208 12.3398 9.99219 12.3926V16.0928H12.0293C12.0822 16.0929 12.1335 16.1139 12.1709 16.1514C12.2083 16.1889 12.2295 16.24 12.2295 16.293V17.0488C12.2295 17.1018 12.2083 17.1529 12.1709 17.1904C12.1335 17.2279 12.0822 17.2489 12.0293 17.249L12.0322 17.2461H9.03223C8.97921 17.2461 8.92813 17.225 8.89062 17.1875C8.85312 17.15 8.83203 17.0989 8.83203 17.0459V12.3926C8.83214 12.3398 8.85332 12.2893 8.89062 12.252C8.92813 12.2144 8.97918 12.1934 9.03223 12.1934H9.79199ZM13.833 12.1846C13.9456 12.1846 14.0369 12.2762 14.0371 12.3887V17.0449C14.0371 17.1576 13.9457 17.249 13.833 17.249H13.0771C12.9645 17.249 12.873 17.1576 12.873 17.0449V12.3887C12.8732 12.2762 12.9646 12.1846 13.0771 12.1846H13.833ZM23.1162 12.1943C23.1692 12.1944 23.2204 12.2155 23.2578 12.2529C23.295 12.2903 23.3163 12.3408 23.3164 12.3936V13.1514C23.3163 13.2041 23.295 13.2546 23.2578 13.292C23.2204 13.3294 23.1692 13.3505 23.1162 13.3506H21.0791V14.1357H23.1162C23.1692 14.1358 23.2204 14.1569 23.2578 14.1943C23.2953 14.2318 23.3164 14.283 23.3164 14.3359V15.0996C23.3164 15.1525 23.2951 15.2037 23.2578 15.2412C23.2204 15.2787 23.1692 15.2997 23.1162 15.2998H21.0791V16.0859H23.1162C23.1692 16.086 23.2204 16.1071 23.2578 16.1445C23.2952 16.182 23.3164 16.2332 23.3164 16.2861V17.042C23.3173 17.0688 23.3124 17.096 23.3027 17.1211C23.2931 17.146 23.2783 17.1683 23.2598 17.1875C23.2411 17.2068 23.2191 17.2229 23.1943 17.2334C23.1697 17.2439 23.143 17.249 23.1162 17.249H20.1162C20.0632 17.249 20.0121 17.2279 19.9746 17.1904C19.9371 17.1529 19.916 17.1019 19.916 17.0488V12.3936C19.9161 12.3407 19.9373 12.2903 19.9746 12.2529C20.0121 12.2154 20.0632 12.1943 20.1162 12.1943H23.1162Z" fill="#333333"/>
</svg>
