<svg width="32" height="32" viewBox="0 0 32 32" fill="none" xmlns="http://www.w3.org/2000/svg">
<path d="M7.53027 16.1367C9.31038 16.1367 10.7783 16.5608 11.9326 17.4092C13.0868 18.2575 13.8379 19.4327 14.1855 20.9346H10.2637C10.0412 20.4479 9.70011 20.0794 9.24121 19.8291C8.7962 19.5649 8.21899 19.4326 7.50977 19.4326C6.64755 19.4326 5.92393 19.614 5.33984 19.9756C4.76998 20.3371 4.33884 20.8513 4.04688 21.5186C3.76873 22.1722 3.62988 22.9515 3.62988 23.8555C3.6299 24.7731 3.77547 25.5518 4.06738 26.1914C4.35938 26.8171 4.78371 27.2905 5.33984 27.6104C5.89613 27.9302 6.57156 28.0898 7.36426 28.0898C8.44878 28.0898 9.26899 27.8253 9.8252 27.2969C10.3953 26.7545 10.7506 26.1083 10.8896 25.3574H7.73926V22.7285H14.4561V30.9893H11.1602L10.8896 29.5293C10.6116 29.8907 10.2845 30.2036 9.90918 30.4678C9.53373 30.7181 9.09531 30.9061 8.59473 31.0312C8.108 31.1703 7.55157 31.2402 6.92578 31.2402C5.5352 31.2402 4.31836 30.9341 3.27539 30.3223C2.24628 29.7104 1.43956 28.8479 0.855469 27.7354C0.285279 26.6228 0 25.322 0 23.834C6.19158e-05 22.3322 0.299519 21.0038 0.897461 19.8496C1.49537 18.6957 2.35732 17.7922 3.4834 17.1387C4.60977 16.4712 5.95895 16.1368 7.53027 16.1367ZM24.6777 16.1367C26.124 16.1367 27.3965 16.457 28.4951 17.0967C29.5938 17.7364 30.4496 18.6262 31.0615 19.7666C31.6873 20.8931 32 22.2005 32 23.6885C32 25.1764 31.6872 26.4906 31.0615 27.6309C30.4496 28.7573 29.5938 29.6405 28.4951 30.2803C27.3965 30.9199 26.124 31.2402 24.6777 31.2402C23.2454 31.2402 21.9795 30.92 20.8809 30.2803C19.7824 29.6406 18.9207 28.7572 18.2949 27.6309C17.6691 26.4905 17.3555 25.1765 17.3555 23.6885C17.3555 22.2004 17.6691 20.8931 18.2949 19.7666C18.9207 18.6264 19.7825 17.7364 20.8809 17.0967C21.9795 16.457 23.2454 16.1367 24.6777 16.1367ZM24.6777 19.3701C23.9268 19.3701 23.273 19.5515 22.7168 19.9131C22.1608 20.2607 21.7297 20.7541 21.4238 21.3936C21.1318 22.0333 20.9854 22.7984 20.9854 23.6885C20.9854 24.5646 21.1318 25.3298 21.4238 25.9834C21.7298 26.623 22.1606 27.1238 22.7168 27.4854C23.273 27.833 23.9268 28.0068 24.6777 28.0068C25.4425 28.0068 26.0963 27.8329 26.6387 27.4854C27.1949 27.1238 27.6191 26.623 27.9111 25.9834C28.2171 25.3298 28.3701 24.5646 28.3701 23.6885C28.3701 22.7984 28.2171 22.0333 27.9111 21.3936C27.6191 20.754 27.1948 20.2607 26.6387 19.9131C26.0963 19.5515 25.4426 19.3701 24.6777 19.3701ZM19.2227 0C20.669 0 21.9424 0.320236 23.041 0.959961C24.1394 1.59967 24.9946 2.48967 25.6064 3.62988C26.2322 4.75633 26.5449 6.06375 26.5449 7.55176C26.5449 9.03971 26.2322 10.3538 25.6064 11.4941C24.9946 12.6205 24.1395 13.5038 23.041 14.1436C21.9424 14.7833 20.669 15.1035 19.2227 15.1035C17.7905 15.1034 16.5252 14.7831 15.4268 14.1436C14.3281 13.5038 13.4657 12.6206 12.8398 11.4941C12.2141 10.3538 11.9014 9.03972 11.9014 7.55176C11.9014 6.06373 12.2141 4.75634 12.8398 3.62988C13.4657 2.4895 14.3281 1.59969 15.4268 0.959961C16.5253 0.320322 17.7904 6.57809e-05 19.2227 0ZM4.00488 12.0996H10.1387V14.8525H0.438477V0.25H4.00488V12.0996ZM19.2227 3.2334C18.4719 3.23347 17.8179 3.41388 17.2617 3.77539C16.7055 4.12306 16.2747 4.61718 15.9688 5.25684C15.6767 5.89656 15.5312 6.66171 15.5312 7.55176C15.5313 8.42781 15.6767 9.1931 15.9688 9.84668C16.2747 10.4862 16.7056 10.9871 17.2617 11.3486C17.8179 11.6962 18.4719 11.87 19.2227 11.8701C19.9873 11.8701 20.6413 11.6961 21.1836 11.3486C21.7397 10.9872 22.164 10.4861 22.4561 9.84668C22.762 9.1931 22.915 8.42781 22.915 7.55176C22.915 6.66171 22.762 5.89656 22.4561 5.25684C22.164 4.6172 21.7398 4.12303 21.1836 3.77539C20.6413 3.41401 19.9873 3.2334 19.2227 3.2334Z" fill="#333333"/>
</svg>
