<svg width="32" height="35" viewBox="0 0 32 35" fill="none" xmlns="http://www.w3.org/2000/svg">
<path fill-rule="evenodd" clip-rule="evenodd" d="M16.0576 0C20.4428 0.0360677 24.6646 0.51117 27.123 1.64062C27.163 1.65865 31.9989 3.85218 31.999 11.2637C31.999 11.2637 32.0594 16.755 31.3183 20.5674C30.848 22.9876 27.106 25.636 22.8076 26.1494C20.5662 26.4168 18.3588 26.6628 16.0058 26.5547C12.1573 26.3787 9.12008 25.6367 9.12008 25.6367C9.12009 26.0112 9.14309 26.3678 9.18942 26.7012C9.68977 30.4997 12.9557 30.727 16.0488 30.833C19.1712 30.9399 21.9521 30.0635 21.9521 30.0635L22.08 32.8867C22.0637 32.8954 19.8818 34.0603 16.0058 34.2754C13.8602 34.3934 11.1964 34.2213 8.09372 33.4004C1.36489 31.6191 0.208021 24.4451 0.0312173 17.167C-0.0228503 15.0059 0.00973288 12.9682 0.00973288 11.2637C0.00984207 3.86272 4.83216 1.66481 4.88571 1.64062C7.34422 0.511143 11.5634 0.0360473 15.9492 0H16.0576ZM21.0146 5.81543C19.188 5.81543 17.8041 6.51757 16.8896 7.92188L16 9.41309L15.1103 7.92188C14.1958 6.51758 12.812 5.81543 10.9853 5.81543C9.40631 5.81553 8.1341 6.37052 7.16305 7.45312C6.22119 8.53582 5.7529 10 5.7529 11.8418V20.8525H9.32223V12.1064C9.32223 10.2625 10.0986 9.32715 11.6504 9.32715C13.3654 9.32728 14.2255 10.4366 14.2256 12.6318V17.4199H17.7744V12.6318C17.7744 10.4366 18.6342 9.32729 20.3496 9.32715C21.9013 9.32715 22.6767 10.2625 22.6767 12.1064V20.8525H26.247V11.8418C26.247 10 25.7787 8.53582 24.8369 7.45312C23.8658 6.37051 22.5932 5.81553 21.0146 5.81543Z" fill="#333333"/>
</svg>
