<svg width="32" height="32" viewBox="0 0 32 32" fill="none" xmlns="http://www.w3.org/2000/svg">
<path d="M4.03516 0.732422H1.8418V31.249H4.03516V31.9814H1V0H4.03516V0.732422ZM31.8408 31.9814H28.8057V31.249H30.999V0.732422H28.8057V0H31.8408V31.9814ZM20.5791 10.0977C21.181 10.0977 21.7386 10.1714 22.2529 10.3184C22.7666 10.4654 23.208 10.7009 23.5752 11.0244C23.942 11.3482 24.2286 11.7714 24.4346 12.293C24.6399 12.8155 24.7422 13.4442 24.7422 14.1797V21.8125H21.6143V15.3486C21.6143 14.9665 21.5998 14.606 21.5703 14.2676C21.5406 13.9295 21.4603 13.6352 21.3281 13.3848C21.1959 13.1349 21.0008 12.9362 20.7441 12.7891C20.4871 12.6425 20.1378 12.5684 19.6973 12.5684C19.2569 12.5684 18.9006 12.6538 18.6289 12.8223C18.357 12.9917 18.1443 13.2127 17.9902 13.4844C17.8361 13.7568 17.7329 14.0654 17.6816 14.4111C17.63 14.7566 17.6045 15.1061 17.6045 15.459V21.8125H14.4766V15.415C14.4766 15.0768 14.4692 14.7419 14.4551 14.4111C14.4401 14.08 14.3779 13.7747 14.2676 13.4951C14.1574 13.2161 13.9736 12.9916 13.7168 12.8223C13.4597 12.6537 13.0813 12.5684 12.582 12.5684C12.435 12.5684 12.2401 12.6016 11.998 12.668C11.7558 12.7342 11.5204 12.8595 11.293 13.043C11.0652 13.2269 10.8714 13.4919 10.71 13.8369C10.5483 14.1827 10.4668 14.6355 10.4668 15.1943V21.8125H7.33887V10.4062H10.291V11.9512H10.335C10.7463 11.3633 11.2419 10.9066 11.8223 10.583C12.4021 10.2601 13.0668 10.0977 13.8154 10.0977C14.5348 10.0977 15.1925 10.2375 15.7871 10.5166C16.382 10.7962 16.8341 11.289 17.1426 11.9951C17.4801 11.4952 17.9392 11.0542 18.5195 10.6719C19.0995 10.2897 19.7859 10.0977 20.5791 10.0977Z" fill="#333333"/>
</svg>
