<svg width="32" height="32" viewBox="0 0 32 32" fill="none" xmlns="http://www.w3.org/2000/svg">
<path d="M9.025 7C14.0096 7 18.05 11.0686 18.05 16.087C18.05 21.1055 14.0092 25.1737 9.025 25.1737C4.041 25.1737 0 21.1055 0 16.087C0 11.0687 4.04062 7 9.025 7ZM23.4375 7.53225C25.9298 7.53225 27.9501 11.362 27.9501 16.087H27.9505C27.9505 20.8109 25.9301 24.6418 23.438 24.6418C20.9459 24.6418 18.9254 20.8109 18.9254 16.087C18.9254 11.3632 20.9454 7.53225 23.4376 7.53225H23.4375ZM30.4129 8.42338C31.2892 8.42338 32 11.8545 32 16.0871C32 20.3184 31.2895 23.7509 30.4129 23.7509C29.5362 23.7509 28.8261 20.3194 28.8261 16.0871C28.8261 11.8547 29.5366 8.42338 30.4129 8.42338Z" fill="#333333"/>
</svg>
