<svg width="32" height="32" viewBox="0 0 32 32" fill="none" xmlns="http://www.w3.org/2000/svg">
<path d="M31.1348 3C31.6071 3.01753 32 3.41107 32 3.89746V27.3398C32 27.8267 31.5992 28.2383 31.1016 28.2383H25.2705C24.9678 28.2381 24.7187 28.0973 24.5781 27.8486L15.8164 12.0869C15.6758 11.8165 15.2861 11.9246 15.2861 12.2275V27.3291C15.2861 27.8159 14.8853 28.2275 14.3877 28.2275H10.7207C10.2339 28.2275 9.82227 27.8267 9.82227 27.3291V3.9082C9.82227 3.42139 10.2231 3.00977 10.7207 3.00977H16.8223C17.125 3.00988 17.3741 3.15073 17.5146 3.39941L26.0391 18.707C26.1797 18.9775 26.5693 18.8693 26.5693 18.5664V3.9082C26.5693 3.42146 26.9693 3.00988 27.4668 3.00977H31.1348V3ZM5.14941 3.00977C5.64525 3.00984 6.04688 3.41236 6.04688 3.9082V7.52148C6.04679 8.01727 5.64519 8.41888 5.14941 8.41895H0.897461C0.401757 8.41878 8.38615e-05 8.01721 0 7.52148V3.9082C0 3.41242 0.401705 3.00994 0.897461 3.00977H5.14941Z" fill="#333333"/>
</svg>
