<svg width="32" height="32" viewBox="0 0 32 32" fill="none" xmlns="http://www.w3.org/2000/svg">
<path fill-rule="evenodd" clip-rule="evenodd" d="M10.1212 17.1435C10.3292 17.0686 10.4499 17.1128 10.5665 17.3007C11.4706 18.7589 12.3353 20.2401 13.1066 21.7734C13.3285 22.2145 13.4945 22.682 13.4288 23.1855C13.2928 24.2284 12.2379 25.1415 11.1808 25.1347C10.5395 25.1306 9.90409 25.1476 9.28332 25.3349C8.10238 25.6912 7.54874 26.5521 7.72766 27.7646C7.98103 29.4809 9.09325 30.4485 10.837 30.5087C12.8962 30.5798 14.7362 29.9113 16.4513 28.8505C17.4248 28.2484 17.8863 27.2703 18.1671 26.207C18.5373 24.8051 18.6407 23.3751 18.5157 21.9306C18.4733 21.4392 18.5781 21.3394 19.088 21.371C20.1598 21.4376 20.8912 22.0156 21.3947 22.9159C21.918 23.8518 22.1777 24.8653 22.2306 25.9365C22.253 26.3926 22.2868 26.8517 22.3614 27.3017C22.5878 28.6676 23.4711 29.0332 24.6554 28.9911C24.8968 28.9825 25.1365 28.9231 25.3829 28.8857C25.4026 29.007 25.2982 29.0241 25.2394 29.0654C22.914 30.6972 20.342 31.6638 17.5089 31.9238C17.4363 31.9305 17.3656 31.9571 17.2941 31.9745H14.7364C14.138 31.8838 13.5348 31.8154 12.9415 31.6982C10.1653 31.1498 7.7038 29.9509 5.56164 28.0976C3.56616 26.3711 2.07967 24.2846 1.10949 21.831C1.06823 21.7266 0.991556 21.6269 1.02453 21.4902C1.05447 21.4902 1.09215 21.4776 1.11145 21.4911C1.78286 21.9635 2.46666 21.8289 3.14465 21.5214C3.84187 21.2051 4.44532 20.7424 4.97571 20.2011C6.4227 18.7241 8.20966 17.8327 10.1212 17.1435ZM27.7716 5.20012C27.8711 5.17428 27.9279 5.29396 27.9884 5.36321C29.3576 6.92617 30.4144 8.67519 31.1056 10.6386C31.5458 11.8891 31.8425 13.1714 31.9503 14.495C31.9562 14.5679 31.983 14.6399 32.0001 14.7118C32 15.5642 32.0001 16.4171 32.0001 17.2695C31.8849 17.907 31.8363 18.5543 31.7042 19.1904C31.168 21.7744 30.0578 24.0821 28.3976 26.1288C28.3724 26.1598 28.3398 26.185 28.257 26.2626C28.3501 25.8954 28.1724 25.6683 28.0323 25.4247C27.2073 23.9887 26.4005 22.5256 26.173 20.8671C25.9889 19.5257 25.3335 18.5082 24.4259 17.5849C23.8419 16.9908 23.2093 16.4547 22.5519 15.9462C21.8171 15.3779 21.7847 14.8273 22.4523 14.1698C23.7576 12.8844 25.0368 11.5741 26.1486 10.1132C27.0671 8.90614 27.4489 7.49638 27.6407 6.02141C27.6655 5.83185 27.6728 5.6398 27.6974 5.45012C27.7087 5.36253 27.6581 5.22998 27.7716 5.20012ZM16.0372 0.00285717C19.0168 -0.00962185 21.7797 0.766981 24.3292 2.30657C24.6862 2.5222 24.6891 2.52666 24.381 2.7968C23.8601 3.25348 23.6161 3.86785 23.4318 4.50481C23.2246 5.22037 23.0569 5.94783 22.8722 6.66985C22.7636 7.09423 22.6206 7.50571 22.4093 7.89153C21.9255 8.77437 21.0232 9.2042 20.0392 9.02141C19.7221 8.9625 19.6628 8.69937 19.6007 8.45501C19.4567 7.88758 19.3399 7.31299 19.1945 6.74602C18.9298 5.71427 18.6381 4.68902 18.2472 3.69719C17.7821 2.51721 17.0611 1.5764 15.7697 1.22258C15.012 1.01495 14.2443 1.04907 13.4943 1.24407C12.0045 1.63146 10.6047 2.2265 9.4591 3.28508C8.61295 4.06709 8.2421 5.0903 8.16028 6.22356C8.04 7.89001 8.42703 9.48215 8.88977 11.0615C8.98254 11.3781 9.06736 11.6984 9.18078 12.0077C9.27877 12.2751 9.18622 12.4274 8.95032 12.5448C8.41439 12.8114 7.84896 13.004 7.28625 13.2001C4.76369 14.0791 2.61903 15.5487 0.71301 17.3925C0.590903 17.5107 0.48222 17.6429 0.366331 17.7675C0.311317 17.8268 0.27549 17.9392 0.176878 17.9062C0.0859353 17.8755 0.0990491 17.7658 0.0899634 17.6825C-0.0120398 16.7588 -0.0239159 15.8295 0.0372291 14.9062C0.158644 13.0749 0.585315 11.3095 1.32141 9.62395C2.40473 7.14367 4.01768 5.06944 6.13977 3.39544C8.51541 1.5217 11.2214 0.436934 14.2198 0.0712165C14.4624 0.04163 14.7064 0.0132916 14.9503 0.00578686C15.3123 -0.00521994 15.675 0.00285717 16.0372 0.00285717ZM27.1427 11.1747C27.1227 11.6905 26.828 11.9435 26.3937 12.1152C26.8994 12.1326 27.1942 12.405 27.3907 12.8505C27.4051 12.3247 27.6916 12.0509 28.1437 11.8779C27.6644 11.8457 27.3331 11.6379 27.1427 11.1747ZM15.1251 2.80657C15.9799 2.79091 16.6261 3.15504 17.0607 3.88274C17.5351 4.67721 17.8305 5.54292 17.9904 6.45012C18.112 7.14055 17.9406 7.76165 17.3448 8.17571C16.2543 8.93355 15.062 9.47011 13.7169 9.53313C12.7241 9.57954 11.9601 9.03394 11.5773 8.11028C11.3295 7.51266 11.2163 6.88808 11.2023 6.14739C11.2092 4.86117 11.8828 3.89561 13.0929 3.30364C13.7255 2.99421 14.4097 2.81963 15.1251 2.80657ZM16.755 5.74797C16.5339 5.81751 16.5058 5.99148 16.5655 6.18352C16.632 6.39776 16.6859 6.61153 16.6603 6.86321C16.6603 6.88025 16.6618 6.92258 16.6603 6.96477C16.6534 7.16147 16.6444 7.37408 16.9064 7.40129C17.1768 7.42932 17.2421 7.21681 17.2687 7.01067C17.3138 6.66023 17.2937 6.31229 17.1437 5.9843C17.0688 5.82081 16.9644 5.68211 16.755 5.74797ZM15.9591 3.85247C15.7795 3.85224 15.6806 3.95143 15.6652 4.12102C15.6464 4.32565 16.0315 4.79204 16.2081 4.79192C16.3883 4.79158 16.4737 4.68784 16.4991 4.53704C16.5105 4.28734 16.1597 3.85342 15.9591 3.85247Z" fill="#333333"/>
</svg>
