<svg width="32" height="32" viewBox="0 0 32 32" fill="none" xmlns="http://www.w3.org/2000/svg">
<path fill-rule="evenodd" clip-rule="evenodd" d="M25.9906 2.41296C24.515 0.723991 21.8485 0 18.4362 0H8.53483C7.83684 0 7.2434 0.509979 7.13387 1.20097L3.01063 27.4626C2.92898 27.9806 3.32829 28.4495 3.85104 28.4495H9.96368L11.4991 18.6697L11.4513 18.9757C11.5608 18.2847 12.1503 17.7747 12.8473 17.7747H15.7517C21.4591 17.7747 25.9269 15.4467 27.2323 8.71285C27.2711 8.51285 27.3338 8.12988 27.3338 8.12988C27.7042 5.63792 27.3309 3.94694 25.9906 2.41296ZM28.8812 9.40536C27.4613 16.0353 22.9348 19.5442 15.7517 19.5442H13.147L11.2043 32H15.4291C16.0395 32 16.5582 31.554 16.6538 30.949L16.7036 30.685L17.6754 24.5031L17.7382 24.1621C17.8328 23.5571 18.3526 23.1111 18.9619 23.1111H19.7336C24.7251 23.1111 28.6342 21.0742 29.7763 15.1842C30.2343 12.8203 30.0143 10.8383 28.8812 9.40536Z" fill="#333333"/>
</svg>
