<svg width="32" height="32" viewBox="0 0 32 32" fill="none" xmlns="http://www.w3.org/2000/svg">
<path d="M16.0005 0C7.16411 0 0 7.16364 0 16.0003C0 22.552 3.93963 28.1804 9.57734 30.6551C9.5322 29.5378 9.56918 28.1966 9.85573 26.981C10.1634 25.682 11.9146 18.2625 11.9146 18.2625C11.9146 18.2625 11.4034 17.241 11.4034 15.7309C11.4034 13.3599 12.7778 11.589 14.4892 11.589C15.9445 11.589 16.6477 12.6822 16.6477 13.9911C16.6477 15.4541 15.7146 17.6425 15.2346 19.6693C14.8338 21.3666 16.0857 22.751 17.7601 22.751C20.7915 22.751 22.8333 18.8574 22.8333 14.2441C22.8333 10.7374 20.4714 8.11263 16.1756 8.11263C11.3221 8.11263 8.2983 11.7321 8.2983 15.7751C8.2983 17.169 8.70941 18.1522 9.35318 18.9133C9.64918 19.2629 9.69023 19.4037 9.58305 19.8051C9.50643 20.0995 9.33009 20.8082 9.2572 21.0892C9.1506 21.4943 8.8223 21.6392 8.45598 21.4895C6.22049 20.5769 5.17937 18.1288 5.17937 15.3768C5.17937 10.8318 9.01264 5.38171 16.6147 5.38171C22.7234 5.38171 26.744 9.80231 26.744 14.5474C26.744 20.8239 23.2546 25.5131 18.1109 25.5131C16.3834 25.5131 14.7585 24.5793 14.2019 23.5188C14.2019 23.5188 13.273 27.2053 13.0762 27.9172C12.7371 29.1508 12.073 30.3837 11.4659 31.3447C12.9049 31.7695 14.425 32.0008 16.0005 32.0008C24.8361 32.0008 32 24.8372 32 16.0003C32 7.16364 24.8361 0 16.0005 0Z" fill="#333333"/>
</svg>
