<svg width="32" height="32" viewBox="0 0 32 32" fill="none" xmlns="http://www.w3.org/2000/svg">
<path d="M16 0C13.1137 0 10.4157 0.727843 7.90588 2.18353C5.49647 3.61412 3.58902 5.53412 2.18353 7.94353C0.727843 10.4282 0 13.12 0 16.0188C0 18.9177 0.727843 21.6094 2.18353 24.0941C3.58902 26.5035 5.49647 28.411 7.90588 29.8165C10.4157 31.2722 13.1137 32 16 32C18.8863 32 21.5843 31.2722 24.0941 29.8165C26.5035 28.411 28.411 26.5035 29.8165 24.0941C31.2722 21.6094 32 18.9177 32 16.0188C32 13.12 31.2722 10.4282 29.8165 7.94353C28.411 5.53412 26.5035 3.61412 24.0941 2.18353C21.5843 0.727843 18.8863 0 16 0ZM13.44 9.75059H17.6565C18.56 9.75059 19.3945 9.9702 20.16 10.4094C20.9255 10.8486 21.5341 11.4384 21.9859 12.1788C22.4376 12.9192 22.6635 13.7349 22.6635 14.6259C22.6635 15.5169 22.4376 16.3326 21.9859 17.0729C21.5341 17.8133 20.9255 18.4031 20.16 18.8424C19.3945 19.2816 18.56 19.5012 17.6565 19.5012H14.72L10.5412 23.4918V12.5741C10.5412 11.7961 10.8235 11.131 11.3882 10.5788C11.9529 10.0267 12.6369 9.75059 13.44 9.75059Z" fill="#333333"/>
</svg>
