<svg width="32" height="32" viewBox="0 0 32 32" fill="none" xmlns="http://www.w3.org/2000/svg">
<path d="M29.9965 13.9376C30.4687 14.1809 30.7048 14.3025 30.8446 14.4089C31.8955 15.2093 31.8955 16.7906 30.8446 17.5911C30.7048 17.6975 30.4687 17.8191 29.9965 18.0624L4.38246 31.2575C3.97418 31.4678 3.77004 31.573 3.61388 31.6234C2.45065 31.9985 1.22595 31.2518 1.02674 30.0459C0.999999 29.884 0.999999 29.6544 0.999999 29.1951L1 2.8049C1 2.34563 1 2.116 1.02674 1.95411C1.22595 0.748225 2.45065 0.00147729 3.61388 0.376627C3.77004 0.426991 3.97418 0.532153 4.38246 0.742478L29.9965 13.9376Z" fill="#333333"/>
</svg>
