<svg width="32" height="32" viewBox="0 0 32 32" fill="none" xmlns="http://www.w3.org/2000/svg">
<path d="M16.4547 0C23.5888 0.000428823 26.4898 6.17579 26.4898 12.3213C26.4898 12.6861 26.4724 13.3935 26.4713 13.4355L27.9107 17.0293C28.3052 18.0574 28.6948 19.1278 28.9801 20.0459C30.3404 24.4238 29.8994 26.237 29.5641 26.2783C28.8457 26.3647 26.7721 23.0006 26.7603 22.9814C26.7603 24.9409 25.7502 27.4964 23.567 29.3428C24.3837 29.5945 25.387 29.9815 26.0309 30.457C26.6083 30.8834 26.5365 31.3186 26.4322 31.4941C25.975 32.2658 18.5875 31.9873 16.4547 31.7471C14.3217 31.9872 6.93566 32.2657 6.47812 31.4941C6.37405 31.3187 6.3015 30.8835 6.87949 30.457C7.5226 29.9819 8.52474 29.5955 9.3414 29.3438C7.1578 27.4974 6.14804 24.941 6.14804 22.9814C6.1418 22.9916 4.06504 26.3627 3.34531 26.2773C3.00972 26.2369 2.56847 24.4248 3.92929 20.0459C4.21458 19.1281 4.60421 18.0574 4.99863 17.0293L6.43808 13.4355H6.43906L6.43808 13.4346C6.43665 13.3887 6.41953 12.6843 6.41953 12.3203C6.41968 6.17532 9.32051 0.000222387 16.4547 0ZM24.0455 17.9805C21.421 18.5004 18.7074 18.8004 16.4713 18.7734H16.4371C15.8427 18.7806 15.2143 18.7634 14.5631 18.7266V23.0273C12.3682 23.3333 10.1771 22.8982 10.1393 22.8906V18.2158C9.71314 18.1438 9.28673 18.0644 8.86288 17.9805C8.66836 19.2252 8.55837 20.7547 8.66562 22.5537C8.95829 27.4559 11.87 30.5375 16.3639 30.582H16.5465C21.0404 30.5374 23.9516 27.4558 24.2447 22.5537C24.352 20.7543 24.2402 19.2253 24.0455 17.9805ZM16.4371 9.84766C13.2128 9.84766 10.6084 10.4858 10.3492 11.0586C10.337 11.0841 10.3299 11.1124 10.3297 11.1406C10.3302 11.18 10.3431 11.2187 10.3658 11.251C10.5855 11.5691 13.4769 13.1377 16.4371 13.1377H16.4713C19.4312 13.1377 22.3229 11.5695 22.5426 11.251C22.5655 11.2186 22.5784 11.1793 22.5787 11.1396C22.5784 11.1116 22.5714 11.0838 22.5592 11.0586L22.5289 11.0049C22.139 10.4467 19.5957 9.84766 16.4713 9.84766H16.4371ZM13.7262 4C12.7584 4.04381 12.0166 5.21619 12.0689 6.61816C12.121 8.01985 12.9478 9.12282 13.9156 9.0791C14.8828 9.03591 15.6248 7.86331 15.5719 6.46094C15.5193 5.05908 14.6927 3.95699 13.7262 4ZM19.1832 4C18.2163 3.95686 17.3902 5.05899 17.3375 6.46094C17.2846 7.86303 18.0254 9.0356 18.9928 9.0791C19.9606 9.12286 20.7876 8.01965 20.8394 6.61816C20.892 5.21636 20.1508 4.04408 19.1832 4ZM14.2662 5.73438C14.6856 5.68011 15.0613 6.08589 15.1051 6.63965C15.1492 7.19306 14.8459 7.68436 14.4283 7.73828C14.0095 7.7921 13.6339 7.38677 13.5894 6.83301C13.5459 6.27921 13.8494 5.78803 14.2662 5.73438ZM17.7643 6.82422C17.8501 6.67065 18.4326 5.86593 19.6383 6.15918C19.9545 6.23619 20.1011 6.34889 20.1324 6.39355C20.178 6.45938 20.1906 6.55337 20.1441 6.67969C20.0525 6.9301 19.8631 6.92295 19.7584 6.87402C19.6871 6.84006 18.8489 6.28459 18.0768 7.11816C18.0234 7.17527 17.9285 7.19498 17.8385 7.12695C17.7481 7.05842 17.7109 6.92024 17.7643 6.82422Z" fill="#333333"/>
</svg>
