<svg width="32" height="32" viewBox="0 0 32 32" fill="none" xmlns="http://www.w3.org/2000/svg">
<path d="M22.1774 21.7648H17.9124C17.6762 21.7648 17.4844 21.5716 17.4844 21.3354V10.6305C17.4844 10.3944 17.6762 10.2016 17.9124 10.2016H21.8667C24.8304 10.2016 25.4566 11.9523 25.4566 13.4164C25.4566 14.2649 25.2294 14.9349 24.7812 15.4282C25.8706 15.8776 26.4576 16.8923 26.4576 18.3567C26.4577 20.4925 24.8543 21.7648 22.1774 21.7648ZM15.9849 21.7648H7.12526C6.88811 21.7648 6.7013 21.5716 6.7013 21.3354V10.6305C6.7013 10.3944 6.88811 10.2016 7.12526 10.2016H11.2618C13.8504 10.2016 15.3879 11.5974 15.3879 13.9251C15.3879 15.4775 14.6088 16.6956 13.3519 17.1891L16.3007 21.0543C16.5418 21.3304 16.3495 21.7598 15.9849 21.7648ZM15.9999 0C7.16459 0 0 7.16461 0 16C0 24.8357 7.16459 32 15.9999 32C24.8359 32.0001 32 24.8357 32 16C32 7.16461 24.8359 0 15.9999 0Z" fill="#333333"/>
</svg>
