<svg width="32" height="32" viewBox="0 0 32 32" fill="none" xmlns="http://www.w3.org/2000/svg">
<path d="M16 0C24.8366 0 32 7.16344 32 16C32 24.8366 24.8366 32 16 32C7.16344 32 0 24.8366 0 16C0 7.16344 7.16344 0 16 0ZM23.1914 6.49609C22.4584 6.21296 21.6281 6.50434 21.2324 7.18359L17.3115 6.40039C17.2476 6.38647 17.1815 6.38491 17.1172 6.39648C17.0524 6.40849 16.9907 6.43316 16.9355 6.46875C16.8809 6.5043 16.8336 6.55062 16.7969 6.60449C16.7597 6.65889 16.7329 6.71978 16.7197 6.78418L15.5361 12.3359C14.9829 12.3443 14.4308 12.393 13.8848 12.4814C13.339 12.5698 12.7999 12.697 12.2725 12.8633C11.7449 13.0297 11.2294 13.2348 10.7314 13.4756C10.2336 13.7167 9.75378 13.9934 9.2959 14.3037C9.04926 14.0717 8.75482 13.8961 8.43359 13.7891C8.11248 13.6821 7.7719 13.646 7.43555 13.6836C7.09902 13.7212 6.77399 13.8324 6.48438 14.0078C6.19496 14.1832 5.94684 14.4195 5.75781 14.7002C5.56864 14.981 5.44255 15.2995 5.38867 15.6338C5.3348 15.9682 5.35478 16.3106 5.44629 16.6367C5.53794 16.9627 5.699 17.265 5.91895 17.5225C6.13886 17.7799 6.41213 17.9865 6.71973 18.1279C6.71533 18.1862 6.71196 18.245 6.70996 18.3037C6.70515 18.421 6.70515 18.539 6.70996 18.6562C6.71196 18.715 6.71533 18.7737 6.71973 18.832C6.71975 22.416 10.8959 25.3281 16.0479 25.3281C21.1998 25.3281 25.376 22.416 25.376 18.832C25.3804 18.7737 25.3837 18.715 25.3857 18.6562C25.3906 18.539 25.3906 18.421 25.3857 18.3037C25.3837 18.245 25.3804 18.1862 25.376 18.1279C25.5724 18.0303 25.7544 17.9052 25.916 17.7568C26.0774 17.6085 26.2171 17.438 26.3311 17.251C26.4454 17.0638 26.5332 16.861 26.5908 16.6494C26.6484 16.4379 26.6751 16.2191 26.6719 16C26.6555 15.5496 26.5088 15.1132 26.25 14.7441C25.9913 14.3753 25.6315 14.0889 25.2139 13.9199C24.7963 13.7509 24.3388 13.7068 23.8965 13.792C23.454 13.877 23.0448 14.0883 22.7197 14.4004C22.2677 14.0931 21.7942 13.8183 21.3027 13.5791C20.3187 13.0996 19.2702 12.7649 18.1904 12.585C17.6513 12.495 17.1059 12.4432 16.5596 12.4316L17.5996 7.44043L21.0244 8.16016C21.1085 8.94166 21.7481 9.54652 22.5332 9.58691C23.3178 9.62711 24.0161 9.09093 24.1797 8.32227C24.3436 7.55354 23.9245 6.7793 23.1914 6.49609ZM12.377 21.2939C12.484 21.2888 12.5892 21.3238 12.6719 21.3916C12.9103 21.5664 13.1633 21.7215 13.4277 21.8535C13.6921 21.9855 13.9669 22.0951 14.25 22.1807C14.5326 22.2666 14.8221 22.3278 15.1152 22.3643C15.4084 22.4011 15.7048 22.4136 16 22.4004C16.2956 22.4164 16.5923 22.407 16.8867 22.373C17.1805 22.339 17.4711 22.28 17.7549 22.1973C18.039 22.1142 18.3159 22.0075 18.582 21.8779C18.8482 21.7484 19.1032 21.5964 19.3438 21.4238C19.436 21.3547 19.5465 21.3101 19.6611 21.3115C19.7754 21.3131 19.8849 21.3605 19.9648 21.4424C20.0448 21.5244 20.0895 21.6352 20.0879 21.75C20.0862 21.864 20.0396 21.9729 19.958 22.0527L19.9678 22C19.6868 22.2118 19.3882 22.3989 19.0752 22.5596C18.4474 22.8813 17.7687 23.0935 17.0693 23.1855C16.7201 23.2311 16.3672 23.2468 16.0156 23.2324C15.6642 23.2468 15.3119 23.2311 14.9629 23.1855C14.6138 23.1396 14.2695 23.0637 13.9336 22.959C13.5976 22.8542 13.2702 22.7204 12.957 22.5596C12.6441 22.3989 12.3455 22.2118 12.0645 22C11.9965 21.9173 11.9617 21.8122 11.9668 21.7051C11.972 21.5979 12.0172 21.4959 12.0928 21.4199C12.1687 21.3446 12.27 21.2991 12.377 21.2939ZM18.5488 16.5332C19.0063 16.0757 19.6941 15.9382 20.292 16.1855C20.8896 16.4335 21.2803 17.0169 21.2803 17.6641C21.289 17.8808 21.2534 18.0973 21.1758 18.2998C21.0982 18.5026 20.9803 18.6872 20.8291 18.8428C20.678 18.9982 20.4971 19.1215 20.2969 19.2051C20.0965 19.2883 19.8808 19.3305 19.6641 19.3281L19.6797 19.2637C19.0326 19.2635 18.4491 18.8739 18.2012 18.2764C17.9537 17.6785 18.0914 16.9908 18.5488 16.5332ZM11.6592 16.1221C12.2572 15.8745 12.9457 16.0112 13.4033 16.4688C13.8608 16.9263 13.9974 17.614 13.75 18.2119C13.5021 18.8094 12.9195 19.2 12.2725 19.2002C12.0623 19.2002 11.8534 19.1584 11.6592 19.0781C11.4654 18.9973 11.2889 18.8801 11.1406 18.7314C10.9918 18.583 10.8747 18.4059 10.7939 18.2119C10.7136 18.0176 10.6719 17.8095 10.6719 17.5996C10.672 16.9528 11.062 16.3701 11.6592 16.1221Z" fill="#333333"/>
</svg>
