<svg width="32" height="33" viewBox="0 0 32 33" fill="none" xmlns="http://www.w3.org/2000/svg">
<path d="M8.29565 28.2161C8.29565 30.5032 6.43571 32.3632 4.14782 32.3632C1.85994 32.3632 0 30.5032 0 28.2161C0 25.9282 1.85994 24.0683 4.14782 24.0683C6.43571 24.0683 8.29565 25.929 8.29565 28.2161ZM31.9993 32.3639C32.0621 22.8245 27.6512 13.3729 20.2605 7.34014C14.63 2.63963 7.33997 -0.0247768 0 0.000173673V7.40365C8.68503 7.3031 17.2445 12.0286 21.7054 19.4948C24.0657 23.3682 25.3179 27.8151 25.3255 32.3511H31.9993V32.3639ZM20.6885 32.3639C20.7255 26.2307 17.8101 20.1979 13.0468 16.3518C9.40179 13.3608 4.71412 11.6762 0.000755659 11.7019V17.9358C5.12845 17.873 10.1563 20.8141 12.6068 25.3256C13.8007 27.4841 14.4279 29.9101 14.4297 32.3768H20.6885V32.3639Z" fill="#333333"/>
</svg>
