<svg width="32" height="32" viewBox="0 0 32 32" fill="none" xmlns="http://www.w3.org/2000/svg">
<path fill-rule="evenodd" clip-rule="evenodd" d="M29.6606 21.3573C31.0336 19.9538 31.8004 18.0672 31.7958 16.1039C31.7911 14.1406 31.0155 12.2576 29.6359 10.8607C24.6508 5.76657 18.1332 1.74347 11.1928 0.175432C7.44862 -0.670797 3.80749 1.62707 2.71509 5.28759C0.635969 12.2541 0.320222 20.0929 2.47159 27.022C3.60413 30.6698 7.42922 32.6686 11.168 31.797C18.2891 30.1373 24.5933 26.5765 29.6606 21.3573ZM19.8685 14.162C21.1636 15.1674 21.1636 17.0813 19.8551 18.0693C17.9033 19.5448 15.7668 20.7586 13.5 21.6797C11.9761 22.2998 10.3158 21.3211 10.1525 19.6922C9.91506 17.3201 9.98664 14.8343 10.3539 12.3558C10.5947 10.7336 12.2771 9.79235 13.779 10.468C15.8902 11.4179 17.9492 12.6715 19.8685 14.162Z" fill="#333333"/>
</svg>
