<svg width="32" height="32" viewBox="0 0 32 32" fill="none" xmlns="http://www.w3.org/2000/svg">
<g clip-path="url(#clip0_27_650)">
<path d="M30 16C30 8.26801 23.732 2 16 2C8.26801 2 2 8.26801 2 16C2 23.732 8.26801 30 16 30C23.732 30 30 23.732 30 16ZM32 16C32 24.8366 24.8366 32 16 32C7.16344 32 0 24.8366 0 16C0 7.16344 7.16344 0 16 0C24.8366 0 32 7.16344 32 16Z" fill="#333333"/>
<path d="M10.8571 13.5C10.8571 14.5651 9.99369 15.4286 8.92857 15.4286C7.86345 15.4286 7 14.5651 7 13.5C7 12.4349 7.86345 11.5714 8.92857 11.5714C9.99369 11.5714 10.8571 12.4349 10.8571 13.5Z" fill="#333333"/>
<path d="M25 13.5C25 14.5651 24.1365 15.4286 23.0714 15.4286C22.0063 15.4286 21.1428 14.5651 21.1428 13.5C21.1428 12.4349 22.0063 11.5714 23.0714 11.5714C24.1365 11.5714 25 12.4349 25 13.5Z" fill="#333333"/>
<path d="M11.8741 23.4864C11.6055 23.9689 10.9963 24.1426 10.5137 23.8741C10.0311 23.6055 9.85749 22.9963 10.126 22.5137C11.2866 20.4282 13.4728 19 16 19C18.5272 19 20.7135 20.4282 21.8741 22.5137C22.1426 22.9963 21.9689 23.6055 21.4864 23.8741C21.0038 24.1426 20.3946 23.9689 20.126 23.4864C19.2905 21.9851 17.7459 21 16 21C14.2542 21 12.7096 21.9851 11.8741 23.4864Z" fill="#333333"/>
</g>
<defs>
<clipPath id="clip0_27_650">
<rect width="32" height="32" fill="white"/>
</clipPath>
</defs>
</svg>
