<svg width="32" height="32" viewBox="0 0 32 32" fill="none" xmlns="http://www.w3.org/2000/svg">
<g clip-path="url(#clip0_21_240)">
<path fill-rule="evenodd" clip-rule="evenodd" d="M16 0C11.5817 0 8 3.58172 8 8V13C8 13.5523 8.44771 14 9 14C9.55229 14 10 13.5523 10 13V8C10 4.68629 12.6863 2 16 2C19.3137 2 22 4.68629 22 8V13C22 13.5523 22.4477 14 23 14C23.5523 14 24 13.5523 24 13V8C24 3.58172 20.4183 0 16 0ZM2 11C2 10.4477 1.55228 10 1 10C0.447715 10 0 10.4477 0 11V28C0 30.2091 1.79086 32 4 32H28C30.2091 32 32 30.2091 32 28V11C32 10.4477 31.5523 10 31 10C30.4477 10 30 10.4477 30 11V28C30 29.1046 29.1046 30 28 30H4C2.89543 30 2 29.1046 2 28V11Z" fill="#333333"/>
</g>
<defs>
<clipPath id="clip0_21_240">
<rect width="32" height="32" fill="white"/>
</clipPath>
</defs>
</svg>
