<svg width="32" height="32" viewBox="0 0 32 32" fill="none" xmlns="http://www.w3.org/2000/svg">
<path fill-rule="evenodd" clip-rule="evenodd" d="M0 15.1972C0 19.297 2.24405 23.0921 6.15737 25.6085C6.70565 25.9616 7.43479 25.8092 7.78901 25.2702C8.14322 24.7331 7.99063 24.0139 7.44611 23.6626C4.20919 21.5811 2.35521 18.496 2.35521 15.1972C2.35521 9.20167 8.47672 4.32311 16 4.32311C23.5233 4.32311 29.6449 9.20167 29.6449 15.1972C29.6449 21.1927 23.5233 26.0713 16 26.0713C14.7075 26.0713 13.4263 25.9263 12.1903 25.6419L11.6854 25.5248L6.69808 28.8795C6.1611 29.2419 6.02358 29.9648 6.38911 30.4945C6.61897 30.8234 6.98825 31 7.36507 31C7.59305 31 7.8229 30.9349 8.02827 30.7992L12.1658 28.0133C13.4188 28.268 14.7056 28.3944 16 28.3944C24.8234 28.3944 32 22.4751 32 15.1972C32 7.92116 24.8234 2 16 2C7.17667 2 0 7.92116 0 15.1972Z" fill="#333333"/>
</svg>
