<svg width="32" height="32" viewBox="0 0 32 32" fill="none" xmlns="http://www.w3.org/2000/svg">
<path d="M31.6778 24.0026C27.0905 23.2474 25.0361 18.5609 24.9513 18.3609L24.9417 18.3433C24.8113 18.1302 24.7292 17.8912 24.701 17.643C24.6728 17.3948 24.6992 17.1434 24.7785 16.9065C25.0857 16.1801 26.1065 15.8569 26.7801 15.6425C26.9497 15.5897 27.1081 15.5385 27.2329 15.4889C28.4538 15.0089 28.7018 14.5081 28.6954 14.1737C28.6633 13.9658 28.5702 13.7721 28.4277 13.6174C28.2852 13.4627 28.0999 13.3539 27.8954 13.3049L27.8842 13.3017C27.7032 13.2285 27.5098 13.191 27.3145 13.1913C27.1423 13.1888 26.9716 13.2231 26.8137 13.2921C26.3373 13.5329 25.8181 13.6775 25.2857 13.7177C24.9784 13.7249 24.6784 13.6241 24.4377 13.4329L24.4889 12.5849L24.4953 12.4809C24.8036 10.3249 24.6729 8.12895 24.1113 6.02477C23.4487 4.51383 22.3558 3.23154 20.9688 2.33804C19.5819 1.44453 17.9625 0.97939 16.3128 1.0007L15.6696 1.0087C14.0228 0.988476 12.4065 1.45371 11.0225 2.34634C9.63843 3.23896 8.54794 4.51945 7.88709 6.02797C7.32473 8.1298 7.19302 10.3236 7.49989 12.4777C7.52122 12.7966 7.54042 13.1155 7.55749 13.4345C7.29218 13.6421 6.9591 13.7436 6.62308 13.7193C6.05768 13.695 5.50422 13.5487 5.00066 13.2905C4.87731 13.2359 4.74349 13.2091 4.60865 13.2121C4.33069 13.2014 4.05634 13.2779 3.82397 13.4308C3.5916 13.5837 3.41282 13.8054 3.31263 14.0649C3.18143 14.7529 4.16384 15.2537 4.76225 15.4889C4.89025 15.5401 5.04706 15.5897 5.21506 15.6425C5.89027 15.8569 6.91108 16.1801 7.21828 16.9065C7.29734 17.1434 7.32369 17.3948 7.2955 17.643C7.26731 17.8911 7.18526 18.1302 7.05508 18.3433L7.04548 18.3609C6.60356 19.324 6.02772 20.2198 5.33506 21.0218C4.07665 22.5863 2.29628 23.6447 0.320594 24.0026C0.227377 24.0182 0.143191 24.0676 0.0841479 24.1414C0.0251052 24.2153 -0.0046456 24.3082 0.000590031 24.4026C0.00419829 24.4742 0.0204489 24.5447 0.0485906 24.6106C0.331794 25.2682 1.74301 25.8106 4.13344 26.1802C4.35745 26.2154 4.45025 26.5802 4.58145 27.1754C4.63265 27.4154 4.68705 27.6635 4.76225 27.9195C4.78724 28.0329 4.85345 28.133 4.94804 28.2004C5.04264 28.2678 5.15889 28.2977 5.27426 28.2843C5.50274 28.2718 5.72971 28.2397 5.95267 28.1883C6.54153 28.0597 7.14199 27.9916 7.74469 27.9851C8.17841 27.9858 8.61134 28.0222 9.03911 28.0939C9.94154 28.3224 10.781 28.7511 11.4951 29.3483C12.7006 30.3777 14.2155 30.9746 15.7992 31.0443C15.852 31.0443 15.9064 31.0427 15.9592 31.0379C16.0232 31.0411 16.1112 31.0443 16.2008 31.0443C17.7854 30.9747 19.3014 30.3778 20.5081 29.3483C21.2212 28.7514 22.0595 28.3227 22.9609 28.0939C23.3881 28.0225 23.8205 27.9861 24.2537 27.9851C24.8559 27.9881 25.4563 28.0519 26.0457 28.1755C26.2694 28.224 26.497 28.2524 26.7257 28.2603H26.7641C26.8721 28.2689 26.9796 28.2379 27.0664 28.1731C27.1532 28.1083 27.2136 28.0142 27.2361 27.9083C27.3059 27.6642 27.3668 27.4176 27.4185 27.169C27.5481 26.5754 27.6425 26.2122 27.8666 26.177C30.257 25.809 31.6698 25.265 31.9482 24.6122C31.9773 24.5464 31.9946 24.476 31.9994 24.4042C32.0046 24.3098 31.9749 24.2169 31.9158 24.143C31.8568 24.0692 31.7726 24.0198 31.6794 24.0042L31.6778 24.0026Z" fill="#333333"/>
</svg>
