<svg width="32" height="32" viewBox="0 0 32 32" fill="none" xmlns="http://www.w3.org/2000/svg">
<path d="M16.4811 1.22266C16.8196 1.2227 17.1176 1.39198 17.2985 1.64941C17.3279 1.67692 17.3572 1.7053 17.3844 1.73633L23.6891 8.94141C24.0523 9.35694 24.0096 9.98893 23.5944 10.3525C23.1787 10.7159 22.5468 10.6733 22.1832 10.2578L17.4811 4.88477V27.1152L22.1832 21.7422C22.5468 21.3268 23.1787 21.2842 23.5944 21.6475C24.0098 22.011 24.0524 22.643 23.6891 23.0586L17.3844 30.2637C17.3585 30.2933 17.3304 30.3203 17.3024 30.3467C17.1218 30.6067 16.8216 30.7773 16.4811 30.7773C16.1407 30.7773 15.8414 30.6064 15.6608 30.3467C15.6326 30.3202 15.6038 30.2934 15.5778 30.2637L9.27307 23.0586C8.90981 22.643 8.95245 22.0111 9.3678 21.6475C9.78343 21.2842 10.4154 21.3267 10.7789 21.7422L15.4811 27.1152V4.88477L10.7789 10.2578C10.4154 10.6733 9.78344 10.7158 9.3678 10.3525C8.95233 9.98895 8.90973 9.35703 9.27307 8.94141L15.5778 1.73633C15.6048 1.70548 15.6335 1.67678 15.6627 1.64941C15.8436 1.39173 16.1423 1.22266 16.4811 1.22266Z" fill="#333333"/>
</svg>
