<svg width="32" height="32" viewBox="0 0 32 32" fill="none" xmlns="http://www.w3.org/2000/svg">
<path d="M16 0C24.8366 0 32 7.16344 32 16C32 24.8366 24.8366 32 16 32C7.16344 32 0 24.8366 0 16C0 7.16344 7.16344 0 16 0ZM16.5117 19.9082C16.4467 21.6347 15.0259 23.0195 13.2842 23.0195C12.7434 23.0195 12.2337 22.8843 11.7852 22.6484C10.7563 22.1067 10.0518 21.0279 10.0518 19.7871C10.0518 18.0046 11.5017 16.554 13.2842 16.5537C13.6173 16.5537 13.9367 16.6084 14.2393 16.7031V12.7764C13.927 12.7338 13.6084 12.708 13.2842 12.708C9.38111 12.7083 6.20508 15.884 6.20508 19.7871C6.20515 22.1821 7.40237 24.302 9.22754 25.583C10.3776 26.3903 11.7755 26.8651 13.2842 26.8652C17.1874 26.8652 20.3642 23.6902 20.3643 19.7861V11.9697C21.8723 13.0524 23.7205 13.6903 25.7148 13.6904V9.84473C24.6411 9.84464 23.6404 9.52486 22.8018 8.97754C21.597 8.19175 20.7264 6.93536 20.4551 5.46973C20.3965 5.15279 20.3643 4.82712 20.3643 4.49414H16.5176L16.5117 19.9082Z" fill="#333333"/>
</svg>
