<svg width="32" height="32" viewBox="0 0 32 32" fill="none" xmlns="http://www.w3.org/2000/svg">
<path d="M25.6 0H6.4C2.87 0 0 2.87 0 6.4V25.6C0 29.13 2.87 32 6.4 32H25.6C29.13 32 32 29.13 32 25.6V6.4C32 2.87 29.13 0 25.6 0ZM21.76 25.7525C21.76 25.8325 21.725 25.9075 21.6675 25.96C21.5925 26.025 19.8475 27.52 15.835 27.52C11.0275 27.52 10.88 22.155 10.88 21.545V14.7275L8.595 14.72C8.4425 14.72 8.32 14.6025 8.32 14.45V12.0375C8.32 11.925 8.39 11.8225 8.495 11.78C8.54 11.765 12.8375 10.095 12.8375 6.035C12.8375 5.8825 12.9625 5.76 13.115 5.76H15.73C15.8825 5.76 16.005 5.8825 16.005 6.035L16 10.88H20.2C20.3525 10.88 20.475 11.0125 20.475 11.165V14.435C20.475 14.585 20.3525 14.72 20.2 14.72H16C16 14.72 16 21.2825 16 21.4425C16 21.6 16.145 23.53 18.1975 23.53C19.8975 23.53 21.325 22.655 21.34 22.645C21.425 22.59 21.53 22.5875 21.6175 22.6375C21.705 22.685 21.76 22.7775 21.76 22.8775V25.7525Z" fill="#333333"/>
</svg>
