<svg width="32" height="32" viewBox="0 0 32 32" fill="none" xmlns="http://www.w3.org/2000/svg">
<path d="M30 0C31.1046 5.13391e-07 32 0.895431 32 2V30C32 31.1046 31.1046 32 30 32H2C0.895431 32 0 31.1046 0 30V2C1.79942e-08 0.895431 0.895431 9.4625e-08 2 0H30ZM17.96 7.2793C18.334 8.11683 18.58 9.13306 18.5801 10.625C18.5801 13.3533 16.7299 17.3522 15.2295 19.8975L13.626 6.44531L7 7.0918L10.0342 26H17.6025C20.9155 21.4544 24.997 14.9815 24.9971 10.001C25.0357 8.59365 24.6841 7.20443 23.9844 6L17.96 7.2793Z" fill="#333333"/>
</svg>
