<svg width="32" height="32" viewBox="0 0 32 32" fill="none" xmlns="http://www.w3.org/2000/svg">
<path d="M16.6396 0C23.8823 0 27.4984 0.000236046 29.7598 2.24023C31.9998 4.51223 32 8.12835 32 15.3604V16.6396C32 23.8823 31.9998 27.4984 29.7598 29.7598C27.4878 31.9998 23.8716 32 16.6396 32H15.3604C8.11769 32 4.50157 31.9998 2.24023 29.7598C0.00023659 27.4878 0 23.8716 0 16.6396V15.3604C0 8.11769 0.000235465 4.50157 2.24023 2.24023C4.51223 0.00023601 8.12835 0 15.3604 0H16.6396ZM22.5176 9.72754C21.771 12.3727 19.5524 14.7728 17.4512 14.9971V9.73828H14.0059V18.9551C11.8725 18.4217 9.18374 15.8396 9.06641 9.73828H5.39746C5.56813 18.0583 9.72841 23.0508 17.0244 23.0508H17.4512V18.293C20.1283 18.5598 22.1552 20.5229 22.9658 23.0508H26.752C26.3636 21.6143 25.6756 20.276 24.7324 19.125C23.7892 17.974 22.6124 17.0361 21.2803 16.373C22.4738 15.6462 23.5048 14.6812 24.3086 13.5381C25.1125 12.3947 25.6721 11.0969 25.9521 9.72754H22.5176Z" fill="#333333"/>
</svg>
