<svg width="32" height="32" viewBox="0 0 32 32" fill="none" xmlns="http://www.w3.org/2000/svg">
<path d="M22.9565 3C22.4158 3 21.894 3.05435 21.3913 3.14402C21.0136 3.20924 20.7609 3.57065 20.8261 3.94837C20.8913 4.3288 21.2527 4.58152 21.6304 4.51631C22.0707 4.4375 22.5109 4.3913 22.9565 4.3913C27.1902 4.3913 30.6087 7.80978 30.6087 12.0435C30.6087 12.9592 30.4402 13.8342 30.1413 14.6549C30.0489 14.8913 30.0897 15.1576 30.25 15.3533C30.413 15.5489 30.6658 15.6413 30.9158 15.5951C31.1658 15.5489 31.3696 15.3696 31.4484 15.1304C31.7989 14.1685 32 13.1332 32 12.0435C32 7.05707 27.9429 3 22.9565 3ZM22.9565 7.17391C22.6603 7.17391 22.3804 7.2038 22.1141 7.25C21.7364 7.31793 21.481 7.67663 21.5489 8.05707C21.6141 8.43478 21.9755 8.6875 22.3533 8.62228C22.5571 8.58696 22.7582 8.56522 22.9565 8.56522C24.8859 8.56522 26.4348 10.1141 26.4348 12.0435C26.4348 12.4592 26.3587 12.856 26.2201 13.231C26.0897 13.5924 26.2772 13.9918 26.6386 14.1223C27 14.2527 27.3995 14.0679 27.5299 13.7065C27.7174 13.1902 27.8261 12.6304 27.8261 12.0435C27.8261 9.36141 25.6386 7.17391 22.9565 7.17391ZM13.3397 7.45652C11.106 7.41304 7.73641 9.17663 4.7337 12.1223C1.74728 15.1087 0 18.2391 0 20.9348C0 26.1739 6.69837 29.3043 13.3234 29.3043C21.913 29.3043 27.663 24.356 27.663 20.4239C27.663 18.0217 25.625 16.7092 23.8043 16.1277C23.3696 15.981 23.0788 15.9103 23.2962 15.3261C23.4402 14.9783 23.6522 14.3152 23.6522 13.4348C23.6522 12.4348 22.9565 11.5679 21.5652 11.413C20.875 11.337 18.087 11.3478 16.2364 12.1223C16.2364 12.1223 15.2147 12.5625 15.5054 11.7609C16.0163 10.1603 15.9429 8.84783 15.1413 8.11957C14.7065 7.68207 14.087 7.47011 13.3397 7.45652ZM12.7391 15.4755C18.1685 15.4755 22.5679 18.2446 22.5679 21.663C22.5679 25.0788 18.1685 27.8478 12.7391 27.8478C7.3125 27.8478 2.91304 25.0788 2.91304 21.663C2.91304 18.2446 7.3125 15.4755 12.7391 15.4755ZM12.0109 16.9293C9.91033 16.9457 7.86957 18.0951 6.9837 19.8668C5.8913 22.1196 6.91033 24.5951 9.52989 25.394C12.1495 26.2663 15.2772 24.9565 16.3696 22.5571C17.4592 20.231 16.0788 17.7582 13.4592 17.106C12.981 16.981 12.4946 16.9266 12.0109 16.9293ZM13.0951 19.8696C13.4973 19.8696 13.8234 20.1929 13.8234 20.5951C13.8234 20.9973 13.4973 21.3234 13.0951 21.3234C12.6929 21.3234 12.3668 20.9973 12.3668 20.5951C12.3668 20.1929 12.6929 19.8696 13.0951 19.8696ZM10.0299 20.5951C10.2582 20.5978 10.4864 20.6332 10.7011 20.7065C11.6332 21.0027 11.9185 21.8859 11.3451 22.6223C10.8451 23.3587 9.70109 23.7255 8.83967 23.3587C7.9837 22.9918 7.76902 22.106 8.26902 21.4457C8.64402 20.8913 9.34239 20.587 10.0299 20.5951Z" fill="#333333"/>
</svg>
