<svg width="32" height="32" viewBox="0 0 32 32" fill="none" xmlns="http://www.w3.org/2000/svg">
<path d="M27.709 0C29.95 0.000135801 31.941 1.94608 32 4.18457V27.7148C31.9742 28.8444 31.5134 29.9205 30.7139 30.7188C29.9142 31.517 28.8367 31.9761 27.707 32H4.1875C3.07509 31.9483 2.0235 31.4761 1.24609 30.6787C0.46878 29.8814 0.023535 28.8184 0 27.7051V4.19531C0.0537475 1.99167 1.97607 0.0626732 4.17969 0H27.709ZM11.8887 19.2285C11.6839 19.6681 11.4817 20.1088 11.2822 20.5508H11.2832L11.4346 20.5908C11.5543 20.6196 11.6756 20.6365 11.7969 20.6523C12.0753 20.6886 12.3566 20.6989 12.6396 20.6953C12.9838 20.691 13.3296 20.6731 13.6729 20.6738C13.787 20.6741 13.9013 20.6765 14.0146 20.6826V20.6816L14.0176 20.6826C14.2851 20.1039 14.5515 19.5239 14.8115 18.9414C14.6979 18.937 14.5838 18.9348 14.4697 18.9346H14.4668C14.1253 18.9338 13.7822 18.9466 13.4404 18.9463C13.163 18.946 12.8867 18.9344 12.6123 18.9014C12.4859 18.8863 12.3597 18.8684 12.2344 18.8418C12.1849 18.8313 12.1352 18.8203 12.0859 18.8076H12.083C12.0179 18.9477 11.9535 19.0882 11.8887 19.2285ZM22.375 11.3232V11.3779L22.3643 11.9746H21.2275V11.9854H21.2168V13.7266C21.6002 13.7228 21.984 13.7272 22.3662 13.7334C22.377 14.2365 22.3768 14.7369 22.3662 15.2334C21.7947 15.2443 21.2219 15.2335 20.6504 15.2422C20.6504 15.245 20.6495 15.2481 20.6494 15.251C20.6462 15.251 20.6429 15.252 20.6396 15.252V16.9902H22.3701V20.6885H24.1006V20.6787H24.1113V16.9912C24.9499 16.9911 25.7884 16.9797 26.627 16.9922C26.9216 16.9677 27.2603 17.1753 27.252 17.501C27.2751 17.962 27.275 18.4247 27.252 18.8857C27.2562 18.9583 27.2315 19.0306 27.1846 19.0859C27.1353 19.138 27.0688 19.1705 26.9971 19.1748C26.516 19.2098 26.0331 19.1752 25.5508 19.1914C25.552 19.1943 25.5534 19.1973 25.5547 19.2002C25.5501 19.2003 25.5456 19.201 25.541 19.2012C25.7534 19.7022 25.96 20.2067 26.2012 20.6953C26.9447 20.6522 27.8425 20.8233 28.4502 20.3076C28.4948 20.2702 28.5387 20.2296 28.5801 20.1846C29.1547 19.6521 28.9822 18.8101 29.0059 18.1152C28.9696 17.3842 29.1487 16.5579 28.6953 15.918C28.3091 15.3756 27.6128 15.2271 26.9854 15.2158C26.9479 14.341 27.1561 13.3176 26.5127 12.6064C25.9127 11.9339 24.9462 11.9314 24.1162 11.9639V11.3135C23.5287 11.3197 22.9512 11.3207 22.375 11.3232ZM6.27148 11.4297C6.26829 11.9185 6.26822 12.4076 6.2666 12.8965C6.2616 14.1393 6.25708 15.3825 6.25586 16.626C6.25469 17.3785 6.25476 18.1312 6.25098 18.8838C6.26072 18.9234 6.26095 18.9651 6.25195 19.0049C6.24292 19.0444 6.22494 19.0819 6.19922 19.1133C6.17343 19.1447 6.14059 19.1699 6.10352 19.1865C6.06645 19.2031 6.0259 19.2107 5.98535 19.209C5.6866 19.2265 5.38594 19.2162 5.08594 19.2188C5.21037 19.5279 5.34276 19.8297 5.47754 20.1299C5.5607 20.3159 5.64461 20.5019 5.73047 20.6865C6.29775 20.6654 6.94158 20.7898 7.42383 20.415C7.86185 20.0925 7.996 19.5178 7.9873 19.002C7.98606 16.4785 7.99183 13.9531 7.97559 11.4297L7.97461 11.4287C7.40732 11.4262 6.83878 11.4247 6.27148 11.4297ZM16.1973 11.9766V13.7158H16.2021C16.2022 13.7174 16.2021 13.7192 16.2021 13.7207H17.2842V18.9336C16.7655 18.9423 16.2452 18.9342 15.7266 18.9404C15.4579 19.5179 15.1948 20.0978 14.9336 20.6777C14.9358 20.6777 14.9382 20.6777 14.9404 20.6777C14.9397 20.6793 14.9392 20.681 14.9385 20.6826H20.7432V18.9453C20.7417 18.9453 20.7398 18.9444 20.7383 18.9443V18.9404C20.1837 18.9404 19.6278 18.9398 19.0732 18.9336V13.7178H20.1631V11.9766H20.1592V11.9717C18.8417 11.9742 17.5198 11.9716 16.1973 11.9766ZM9.13867 13.7148C9.2224 14.7721 9.29256 15.8365 9.38379 16.8926C9.47508 17.9486 9.74815 19.029 10.3955 19.8926C10.3971 19.8892 10.3978 19.8853 10.3994 19.8818C10.4006 19.8835 10.4021 19.8851 10.4033 19.8867C10.712 19.2256 11.0074 18.5578 11.2998 17.8867C11.2168 17.673 11.1635 17.4491 11.1367 17.2217C11.1334 17.1891 11.1291 17.1567 11.127 17.124C11.0445 15.988 10.9547 14.8509 10.8672 13.7148H9.13867ZM4.66699 13.7119C4.23453 13.7169 3.80406 13.7111 3.375 13.7148C3.37231 13.7499 3.36988 13.7852 3.36719 13.8203C3.28578 14.8393 3.20744 15.8623 3.13574 16.875C3.12943 16.9613 3.12245 17.0475 3.11621 17.1338C3.10927 17.2277 3.09553 17.3206 3.0791 17.4131C3.0503 17.5741 3.00991 17.7332 2.95312 17.8867C2.95256 17.8883 2.95174 17.8901 2.95117 17.8916C3.24363 18.5603 3.53617 19.2292 3.84863 19.8916C4.50846 19.0091 4.77485 17.9094 4.86426 16.8262C4.8698 16.7593 4.87761 16.6927 4.88184 16.626C4.92686 15.9095 4.99671 15.1933 5.04492 14.4766C5.05126 14.3822 5.0551 14.2877 5.06055 14.1934C5.07003 14.0293 5.08103 13.8653 5.08691 13.7012C4.94712 13.7067 4.80685 13.7096 4.66699 13.7119ZM13.2812 11.3174C13.2394 11.4136 13.1963 11.5094 13.1543 11.6055C12.7692 12.4803 12.3781 13.3539 11.9795 14.2246C11.8558 14.5133 11.7035 14.896 11.9658 15.1572C12.3019 15.4616 12.7958 15.3447 13.208 15.3721C12.9218 16.0944 12.5459 16.7817 12.3047 17.5215C12.1713 17.8864 12.5052 18.2607 12.8701 18.2607C13.5309 18.3056 14.1954 18.2671 14.8574 18.2783V18.2754C14.8594 18.2754 14.8613 18.2763 14.8633 18.2764C15.0795 17.7928 15.2973 17.3103 15.5098 16.8242C15.1236 16.8242 14.7334 16.8516 14.3535 16.7754C14.7648 15.7429 15.2522 14.7436 15.6885 13.7236C15.1548 13.6612 14.5509 13.8354 14.0635 13.6279C14.3009 12.828 14.7341 12.0941 15.0391 11.3154C14.4516 11.3129 13.8662 11.3086 13.2812 11.3174ZM24.0967 13.7217C24.4716 13.7752 24.9717 13.5687 25.2578 13.8711C25.3053 14.3273 25.2704 14.7861 25.2754 15.2461H24.1074C24.0999 14.738 24.0967 14.2298 24.0967 13.7217ZM28.9072 12.4482C28.7125 12.0268 28.1539 11.8366 27.7451 12.0518C27.7006 12.0751 27.6575 12.1024 27.6172 12.1357C27.3833 12.3111 27.3003 12.5593 27.2734 12.8281C27.2443 13.1166 27.2796 13.4284 27.2686 13.7002C27.5878 13.7002 27.9083 13.7156 28.2275 13.6885C28.2323 13.6881 28.2375 13.6889 28.2422 13.6885C28.2471 13.688 28.2519 13.6861 28.2568 13.6855C28.7367 13.6311 29.1025 13.1032 28.9766 12.6377C28.9681 12.6064 28.9573 12.5754 28.9443 12.5449C28.9341 12.5117 28.9216 12.4791 28.9072 12.4482Z" fill="#333333"/>
</svg>
